<svg id="Layer_1" data-name="Layer 1" xmlns="http://www.w3.org/2000/svg" viewBox="0 0 95.07 100.02"><title>1_02</title><path id="Intersection_1" data-name="Intersection 1" d="M67.61,100l-.42-.31c-1.23-.9-1.39-1.07-1.33-1.43s.45-.29,1.77.7a8.3,8.3,0,0,1,1.2,1l-1.2,0Zm-5.39-.54c-.55-.44-.47-.48-.3-.71s.47-.21,1.55.59l.57.42c-.61-.07-1.22-.18-1.82-.3ZM69.78,98c0-.3,0-.49.29-.52a9.61,9.61,0,0,1,2.77,2l-.94.16A11.44,11.44,0,0,1,69.78,98Zm5.36.62c-1.34-1-1.42-1.1-1.44-1.24a.54.54,0,0,1,.4-.47,7.82,7.82,0,0,1,1.41.93c.41.3.71.54.92.72-.32.11-.63.21-1,.3l-.35-.24ZM58.67,97c-1.35-1-1.52-1.27-1.12-1.53s.45-.09,1.86,1c1,.74,1.12.92,1,1.29,0,.12-.08.18-.17.19h0c-.24,0-.7-.29-1.57-.94Zm19.06-.44c.24-.3.47-.21,1.55.59l.23.17-.89.4c-1.17-.89-1.11-.88-.89-1.16ZM61.28,95.23c0-.25.35-.48.62-.37a20.54,20.54,0,0,1,2.58,2,1.18,1.18,0,0,1-.08.31.44.44,0,0,1-.26.24h0a13.3,13.3,0,0,1-2.85-2.16ZM54.94,96.9l-1.46-.77a.49.49,0,0,1,.19-.16c.2-.11.36,0,1.52.85l.74.56q-.49-.22-1-.48Zm11.51-1.15c-.9-.68-1.12-.89-1.13-1.1s.07-.28.29-.33.44,0,1.54.88a7,7,0,0,1,1.26,1.11.54.54,0,0,1-.08.33.53.53,0,0,1-.23.19H68c-.13,0-.28-.12-1.59-1.08Zm4.12-.41c-1-.78-1.31-1-1.32-1.23a.43.43,0,0,1,.23-.36c.2-.11.37,0,1.53.85s1.47,1.17,1.24,1.5a.44.44,0,0,1-.24.18h0a9.13,9.13,0,0,1-1.44-.94Zm11.11.71c0-.22.15-.29.44-.17l-.46.28s0-.07,0-.11Zm-7.2-1.28c-1.35-1-1.53-1.27-1.12-1.53s.45-.1,1.86,1c1,.73,1.12.92,1,1.29,0,.11-.07.18-.16.19h0c-.23,0-.69-.29-1.56-.94Zm-23.39.12c-.24-.17-.53-.37-.83-.6-1.08-.8-1.29-1-1.29-1.23s.05-.29.26-.34.46.08,1.53.89a6.63,6.63,0,0,1,1.3,1.12A.49.49,0,0,1,52,95a.42.42,0,0,1-.23.18Zm26-1.88c0-.25.36-.48.63-.37a20.54,20.54,0,0,1,2.58,2,1.18,1.18,0,0,1-.08.31.46.46,0,0,1-.27.24h0A13.63,13.63,0,0,1,77.09,93Zm-23.21.49c-.78-.59-1-.79-1-1s.05-.29.28-.34.45,0,1.53.87A7.25,7.25,0,0,1,56,94.17a.62.62,0,0,1-.09.32c-.07.1-.12.16-.2.17h0c-.23,0-.65-.3-1.8-1.16Zm28.39,0c-.9-.68-1.12-.89-1.13-1.1s.07-.28.28-.33.45,0,1.54.87a7.13,7.13,0,0,1,1.27,1.12.5.5,0,0,1-.09.33.43.43,0,0,1-.23.19h-.05c-.13,0-.28-.12-1.59-1.08Zm-24.12-.35c-1.32-1-1.57-1.32-1.17-1.51s.54-.06,1.75.87,1.26,1,1.17,1.38a.2.2,0,0,1-.16.19h0c-.23,0-.68-.29-1.55-.93Zm2.6-1.74c0-.22.12-.37.44-.41a13.68,13.68,0,0,1,2.6,1.86.29.29,0,0,1,.07.42h0a.44.44,0,0,1-.29.26h0a10.81,10.81,0,0,1-2.81-2.13Zm5.33.63c-1.07-.8-1.29-1-1.29-1.23s0-.29.26-.34.47.08,1.53.89a6.63,6.63,0,0,1,1.3,1.12.58.58,0,0,1-.08.31.52.52,0,0,1-.27.19h0a7.59,7.59,0,0,1-1.44-.94Zm19-.18a.41.41,0,0,1,.23-.36c.2-.11.36,0,1.44.78l-.63.59c-.81-.61-1-.83-1-1Zm-15.38-.61c-.78-.59-1-.79-1-1S68.76,90,69,90s.45,0,1.53.87A6.87,6.87,0,0,1,71.8,92a.62.62,0,0,1-.09.32c-.06.1-.12.16-.2.17h0c-.22,0-.65-.3-1.79-1.16ZM45.7,91a9.18,9.18,0,0,1-1.3-1.11.52.52,0,0,1,.4-.48,14,14,0,0,1,2.56,1.82c.2.2.23.3.16.47s-.12.23-.23.24h0c-.24,0-.68-.28-1.54-.94ZM74,91c-1.32-1-1.57-1.31-1.17-1.5s.54-.06,1.75.87,1.26,1,1.18,1.37c0,.12-.08.18-.17.19h0c-.23,0-.69-.28-1.56-.93Zm-24.18-.4c-1.23-.9-1.39-1.08-1.32-1.43s.44-.29,1.76.7,1.55,1.3,1.23,1.47a.5.5,0,0,1-.2.08h-.06c-.25,0-.6-.21-1.41-.81Zm26.78-1.34c0-.22.12-.36.45-.41a14.84,14.84,0,0,1,2.6,1.86.31.31,0,0,1,.07.42h0a.43.43,0,0,1-.29.25h0a11,11,0,0,1-2.81-2.13Zm-24.19-.38c0-.29.07-.48.3-.51a8.52,8.52,0,0,1,2.8,2.11c0,.13,0,.28-.09.31a.94.94,0,0,1-.28.1h0a13,13,0,0,1-2.72-2Zm29.53,1c-1.08-.8-1.29-1-1.29-1.24s.05-.28.26-.33.46.08,1.53.88a6.68,6.68,0,0,1,1.3,1.13.51.51,0,0,1-.09.31.46.46,0,0,1-.26.19h0A7.66,7.66,0,0,1,81.89,89.85Zm-24.17-.39c-1.33-1-1.42-1.1-1.43-1.24a.54.54,0,0,1,.4-.47,8.21,8.21,0,0,1,1.42.92c.92.69,1.26,1,1.29,1.19a.58.58,0,0,1,0,.32.27.27,0,0,1-.18.11h0C58.9,90.3,58.49,90,57.72,89.46Zm27.78-.4c-.78-.59-1-.79-1-1s0-.28.28-.33.45,0,1.53.87a6.87,6.87,0,0,1,1.28,1.13.62.62,0,0,1-.09.32c-.06.1-.12.16-.2.17h0c-.23,0-.65-.3-1.8-1.16Zm-24-.27a8.66,8.66,0,0,1-1.3-1.11.53.53,0,0,1,.4-.48A13.91,13.91,0,0,1,63.19,89c.19.2.22.3.16.47s-.13.22-.24.24h0C62.82,89.73,62.38,89.45,61.52,88.79Zm4.07-.46c-1.23-.9-1.39-1.08-1.33-1.44s.45-.28,1.77.71,1.55,1.3,1.23,1.47a.5.5,0,0,1-.2.08H67c-.26,0-.6-.21-1.42-.82Zm24.18.4c-1.32-1-1.57-1.32-1.17-1.51s.54,0,1.74.87c-.16.24-.33.47-.5.7Zm-48.49-.9a7.75,7.75,0,0,1-1.34-1.15.53.53,0,0,1,.38-.53A13.08,13.08,0,0,1,43,88.23a1.45,1.45,0,0,1,0,.36c0,.11-.07.17-.16.18h0c-.23,0-.68-.29-1.55-1Zm26.9-1.22c-.05-.29.06-.48.3-.51a8.88,8.88,0,0,1,2.8,2.11c0,.13,0,.28-.09.31a1,1,0,0,1-.29.1h0a12.52,12.52,0,0,1-2.72-2ZM36,87a.4.4,0,0,1,.31-.29A13.17,13.17,0,0,1,38.7,88.4Zm7.83-.9a.53.53,0,0,1,.4-.5,15.31,15.31,0,0,1,2.81,2.07A1.25,1.25,0,0,1,47,88a.46.46,0,0,1-.27.24h0a14.17,14.17,0,0,1-2.85-2.14Zm29.67,1.14c-1.33-1-1.41-1.1-1.43-1.24a.54.54,0,0,1,.4-.47,7.23,7.23,0,0,1,1.42.93c.92.68,1.26,1,1.29,1.18a.58.58,0,0,1,0,.32.25.25,0,0,1-.18.11h0c-.24,0-.66-.25-1.43-.83Zm-23.17.32a12.57,12.57,0,0,1-2.46-2,.43.43,0,0,1,.32-.51A13.32,13.32,0,0,1,51,87.15a.67.67,0,0,1-.09.34.34.34,0,0,1-.24.18h0a.45.45,0,0,1-.27-.12Zm27-1A9.18,9.18,0,0,1,76,85.46a.51.51,0,0,1,.4-.48A13.47,13.47,0,0,1,79,86.79c.2.2.23.3.16.48s-.12.22-.23.23h0C78.64,87.51,78.2,87.22,77.33,86.57ZM51.82,85a.43.43,0,0,1,.33-.5,12.89,12.89,0,0,1,2.77,2.1.57.57,0,0,1-.08.34.45.45,0,0,1-.24.19h0A12.18,12.18,0,0,1,51.82,85Zm29.57,1.12C80.17,85.2,80,85,80.07,84.67s.45-.29,1.77.71,1.54,1.29,1.23,1.47a.7.7,0,0,1-.2.08h-.06c-.25,0-.6-.22-1.41-.82ZM57.08,85.6a6.91,6.91,0,0,1-1.33-1.15.52.52,0,0,1,.38-.52A13.08,13.08,0,0,1,58.85,86a1.35,1.35,0,0,1,0,.35c0,.11-.07.18-.16.19h0c-.23,0-.69-.29-1.55-1ZM84,84.39c0-.29.07-.48.3-.52A8.69,8.69,0,0,1,87.08,86c0,.13,0,.28-.09.31a.85.85,0,0,1-.28.1h0a13.05,13.05,0,0,1-2.71-2ZM34.25,86.06l-.32-.17c-.25-.16-.63-.43-1.21-.87-.95-.71-1.16-.91-1.16-1.12s.05-.29.26-.33.47.07,1.54.88a7.69,7.69,0,0,1,1.3,1.12.56.56,0,0,1-.09.31c-.07.11-.12.18-.21.19h-.11Zm25.43-2.19a.52.52,0,0,1,.39-.5,15.78,15.78,0,0,1,2.81,2.07,1.16,1.16,0,0,1-.08.32.47.47,0,0,1-.26.24h0A14.51,14.51,0,0,1,59.68,83.87ZM89.35,85c-1.34-1-1.42-1.1-1.44-1.24a.54.54,0,0,1,.4-.47,7.05,7.05,0,0,1,1.42.92c.92.69,1.27,1,1.29,1.19a.44.44,0,0,1,0,.32.25.25,0,0,1-.17.11h0c-.25,0-.67-.24-1.43-.83Zm-52.89-.67c-.78-.59-1-.79-1-1s0-.28.28-.33.45,0,1.54.87A7.07,7.07,0,0,1,38.58,85a.67.67,0,0,1-.09.34c-.06.1-.12.16-.2.17h0c-.23,0-.65-.3-1.8-1.16Zm29.71,1a12.87,12.87,0,0,1-2.46-2,.43.43,0,0,1,.33-.51,13.53,13.53,0,0,1,2.77,2.11.56.56,0,0,1-.09.35.37.37,0,0,1-.24.18h0a.47.47,0,0,1-.28-.12ZM40.73,84c-1.32-1-1.57-1.32-1.17-1.52s.54,0,1.75.88,1.26,1,1.18,1.37c0,.12-.08.18-.17.19h0c-.23,0-.69-.27-1.55-.92Zm26.91-1.25a.42.42,0,0,1,.33-.5,13.14,13.14,0,0,1,2.77,2.1.52.52,0,0,1-.09.34.41.41,0,0,1-.24.19h0a12.18,12.18,0,0,1-2.77-2.13Zm-24.31-.5c0-.22.12-.37.44-.41a13.68,13.68,0,0,1,2.6,1.86c.15.17.16.24.07.42a.44.44,0,0,1-.29.26h0a10.83,10.83,0,0,1-2.81-2.12Zm29.57,1.1a7,7,0,0,1-1.33-1.15.53.53,0,0,1,.38-.53,13.42,13.42,0,0,1,2.71,2.09,1.38,1.38,0,0,1,0,.35c0,.11-.08.17-.17.18h0c-.23,0-.69-.27-1.55-.93Zm18.94-.15a.52.52,0,0,1,.4-.47,2.83,2.83,0,0,1,.77.44c-.11.26-.23.52-.34.77a5.17,5.17,0,0,1-.83-.72Zm-43.31-.43c-.94-.71-1.16-.91-1.16-1.12s.06-.29.26-.34.47.08,1.54.89a7.27,7.27,0,0,1,1.3,1.12.56.56,0,0,1-.09.31c-.07.11-.12.18-.2.19h0c-.2,0-.57-.26-1.62-1Zm27-1.14a.54.54,0,0,1,.39-.5,15.43,15.43,0,0,1,2.81,2.07.89.89,0,0,1-.08.32.44.44,0,0,1-.26.24h0A14.81,14.81,0,0,1,75.49,81.65Zm-23.22.47c-.78-.59-1-.79-1-1s.06-.29.28-.34.45,0,1.54.87a7.13,7.13,0,0,1,1.27,1.12.57.57,0,0,1-.09.33c-.06.1-.11.16-.2.17h0C53.85,83.28,53.42,83,52.27,82.12Zm29.71,1a12.8,12.8,0,0,1-2.46-2,.43.43,0,0,1,.33-.5,12.89,12.89,0,0,1,2.77,2.1.57.57,0,0,1-.08.34.36.36,0,0,1-.24.18h0A.57.57,0,0,1,82,83.11ZM28.3,81.85A9.27,9.27,0,0,1,27,80.74a.53.53,0,0,1,.4-.48A14.4,14.4,0,0,1,30,82.08c.19.2.22.3.15.47s-.12.23-.23.24h0C29.6,82.79,29.16,82.51,28.3,81.85Zm28.24,0c-1.32-1-1.57-1.32-1.17-1.52s.54,0,1.75.88,1.26,1,1.18,1.38c0,.11-.08.17-.17.18h0c-.24,0-.69-.28-1.56-.92Zm26.91-1.25a.43.43,0,0,1,.33-.51,13.53,13.53,0,0,1,2.77,2.11.57.57,0,0,1-.08.34.5.5,0,0,1-.24.19h0a12.47,12.47,0,0,1-2.77-2.13Zm-51.09.84C31.13,80.49,31,80.31,31,80s.43-.29,1.76.7S34.36,82,34,82.14a.59.59,0,0,1-.2.07h-.06c-.25,0-.6-.21-1.41-.82Zm26.78-1.33q0-.34.45-.42a14.39,14.39,0,0,1,2.6,1.87.31.31,0,0,1,.07.42.44.44,0,0,1-.3.25h0A11,11,0,0,1,59.14,80.06Zm29.57,1.09A7.23,7.23,0,0,1,87.38,80a.53.53,0,0,1,.38-.53,13,13,0,0,1,2.71,2.08,1,1,0,0,1,0,.35c0,.11-.07.18-.16.19h0c-.23,0-.68-.28-1.55-.94ZM35,79.67c0-.29.07-.48.3-.51a8.66,8.66,0,0,1,2.8,2.11c0,.13,0,.28-.09.31a.67.67,0,0,1-.28.1h0A13.38,13.38,0,0,1,35,79.67Zm29.39.9c-.94-.71-1.15-.9-1.15-1.12s.05-.28.26-.33.46.08,1.53.88a7.32,7.32,0,0,1,1.3,1.12.56.56,0,0,1-.09.31c-.07.11-.12.18-.2.2h0c-.19,0-.56-.27-1.62-1Zm27-1.15a.54.54,0,0,1,.4-.5A15.5,15.5,0,0,1,94,80.5c-.08.27-.16.55-.25.82a15.21,15.21,0,0,1-2.41-1.89Zm-50.81,1c-1.22-.91-1.6-1.24-1.62-1.38a.54.54,0,0,1,.41-.46,7,7,0,0,1,1.41.92c.92.69,1.26,1,1.29,1.19A.58.58,0,0,1,42,81a.25.25,0,0,1-.18.11h0C41.5,81.14,41.12,80.92,40.49,80.43Zm27.6-.53c-.79-.59-1-.79-1-1s.06-.28.29-.33.44,0,1.54.87a7,7,0,0,1,1.26,1.11.54.54,0,0,1-.08.33c-.07.1-.12.16-.2.18h0C69.66,81.06,69.24,80.76,68.09,79.9Zm-24-.27a9.27,9.27,0,0,1-1.31-1.11.54.54,0,0,1,.41-.48,14,14,0,0,1,2.56,1.82c.19.2.23.3.16.47s-.12.22-.23.24h0C45.41,80.57,45,80.28,44.11,79.63Zm28.24-.06c-1.32-1-1.57-1.32-1.16-1.51s.53,0,1.74.88,1.26,1,1.18,1.37c0,.11-.07.18-.17.19h0c-.23,0-.69-.28-1.55-.93Zm-24.18-.4c-1.23-.9-1.38-1.08-1.32-1.43s.43-.29,1.76.7,1.56,1.3,1.24,1.48a.7.7,0,0,1-.2.08h-.06c-.26,0-.61-.22-1.42-.83ZM75,77.84c0-.23.13-.37.45-.42A14.05,14.05,0,0,1,78,79.29a.3.3,0,0,1,.07.42.43.43,0,0,1-.29.25h0A10.65,10.65,0,0,1,75,77.83Zm-51.09.82a7,7,0,0,1-1.33-1.16.52.52,0,0,1,.38-.51,12.77,12.77,0,0,1,2.71,2.08,1.36,1.36,0,0,1,0,.35c0,.11-.08.17-.16.19h0c-.22,0-.67-.29-1.55-1Zm26.9-1.21c0-.29.07-.48.3-.51a8.81,8.81,0,0,1,2.8,2.11c0,.13,0,.28-.09.31a.73.73,0,0,1-.28.1h0a13.38,13.38,0,0,1-2.72-2Zm29.39.9c-.94-.71-1.15-.9-1.15-1.12s0-.28.26-.33.46.08,1.53.88a7.32,7.32,0,0,1,1.3,1.12.56.56,0,0,1-.09.31c-.07.11-.12.18-.2.2h0c-.19,0-.56-.27-1.62-1.06ZM18.6,77.87a.4.4,0,0,1,.33-.32,13.87,13.87,0,0,1,2.47,1.79Zm7.85-.94a.56.56,0,0,1,.39-.5,15.84,15.84,0,0,1,2.81,2.08,1.16,1.16,0,0,1-.08.32.44.44,0,0,1-.26.24h0a14.46,14.46,0,0,1-2.85-2.14ZM56.3,78.21c-1.22-.91-1.6-1.24-1.62-1.38a.54.54,0,0,1,.41-.46,7.27,7.27,0,0,1,1.41.92c.92.69,1.26,1,1.29,1.19a.58.58,0,0,1,0,.32.27.27,0,0,1-.18.11h0c-.23,0-.6-.22-1.24-.7Zm27.59-.54c-.78-.58-1-.78-1-1s0-.28.28-.34.45,0,1.54.88A7.07,7.07,0,0,1,86,78.33a.49.49,0,0,1-.09.33c-.06.1-.11.16-.2.18h0c-.22,0-.64-.31-1.79-1.17Zm-53.4-1.24c0-.31.05-.51.26-.54A11,11,0,0,1,33.59,78a.67.67,0,0,1-.09.34.43.43,0,0,1-.24.18h0A14.14,14.14,0,0,1,30.49,76.43Zm29.43,1a8.71,8.71,0,0,1-1.31-1.12.52.52,0,0,1,.41-.47,13.86,13.86,0,0,1,2.57,1.81c.19.2.22.3.15.48s-.12.22-.23.24h0c-.25,0-.69-.28-1.55-.94Zm28.25-.06c-1.32-1-1.57-1.32-1.17-1.51s.54,0,1.75.87,1.26,1,1.18,1.38c0,.11-.08.18-.17.19h0c-.23,0-.69-.28-1.55-.93ZM34.41,75.84a.44.44,0,0,1,.33-.51,12.89,12.89,0,0,1,2.77,2.1.57.57,0,0,1-.08.34.45.45,0,0,1-.24.19h0A12.43,12.43,0,0,1,34.41,75.84ZM64,77c-1.22-.91-1.38-1.08-1.32-1.44s.43-.29,1.76.7,1.56,1.3,1.24,1.48a.5.5,0,0,1-.2.08H65.4c-.26,0-.6-.21-1.42-.82Zm26.79-1.34c0-.22.12-.37.44-.41a13.68,13.68,0,0,1,2.6,1.86c.15.17.16.24.07.42a.44.44,0,0,1-.29.26h0a10.65,10.65,0,0,1-2.81-2.13Zm-51.1.82a7.69,7.69,0,0,1-1.33-1.15.52.52,0,0,1,.38-.51,12.83,12.83,0,0,1,2.72,2.08,1.36,1.36,0,0,1,0,.35c0,.11-.08.17-.17.18h0c-.23,0-.68-.28-1.56-.95Zm26.91-1.2c0-.29.06-.48.3-.52a8.8,8.8,0,0,1,2.8,2.12c0,.13,0,.28-.09.31a1,1,0,0,1-.29.1h0A13.77,13.77,0,0,1,66.58,75.23Zm-51.28.64c-.94-.71-1.15-.91-1.15-1.13s0-.28.26-.33.46.08,1.54.88a8.1,8.1,0,0,1,1.29,1.12.62.62,0,0,1-.09.32c-.07.1-.12.18-.2.19h0C16.73,76.92,16.36,76.64,15.3,75.87Zm27-1.15a.51.51,0,0,1,.39-.5,15.78,15.78,0,0,1,2.81,2.07,1.16,1.16,0,0,1-.08.32.46.46,0,0,1-.27.24h0a14.17,14.17,0,0,1-2.85-2.14ZM72.12,76c-1.22-.92-1.6-1.24-1.62-1.38a.54.54,0,0,1,.41-.46,6.84,6.84,0,0,1,1.41.92c.92.68,1.26,1,1.29,1.18a.58.58,0,0,1,0,.32.25.25,0,0,1-.18.11h0C73.12,76.69,72.75,76.47,72.12,76Zm-53.07-.81c-.78-.59-1-.79-1-1s.05-.29.28-.34.45,0,1.54.87a7.13,7.13,0,0,1,1.27,1.12.57.57,0,0,1-.09.33c-.06.1-.12.16-.2.17h0c-.23,0-.65-.3-1.8-1.16Zm27.26-1c-.05-.32,0-.51.26-.54a10.8,10.8,0,0,1,2.83,2.1.61.61,0,0,1-.08.34.48.48,0,0,1-.24.18h0a14.51,14.51,0,0,1-2.78-2.08Zm29.43,1a8.72,8.72,0,0,1-1.32-1.11.52.52,0,0,1,.4-.47,13.54,13.54,0,0,1,2.57,1.81c.19.2.23.3.16.47s-.12.23-.23.24h0c-.24,0-.68-.28-1.55-.94Zm-52.42-.32c-1.32-1-1.57-1.32-1.17-1.51s.54-.06,1.75.87,1.26,1,1.18,1.38a.23.23,0,0,1-.17.19h0c-.24,0-.7-.29-1.56-.93Zm26.9-1.25a.45.45,0,0,1,.33-.51,13.26,13.26,0,0,1,2.77,2.11.57.57,0,0,1-.08.34.45.45,0,0,1-.24.19h0A12.18,12.18,0,0,1,50.22,73.61Zm29.57,1.12c-1.22-.91-1.38-1.08-1.32-1.44s.43-.29,1.76.7,1.56,1.3,1.24,1.48a.7.7,0,0,1-.2.08h-.06c-.25,0-.6-.22-1.41-.82Zm15,.28c0-.18,0-.27.19-.32,0,.2,0,.41,0,.61a.44.44,0,0,1-.14-.29ZM25.91,73.1c0-.2.13-.35.45-.4A13.18,13.18,0,0,1,29,74.58.35.35,0,0,1,29,75a.45.45,0,0,1-.29.25h0a11.4,11.4,0,0,1-2.82-2.15Zm29.57,1.11a7,7,0,0,1-1.33-1.16.5.5,0,0,1,.38-.5,12.45,12.45,0,0,1,2.71,2.08,1,1,0,0,1,0,.35c0,.11-.07.17-.16.18h0c-.23,0-.68-.28-1.56-1ZM82.39,73c0-.29.06-.48.3-.51a8.63,8.63,0,0,1,2.8,2.11c0,.13,0,.28-.09.31a1,1,0,0,1-.29.1h0a13.77,13.77,0,0,1-2.72-2Zm-51.28.63c-.94-.71-1.15-.9-1.15-1.12s.05-.28.26-.33.46.08,1.54.88a8.58,8.58,0,0,1,1.29,1.11.57.57,0,0,1-.09.32c-.07.11-.12.18-.2.2h0c-.19,0-.56-.28-1.62-1.06Zm27-1.15a.55.55,0,0,1,.4-.5,15.84,15.84,0,0,1,2.81,2.08,1.25,1.25,0,0,1-.08.32.44.44,0,0,1-.26.24h0a14.46,14.46,0,0,1-2.85-2.14Zm29.86,1.28c-1.22-.92-1.6-1.25-1.62-1.39a.54.54,0,0,1,.41-.46,6.88,6.88,0,0,1,1.41.93c.92.68,1.26,1,1.29,1.18a.58.58,0,0,1,0,.32.25.25,0,0,1-.18.11h0C88.94,74.47,88.56,74.25,87.93,73.77ZM34.86,73c-.78-.59-1-.79-1-1s0-.29.28-.34.45,0,1.54.87A7.13,7.13,0,0,1,37,73.62a.66.66,0,0,1-.09.33c-.06.1-.12.16-.2.17h0C36.43,74.12,36,73.82,34.86,73Zm27.26-1c0-.31.05-.51.26-.54a11.26,11.26,0,0,1,2.83,2.1.57.57,0,0,1-.08.34.45.45,0,0,1-.24.19h0A13.8,13.8,0,0,1,62.12,72Zm29.43,1a9.27,9.27,0,0,1-1.31-1.11.54.54,0,0,1,.41-.48,14,14,0,0,1,2.56,1.82c.19.2.23.3.16.47s-.12.22-.23.24h0c-.25,0-.69-.28-1.55-.93Zm-80.67-.27a9.18,9.18,0,0,1-1.3-1.11.53.53,0,0,1,.4-.48,13.72,13.72,0,0,1,2.57,1.82c.19.2.23.3.16.47s-.12.22-.23.24h0c-.25,0-.7-.28-1.56-.94Zm28.25-.06c-1.32-1-1.57-1.31-1.17-1.5s.54-.06,1.75.87,1.26,1,1.18,1.37c0,.12-.08.18-.17.19h0c-.24,0-.69-.28-1.56-.92ZM66,71.39a.43.43,0,0,1,.33-.51A13.53,13.53,0,0,1,69.14,73a.57.57,0,0,1-.08.34.47.47,0,0,1-.25.19h0A12.47,12.47,0,0,1,66,71.39ZM15,72.23c-1.23-.9-1.39-1.08-1.32-1.43s.45-.3,1.77.68S17,72.79,16.63,73a.56.56,0,0,1-.2.08h-.06c-.26,0-.61-.21-1.42-.82Zm26.78-1.36c0-.2.13-.35.45-.39a12.84,12.84,0,0,1,2.62,1.89.33.33,0,0,1,.05.41.48.48,0,0,1-.29.25h0a11.4,11.4,0,0,1-2.82-2.15ZM71.3,72A7,7,0,0,1,70,70.83a.51.51,0,0,1,.38-.51,12.77,12.77,0,0,1,2.71,2.08,1.09,1.09,0,0,1,0,.36.2.2,0,0,1-.16.18h0c-.24,0-.69-.29-1.56-1ZM17.54,70.5c0-.28.06-.47.3-.5a8.81,8.81,0,0,1,2.8,2.11c0,.13,0,.28-.09.31a.63.63,0,0,1-.29.1h0A13.07,13.07,0,0,1,17.54,70.5Zm29.39.92c-.94-.71-1.16-.91-1.16-1.12S45.83,70,46,70s.46.08,1.54.88A8.49,8.49,0,0,1,48.86,72a.48.48,0,0,1-.09.32c-.07.1-.11.18-.2.19h0C48.36,72.47,48,72.2,46.93,71.42Zm27-1.15a.53.53,0,0,1,.4-.5,15.71,15.71,0,0,1,2.8,2.07.89.89,0,0,1-.08.32.41.41,0,0,1-.26.24h0A14.57,14.57,0,0,1,73.89,70.27Zm20.4.8c0-.29.23-.32.74,0v.35l0,.7c-.73-.57-.83-.73-.78-1Zm-71.2.21c-1.22-.92-1.6-1.25-1.63-1.39a.56.56,0,0,1,.4-.46,11.67,11.67,0,0,1,2.65,2,.59.59,0,0,1,0,.39.2.2,0,0,1-.18.19h0a3,3,0,0,1-1.26-.69Zm27.59-.54c-.78-.59-1-.79-1-1s0-.28.28-.34.45,0,1.54.88a7,7,0,0,1,1.26,1.11.54.54,0,0,1-.08.33c-.07.1-.12.16-.2.18h0c-.23,0-.66-.3-1.81-1.16Zm27.25-1c0-.32,0-.52.26-.55A11.26,11.26,0,0,1,81,71.32a.57.57,0,0,1-.08.34.45.45,0,0,1-.24.19h0A14.14,14.14,0,0,1,77.93,69.77Zm-51.23.7a8.71,8.71,0,0,1-1.31-1.12.52.52,0,0,1,.4-.47,13.86,13.86,0,0,1,2.57,1.81c.19.2.22.3.15.48s-.12.22-.23.23h0C28,71.41,27.56,71.13,26.7,70.47Zm28.24-.06c-1.32-1-1.57-1.32-1.17-1.51s.54-.06,1.75.87,1.26,1,1.18,1.38a.23.23,0,0,1-.17.19h0c-.24,0-.69-.28-1.56-.93Zm26.91-1.24a.43.43,0,0,1,.33-.51A12.61,12.61,0,0,1,85,70.77a.54.54,0,0,1-.08.33.45.45,0,0,1-.24.19h0A12.43,12.43,0,0,1,81.85,69.17ZM30.76,70c-1.23-.91-1.38-1.08-1.32-1.44s.45-.3,1.77.69,1.56,1.31,1.23,1.49a.7.7,0,0,1-.2.08h-.06c-.26,0-.61-.21-1.42-.82Zm26.78-1.36c0-.2.13-.35.45-.39a12.43,12.43,0,0,1,2.62,1.88.33.33,0,0,1,0,.41.43.43,0,0,1-.29.25h0a11.16,11.16,0,0,1-2.82-2.15Zm29.57,1.12a7.38,7.38,0,0,1-1.33-1.16.51.51,0,0,1,.38-.51,13.08,13.08,0,0,1,2.72,2.08,1.45,1.45,0,0,1,0,.36.2.2,0,0,1-.16.18h0C88.44,70.72,88,70.43,87.11,69.77ZM7.08,70c-.61-.67-1.17-1.36-1.7-2.07a.22.22,0,0,1,.11,0,7.51,7.51,0,0,1,1.43.94c1.26,1,1.47,1.22,1.22,1.54a.42.42,0,0,1-.23.16h0A4.45,4.45,0,0,1,7.08,70Zm26.27-1.67c0-.28.07-.47.3-.5a8.81,8.81,0,0,1,2.8,2.11c0,.13,0,.28-.09.31a.73.73,0,0,1-.28.1h0A13.07,13.07,0,0,1,33.35,68.28Zm29.39.91c-.94-.7-1.15-.9-1.15-1.12s0-.28.26-.33.46.08,1.54.88a8.58,8.58,0,0,1,1.29,1.11.57.57,0,0,1-.09.32c-.07.11-.12.19-.2.2h0c-.19,0-.56-.27-1.62-1.06ZM89.7,68a.55.55,0,0,1,.4-.5,15.41,15.41,0,0,1,2.8,2.08.94.94,0,0,1-.08.32.41.41,0,0,1-.26.24h0A14.23,14.23,0,0,1,89.7,68ZM9,67.78a.52.52,0,0,1,.38-.5A14.27,14.27,0,0,1,12,69.1c.22.22.24.3.16.52s-.18.27-.27.28h0A14.89,14.89,0,0,1,9,67.78Zm29.85,1.27c-1.22-.91-1.6-1.24-1.62-1.38a.56.56,0,0,1,.4-.46,11.31,11.31,0,0,1,2.65,2,.56.56,0,0,1,0,.38.22.22,0,0,1-.18.2h0a2.86,2.86,0,0,1-1.26-.7Zm27.6-.53c-.79-.59-1-.79-1-1s.06-.28.29-.34.44,0,1.54.88a7,7,0,0,1,1.26,1.11.49.49,0,0,1-.09.33c-.06.1-.11.16-.2.18h0c-.22,0-.64-.31-1.79-1.16ZM13.08,67.27c0-.32.05-.51.26-.55a11.26,11.26,0,0,1,2.83,2.1.57.57,0,0,1-.08.34.45.45,0,0,1-.24.19h0A14.14,14.14,0,0,1,13.08,67.27Zm29.43,1a8.65,8.65,0,0,1-1.31-1.11.55.55,0,0,1,.4-.48,14.05,14.05,0,0,1,2.57,1.82c.19.2.23.3.16.47s-.12.23-.23.24h0c-.25,0-.69-.28-1.55-.93Zm28.25,0c-1.33-1-1.58-1.32-1.17-1.51s.53-.06,1.74.87,1.27,1,1.18,1.38a.2.2,0,0,1-.16.19h0c-.23,0-.69-.28-1.55-.93ZM17,66.68a.43.43,0,0,1,.34-.51,12.92,12.92,0,0,1,2.76,2.12.5.5,0,0,1-.09.33.42.42,0,0,1-.23.18h0A12.43,12.43,0,0,1,17,66.68Zm29.57,1.11c-1.22-.91-1.38-1.08-1.32-1.44s.45-.3,1.77.69,1.56,1.31,1.23,1.49a.7.7,0,0,1-.2.08H48C47.73,68.61,47.38,68.39,46.57,67.79Zm26.78-1.36c0-.2.14-.35.45-.39a13.14,13.14,0,0,1,2.63,1.88.35.35,0,0,1,0,.41.41.41,0,0,1-.29.25h0A11.16,11.16,0,0,1,73.35,66.43Zm20.39,1.11c0-.31.05-.51.26-.54a2.85,2.85,0,0,1,.87.48l0,1.08A7.14,7.14,0,0,1,93.74,67.54ZM20.93,66.11a.52.52,0,0,1,.38-.5,7.6,7.6,0,0,1,1.42.94c1.27,1,1.47,1.23,1.23,1.55a.43.43,0,0,1-.24.15h0A16,16,0,0,1,20.93,66.11Zm28.23,0c0-.28.07-.47.3-.5a8.52,8.52,0,0,1,2.8,2.11c0,.13,0,.28-.09.31a.85.85,0,0,1-.28.1h0a14.12,14.12,0,0,1-2.72-2ZM78.55,67c-.94-.71-1.15-.9-1.15-1.12s0-.29.26-.33.46.07,1.54.88a8,8,0,0,1,1.29,1.11.59.59,0,0,1-.09.32c-.07.11-.12.18-.2.19h0c-.19,0-.56-.27-1.62-1Zm-53.7-1.42a.54.54,0,0,1,.39-.5,14.18,14.18,0,0,1,2.6,1.83c.21.22.23.3.15.52s-.18.27-.27.28h0a14.54,14.54,0,0,1-2.87-2.13ZM54.7,66.83c-1.21-.92-1.59-1.24-1.62-1.38a.55.55,0,0,1,.4-.46,11.1,11.1,0,0,1,2.65,2,.63.63,0,0,1,.06.38.23.23,0,0,1-.19.2h0a3,3,0,0,1-1.25-.7Zm27.6-.54c-.78-.59-1-.79-1-1s0-.29.28-.34.44,0,1.54.87A7.07,7.07,0,0,1,84.41,67a.56.56,0,0,1-.08.33c-.06.1-.12.16-.2.17h0c-.23,0-.65-.3-1.8-1.16ZM28.89,65.05c0-.32.05-.51.27-.54A11.14,11.14,0,0,1,32,66.61a.69.69,0,0,1-.09.34.4.4,0,0,1-.24.18h0A14.44,14.44,0,0,1,28.89,65.05Zm29.43,1A8.65,8.65,0,0,1,57,64.91a.53.53,0,0,1,.41-.47A13.86,13.86,0,0,1,60,66.25c.19.2.22.3.16.47S60,67,59.91,67h0c-.25,0-.69-.28-1.55-.94Zm28.25,0c-1.32-1-1.57-1.32-1.17-1.51s.54-.06,1.75.87,1.26,1,1.18,1.38a.23.23,0,0,1-.17.19h0c-.24,0-.7-.28-1.56-.93ZM5.91,65.7c-1.33-1-1.58-1.32-1.17-1.51s.53-.06,1.74.87,1.27,1,1.18,1.38a.2.2,0,0,1-.16.19h0c-.24,0-.69-.29-1.56-.93Zm26.9-1.25a.45.45,0,0,1,.34-.51,13.29,13.29,0,0,1,2.76,2.13.56.56,0,0,1-.08.33.48.48,0,0,1-.24.18h0a12.43,12.43,0,0,1-2.77-2.12Zm29.58,1.12c-1.23-.91-1.39-1.08-1.33-1.44s.45-.3,1.77.69,1.56,1.31,1.23,1.49a.68.68,0,0,1-.2.07H63.8C63.54,66.39,63.19,66.17,62.39,65.57Zm26.77-1.36c0-.2.14-.35.45-.39a12.75,12.75,0,0,1,2.63,1.88.36.36,0,0,1,.05.41.5.5,0,0,1-.3.25h0a11.4,11.4,0,0,1-2.82-2.15ZM8.5,64c0-.21.14-.36.45-.4a12.79,12.79,0,0,1,2.62,1.88.33.33,0,0,1,0,.41.44.44,0,0,1-.28.25h0A11.6,11.6,0,0,1,8.5,64Zm28.24-.06a.51.51,0,0,1,.38-.5,7.06,7.06,0,0,1,1.43.94c1.26,1,1.46,1.22,1.22,1.54a.46.46,0,0,1-.23.16h0A16.22,16.22,0,0,1,36.74,63.89Zm28.24,0c0-.29.06-.48.3-.5a8.63,8.63,0,0,1,2.8,2.11c0,.13,0,.28-.09.31a1,1,0,0,1-.29.1h0a13.82,13.82,0,0,1-2.72-2Zm-51.28.64c-.94-.71-1.15-.91-1.15-1.12s0-.29.26-.34.46.08,1.54.89A7.57,7.57,0,0,1,15.64,65a.62.62,0,0,1-.09.32c-.07.11-.12.18-.2.19h0C15.13,65.53,14.76,65.27,13.7,64.48Zm27-1.15a.51.51,0,0,1,.38-.5,14.63,14.63,0,0,1,2.6,1.82c.21.23.23.3.15.52s-.18.28-.27.29h0a14.57,14.57,0,0,1-2.86-2.13Zm29.85,1.28c-1.22-.92-1.6-1.25-1.62-1.39a.52.52,0,0,1,.4-.45,11.52,11.52,0,0,1,2.65,2,.71.71,0,0,1,0,.38.2.2,0,0,1-.18.19h0A3,3,0,0,1,70.52,64.61Zm23.85.14c-.94-.71-1.15-.91-1.15-1.12s0-.29.26-.34.41.06,1.23.66L94.76,65Zm-76.76-.86c-.9-.68-1.12-.89-1.13-1.09s.06-.28.28-.33.45,0,1.54.87a7.13,7.13,0,0,1,1.27,1.12.66.66,0,0,1-.09.33.42.42,0,0,1-.23.18H19.2c-.13,0-.3-.12-1.59-1.09Zm27.1-1.07c-.05-.31,0-.51.26-.54a11.26,11.26,0,0,1,2.83,2.1.57.57,0,0,1-.08.34.45.45,0,0,1-.24.19h0a14.15,14.15,0,0,1-2.78-2.09Zm29.43,1a9.27,9.27,0,0,1-1.31-1.11.55.55,0,0,1,.4-.48A14.05,14.05,0,0,1,75.8,64c.19.2.22.3.16.47s-.12.22-.23.24h0c-.25,0-.69-.28-1.56-.94Zm-52.42-.32c-1.32-1-1.58-1.32-1.17-1.51s.54-.06,1.75.87,1.26,1,1.17,1.37c0,.12-.07.18-.16.19h0C23,64.41,22.58,64.12,21.72,63.48Zm26.9-1.25a.45.45,0,0,1,.34-.51,13.25,13.25,0,0,1,2.76,2.12.54.54,0,0,1-.08.33.45.45,0,0,1-.24.19h0A12.18,12.18,0,0,1,48.62,62.23Zm29.57,1.12c-1.22-.91-1.38-1.08-1.32-1.44s.45-.3,1.77.68,1.56,1.31,1.23,1.5a.68.68,0,0,1-.2.07h-.06c-.25,0-.6-.21-1.41-.81ZM24.31,61.72c0-.21.14-.35.45-.4a13.18,13.18,0,0,1,2.62,1.88.35.35,0,0,1,.05.42.44.44,0,0,1-.28.25h0a11.4,11.4,0,0,1-2.82-2.15Zm28.24,0a.52.52,0,0,1,.38-.5,7.06,7.06,0,0,1,1.43.94c1.26,1,1.47,1.22,1.22,1.54a.46.46,0,0,1-.23.16h0A16.22,16.22,0,0,1,52.55,61.67Zm28.24-.06c0-.28.07-.47.3-.5a8.81,8.81,0,0,1,2.8,2.11c0,.13,0,.28-.09.31a.73.73,0,0,1-.28.1h0a13.07,13.07,0,0,1-2.72-2ZM2.62,63.26c-.23-.49-.44-1-.64-1.48A4.8,4.8,0,0,1,3.23,63c0,.13,0,.28-.09.31a.73.73,0,0,1-.28.1h0A.67.67,0,0,1,2.62,63.26Zm26.9-1c-.94-.71-1.16-.91-1.16-1.12s.06-.29.26-.34.47.08,1.55.88a8.49,8.49,0,0,1,1.28,1.12.48.48,0,0,1-.09.32c-.06.11-.11.18-.2.19h0c-.2,0-.57-.27-1.62-1.05Zm27-1.15a.54.54,0,0,1,.38-.5,13.94,13.94,0,0,1,2.6,1.82c.22.23.24.3.16.52s-.18.28-.27.29h0a14.64,14.64,0,0,1-2.87-2.13Zm29.85,1.28c-1.22-.92-1.6-1.25-1.62-1.39a.53.53,0,0,1,.4-.45,11.31,11.31,0,0,1,2.65,2,.56.56,0,0,1,0,.38.2.2,0,0,1-.18.19h0a3,3,0,0,1-1.26-.69ZM5.67,62.12c-1.22-.92-1.6-1.25-1.62-1.39a.51.51,0,0,1,.4-.45,11.25,11.25,0,0,1,2.64,2,.63.63,0,0,1,.06.38.21.21,0,0,1-.18.19h0a2.86,2.86,0,0,1-1.25-.69Zm27.75-.45c-.9-.68-1.12-.89-1.13-1.1s.07-.27.29-.33.44,0,1.54.88a7,7,0,0,1,1.26,1.11.49.49,0,0,1-.09.33.39.39,0,0,1-.23.19H35C34.88,62.76,34.72,62.64,33.42,61.67Zm27.1-1.07c0-.31,0-.51.27-.54a11,11,0,0,1,2.83,2.1.52.52,0,0,1-.09.34.46.46,0,0,1-.24.19h0a13.8,13.8,0,0,1-2.77-2.09Zm29.43,1a9.18,9.18,0,0,1-1.3-1.11.52.52,0,0,1,.4-.48,13.08,13.08,0,0,1,2.56,1.82c.2.2.23.3.16.47s-.12.22-.23.24h0c-.25,0-.69-.28-1.55-.94ZM9.29,61.31A9.27,9.27,0,0,1,8,60.2a.53.53,0,0,1,.41-.48A13.08,13.08,0,0,1,11,61.54c.2.2.23.3.16.47s-.12.22-.23.24h0c-.25,0-.69-.28-1.56-.94Zm28.25-.06c-1.32-1-1.58-1.32-1.17-1.51s.54-.05,1.74.88,1.27,1,1.19,1.37c0,.11-.08.18-.17.19h0c-.24,0-.69-.28-1.56-.93ZM64.45,60a.43.43,0,0,1,.34-.51,13.17,13.17,0,0,1,2.76,2.12.66.66,0,0,1-.09.33.4.4,0,0,1-.24.18h0A12.13,12.13,0,0,1,64.44,60Zm-51.1.84a11.6,11.6,0,0,1-1.27-1.05c-.14-.29,0-.6.22-.63a8.88,8.88,0,0,1,2.82,2.12c0,.13,0,.27-.09.3a.48.48,0,0,1-.2.07.06.06,0,0,1-.06,0c-.26,0-.61-.2-1.42-.81ZM40.14,59.5c0-.21.13-.36.44-.4A13.55,13.55,0,0,1,43.21,61a.36.36,0,0,1,0,.41.42.42,0,0,1-.29.25h0a11.35,11.35,0,0,1-2.83-2.14Zm28.23-.06a.53.53,0,0,1,.39-.5,8.32,8.32,0,0,1,1.42.94c1.27,1,1.47,1.23,1.22,1.55a.41.41,0,0,1-.23.15h0a15.68,15.68,0,0,1-2.8-2.13ZM94,61.12c-1.23-.91-1.39-1.08-1.32-1.44s.45-.3,1.77.69l.09.07,0,1.11c-.17-.11-.37-.26-.6-.43ZM16,59.12c0-.29.06-.47.3-.5a8.52,8.52,0,0,1,2.8,2.11c0,.13,0,.28-.09.31a.77.77,0,0,1-.29.1h0a13.5,13.5,0,0,1-2.73-2ZM45.34,60c-1-.71-1.16-.9-1.16-1.12s0-.28.26-.33.47.07,1.55.88a8.43,8.43,0,0,1,1.28,1.11.52.52,0,0,1-.09.32c-.07.11-.12.18-.2.2h0c-.21,0-.58-.27-1.63-1.06Zm27-1.14a.53.53,0,0,1,.38-.5,13.94,13.94,0,0,1,2.6,1.82c.22.22.24.3.16.52a.52.52,0,0,1-.27.29h0A15.37,15.37,0,0,1,72.29,58.89Zm-50.81,1c-1.22-.91-1.6-1.24-1.62-1.38a.55.55,0,0,1,.4-.46,12.13,12.13,0,0,1,2.65,2,.72.72,0,0,1,.05.38.22.22,0,0,1-.18.2h0A2.86,2.86,0,0,1,21.48,59.89Zm27.75-.44c-.9-.68-1.12-.89-1.13-1.1s.07-.27.28-.33.45,0,1.54.88A7.07,7.07,0,0,1,51.19,60a.55.55,0,0,1-.09.33.39.39,0,0,1-.23.19h0c-.12,0-.29-.11-1.59-1.08Zm27.1-1.07c0-.31,0-.51.26-.54a11,11,0,0,1,2.84,2.1.67.67,0,0,1-.09.34.5.5,0,0,1-.24.19h0a13.8,13.8,0,0,1-2.77-2.09Zm-51.23.71A9.27,9.27,0,0,1,23.79,58a.53.53,0,0,1,.41-.48,13.08,13.08,0,0,1,2.56,1.82c.19.2.23.3.16.47s-.12.22-.23.24h0c-.25,0-.69-.29-1.55-.94ZM53.34,59c-1.32-1-1.57-1.32-1.16-1.51s.53-.05,1.74.87,1.26,1,1.18,1.38a.2.2,0,0,1-.17.19h0c-.24,0-.69-.28-1.56-.93Zm26.91-1.24a.44.44,0,0,1,.34-.51,13.23,13.23,0,0,1,2.77,2.12.66.66,0,0,1-.09.33.48.48,0,0,1-.24.18h0a12.43,12.43,0,0,1-2.77-2.12ZM1,58.72c-.11-.42-.22-.85-.31-1.28a10.32,10.32,0,0,1,2,1.68.49.49,0,0,1-.09.33.41.41,0,0,1-.24.19h0A7.2,7.2,0,0,1,1,58.72Zm28.2-.09a11.71,11.71,0,0,1-1.28-1.05c-.13-.3,0-.6.22-.63a8.88,8.88,0,0,1,2.82,2.12c0,.13,0,.27-.09.3a.68.68,0,0,1-.2.07h-.06c-.25,0-.6-.21-1.41-.81Zm26.78-1.35c0-.21.13-.36.45-.4A13.18,13.18,0,0,1,59,58.76a.35.35,0,0,1,.05.42.42.42,0,0,1-.28.24h0a11.35,11.35,0,0,1-2.83-2.14Zm28.24-.06a.5.5,0,0,1,.38-.5,7.51,7.51,0,0,1,1.43.94c1.26,1,1.46,1.22,1.22,1.54a.45.45,0,0,1-.24.16h0a16,16,0,0,1-2.79-2.14ZM3.51,57a.52.52,0,0,1,.39-.5,8.26,8.26,0,0,1,1.42.93c1.27,1,1.48,1.22,1.22,1.55a.38.38,0,0,1-.23.16h0A15.73,15.73,0,0,1,3.51,57Zm28.24-.05c0-.29.07-.47.3-.5a8.42,8.42,0,0,1,2.8,2.11c0,.13,0,.28-.09.31a.94.94,0,0,1-.28.1h0a13.82,13.82,0,0,1-2.72-2Zm29.39.91c-.94-.71-1.15-.9-1.15-1.12s0-.28.26-.33.46.07,1.54.88a8,8,0,0,1,1.29,1.11.59.59,0,0,1-.09.32c-.07.11-.12.18-.2.19h0c-.19,0-.56-.26-1.62-1Zm27-1.14a.5.5,0,0,1,.38-.5A14.63,14.63,0,0,1,91.09,58c.21.22.23.3.15.52s-.17.27-.27.28h0A14.52,14.52,0,0,1,88.11,56.67ZM7.44,56.39a.55.55,0,0,1,.39-.5,13.78,13.78,0,0,1,2.59,1.83c.22.22.24.29.16.52a.52.52,0,0,1-.27.29h0a15.24,15.24,0,0,1-2.86-2.14Zm29.85,1.28c-1.21-.91-1.6-1.24-1.62-1.38a.56.56,0,0,1,.4-.46,11.89,11.89,0,0,1,2.65,2,.57.57,0,0,1,.05.38.21.21,0,0,1-.18.2h0a2.86,2.86,0,0,1-1.26-.7ZM65,57.23c-.9-.68-1.12-.89-1.13-1.1s.07-.27.29-.33.45,0,1.54.88A7,7,0,0,1,67,57.79a.54.54,0,0,1-.08.33.47.47,0,0,1-.23.19h-.06c-.12,0-.29-.11-1.59-1.09Zm27.1-1.07c0-.31.06-.51.27-.54a9.14,9.14,0,0,1,2,1.31l0,1.06a14.52,14.52,0,0,1-2.31-1.83Zm-80.66-.27c0-.32,0-.51.26-.54a10.8,10.8,0,0,1,2.83,2.1.59.59,0,0,1-.08.34.43.43,0,0,1-.24.18h0A14.14,14.14,0,0,1,11.48,55.89Zm29.43,1a9.27,9.27,0,0,1-1.31-1.11.53.53,0,0,1,.4-.48,13.54,13.54,0,0,1,2.57,1.81c.19.2.23.3.16.47s-.12.23-.23.24h0c-.25,0-.69-.28-1.55-.93Zm28.25-.06c-1.32-1-1.58-1.32-1.17-1.51s.53-.06,1.74.87,1.27,1,1.18,1.38a.2.2,0,0,1-.16.19h0C70.48,57.74,70,57.46,69.16,56.81ZM15.41,55.33c-.05-.32.05-.51.27-.54A11,11,0,0,1,18.5,56.9a.49.49,0,0,1-.09.33.39.39,0,0,1-.23.19h0A13.8,13.8,0,0,1,15.41,55.33ZM45,56.41a10.75,10.75,0,0,1-1.28-1.06c-.13-.29,0-.59.22-.62a8.81,8.81,0,0,1,2.83,2.12c0,.13,0,.27-.09.3a.48.48,0,0,1-.2.07h-.06C46.13,57.23,45.78,57,45,56.41Zm26.78-1.35c0-.21.14-.36.45-.4a12.43,12.43,0,0,1,2.62,1.88.33.33,0,0,1,.05.41.46.46,0,0,1-.28.25h0A11.85,11.85,0,0,1,71.75,55.06Zm-52.42-.33a.51.51,0,0,1,.38-.5,7.56,7.56,0,0,1,1.42.93c1.27,1,1.48,1.22,1.23,1.55a.45.45,0,0,1-.24.16h0a16.53,16.53,0,0,1-2.79-2.14Zm28.23,0c0-.3.07-.47.3-.5a8.32,8.32,0,0,1,2.8,2.11c0,.13,0,.28-.09.31a.67.67,0,0,1-.28.1h0a14.12,14.12,0,0,1-2.72-2ZM77,55.59c-.94-.71-1.15-.9-1.15-1.12s0-.29.26-.33.46.07,1.54.88a8,8,0,0,1,1.29,1.11.59.59,0,0,1-.09.32c-.07.11-.12.18-.2.19h0c-.2,0-.57-.27-1.63-1Zm-53.7-1.42a.54.54,0,0,1,.39-.5,13.29,13.29,0,0,1,2.59,1.82c.22.22.24.3.16.52s-.18.27-.27.28h0A14.49,14.49,0,0,1,23.25,54.17Zm29.86,1.28c-1.22-.92-1.6-1.25-1.63-1.39a.53.53,0,0,1,.4-.45,11.1,11.1,0,0,1,2.65,2,.62.62,0,0,1,.06.38.21.21,0,0,1-.19.19h0a2.86,2.86,0,0,1-1.25-.69ZM80.86,55c-.9-.68-1.13-.89-1.13-1.1s.06-.27.28-.32.45,0,1.54.87a7.08,7.08,0,0,1,1.27,1.12.66.66,0,0,1-.09.33.46.46,0,0,1-.23.18h-.06c-.12,0-.29-.12-1.58-1.09ZM.38,54.87l-.19-.14c0-.38-.08-.76-.11-1.15l.81.6A7.07,7.07,0,0,1,2.15,55.3a.49.49,0,0,1-.09.33.41.41,0,0,1-.24.19h0A9.19,9.19,0,0,1,.38,54.87Zm26.91-1.2c0-.32.05-.51.26-.54a11,11,0,0,1,2.84,2.1.67.67,0,0,1-.09.34.5.5,0,0,1-.24.19h0A15.25,15.25,0,0,1,27.29,53.67Zm29.43,1a9.86,9.86,0,0,1-1.31-1.11.53.53,0,0,1,.41-.48,13.47,13.47,0,0,1,2.56,1.81c.19.2.23.3.16.47s-.12.23-.23.24h0c-.25,0-.69-.28-1.55-.94ZM85,54.59c-1.32-1-1.57-1.32-1.17-1.51s.54-.06,1.75.87,1.26,1,1.18,1.38a.23.23,0,0,1-.17.19h0c-.24,0-.7-.29-1.56-.93ZM4.31,54.32C3,53.32,2.73,53,3.14,52.81s.53-.06,1.74.87,1.27,1,1.18,1.38a.2.2,0,0,1-.16.19h0c-.24,0-.69-.28-1.55-.93Zm26.91-1.21c0-.32.05-.51.28-.54a11.18,11.18,0,0,1,2.82,2.11.63.63,0,0,1-.09.33.46.46,0,0,1-.24.19h0A14.39,14.39,0,0,1,31.22,53.11Zm29.57,1.07a10.66,10.66,0,0,1-1.28-1c-.13-.29,0-.59.22-.62a8.88,8.88,0,0,1,2.82,2.12.31.31,0,0,1-.09.3.68.68,0,0,1-.2.07H62.2c-.26,0-.6-.21-1.41-.82Zm26.78-1.34c0-.21.13-.36.45-.4a12.43,12.43,0,0,1,2.62,1.88.33.33,0,0,1,0,.41.46.46,0,0,1-.28.25h0a11.66,11.66,0,0,1-2.83-2.14ZM6.9,52.54c0-.19.14-.33.46-.38A14.19,14.19,0,0,1,10,54a.38.38,0,0,1,0,.43.4.4,0,0,1-.28.24h0A11.87,11.87,0,0,1,6.9,52.54Zm28.24,0a.52.52,0,0,1,.38-.5,7,7,0,0,1,1.43.93c1.26,1,1.47,1.22,1.22,1.55a.42.42,0,0,1-.23.16h0a16.22,16.22,0,0,1-2.8-2.14Zm28.24-.06c0-.29.07-.47.3-.5a8.32,8.32,0,0,1,2.8,2.12c0,.13,0,.28-.09.31a.94.94,0,0,1-.28.1h0a13.48,13.48,0,0,1-2.72-2Zm29.39.92c-.94-.71-1.16-.91-1.16-1.12s.06-.29.27-.34.46.08,1.54.88c.31.24.6.48.83.67l0,.94a9.23,9.23,0,0,1-1.52-1Zm-80.66-.28C11.18,52.4,11,52.17,11,52s.07-.28.26-.33.47.07,1.55.88A7.62,7.62,0,0,1,14,53.64.48.48,0,0,1,14,54c-.07.11-.11.18-.2.2h0c-.2,0-.57-.28-1.63-1.07Zm27-1.14a.51.51,0,0,1,.39-.5,13.73,13.73,0,0,1,2.59,1.82c.22.23.24.3.15.52a.5.5,0,0,1-.26.29h0A14.57,14.57,0,0,1,39.07,52Zm29.85,1.28c-1.22-.92-1.6-1.25-1.62-1.39a.51.51,0,0,1,.4-.45,11.77,11.77,0,0,1,2.65,2,.74.74,0,0,1,.05.39.2.2,0,0,1-.18.19h0A3,3,0,0,1,68.92,53.23Zm-52.73-.58c-1.06-.8-1.3-1-1.31-1.24s.06-.27.28-.33.45.05,1.54.88A7.07,7.07,0,0,1,18,53.07a.6.6,0,0,1-.09.33.41.41,0,0,1-.24.19h0a9.22,9.22,0,0,1-1.45-.94Zm26.92-1.21c0-.31,0-.51.26-.54A11,11,0,0,1,46.2,53a.57.57,0,0,1-.08.34.45.45,0,0,1-.24.19h0a14.15,14.15,0,0,1-2.78-2.09Zm29.43,1a9.35,9.35,0,0,1-1.32-1.11.54.54,0,0,1,.41-.48,14,14,0,0,1,2.56,1.82c.2.2.23.3.16.47s-.12.22-.23.24h0c-.24,0-.68-.28-1.55-.94Zm-52.42-.33c-1.32-1-1.57-1.32-1.17-1.51s.54,0,1.75.88,1.26,1,1.18,1.37c0,.11-.08.18-.17.19h0c-.24,0-.7-.28-1.56-.93ZM47,50.89c0-.32,0-.51.28-.54a11.18,11.18,0,0,1,2.82,2.11.66.66,0,0,1-.09.33.46.46,0,0,1-.24.19h0A14.39,14.39,0,0,1,47,50.89ZM76.6,52a11.8,11.8,0,0,1-1.28-1.06c-.13-.29,0-.59.22-.63a9.35,9.35,0,0,1,2.83,2.12c0,.13,0,.27-.1.3a.44.44,0,0,1-.2.08H78C77.76,52.78,77.41,52.57,76.6,52ZM22.71,50.33c0-.2.14-.34.46-.39a13.18,13.18,0,0,1,2.62,1.88.38.38,0,0,1,.05.42.44.44,0,0,1-.29.24h0a11.92,11.92,0,0,1-2.84-2.16Zm28.24,0a.52.52,0,0,1,.38-.5,7.46,7.46,0,0,1,1.43.93c1.26,1,1.48,1.22,1.22,1.55a.42.42,0,0,1-.23.16h0A16.22,16.22,0,0,1,51,50.29Zm28.24,0c0-.3.07-.48.3-.5a8.16,8.16,0,0,1,2.8,2.11c0,.13,0,.28-.09.31a.94.94,0,0,1-.28.1h0a13.48,13.48,0,0,1-2.72-2ZM0,51.19q0-.52,0-1a6.42,6.42,0,0,1,1.6,1.43c0,.13,0,.28-.09.31a.73.73,0,0,1-.28.1h0A6.57,6.57,0,0,1,0,51.19Zm27.91-.32c-.93-.69-1.14-.92-1.15-1.13s.06-.27.26-.32.46.07,1.55.88a7.56,7.56,0,0,1,1.28,1.12.54.54,0,0,1-.09.32c-.07.11-.12.18-.2.2h0C29.34,51.93,29,51.66,27.91,50.87Zm27-1.15a.53.53,0,0,1,.39-.5,14.25,14.25,0,0,1,2.59,1.83c.22.23.24.29.15.52a.5.5,0,0,1-.26.29h0a14.62,14.62,0,0,1-2.86-2.14ZM84.73,51c-1.22-.92-1.6-1.25-1.62-1.39a.53.53,0,0,1,.4-.46,12.13,12.13,0,0,1,2.65,2,.74.74,0,0,1,0,.39.2.2,0,0,1-.18.19h0a2.81,2.81,0,0,1-1.26-.7ZM2.6,49.59a.51.51,0,0,1-.15-.23.54.54,0,0,1,.4-.47,11.81,11.81,0,0,1,2.65,2,.74.74,0,0,1,0,.39.21.21,0,0,1-.17.18h0C5,51.42,4.2,50.88,2.6,49.59Zm29.4.83c-1.06-.79-1.3-1-1.31-1.23s.06-.27.28-.33.45,0,1.54.88a7.07,7.07,0,0,1,1.27,1.11.63.63,0,0,1-.09.33.41.41,0,0,1-.24.19h0A9.28,9.28,0,0,1,32,50.42Zm26.92-1.2c-.05-.31,0-.51.26-.54A11.26,11.26,0,0,1,62,50.78a.57.57,0,0,1-.08.34.49.49,0,0,1-.24.19h0a13.8,13.8,0,0,1-2.77-2.09Zm29.43,1A9.27,9.27,0,0,1,87,49.09a.55.55,0,0,1,.4-.48A14.4,14.4,0,0,1,90,50.43c.19.2.22.3.15.47s-.12.22-.23.24h0c-.24,0-.68-.28-1.54-.94ZM7.68,49.93a9.18,9.18,0,0,1-1.3-1.11.53.53,0,0,1,.4-.48,13.72,13.72,0,0,1,2.57,1.82c.19.2.23.3.16.47s-.12.23-.23.24h0c-.25,0-.69-.29-1.56-.94Zm28.25,0c-1.32-1-1.57-1.32-1.17-1.52s.54,0,1.75.88,1.26,1,1.18,1.37c0,.12-.08.18-.17.19h0c-.24,0-.69-.28-1.56-.93Zm26.91-1.21c0-.33.06-.51.28-.55a11.43,11.43,0,0,1,2.82,2.11.47.47,0,0,1-.09.33.41.41,0,0,1-.24.19h0A14.76,14.76,0,0,1,62.84,48.67Zm29.57,1.07a11.71,11.71,0,0,1-1.28-1.05c-.13-.29,0-.59.22-.63a9.94,9.94,0,0,1,2.74,2l0,.42,0,0a.7.7,0,0,1-.2.08h-.06c-.26,0-.61-.21-1.42-.82Zm-80.66-.27c-1.23-.92-1.39-1.08-1.32-1.44s.46-.31,1.78.68,1.55,1.31,1.21,1.5a.68.68,0,0,1-.2.07h-.06C12.91,50.29,12.56,50.08,11.75,49.47ZM38.52,48.1c0-.19.14-.34.46-.38a13,13,0,0,1,2.62,1.87.38.38,0,0,1,0,.42.48.48,0,0,1-.29.25h0A12.47,12.47,0,0,1,38.52,48.1Zm28.25,0a.5.5,0,0,1,.38-.5,7,7,0,0,1,1.42.93c1.27,1,1.48,1.22,1.23,1.55a.38.38,0,0,1-.24.15h0A15.61,15.61,0,0,1,66.77,48.07Zm-52.43-.33c0-.29.07-.47.3-.5a8.32,8.32,0,0,1,2.8,2.12c0,.13,0,.28-.09.31a.94.94,0,0,1-.28.1h0a13.48,13.48,0,0,1-2.72-2Zm29.39.9c-.93-.69-1.15-.91-1.16-1.12s.07-.27.27-.32.46.07,1.54.88a7.14,7.14,0,0,1,1.28,1.11.5.5,0,0,1-.08.32c-.07.11-.12.19-.2.2h0c-.19,0-.57-.28-1.62-1.07Zm27-1.14a.55.55,0,0,1,.39-.5,13.78,13.78,0,0,1,2.59,1.83c.22.22.24.29.16.52s-.18.27-.27.28h0a14.54,14.54,0,0,1-2.87-2.13Zm-52.27-.13a.38.38,0,0,1,.24-.7,11.31,11.31,0,0,1,2.65,2,.56.56,0,0,1,.05.38.18.18,0,0,1-.17.18h0C20.8,49.2,20,48.66,18.42,47.37Zm29.4.83c-1.07-.79-1.31-1-1.32-1.23s.07-.28.29-.33.44,0,1.54.87a7.07,7.07,0,0,1,1.26,1.12.54.54,0,0,1-.08.33.45.45,0,0,1-.24.19h0a8.84,8.84,0,0,1-1.45-.95ZM74.73,47c0-.32,0-.51.27-.54a11.14,11.14,0,0,1,2.83,2.1.67.67,0,0,1-.09.34.43.43,0,0,1-.24.18h0A13.75,13.75,0,0,1,74.73,47Zm-51.23.71a9.27,9.27,0,0,1-1.31-1.11.53.53,0,0,1,.4-.48,13.54,13.54,0,0,1,2.57,1.81c.19.2.23.3.16.47s-.12.23-.23.25h0c-.25,0-.69-.28-1.55-.94Zm28.25-.06c-1.33-1-1.58-1.32-1.17-1.51s.54-.06,1.74.87,1.27,1,1.18,1.38a.2.2,0,0,1-.16.19h0c-.24,0-.69-.29-1.56-.93Zm26.91-1.21c0-.32,0-.51.27-.54A11.24,11.24,0,0,1,81.76,48a.63.63,0,0,1-.09.33.45.45,0,0,1-.24.19h0a14.14,14.14,0,0,1-2.77-2.08ZM.22,48c0-.32.09-.64.14-1,.81.64.84.78.64,1.06a.41.41,0,0,1-.24.19h0A2.39,2.39,0,0,1,.22,48Zm27.34-.71c-1.23-.92-1.38-1.08-1.32-1.44s.46-.31,1.78.68,1.55,1.32,1.22,1.5a.48.48,0,0,1-.2.07H29c-.26,0-.61-.21-1.42-.81Zm26.78-1.37c0-.2.14-.34.46-.39a13.41,13.41,0,0,1,2.61,1.88.35.35,0,0,1,.05.42.44.44,0,0,1-.28.25h0a12.42,12.42,0,0,1-2.83-2.16Zm28.24,0a.52.52,0,0,1,.38-.5,7.46,7.46,0,0,1,1.43.93c1.26,1,1.47,1.22,1.22,1.55a.45.45,0,0,1-.24.16h0a16.53,16.53,0,0,1-2.79-2.14ZM1.92,45.57a.5.5,0,0,1,.38-.5A6.32,6.32,0,0,1,3.72,46C5,47,5.2,47.22,5,47.55a.38.38,0,0,1-.24.15h0a16.43,16.43,0,0,1-2.8-2.13Zm28.23,0c0-.3.07-.48.3-.5a8.32,8.32,0,0,1,2.8,2.11c0,.13,0,.28-.09.31a.85.85,0,0,1-.28.1h0a14.12,14.12,0,0,1-2.72-2Zm29.39.9c-.93-.69-1.14-.92-1.15-1.13s.06-.27.26-.32.46.07,1.54.88A7.63,7.63,0,0,1,61.48,47a.62.62,0,0,1-.09.32c-.07.11-.12.18-.2.2h0c-.19,0-.56-.28-1.62-1.07Zm27-1.14a.51.51,0,0,1,.39-.5,13.29,13.29,0,0,1,2.59,1.82c.21.23.23.3.15.52a.5.5,0,0,1-.26.29h0a14.57,14.57,0,0,1-2.86-2.13ZM5.84,45a.53.53,0,0,1,.4-.5,14,14,0,0,1,2.58,1.83c.23.23.24.26.12.52s-.19.28-.26.29h0A16.91,16.91,0,0,1,5.84,45Zm28.39.14a.61.61,0,0,1-.15-.24.52.52,0,0,1,.4-.46,11.25,11.25,0,0,1,2.64,2,.63.63,0,0,1,.06.38A.2.2,0,0,1,37,47h0c-.34,0-1.13-.53-2.73-1.82Zm29.4.83c-1.06-.8-1.3-1-1.31-1.24s.06-.27.28-.32.45,0,1.54.87a7.07,7.07,0,0,1,1.27,1.11.6.6,0,0,1-.09.33.41.41,0,0,1-.24.19h0A9.22,9.22,0,0,1,63.63,46Zm26.92-1.21c0-.31,0-.51.26-.54a11.26,11.26,0,0,1,2.83,2.1.57.57,0,0,1-.08.34.45.45,0,0,1-.24.19h0a14.15,14.15,0,0,1-2.78-2.09ZM9.89,44.5c-.05-.31,0-.51.26-.54A11.44,11.44,0,0,1,13,46.06a.52.52,0,0,1-.09.34.41.41,0,0,1-.24.19h0A14.39,14.39,0,0,1,9.88,44.5Zm29.42,1A9.18,9.18,0,0,1,38,44.37a.52.52,0,0,1,.4-.48A14.05,14.05,0,0,1,41,45.71c.19.2.23.3.16.47s-.12.22-.23.24h0c-.26,0-.7-.28-1.56-.94Zm28.25-.06c-1.32-1-1.57-1.32-1.17-1.51s.54,0,1.75.88,1.26,1,1.18,1.37c0,.11-.08.18-.17.19h0c-.24,0-.7-.28-1.56-.92ZM13.81,44c-.11-.76.31-.71,1.52.2,1.62,1.21,1.73,1.34,1.49,1.7a.45.45,0,0,1-.24.19h0A13.8,13.8,0,0,1,13.81,44ZM43.37,45C42.14,44.11,42,44,42.05,43.59s.46-.31,1.78.68,1.55,1.32,1.22,1.5a.68.68,0,0,1-.2.07h-.06C44.53,45.85,44.18,45.63,43.37,45Zm26.78-1.37c0-.2.14-.34.46-.39a13.8,13.8,0,0,1,2.61,1.87.36.36,0,0,1,0,.43.42.42,0,0,1-.28.24h0A12.1,12.1,0,0,1,70.15,43.66Zm-52.42-.31a.51.51,0,0,1,.38-.5,6.69,6.69,0,0,1,1.42.93c1.28.95,1.48,1.22,1.23,1.55a.4.4,0,0,1-.24.16h0A16.53,16.53,0,0,1,17.73,43.35ZM46,43.29c0-.29.07-.47.3-.5a8.22,8.22,0,0,1,2.8,2.12c0,.13,0,.28-.09.31a.85.85,0,0,1-.28.1h0A13.76,13.76,0,0,1,46,43.29Zm29.39.91c-.93-.7-1.14-.92-1.15-1.13s.06-.27.26-.32.46.07,1.54.88a8,8,0,0,1,1.29,1.11.57.57,0,0,1-.09.32c-.07.11-.12.19-.2.2h0c-.2,0-.57-.27-1.63-1.06Zm-53.7-1.42a.54.54,0,0,1,.4-.5,13.71,13.71,0,0,1,2.58,1.83c.23.23.24.26.12.52s-.19.28-.26.29h0a17.4,17.4,0,0,1-2.84-2.13ZM50,42.92a.51.51,0,0,1-.15-.23.53.53,0,0,1,.4-.47,11.25,11.25,0,0,1,2.64,2,.63.63,0,0,1,.06.38.21.21,0,0,1-.18.19h0c-.34,0-1.13-.53-2.73-1.82Zm29.4.83c-1.07-.8-1.3-1-1.31-1.23s.06-.27.28-.33.45.05,1.54.88a7.07,7.07,0,0,1,1.27,1.11.63.63,0,0,1-.09.33.41.41,0,0,1-.24.19h0a9.22,9.22,0,0,1-1.45-.94ZM25.69,42.28c0-.31,0-.51.26-.54a11.49,11.49,0,0,1,2.84,2.1.52.52,0,0,1-.09.34.41.41,0,0,1-.24.19h0A14.39,14.39,0,0,1,25.69,42.28Zm29.43,1a8.64,8.64,0,0,1-1.3-1.12.51.51,0,0,1,.4-.47,13.47,13.47,0,0,1,2.56,1.81c.2.2.23.3.16.47s-.12.23-.23.24h0C56.42,44.2,56,43.92,55.12,43.27Zm28.25-.06c-1.32-1-1.57-1.32-1.17-1.51s.54-.06,1.75.87,1.26,1,1.18,1.38c0,.11-.08.18-.17.19h0c-.24,0-.7-.29-1.56-.94ZM2.7,42.94a12.56,12.56,0,0,1-1.06-.87c.09-.23.17-.46.26-.68a5.33,5.33,0,0,1,1.38.91c1.14.87,1.27,1,1.18,1.38a.2.2,0,0,1-.17.19h0c-.24,0-.69-.29-1.56-.94Zm26.92-1.21c-.11-.76.31-.71,1.53.2,1.62,1.21,1.73,1.34,1.48,1.7a.45.45,0,0,1-.24.19h0A14.09,14.09,0,0,1,29.62,41.73Zm29.57,1.08c-1.23-.92-1.39-1.09-1.32-1.44s.46-.31,1.78.68,1.55,1.31,1.21,1.49a.44.44,0,0,1-.2.08h0c-.27,0-.61-.21-1.42-.82ZM86,41.43c0-.19.13-.33.46-.38A13.8,13.8,0,0,1,89,42.92a.36.36,0,0,1,0,.43.42.42,0,0,1-.28.24h0A12.19,12.19,0,0,1,86,41.43ZM5.3,41.17c0-.2.15-.34.46-.39a13.8,13.8,0,0,1,2.61,1.87.36.36,0,0,1,.05.43.4.4,0,0,1-.27.24h0A13.2,13.2,0,0,1,5.3,41.17Zm28.24,0a.52.52,0,0,1,.38-.5,7,7,0,0,1,1.43.93c1.27.95,1.47,1.22,1.22,1.55a.41.41,0,0,1-.23.16h0a16.22,16.22,0,0,1-2.8-2.14Zm28.24-.05c0-.3.06-.48.3-.5a8.26,8.26,0,0,1,2.8,2.11c0,.13,0,.28-.09.31a1,1,0,0,1-.29.1h0a13.48,13.48,0,0,1-2.72-2Zm29.38.9c-.92-.69-1.14-.92-1.15-1.13s.07-.27.26-.32.47.07,1.55.88a7.56,7.56,0,0,1,1.28,1.12.48.48,0,0,1-.09.32c-.06.11-.11.18-.2.2h0c-.2,0-.57-.28-1.62-1.08ZM10.5,41.71c-.93-.7-1.15-.92-1.15-1.13s.06-.27.27-.32.45.06,1.54.88a6.81,6.81,0,0,1,1.28,1.12.56.56,0,0,1-.09.31c-.07.12-.12.19-.2.2h0c-.2,0-.57-.27-1.63-1.06Zm27-1.14a.51.51,0,0,1,.39-.5,13.29,13.29,0,0,1,2.59,1.82c.23.23.23.26.11.52s-.19.28-.26.29h0A17.76,17.76,0,0,1,37.47,40.57Zm28.39.14a.54.54,0,0,1-.16-.24.54.54,0,0,1,.4-.47,12.13,12.13,0,0,1,2.65,2,.74.74,0,0,1,0,.39.2.2,0,0,1-.17.18h0C68.24,42.53,67.46,42,65.86,40.71Zm-51.27.56c-1.07-.8-1.3-1-1.31-1.24s.06-.27.28-.32.45,0,1.54.87a7.07,7.07,0,0,1,1.27,1.11.6.6,0,0,1-.09.33.45.45,0,0,1-.24.19h0A9.22,9.22,0,0,1,14.59,41.27ZM41.5,40.06c0-.31.06-.51.27-.54a11.44,11.44,0,0,1,2.83,2.1.52.52,0,0,1-.09.34.41.41,0,0,1-.24.19h0a14.39,14.39,0,0,1-2.77-2.09Zm29.43,1a9.18,9.18,0,0,1-1.3-1.11.52.52,0,0,1,.4-.48,13.91,13.91,0,0,1,2.57,1.82c.19.2.22.3.16.47s-.12.22-.23.24h0c-.24,0-.68-.28-1.55-.94Zm-52.41-.33c-1.32-1-1.58-1.32-1.17-1.51s.54-.05,1.74.88,1.27,1,1.18,1.37c0,.11-.07.18-.16.19h0c-.23,0-.69-.28-1.55-.93Zm26.91-1.2c-.1-.77.31-.71,1.53.2,1.62,1.21,1.73,1.34,1.48,1.7a.46.46,0,0,1-.24.19h0A14.81,14.81,0,0,1,45.43,39.51ZM75,40.58c-1.23-.91-1.39-1.08-1.32-1.43s.46-.32,1.78.68,1.55,1.31,1.22,1.49a.56.56,0,0,1-.2.08h-.06c-.26,0-.61-.21-1.42-.82ZM21.11,38.94c0-.2.15-.34.46-.38a13,13,0,0,1,2.62,1.87.4.4,0,0,1,0,.43.45.45,0,0,1-.28.24h0A13.3,13.3,0,0,1,21.11,38.94Zm28.24,0a.52.52,0,0,1,.38-.5,6.17,6.17,0,0,1,1.43.93c1.27.95,1.48,1.22,1.22,1.55a.36.36,0,0,1-.23.15h0A15.68,15.68,0,0,1,49.35,38.91Zm28.24-.06c0-.29.07-.47.3-.5a8.42,8.42,0,0,1,2.8,2.11c0,.13,0,.28-.09.31a.59.59,0,0,1-.28.1h0A13.07,13.07,0,0,1,77.59,38.85Zm-51.27.63c-.93-.69-1.15-.91-1.16-1.12s.07-.27.27-.32.46.06,1.55.88A7.44,7.44,0,0,1,28.25,40a.45.45,0,0,1-.09.32c-.07.11-.11.19-.2.2h0c-.2,0-.57-.28-1.62-1.07Zm27-1.14a.52.52,0,0,1,.39-.5,13.78,13.78,0,0,1,2.59,1.83c.23.23.23.26.11.52s-.18.28-.25.29h0a16.91,16.91,0,0,1-2.84-2.14Zm28.39.14a.38.38,0,0,1,.24-.7,11.31,11.31,0,0,1,2.65,2,.56.56,0,0,1,0,.38.2.2,0,0,1-.17.19h0C84.05,40.31,83.27,39.77,81.67,38.48Zm-78.95,1,.39-.77a4.15,4.15,0,0,1,.79.72.71.71,0,0,1,.05.38.19.19,0,0,1-.17.18h0A2.29,2.29,0,0,1,2.72,39.52ZM30.41,39c-1.07-.79-1.31-1-1.31-1.23s.06-.28.28-.33.44,0,1.54.87a7.43,7.43,0,0,1,1.26,1.12.66.66,0,0,1-.09.33.44.44,0,0,1-.24.18h0A9,9,0,0,1,30.4,39Zm26.91-1.2c0-.32,0-.51.27-.54a11,11,0,0,1,2.83,2.1.52.52,0,0,1-.09.34.4.4,0,0,1-.24.18h0a13.75,13.75,0,0,1-2.77-2.08Zm29.43,1a9.18,9.18,0,0,1-1.3-1.11.51.51,0,0,1,.4-.48A13.86,13.86,0,0,1,88.42,39c.19.2.23.3.16.48s-.12.22-.24.24h0c-.25,0-.69-.29-1.55-.94ZM6.09,38.55a8.71,8.71,0,0,1-1.31-1.12A.53.53,0,0,1,5.2,37a5.38,5.38,0,0,1,1.34.86C8,39,8,39,7.91,39.23s-.12.24-.23.25h0c-.26,0-.7-.28-1.56-.93Zm28.25-.06c-1.32-1-1.58-1.32-1.17-1.51s.54-.06,1.75.87,1.26,1,1.17,1.38a.2.2,0,0,1-.16.19h0c-.24,0-.69-.28-1.56-.93Zm26.91-1.21c-.11-.76.31-.71,1.53.2,1.62,1.21,1.73,1.34,1.48,1.7a.45.45,0,0,1-.24.19h0a14.14,14.14,0,0,1-2.77-2.08Zm29.57,1.08c-1.23-.92-1.39-1.08-1.32-1.44s.46-.31,1.78.68,1.55,1.32,1.21,1.5a.48.48,0,0,1-.2.07h-.06c-.26,0-.61-.2-1.42-.81Zm-82-1.44c0-.3.06-.48.3-.51a8.8,8.8,0,0,1,2.8,2.12c0,.13,0,.27-.09.3a1,1,0,0,1-.3.1h0a12.09,12.09,0,0,1-2.7-2Zm28.11-.2c0-.2.15-.34.46-.38A13.31,13.31,0,0,1,40,38.21a.36.36,0,0,1,0,.42.44.44,0,0,1-.27.25h0a13.32,13.32,0,0,1-2.84-2.16Zm28.24,0a.51.51,0,0,1,.38-.5,7,7,0,0,1,1.43.93c1.27,1,1.47,1.22,1.22,1.55a.46.46,0,0,1-.23.16h0a16.22,16.22,0,0,1-2.8-2.14Zm-52.43-.32c0-.29.07-.47.3-.5a8.26,8.26,0,0,1,2.8,2.1c0,.14,0,.29-.09.32a.79.79,0,0,1-.27.1h0a14.18,14.18,0,0,1-2.73-2Zm29.39.9c-.93-.69-1.15-.92-1.15-1.12s.06-.28.27-.33.45.06,1.54.88a7.19,7.19,0,0,1,1.28,1.12.62.62,0,0,1-.09.32c-.07.11-.12.18-.2.2h0c-.19,0-.57-.28-1.62-1.07Zm27-1.14a.51.51,0,0,1,.39-.5,14.55,14.55,0,0,1,2.59,1.82c.22.24.23.27.11.52s-.19.28-.26.29h0a16.85,16.85,0,0,1-2.84-2.13ZM16.82,36a.51.51,0,0,1-.15-.23.52.52,0,0,1,.4-.47,11.25,11.25,0,0,1,2.64,2,.63.63,0,0,1,.06.38.2.2,0,0,1-.17.18h0C19.2,37.82,18.42,37.28,16.82,36Zm29.4.83c-1.07-.79-1.3-1-1.31-1.23s.06-.28.28-.33.45,0,1.54.87A7.13,7.13,0,0,1,48,37.25a.63.63,0,0,1-.09.33.46.46,0,0,1-.24.19h0a9.28,9.28,0,0,1-1.45-1Zm26.92-1.2c0-.32,0-.51.26-.54a11,11,0,0,1,2.83,2.1.59.59,0,0,1-.08.34.45.45,0,0,1-.25.18h0a14.39,14.39,0,0,1-2.77-2.09Zm-51.24.7a8.57,8.57,0,0,1-1.3-1.11.52.52,0,0,1,.41-.48,6,6,0,0,1,1.35.87c1.47,1.13,1.47,1.14,1.37,1.41s-.13.23-.24.25h0c-.25,0-.69-.28-1.55-.94Zm28.24,0c-1.32-1-1.57-1.32-1.16-1.51s.53-.06,1.74.87S52,36.64,51.9,37c0,.11-.08.17-.17.18h0C51.46,37.2,51,36.91,50.14,36.27Zm26.92-1.2c-.11-.77.31-.71,1.52.2,1.62,1.21,1.73,1.33,1.49,1.7a.43.43,0,0,1-.24.18h0A14.14,14.14,0,0,1,77.06,35.07Zm16.36,1.26a.31.31,0,0,1,.06-.13l0,.53A.44.44,0,0,1,93.42,36.33ZM24.62,34.7c0-.3.07-.48.3-.52a9,9,0,0,1,2.81,2.12.31.31,0,0,1-.09.3.71.71,0,0,1-.3.1h0A12,12,0,0,1,24.62,34.7Zm28.11-.2c0-.2.15-.34.46-.39A13.18,13.18,0,0,1,55.81,36a.35.35,0,0,1,0,.42.4.4,0,0,1-.27.24h0a13,13,0,0,1-2.84-2.15Zm28.24,0a.52.52,0,0,1,.39-.5,6.69,6.69,0,0,1,1.42.93c1.27,1,1.48,1.22,1.23,1.55a.43.43,0,0,1-.24.16h0A16.14,16.14,0,0,1,81,34.46Zm-52.42-.32c0-.3.07-.48.3-.5a8.26,8.26,0,0,1,2.8,2.1c0,.14,0,.29-.09.32a.79.79,0,0,1-.27.1h0A14.5,14.5,0,0,1,28.55,34.14Zm29.39.9c-.93-.69-1.14-.92-1.15-1.13s.06-.27.27-.32.45.06,1.54.88a6.81,6.81,0,0,1,1.28,1.12.62.62,0,0,1-.09.32c-.07.11-.12.18-.2.2h0c-.2,0-.57-.28-1.63-1.07Zm27-1.14a.51.51,0,0,1,.39-.5,13.29,13.29,0,0,1,2.59,1.82c.22.23.23.27.11.52s-.19.28-.26.29h0a16.77,16.77,0,0,1-2.83-2.13Zm-79.26.9c.17-.23.36-.45.54-.68a10.29,10.29,0,0,1,1,.82c.18.2.22.3.15.48s-.12.22-.23.23h0c-.24,0-.65-.25-1.45-.85Zm27-1a.63.63,0,0,1-.16-.24.52.52,0,0,1,.4-.46,11.1,11.1,0,0,1,2.65,2,.62.62,0,0,1,.06.38.2.2,0,0,1-.18.18h0C35,35.59,34.23,35.06,32.63,33.77ZM62,34.6c-1.07-.8-1.31-1-1.32-1.23s.07-.28.29-.33.44,0,1.54.87A7.07,7.07,0,0,1,63.8,35a.56.56,0,0,1-.08.33.5.5,0,0,1-.24.19h0A8.84,8.84,0,0,1,62,34.6Zm26.91-1.21c0-.31.06-.51.27-.54A11.44,11.44,0,0,1,92,35a.52.52,0,0,1-.09.34.41.41,0,0,1-.24.19h0a14.39,14.39,0,0,1-2.77-2.09Zm-79.39.83c-1.19-.88-1.35-1.06-1.26-1.44s.48-.22,1.76.75S11.6,34.82,11.29,35a.6.6,0,0,1-.21.08H11c-.26,0-.61-.22-1.47-.86Zm28.16-.12A9.27,9.27,0,0,1,36.4,33a.54.54,0,0,1,.42-.48,5.14,5.14,0,0,1,1.34.87c1.48,1.13,1.48,1.14,1.37,1.41s-.12.23-.23.25h0c-.25,0-.69-.28-1.55-.94ZM66,34c-1.32-1-1.57-1.32-1.17-1.51s.54-.05,1.75.88,1.26,1,1.18,1.37c0,.12-.08.18-.17.19h0c-.23,0-.69-.28-1.55-.92Zm-52.42-.33c-1.23-.91-1.39-1.08-1.32-1.44S12.68,32,14,33s1.54,1.3,1.21,1.49a.48.48,0,0,1-.2.07H15c-.25,0-.6-.21-1.41-.81Zm26.9-1.24c0-.3.07-.48.3-.51a8.69,8.69,0,0,1,2.8,2.12.32.32,0,0,1-.09.3.76.76,0,0,1-.3.1h0a11.63,11.63,0,0,1-2.71-2Zm28.11-.2c0-.2.15-.34.46-.38a13.41,13.41,0,0,1,2.61,1.88.35.35,0,0,1,0,.42.4.4,0,0,1-.27.24h0A12.92,12.92,0,0,1,68.55,32.27Zm-51.13.8A8.17,8.17,0,0,1,16.12,32a.55.55,0,0,1,.38-.5,6.89,6.89,0,0,1,1.43.93c.9.68,1.27,1,1.3,1.19a.55.55,0,0,1,0,.31A.25.25,0,0,1,19,34h0C18.73,34,18.29,33.73,17.42,33.07Zm26.94-1.16c0-.29.07-.47.3-.5a8.16,8.16,0,0,1,2.8,2.1c0,.14,0,.29-.09.32a.63.63,0,0,1-.27.1h0a14.5,14.5,0,0,1-2.73-2Zm29.39.9c-.93-.69-1.14-.92-1.15-1.12s.06-.28.27-.33.45.06,1.54.88a6.87,6.87,0,0,1,1.28,1.13.62.62,0,0,1-.09.32c-.07.11-.12.18-.2.2h0c-.2,0-.57-.28-1.63-1.07ZM21.36,32.5a8.58,8.58,0,0,1-1.31-1.1.54.54,0,0,1,.39-.5A14.15,14.15,0,0,1,23,32.71c.19.2.22.3.15.48s-.12.22-.23.23h0c-.24,0-.69-.27-1.55-.91Zm27.08-1a.57.57,0,0,1-.15-.23.52.52,0,0,1,.4-.47,11.25,11.25,0,0,1,2.64,2,.63.63,0,0,1,.06.38.2.2,0,0,1-.17.18h0c-.35,0-1.14-.53-2.74-1.82Zm29.4.83c-1.07-.8-1.3-1-1.31-1.23s.06-.28.28-.33.45,0,1.54.87a7.13,7.13,0,0,1,1.27,1.12.66.66,0,0,1-.09.33.46.46,0,0,1-.24.19h0a10,10,0,0,1-1.45-.94Zm15,.46c0-.32,0-.51.27-.54a.34.34,0,0,1,.17.05l0,.95a2.56,2.56,0,0,1-.48-.45ZM25.37,32c-1.2-.88-1.35-1-1.26-1.44s.47-.22,1.76.75,1.54,1.29,1.23,1.47a.49.49,0,0,1-.21.08h-.06c-.26,0-.61-.22-1.47-.86Zm28.15-.11a8.66,8.66,0,0,1-1.3-1.11.51.51,0,0,1,.41-.48,5.37,5.37,0,0,1,1.35.87c1.47,1.13,1.47,1.13,1.36,1.41s-.12.23-.23.24h0C54.82,32.82,54.39,32.54,53.52,31.88Zm28.25-.06c-1.32-1-1.57-1.32-1.17-1.51s.54,0,1.75.88,1.26,1,1.18,1.37c0,.11-.08.18-.17.19h0c-.24,0-.69-.28-1.56-.93Zm-52.42-.33C28.13,30.58,28,30.41,28,30.05s.46-.31,1.78.69S31.35,32,31,32.23a.68.68,0,0,1-.2.07h-.06c-.26,0-.61-.21-1.42-.81Zm26.9-1.24c0-.3.07-.48.3-.51a8.69,8.69,0,0,1,2.8,2.12c0,.13,0,.27-.09.3a1,1,0,0,1-.29.1h0a12.38,12.38,0,0,1-2.71-2Zm28.12-.2c0-.2.14-.34.46-.38a13.36,13.36,0,0,1,2.61,1.87.36.36,0,0,1,0,.43.46.46,0,0,1-.27.24h0a13.3,13.3,0,0,1-2.85-2.16Zm-51.13.8a7.27,7.27,0,0,1-1.3-1.11.52.52,0,0,1,.38-.5,6.69,6.69,0,0,1,1.42.93c.9.68,1.27,1,1.3,1.18a.5.5,0,0,1,0,.32.29.29,0,0,1-.18.11h-.05c-.25,0-.69-.27-1.56-.93Zm26.94-1.16c0-.29.07-.47.3-.5a8.49,8.49,0,0,1,2.8,2.1c0,.15,0,.3-.09.32a.56.56,0,0,1-.27.1h0a13.88,13.88,0,0,1-2.73-2Zm29.39.9c-.93-.69-1.15-.91-1.16-1.12s.07-.27.28-.32.45.06,1.54.88a7.07,7.07,0,0,1,1.27,1.11.5.5,0,0,1-.08.32c-.07.11-.12.19-.2.2h0c-.19,0-.57-.28-1.62-1.07Zm-80.06.18c.22-.19.44-.38.67-.56.67.54.75.7.57,1-.07.11-.13.18-.21.19h0C10.35,31.39,10.08,31.21,9.51,30.77Zm27.66-.49a8.51,8.51,0,0,1-1.3-1.1.51.51,0,0,1,.39-.5,14.5,14.5,0,0,1,2.59,1.81c.18.2.21.3.14.48s-.12.22-.23.23h0c-.24,0-.68-.27-1.55-.92Zm27.09-1a.6.6,0,0,1-.16-.23.52.52,0,0,1,.4-.47,11.52,11.52,0,0,1,2.65,2,.71.71,0,0,1,0,.38.2.2,0,0,1-.17.18h0c-.35,0-1.13-.53-2.73-1.82ZM13,29.88A10.85,10.85,0,0,1,11.87,29c.22-.16.46-.31.7-.46.21.13.5.35.93.68a6.76,6.76,0,0,1,1.27,1.12.5.5,0,0,1-.09.33.46.46,0,0,1-.24.19h0A9.28,9.28,0,0,1,13,29.88Zm28.19-.11c-1.19-.88-1.35-1.05-1.26-1.44s.47-.22,1.76.75,1.55,1.29,1.23,1.47a.49.49,0,0,1-.21.08,0,0,0,0,1-.05,0c-.26,0-.62-.22-1.47-.86Zm28.16-.12A9.27,9.27,0,0,1,68,28.54a.54.54,0,0,1,.41-.48,5.47,5.47,0,0,1,1.35.87c1.47,1.13,1.47,1.14,1.37,1.41s-.12.23-.24.25h0c-.24,0-.68-.28-1.55-.93Zm-52.42-.32c-1.28-1-1.56-1.3-1.2-1.49s.54-.1,1.62.71c1.27.95,1.38,1.08,1.35,1.44,0,.16-.07.26-.18.27h0C18.24,30.27,17.78,30,16.92,29.33Zm28.24-.06c-1.22-.91-1.38-1.08-1.32-1.44s.46-.31,1.78.69,1.54,1.3,1.22,1.49a.68.68,0,0,1-.2.07.06.06,0,0,1-.06,0C46.32,30.09,46,29.87,45.16,29.27ZM72.07,28c0-.3.06-.48.3-.51a8.91,8.91,0,0,1,2.8,2.12c0,.13,0,.27-.1.3a1,1,0,0,1-.29.1h0a12.38,12.38,0,0,1-2.71-2Zm20.27.89c0-.19.07-.27.27-.32s.27,0,.54.14l0,1.07c-.68-.53-.85-.72-.86-.89ZM19.52,27.56c0-.2.14-.34.47-.39a14.4,14.4,0,0,1,2.73,2,.89.89,0,0,1-.08.31.46.46,0,0,1-.27.24h0A13,13,0,0,1,19.52,27.56Zm29.53,1.07a8.17,8.17,0,0,1-1.3-1.12.53.53,0,0,1,.38-.5,7,7,0,0,1,1.43.93c.9.68,1.27,1,1.3,1.19a.55.55,0,0,1,0,.31.27.27,0,0,1-.18.11h0C50.35,29.57,49.91,29.28,49.05,28.63ZM76,27.47c0-.3.07-.48.3-.5a8.26,8.26,0,0,1,2.8,2.1c0,.14,0,.29-.09.32a.88.88,0,0,1-.27.1h0A14.18,14.18,0,0,1,76,27.47Zm-51.27.63c-.93-.69-1.15-.92-1.16-1.12s.07-.28.28-.33.45.05,1.53.87a7.25,7.25,0,0,1,1.28,1.13.62.62,0,0,1-.09.32c-.07.11-.11.18-.2.2h0c-.2,0-.57-.28-1.63-1.07Zm28.27,0A8.58,8.58,0,0,1,51.68,27a.54.54,0,0,1,.39-.5,14.15,14.15,0,0,1,2.59,1.81c.18.2.22.3.15.47s-.12.23-.23.24h0c-.25,0-.69-.27-1.55-.91Zm27.08-1a.63.63,0,0,1-.16-.24.52.52,0,0,1,.4-.46,11.31,11.31,0,0,1,2.65,2,.56.56,0,0,1,.05.38.2.2,0,0,1-.17.18h0c-.35,0-1.13-.53-2.73-1.82Zm-51.27.56c-1.06-.8-1.3-1-1.31-1.23s.06-.28.28-.33.45,0,1.54.87a6.76,6.76,0,0,1,1.27,1.12.5.5,0,0,1-.09.33.4.4,0,0,1-.24.18h0a9,9,0,0,1-1.45-.94ZM57,27.55c-1.19-.88-1.35-1.06-1.26-1.44s.47-.22,1.76.75,1.55,1.29,1.24,1.47a.6.6,0,0,1-.21.08h-.06c-.26,0-.62-.22-1.47-.86Zm28.16-.12a9.27,9.27,0,0,1-1.31-1.11.54.54,0,0,1,.42-.48,5.6,5.6,0,0,1,1.34.87c1.47,1.13,1.48,1.14,1.37,1.41s-.12.23-.23.25h0c-.25,0-.69-.28-1.55-.94Zm-52.42-.32c-1.29-1-1.56-1.3-1.21-1.5s.55-.1,1.62.72c1.28,1,1.39,1.08,1.36,1.43,0,.17-.07.26-.18.28h0c-.23,0-.69-.29-1.55-.93ZM61,27c-1.23-.91-1.39-1.08-1.32-1.44s.46-.31,1.78.7,1.54,1.3,1.21,1.48a.7.7,0,0,1-.2.08h-.06c-.26,0-.6-.21-1.41-.82Zm26.9-1.24c0-.3.06-.48.3-.51A8.8,8.8,0,0,1,91,27.41a.32.32,0,0,1-.09.3.76.76,0,0,1-.3.1h0a11.59,11.59,0,0,1-2.71-2Zm-52.55-.46c0-.2.15-.34.47-.39a14,14,0,0,1,2.73,2,1.09,1.09,0,0,1-.08.31.4.4,0,0,1-.27.24h0A13,13,0,0,1,35.33,25.34ZM64.86,26.4a7.63,7.63,0,0,1-1.3-1.11.55.55,0,0,1,.38-.5,6.51,6.51,0,0,1,1.43.93c.9.68,1.27,1,1.3,1.19a.55.55,0,0,1,0,.31.25.25,0,0,1-.18.11h0C66.17,27.34,65.72,27.07,64.86,26.4Zm-24.33-.52c-.93-.69-1.15-.92-1.16-1.12s.07-.28.29-.33.45.05,1.53.87a7.19,7.19,0,0,1,1.27,1.13.53.53,0,0,1-.08.32c-.07.11-.12.18-.2.2h0C42,27,41.59,26.67,40.53,25.88Zm28.27,0a9.2,9.2,0,0,1-1.31-1.1.54.54,0,0,1,.39-.5,14.15,14.15,0,0,1,2.59,1.81c.18.2.22.3.15.47s-.12.22-.23.24h0C70.1,26.77,69.66,26.49,68.8,25.84Zm-52,0,0,0,.77-.49c.48.38.64.64.58.92a.22.22,0,0,1-.18.19h0a2.46,2.46,0,0,1-1.11-.6Zm27.79-.4c-1.07-.8-1.31-1-1.32-1.23s.07-.28.28-.33.45,0,1.55.87a7.07,7.07,0,0,1,1.26,1.12.5.5,0,0,1-.09.33.41.41,0,0,1-.23.18h0a8.18,8.18,0,0,1-1.45-.94Zm47.18-.19c0-.3.07-.48.3-.5a2.17,2.17,0,0,1,.87.44c0,.36,0,.73.07,1.1a7.28,7.28,0,0,1-1.24-1Zm-19,.08c-1.19-.88-1.35-1-1.26-1.44s.48-.22,1.76.75,1.55,1.29,1.24,1.47a.6.6,0,0,1-.21.08h-.06c-.26,0-.61-.22-1.47-.86Zm-52.5-.39c-.36-.27-.69-.53-.93-.74l.73-.46.65.48c1.47,1.13,1.47,1.14,1.37,1.41s-.12.24-.23.25h0c-.25,0-.69-.28-1.55-.94Zm28.24-.05c-1.28-1-1.56-1.3-1.2-1.5s.54-.1,1.62.72c1.27.95,1.38,1.08,1.35,1.43,0,.17-.07.26-.18.28h0c-.23,0-.68-.29-1.55-.94Zm28.25-.07c-1.23-.91-1.39-1.08-1.32-1.44s.46-.31,1.78.7,1.54,1.3,1.21,1.48a.6.6,0,0,1-.2.08H78.2c-.25,0-.6-.22-1.41-.82ZM24.3,24.4c-1.05-.8-1.27-1-1.28-1.24s.06-.28.27-.33.46.09,1.53.89c1.24.94,1.44,1.17,1.22,1.45a.32.32,0,0,1-.2.14h0c-.24,0-.64-.26-1.5-.91Zm26.84-1.29c0-.2.15-.34.47-.38a14,14,0,0,1,2.73,2,.84.84,0,0,1-.08.31.4.4,0,0,1-.27.24h0a12.69,12.69,0,0,1-2.84-2.16Zm29.53,1.07a7.63,7.63,0,0,1-1.3-1.11.53.53,0,0,1,.39-.5,6.69,6.69,0,0,1,1.42.93c.9.67,1.27,1,1.3,1.18a.58.58,0,0,1,0,.32.25.25,0,0,1-.18.11h0c-.25,0-.69-.27-1.56-.93Zm-52.43-.35C27.18,23,27,22.82,27,22.61s.05-.29.27-.34.46.07,1.53.88,1.27,1,1.3,1.2,0,.29-.09.32a.48.48,0,0,1-.18.06h-.05c-.24,0-.59-.22-1.48-.89Zm28.1-.17c-.93-.69-1.14-.92-1.15-1.13s.06-.27.28-.32.45.05,1.53.87a6.87,6.87,0,0,1,1.28,1.13.62.62,0,0,1-.09.32c-.07.11-.12.18-.2.2h0c-.19,0-.56-.28-1.62-1.07Zm28.27,0a9.82,9.82,0,0,1-1.3-1.1.51.51,0,0,1,.39-.5,14,14,0,0,1,2.59,1.81c.18.2.21.3.14.47s-.12.22-.23.24h0c-.24,0-.68-.27-1.55-.92Zm-52.43-.35a8.3,8.3,0,0,1-1.31-1.14.41.41,0,0,1,.41-.42h.08a8.34,8.34,0,0,1,1.41.92c.85.67,1.19,1,1.21,1.16a.44.44,0,0,1,0,.32.21.21,0,0,1-.16.11h0c-.25,0-.69-.28-1.57-.95Zm28.25-.06c-1.07-.8-1.31-1-1.31-1.23s.06-.27.28-.33.45,0,1.54.88a7.07,7.07,0,0,1,1.27,1.11.63.63,0,0,1-.09.33.45.45,0,0,1-.24.19h0a9.22,9.22,0,0,1-1.45-.94Zm28.19-.11c-1.19-.88-1.35-1.05-1.26-1.43s.47-.22,1.76.75,1.55,1.29,1.23,1.47a.49.49,0,0,1-.21.08h0c-.27,0-.62-.23-1.47-.86Zm-52.51-.38a8.78,8.78,0,0,1-1.31-1.13.47.47,0,0,1,.08-.29c.24-.31.53-.19,1.68.7C38,23.13,38,23.14,37.93,23.41s-.12.23-.23.25h0c-.25,0-.69-.28-1.55-.94Zm28.25,0c-1.29-1-1.56-1.3-1.21-1.5s.54-.1,1.62.72c1.27.95,1.39,1.08,1.35,1.43,0,.17-.07.26-.18.28h0C65.68,23.6,65.22,23.31,64.36,22.67Zm-24.25-.49c-1-.8-1.27-1-1.27-1.24s0-.28.26-.33.46.09,1.53.89c1.24.94,1.44,1.17,1.22,1.45a.27.27,0,0,1-.24.14c-.24,0-.64-.26-1.5-.91ZM67,20.9c0-.2.15-.34.47-.39a14.1,14.1,0,0,1,2.74,2,1.09,1.09,0,0,1-.08.31.4.4,0,0,1-.28.24h0A12.75,12.75,0,0,1,67,20.89ZM92.6,22.6c-1.22-.91-1.38-1.08-1.32-1.44s.32-.34,1.11.2c.1.42.18.84.25,1.27Zm-48.54-1c-1.07-.8-1.3-1-1.29-1.23s0-.28.27-.34.46.07,1.53.88,1.27,1,1.3,1.2,0,.29-.09.32l-.18.07h-.06c-.24,0-.59-.23-1.48-.91Zm28.1-.18c-.93-.69-1.15-.92-1.16-1.12s.07-.28.29-.33.44.05,1.52.87A6.87,6.87,0,0,1,74.09,22a.48.48,0,0,1-.09.32c-.06.11-.11.18-.2.2h0c-.2,0-.57-.29-1.63-1.08ZM48,21.05a7.5,7.5,0,0,1-1.31-1.14.41.41,0,0,1,.41-.42h.07a8,8,0,0,1,1.41.92c.86.67,1.19,1,1.21,1.16a.5.5,0,0,1,0,.32.25.25,0,0,1-.17.11h0c-.25,0-.68-.28-1.57-.95ZM76.24,21c-1.06-.8-1.3-1-1.31-1.24s.07-.27.28-.32.45,0,1.54.87A6.75,6.75,0,0,1,78,21.42a.54.54,0,0,1-.08.33.47.47,0,0,1-.25.19h0a9.28,9.28,0,0,1-1.45-1Zm-51.88.05.75-.48c.48.41.62.7.39.83a.54.54,0,0,1-.21.08h-.07a1.83,1.83,0,0,1-.87-.43Zm27.56-.55a8.78,8.78,0,0,1-1.31-1.13.55.55,0,0,1,.08-.29c.24-.31.53-.19,1.68.7,1.48,1.13,1.48,1.14,1.37,1.41s-.12.23-.23.25h0C53.22,21.44,52.79,21.15,51.92,20.5Zm28.25-.06c-1.29-1-1.56-1.3-1.21-1.49s.54-.1,1.62.71c1.28.95,1.39,1.08,1.36,1.44,0,.16-.07.26-.18.27h0C81.49,21.37,81,21.09,80.17,20.44Zm-53.26-1,.76-.49a7.83,7.83,0,0,1,1.85,1.59c0,.14,0,.27-.09.3a.63.63,0,0,1-.3.1h0A11.79,11.79,0,0,1,26.91,19.44Zm29,.52c-1-.8-1.27-1-1.27-1.24s.05-.29.26-.34.46.09,1.53.9c1.24.93,1.44,1.16,1.22,1.45a.29.29,0,0,1-.24.14c-.24,0-.64-.26-1.5-.92Zm26.85-1.29c0-.2.14-.34.46-.39a14.1,14.1,0,0,1,2.74,2,1.09,1.09,0,0,1-.08.31.4.4,0,0,1-.27.24h0A13,13,0,0,1,82.77,18.67Zm-51,.89c-1.33-1-1.41-1.1-1.43-1.24a.52.52,0,0,1,.38-.46,6.62,6.62,0,0,1,1.43.93c.9.67,1.27,1,1.3,1.18a.55.55,0,0,1,0,.31.25.25,0,0,1-.18.11h0c-.25,0-.66-.24-1.43-.83Zm28.1-.17c-1.06-.8-1.29-1-1.29-1.23s.05-.28.27-.34.47.07,1.53.88,1.28,1,1.3,1.2,0,.29-.08.32a.45.45,0,0,1-.18.07h-.06c-.25,0-.6-.22-1.49-.9ZM88,19.21c-.93-.69-1.14-.92-1.15-1.12s.06-.28.28-.33.45,0,1.53.87a7.25,7.25,0,0,1,1.28,1.13.62.62,0,0,1-.09.32c-.07.11-.12.18-.2.2h0c-.2,0-.58-.28-1.63-1.07ZM35.76,19c-1.68-1.28-1.63-1.22-1.39-1.54s.48-.21,1.56.59c1.38,1,1.57,1.22,1.47,1.51s-.12.22-.23.23h0c-.24,0-.64-.24-1.38-.79Zm28.05-.2a8.85,8.85,0,0,1-1.31-1.14.43.43,0,0,1,.41-.43H63a7.34,7.34,0,0,1,1.42.92c.85.66,1.18,1,1.21,1.15a.62.62,0,0,1,0,.33.27.27,0,0,1-.17.1h0c-.25,0-.68-.27-1.56-.94Zm-24.17-.39c-1.23-.91-1.38-1.08-1.32-1.44s.44-.29,1.76.71,1.55,1.29,1.24,1.47a.68.68,0,0,1-.2.07h-.06c-.27,0-.61-.21-1.42-.82Zm28.1-.16a8.78,8.78,0,0,1-1.31-1.13.48.48,0,0,1,.09-.29c.23-.31.52-.19,1.67.7,1.48,1.13,1.48,1.14,1.37,1.41s-.12.23-.23.25h0c-.25,0-.69-.29-1.56-.94Zm-25.5-1.55c-.05-.3,0-.49.28-.53a9.18,9.18,0,0,1,2.82,2.12.32.32,0,0,1-.09.3.88.88,0,0,1-.3.1h0a11.32,11.32,0,0,1-2.71-2Zm29.5,1c-1-.8-1.27-1-1.27-1.23s0-.29.26-.34.47.09,1.53.9c1.24.93,1.44,1.16,1.22,1.45a.26.26,0,0,1-.19.13h-.05c-.24,0-.65-.26-1.51-.91Zm19-.19c0-.19.06-.28.28-.33h.08c.16.39.31.79.45,1.19-.65-.5-.81-.69-.82-.85Zm-43.16-.2c-1.33-1-1.41-1.1-1.43-1.24a.52.52,0,0,1,.38-.46,7,7,0,0,1,1.43.93c.9.67,1.27,1,1.3,1.18a.58.58,0,0,1,0,.32.25.25,0,0,1-.18.11h0c-.25,0-.67-.26-1.43-.84Zm28.1-.17c-1.06-.79-1.29-1-1.29-1.22s0-.29.27-.34.46.07,1.53.87,1.27,1,1.3,1.2,0,.29-.08.32a.44.44,0,0,1-.19.07h0c-.26,0-.6-.22-1.5-.9Zm-24.11-.36c-1.68-1.27-1.63-1.22-1.39-1.54s.47-.21,1.55.59c1.38,1,1.57,1.22,1.47,1.51-.05.14-.12.22-.23.23h0c-.23,0-.63-.23-1.36-.79Zm28.05-.2a7.5,7.5,0,0,1-1.31-1.14.41.41,0,0,1,.41-.42h.07a7.89,7.89,0,0,1,1.42.93c.85.66,1.18,1,1.21,1.15a.58.58,0,0,1,0,.32.25.25,0,0,1-.17.11h0c-.25,0-.69-.28-1.57-.95Zm-24.17-.39c-1.23-.91-1.39-1.08-1.32-1.44s.44-.29,1.76.71,1.55,1.29,1.23,1.47a.6.6,0,0,1-.2.08h-.06c-.26,0-.61-.22-1.42-.83Zm28.1-.16a7.88,7.88,0,0,1-1.31-1.13.43.43,0,0,1,.08-.29c.24-.31.53-.19,1.68.7,1.47,1.13,1.47,1.14,1.37,1.41s-.12.23-.23.25h0c-.26,0-.7-.29-1.56-.95Zm-51.66.23.76-.48a.69.69,0,0,1,.25.57c0,.17-.08.26-.2.28h0a1.83,1.83,0,0,1-.78-.38Zm26.15-1.78c0-.3.06-.49.29-.52a8.84,8.84,0,0,1,2.81,2.12c0,.13,0,.27-.09.3a1,1,0,0,1-.3.1h0a12.07,12.07,0,0,1-2.71-2Zm29.51,1c-1-.8-1.27-1-1.27-1.24s0-.28.26-.33.46.08,1.53.89c1.24.93,1.44,1.16,1.22,1.45a.32.32,0,0,1-.2.14h0c-.25,0-.66-.26-1.51-.92Zm-53.08-.86.74-.47a10.41,10.41,0,0,1,1.72,1.38.89.89,0,0,1-.08.31.46.46,0,0,1-.27.24h0a11.32,11.32,0,0,1-2.1-1.47Zm28.93.46C62.07,14.1,62,14,62,13.89a.55.55,0,0,1,.39-.47,6.69,6.69,0,0,1,1.42.93c.9.68,1.28,1,1.3,1.19a.47.47,0,0,1,0,.31.27.27,0,0,1-.18.11h0c-.26,0-.67-.26-1.44-.84ZM39,14.5c-.94-.7-1.16-.9-1.17-1.12s.06-.27.29-.33.44,0,1.54.88A7,7,0,0,1,40.87,15a.53.53,0,0,1-.08.33.47.47,0,0,1-.23.19h-.07c-.13,0-.29-.12-1.55-1.06Zm28.44.09c-1.68-1.27-1.63-1.21-1.39-1.54s.48-.21,1.56.6c1.37,1,1.56,1.21,1.46,1.5,0,.14-.12.22-.23.23h0c-.24,0-.64-.24-1.37-.79ZM43,14.06c-1.07-.8-1.31-1-1.32-1.24s.07-.27.29-.32.44,0,1.54.87a7,7,0,0,1,1.26,1.11.47.47,0,0,1-.09.33.41.41,0,0,1-.24.19h0A9.13,9.13,0,0,1,43,14.06ZM71.26,14c-1.22-.91-1.38-1.08-1.32-1.44s.44-.28,1.76.71,1.55,1.29,1.24,1.47a.7.7,0,0,1-.2.08h-.06C72.42,14.81,72.07,14.6,71.26,14ZM46.94,13.5c-1.28-1-1.56-1.3-1.2-1.49s.55-.1,1.56.65c1.26.94,1.44,1.13,1.41,1.49,0,.17-.07.27-.18.28h0C48.26,14.43,47.8,14.15,46.94,13.5Zm26.92-1.22c0-.3,0-.49.28-.52A8.88,8.88,0,0,1,77,13.88a.32.32,0,0,1-.09.3,1.18,1.18,0,0,1-.3.1h0A12,12,0,0,1,73.86,12.28Zm-24.32-.55c0-.2.15-.34.47-.38a13.74,13.74,0,0,1,2.73,2,.89.89,0,0,1-.08.31.46.46,0,0,1-.27.24h0A13.24,13.24,0,0,1,49.54,11.73Zm29.67,1.16c-1.33-1-1.42-1.1-1.44-1.23a.55.55,0,0,1,.39-.47,7,7,0,0,1,1.43.93c.9.68,1.27,1,1.3,1.19a.55.55,0,0,1,0,.31.25.25,0,0,1-.18.11h0C80.39,13.73,80,13.48,79.21,12.89Zm-24.46-.62c-.94-.7-1.15-.9-1.16-1.12s0-.27.28-.33.45,0,1.54.88a7.07,7.07,0,0,1,1.27,1.11.6.6,0,0,1-.09.33.39.39,0,0,1-.23.19H56.3C56.18,13.34,56,13.22,54.75,12.27Zm28.44.09c-1.68-1.27-1.62-1.21-1.38-1.54s.47-.21,1.55.6c1.39,1,1.58,1.21,1.47,1.5s-.12.22-.23.24h0c-.24,0-.63-.24-1.37-.79Zm-24.36-.53c-1.07-.79-1.31-1-1.31-1.23s.06-.27.28-.33.45,0,1.54.88a6.7,6.7,0,0,1,1.26,1.12.56.56,0,0,1-.08.33.43.43,0,0,1-.24.18h0A8.62,8.62,0,0,1,58.83,11.83Zm28.25-.06c-1.23-.91-1.39-1.08-1.33-1.44s.45-.29,1.77.71l.25.19c.32.43.62.86.91,1.31a.33.33,0,0,1-.13,0h-.06c-.26,0-.6-.21-1.42-.81Zm-24.32-.49c-1.29-1-1.56-1.3-1.21-1.49s.55-.1,1.56.65c1.26.94,1.44,1.13,1.41,1.49,0,.17-.07.26-.18.28h0c-.24,0-.69-.29-1.55-.93Zm-23.28.2.7-.44c.19.22.2.37.08.53a.32.32,0,0,1-.21.13h0a1.08,1.08,0,0,1-.53-.21Zm25.87-2c0-.2.15-.34.47-.39a14.1,14.1,0,0,1,2.74,2,1.09,1.09,0,0,1-.08.31.4.4,0,0,1-.28.24h0a13.25,13.25,0,0,1-2.85-2.15Zm-22.9.72L42,9.88l.77-.49.2.16c1.22.92,1.42,1.17,1.2,1.46a.26.26,0,0,1-.19.13h0c-.22,0-.61-.25-1.48-.91Zm28.11-.18c-.94-.7-1.15-.91-1.16-1.12s0-.28.28-.33.45,0,1.54.87a7.07,7.07,0,0,1,1.26,1.12.56.56,0,0,1-.08.33.46.46,0,0,1-.23.18H72.1c-.11,0-.27-.1-1.53-1ZM46.39,9.67c-1.31-1-1.55-1.32-1.15-1.5S45.77,8.11,47,9c.86.65,1.19,1,1.21,1.15a.5.5,0,0,1,0,.32.23.23,0,0,1-.17.1h0C47.71,10.62,47.27,10.34,46.39,9.67Zm28.25-.06c-1.07-.8-1.3-1-1.31-1.23s.06-.28.28-.33.45,0,1.54.87A7.13,7.13,0,0,1,76.42,10a.54.54,0,0,1-.08.33.49.49,0,0,1-.24.19h0a9.37,9.37,0,0,1-1.46-1ZM50.32,9.12A8.78,8.78,0,0,1,49,8a.48.48,0,0,1,.09-.29c.24-.32.53-.19,1.81.78a14.66,14.66,0,0,1,1.3,1.06,1.27,1.27,0,0,1-.06.28c0,.14-.12.22-.23.24h0C51.63,10.06,51.19,9.78,50.32,9.12Zm28.25-.06c-1.29-1-1.56-1.3-1.21-1.49s.55-.1,1.56.65c1.27.94,1.45,1.13,1.41,1.49,0,.16-.06.26-.18.28h0C79.89,10,79.43,9.7,78.57,9.06ZM54.33,8.57c-1-.8-1.28-1-1.28-1.23s.05-.29.26-.34.47.08,1.53.89c1.24.93,1.44,1.17,1.23,1.46a.3.3,0,0,1-.2.13h0C55.59,9.48,55.2,9.22,54.33,8.57ZM81.17,7.29c0-.2.14-.34.47-.39a14.34,14.34,0,0,1,2.73,2,1.09,1.09,0,0,1-.08.31.44.44,0,0,1-.27.25h0A13.32,13.32,0,0,1,81.17,7.29ZM58.27,8C57.2,7.21,57,7,57,6.78s.06-.28.28-.33.45.06,1.54.88S60.21,8.51,60,8.79a.26.26,0,0,1-.19.13h0c-.22,0-.61-.25-1.49-.91Zm3.93-.56c-1.31-1-1.55-1.32-1.15-1.5s.53-.06,1.74.87C63.64,7.47,64,7.78,64,8a.45.45,0,0,1,0,.32.23.23,0,0,1-.16.1h0c-.25,0-.68-.27-1.56-.94Zm3.93-.56a8.24,8.24,0,0,1-1.31-1.13.46.46,0,0,1,.08-.28c.25-.33.54-.19,1.82.78A13.08,13.08,0,0,1,68,7.32,1.4,1.4,0,0,1,68,7.6c0,.14-.12.22-.23.24h0c-.25,0-.69-.29-1.55-1Zm4-.54c-1.06-.81-1.28-1-1.28-1.24s0-.28.26-.33.46.08,1.53.88c1.24.94,1.44,1.18,1.22,1.46a.3.3,0,0,1-.2.14h0c-.22,0-.62-.26-1.48-.91Zm-23.09.34.58-.37a.19.19,0,0,1,0,.07.37.37,0,0,1,0,.29.25.25,0,0,1-.17.11H47.4a.88.88,0,0,1-.35-.1Zm27-.9c-1.07-.8-1.29-1-1.29-1.22s0-.29.27-.34.45.06,1.54.88S76,6.29,75.8,6.58a.28.28,0,0,1-.19.12h0c-.22,0-.61-.25-1.49-.91ZM50,5.43l-.41-.31.77-.49C51.53,5.52,51.7,5.71,51.6,6s-.12.22-.23.24h0c-.23,0-.63-.25-1.36-.8ZM78,5.23c-1.31-1-1.55-1.31-1.15-1.5s.54,0,1.74.88c.85.65,1.19,1,1.21,1.14a.5.5,0,0,1,0,.32.25.25,0,0,1-.17.11h0c-.24,0-.68-.29-1.56-1ZM53.84,4.84c-1.22-.91-1.38-1.08-1.32-1.44l0-.1.23-.12a4.89,4.89,0,0,1,1.51.93c1.25.94,1.54,1.29,1.23,1.47a.5.5,0,0,1-.2.08h-.06c-.25,0-.6-.23-1.41-.83Zm2.6-1.71c0-.3.05-.49.29-.52a9,9,0,0,1,2.81,2.12c0,.13,0,.27-.09.3a1,1,0,0,1-.3.1h0a12.71,12.71,0,0,1-2.71-2Zm5.35.61c-1.33-1-1.41-1.1-1.43-1.23a.52.52,0,0,1,.4-.47A7.27,7.27,0,0,1,62.17,3c.91.68,1.27,1,1.3,1.19a.58.58,0,0,1,0,.32.25.25,0,0,1-.17.11h-.05c-.24,0-.65-.26-1.42-.85Zm4-.53C64.1,1.94,64.15,2,64.39,1.67s.47-.21,1.55.6c1.39,1,1.58,1.2,1.48,1.5,0,.13-.12.22-.23.23h0c-.24,0-.63-.24-1.37-.8Zm3.88-.6c-1.23-.9-1.39-1.08-1.32-1.43s.44-.29,1.76.7,1.55,1.3,1.23,1.47a.44.44,0,0,1-.2.08h-.06c-.25,0-.6-.22-1.41-.82ZM72.25.9V.85c.66.17,1.32.37,2,.58A4.55,4.55,0,0,1,75.35,2.5c0,.13,0,.27-.09.3a.77.77,0,0,1-.29.1h0a12,12,0,0,1-2.7-2ZM58.05,1l.88-.23a.33.33,0,0,1,0,.41.44.44,0,0,1-.24.18h0A2.88,2.88,0,0,1,58.06,1ZM61.66.27c.38-.06.76-.1,1.14-.14a.5.5,0,0,1,.11.51c0,.11-.07.18-.16.19h0A2.61,2.61,0,0,1,61.66.27ZM66.09,0l.79,0h0a.39.39,0,0,1-.26.24h0A1.75,1.75,0,0,1,66.09,0Z" transform="translate(0)"/></svg>