<svg id="Layer_1" data-name="Layer 1" xmlns="http://www.w3.org/2000/svg" viewBox="0 0 99.86 100.03"><title>2_02</title><path id="Intersection_2" data-name="Intersection 2" d="M54.49,100c0-.1.1-.2.16-.3,1-1.76,1.12-1.88,1.51-1.68a.41.41,0,0,1,.22.21,9.06,9.06,0,0,1-.92,1.81Zm3.31,0a8.51,8.51,0,0,1,1.76-3c.13,0,.28,0,.32.05a.84.84,0,0,1,.13.27h0a14.52,14.52,0,0,1-1.43,2.66l-.78.06Zm-6.22-.36a3.1,3.1,0,0,1,.51-.68.56.56,0,0,1,.34,0,.52.52,0,0,1,.22.22,2.06,2.06,0,0,1-.23.55l-.84-.13Zm10-.63c-.1-.24,0-.45.68-1.63a7,7,0,0,1,1-1.4.54.54,0,0,1,.33,0,.4.4,0,0,1,.22.22A8.91,8.91,0,0,1,63,97.8c-.66,1.15-.87,1.42-1.07,1.45h-.08c-.14,0-.21-.07-.28-.25ZM49.5,98.29c-.2-.31-.12-.53.65-1.84s.85-1.38,1.22-1.34c.12,0,.19,0,.21.14s-.16.7-.73,1.69-.93,1.5-1.15,1.5S49.56,98.38,49.5,98.29Zm-3.42-.22a9.19,9.19,0,0,1,1.19-1.88.62.62,0,0,1,.38-.1.17.17,0,0,1,.19.15c.07.25-.21.88-1,2.14l-.8-.31Zm19.1,0A11.15,11.15,0,0,1,66.93,95a.57.57,0,0,1,.34,0,.45.45,0,0,1,.21.22,14.25,14.25,0,0,1-1.73,3,.85.85,0,0,1-.23,0,.31.31,0,0,1-.34-.24ZM53,97.09a7.24,7.24,0,0,1,.75-1.53c.79-1.38,1-1.61,1.4-1.4a.46.46,0,0,1,.18.21,15.84,15.84,0,0,1-1.78,3h-.08a.52.52,0,0,1-.47-.32Zm-9.12,0a.28.28,0,0,1,.17.09ZM70.66,94c.13,0,.28,0,.32.06a.94.94,0,0,1,.14.26h0a10.22,10.22,0,0,1-1,2c-.4.24-.8.46-1.21.67a8.93,8.93,0,0,1,1.75-3Zm-13.9,2.1a10.94,10.94,0,0,1,1.62-2.86.61.61,0,0,1,.37-.1.2.2,0,0,1,.2.15c.09.31-.34,1.15-1.47,3a.6.6,0,0,1-.21.18h-.06a.59.59,0,0,1-.46-.35Zm-15.55-.61a16.42,16.42,0,0,1,1.17-2c.17-.2.27-.25.45-.2a.3.3,0,0,1,.26.2c.06.23-.16.7-.72,1.69-.17.29-.33.56-.48.79l-.69-.46Zm3.41-.26a5.49,5.49,0,0,1,.7-1.44c.94-1.6,1-1.6,1.23-1.53s.25.09.28.2-.16.7-.74,1.69a9.53,9.53,0,0,1-.94,1.43h-.06a.6.6,0,0,1-.47-.37Zm16,.11c-.2-.31-.12-.53.66-1.84s.85-1.38,1.22-1.34a.21.21,0,0,1,.21.14c.06.22-.17.7-.73,1.69s-.93,1.5-1.15,1.5a.29.29,0,0,1-.21-.16ZM48.35,94.18a13,13,0,0,1,1.54-2.83.36.36,0,0,1,.41-.1.44.44,0,0,1,.28.25,13.49,13.49,0,0,1-1.8,3.09h-.07c-.16,0-.29-.16-.36-.43Zm15.78-.06a7.24,7.24,0,0,1,.75-1.53c.8-1.37,1-1.61,1.39-1.4a.41.41,0,0,1,.18.21,15.42,15.42,0,0,1-1.78,3H64.6a.54.54,0,0,1-.48-.34ZM74.3,93a.46.46,0,0,1,.26,0l-.8.69A3.23,3.23,0,0,1,74.3,93ZM52,93.26a13.84,13.84,0,0,1,1.49-2.79c.21-.26.24-.27.5-.18a.52.52,0,0,1,.32.22,17.18,17.18,0,0,1-1.77,3.08h-.07a.55.55,0,0,1-.47-.34Zm15.86-.15a11.54,11.54,0,0,1,1.62-2.86.59.59,0,0,1,.38-.1.2.2,0,0,1,.21.15c.06.22-.11.65-.53,1.38-.76,1.32-1,1.74-1.18,1.77h0a.56.56,0,0,1-.46-.36ZM40.1,92.63c-.39,0-.28-.44.53-1.83s1.09-1.7,1.31-1.4a.47.47,0,0,1,.1.2c.07.25-.1.62-.67,1.61-.67,1.19-.85,1.43-1.18,1.43Zm15.62-.4a14.24,14.24,0,0,1,1.49-2.77c.18-.21.27-.26.45-.21s.24.09.27.2-.16.7-.74,1.69a9.13,9.13,0,0,1-.94,1.44h-.06a.56.56,0,0,1-.47-.34Zm16,.1c-.2-.3-.12-.52.66-1.84s.85-1.37,1.22-1.33a.21.21,0,0,1,.21.14c.06.22-.17.7-.73,1.69s-.93,1.49-1.15,1.49-.14,0-.21-.14Zm-34.84-.5.43-.71c.48-.77.63-.88.93-.74.12.06.2.11.22.19s-.12.47-.57,1.25l-.37.64c-.22-.2-.43-.42-.64-.63Zm6.74-.45a8.51,8.51,0,0,1,1.76-3,.3.3,0,0,1,.31,0,.92.92,0,0,1,.14.28h0a12.06,12.06,0,0,1-1.67,2.94l-.2,0a.33.33,0,0,1-.34-.26Zm15.85-.18A12.88,12.88,0,0,1,61,88.38a.36.36,0,0,1,.41-.1.44.44,0,0,1,.28.25,11.9,11.9,0,0,1-1.8,3.08h-.07C59.66,91.62,59.52,91.47,59.45,91.2Zm15.78-.06A7.52,7.52,0,0,1,76,89.61c.79-1.37,1-1.6,1.38-1.4a.43.43,0,0,1,.18.22,16.11,16.11,0,0,1-1.77,3H75.7a.54.54,0,0,1-.47-.33ZM47.36,90.4c-.1-.23,0-.45.69-1.63a6.06,6.06,0,0,1,1-1.4.5.5,0,0,1,.32,0c.12.06.2.1.22.18s-.17.57-.85,1.76c-.58,1-.78,1.25-1,1.28h-.08C47.49,90.64,47.42,90.57,47.36,90.4Zm15.73-.13a14.7,14.7,0,0,1,1.5-2.79c.2-.24.26-.27.5-.22a.51.51,0,0,1,.32.24,14.88,14.88,0,0,1-1.77,3.1h-.07a.55.55,0,0,1-.47-.34Zm-27.86-.73c-.1-.24,0-.45.67-1.64a7.47,7.47,0,0,1,1-1.39.58.58,0,0,1,.34,0,.43.43,0,0,1,.21.21,9.36,9.36,0,0,1-.76,1.56c-.66,1.15-.86,1.42-1.06,1.45H35.5c-.14,0-.21-.08-.27-.25ZM51,89.44a11.11,11.11,0,0,1,1.74-3.07.6.6,0,0,1,.35,0,.43.43,0,0,1,.21.21,13.77,13.77,0,0,1-1.73,3l-.23,0a.32.32,0,0,1-.34-.24Zm15.86-.18a13.88,13.88,0,0,1,1.49-2.76c.17-.22.26-.26.44-.22s.24.09.27.2-.16.71-.74,1.7a9.53,9.53,0,0,1-.94,1.43h-.06a.54.54,0,0,1-.46-.36ZM39.11,88.8c-.47,0-.36-.42.48-1.85s1.1-1.69,1.32-1.39a.54.54,0,0,1,.1.2c.07.25-.09.61-.63,1.56-.72,1.27-.89,1.48-1.22,1.48ZM55,88.66c-.46,0-.37-.42.46-1.85s1.11-1.7,1.33-1.39a.5.5,0,0,1,.1.19c.07.26-.09.61-.63,1.56-.73,1.28-.89,1.49-1.22,1.49Zm15.57-.42A13.26,13.26,0,0,1,72.1,85.4a.34.34,0,0,1,.4-.1.44.44,0,0,1,.28.25A11.26,11.26,0,0,1,71,88.63h-.09c-.16,0-.3-.15-.37-.41Zm-37.34-.76c.12,0,.29,0,.33.06a.75.75,0,0,1,.13.25.31.31,0,0,1,0,.25Zm9.36.07a8.28,8.28,0,0,1,1.75-3c.13,0,.29,0,.32,0a.94.94,0,0,1,.14.26h0a14.36,14.36,0,0,1-1.67,3l-.19,0a.33.33,0,0,1-.35-.26Zm15.89-.11c-.09-.23,0-.47.69-1.64a7.75,7.75,0,0,1,1-1.41.54.54,0,0,1,.33,0c.12,0,.2.09.22.18s-.17.56-.86,1.76c-.57,1-.77,1.25-1,1.28h-.09c-.13,0-.21-.07-.27-.23ZM74.2,87.3a14.48,14.48,0,0,1,1.49-2.8c.2-.24.26-.27.5-.22a.51.51,0,0,1,.32.24,14.88,14.88,0,0,1-1.77,3.1h-.07A.54.54,0,0,1,74.2,87.3Zm-27.88-.74c-.1-.24,0-.45.68-1.64a6.89,6.89,0,0,1,1-1.39.54.54,0,0,1,.33,0,.41.41,0,0,1,.22.21,9.36,9.36,0,0,1-.76,1.56c-.66,1.15-.86,1.42-1.07,1.45H46.6c-.13,0-.2-.07-.27-.25Zm15.75-.1a11.11,11.11,0,0,1,1.74-3.07.61.61,0,0,1,.35,0,.43.43,0,0,1,.21.21,13.77,13.77,0,0,1-1.73,3,.93.93,0,0,1-.23,0,.33.33,0,0,1-.34-.23Zm15.86-.17a13.17,13.17,0,0,1,1.48-2.77c.18-.22.27-.26.45-.22s.24.1.27.2-.16.71-.74,1.7a9.53,9.53,0,0,1-.94,1.43h-.06a.58.58,0,0,1-.46-.35Zm-43.65-.42c-.22-.31-.16-.52.52-1.7.78-1.38.9-1.51,1.25-1.52.17,0,.27,0,.3.15s-.16.7-.73,1.69S34.69,86,34.47,86a.25.25,0,0,1-.19-.12Zm16.24-1.61c1-1.76,1.12-1.88,1.51-1.68a.41.41,0,0,1,.21.22,14.25,14.25,0,0,1-1.73,3,1.55,1.55,0,0,1-.29,0c-.43,0-.33-.47.3-1.58ZM65.8,85.45a9,9,0,0,1,1.76-3.06.3.3,0,0,1,.31,0,.5.5,0,0,1,.1.19c.07.26-.09.62-.63,1.57a11.29,11.29,0,0,1-.89,1.39.57.57,0,0,1-.31.1.34.34,0,0,1-.34-.24ZM31.2,85l.25-.43c.39-.69.65-.93,1-.89a.2.2,0,0,1,.21.15c.05.2-.1.6-.45,1.22l-.4.67Zm6.59-.32a6.39,6.39,0,0,1,.75-1.53c.56-1,.85-1.38,1-1.43a.47.47,0,0,1,.31,0,.25.25,0,0,1,.14.16c.06.24-.15.71-.73,1.7a7.18,7.18,0,0,1-1,1.42h-.07a.52.52,0,0,1-.46-.32Zm15.88-.07a8.42,8.42,0,0,1,1.75-3c.13,0,.29,0,.32.06a.94.94,0,0,1,.14.26h0a13.49,13.49,0,0,1-1.67,3l-.19,0a.34.34,0,0,1-.35-.26Zm15.89-.11c-.09-.22,0-.47.69-1.64a8.3,8.3,0,0,1,1-1.41.62.62,0,0,1,.33,0c.11.06.19.1.21.18s-.16.56-.84,1.76c-.59,1-.76,1.26-1,1.28h-.1c-.13,0-.21-.06-.27-.23Zm-28-.83a11.29,11.29,0,0,1,1.62-2.87.61.61,0,0,1,.37-.1.2.2,0,0,1,.2.15c.09.31-.34,1.15-1.47,3A.52.52,0,0,1,42,84H42a.55.55,0,0,1-.45-.34Zm15.91,0c-.1-.24,0-.45.68-1.64a7,7,0,0,1,1-1.39.57.57,0,0,1,.34,0,.45.45,0,0,1,.21.22,8.91,8.91,0,0,1-.76,1.55c-.66,1.16-.86,1.42-1.06,1.46H57.7c-.13,0-.2-.07-.27-.24Zm15.74-.1a11.23,11.23,0,0,1,1.74-3.07.6.6,0,0,1,.35,0,.41.41,0,0,1,.21.22,13.77,13.77,0,0,1-1.73,3,.85.85,0,0,1-.23,0,.3.3,0,0,1-.33-.23Zm-43.45-.38-.31-.39a4.52,4.52,0,0,1,.67-1.4c.94-1.6,1-1.6,1.23-1.53s.25.09.28.2-.16.7-.74,1.69a8.59,8.59,0,0,1-1,1.44h-.08l-.09,0Zm15.64-.25c-.2-.3-.12-.52.66-1.84s.85-1.37,1.22-1.33a.21.21,0,0,1,.21.14c.06.22-.17.7-.73,1.69S45.79,83,45.57,83s-.14-.05-.2-.15ZM61,82.62a11.2,11.2,0,0,1,1.75-3.06.57.57,0,0,1,.34,0,.43.43,0,0,1,.21.21,13.77,13.77,0,0,1-1.73,3,.85.85,0,0,1-.23,0,.33.33,0,0,1-.34-.24Zm16.14.09c-.45,0-.36-.41.46-1.84s1.11-1.71,1.33-1.4a.5.5,0,0,1,.1.19c.07.26-.09.61-.63,1.56-.72,1.28-.89,1.49-1.22,1.49Zm-44.08-1a14.5,14.5,0,0,1,1.64-3,1.12,1.12,0,0,1,.32,0,.46.46,0,0,1,.28.25,13.49,13.49,0,0,1-1.8,3.09h-.07c-.16,0-.29-.15-.36-.43Zm15.79,0a6.39,6.39,0,0,1,.75-1.53c.78-1.38,1-1.61,1.39-1.4a.43.43,0,0,1,.18.22,15.63,15.63,0,0,1-1.78,3h-.07a.54.54,0,0,1-.47-.33Zm15.88-.06a8.26,8.26,0,0,1,1.75-3c.13,0,.29,0,.32,0a.87.87,0,0,1,.14.27h0a13.46,13.46,0,0,1-1.68,3l-.18,0a.34.34,0,0,1-.35-.26Zm15.89-.11c-.09-.22,0-.47.69-1.64a7.57,7.57,0,0,1,1-1.41.53.53,0,0,1,.33,0c.11.06.19.1.21.18s-.16.57-.84,1.76c-.59,1-.76,1.26-1,1.28h-.1c-.13,0-.2-.06-.26-.22Zm-43.9-.7A13.49,13.49,0,0,1,38.24,78c.18-.21.27-.26.45-.21s.23.09.26.2-.15.7-.72,1.69a9.24,9.24,0,0,1-.93,1.43h-.07a.54.54,0,0,1-.47-.33Zm15.86-.14a11.29,11.29,0,0,1,1.62-2.87.69.69,0,0,1,.37-.1.2.2,0,0,1,.2.15c.09.31-.34,1.16-1.47,3a.64.64,0,0,1-.21.19h-.05a.55.55,0,0,1-.46-.34Zm15.91,0c-.1-.24,0-.45.68-1.64a7.28,7.28,0,0,1,1-1.39.58.58,0,0,1,.34,0,.41.41,0,0,1,.21.2c0,.15.05.15-.87,1.77-.57,1-.75,1.22-1,1.25H68.8c-.13,0-.2-.07-.27-.25Zm-28.05-.84a5.65,5.65,0,0,1,.7-1.44c.94-1.6,1-1.6,1.24-1.53s.24.1.27.2-.16.7-.74,1.69A9.13,9.13,0,0,1,41,80.13H41a.55.55,0,0,1-.46-.35Zm16,.11c-.2-.3-.12-.52.65-1.84s.85-1.37,1.22-1.33c.11,0,.19.05.21.14s-.16.7-.73,1.69S56.89,80,56.67,80s-.14-.05-.2-.15Zm15.66-.3a13.12,13.12,0,0,1,1.76-3,.56.56,0,0,1,.34,0,.45.45,0,0,1,.22.21,12.21,12.21,0,0,1-1.77,3h-.14a.42.42,0,0,1-.41-.28ZM28.39,79c-.09-.21,0-.47.7-1.63.77-1.34,1-1.57,1.29-1.39a.38.38,0,0,1,.16.19c.06.22-.14.65-.72,1.63-.66,1.14-.85,1.39-1.07,1.42h-.1c-.13,0-.2-.06-.26-.23Zm15.82-.22a13.57,13.57,0,0,1,1.54-2.82.36.36,0,0,1,.41-.1.45.45,0,0,1,.28.24,13,13,0,0,1-1.8,3.1h-.07c-.16,0-.29-.16-.36-.42Zm15.78,0a7.24,7.24,0,0,1,.75-1.53c.8-1.37,1-1.62,1.39-1.4a.41.41,0,0,1,.18.21,16.19,16.19,0,0,1-1.77,3h-.08a.54.54,0,0,1-.47-.33Zm15.88-.07a8.68,8.68,0,0,1,1.76-3c.12,0,.28,0,.32,0a1,1,0,0,1,.13.27h0a13.2,13.2,0,0,1-1.67,2.95.63.63,0,0,1-.19,0,.34.34,0,0,1-.35-.26ZM25.61,78l.13-.23c.44-.75.78-1,1-.78a.75.75,0,0,1,.1.2c.06.23-.05.51-.39,1.12l-.23.41Zm6.51,0c-.1-.23,0-.45.68-1.62a6.75,6.75,0,0,1,1-1.41.55.55,0,0,1,.33,0c.11.05.2.09.22.18s-.18.56-.86,1.76c-.58,1-.77,1.25-1,1.28h-.08c-.13,0-.21-.07-.27-.25Zm15.74-.12A14.11,14.11,0,0,1,49.35,75c.21-.26.24-.26.5-.18s.3.15.32.22a16.51,16.51,0,0,1-1.77,3.08h-.07a.56.56,0,0,1-.47-.34Zm15.86-.14a11.6,11.6,0,0,1,1.62-2.87.62.62,0,0,1,.38-.1.21.21,0,0,1,.21.16c.06.21-.11.64-.53,1.37-.76,1.32-1,1.74-1.18,1.77h0a.55.55,0,0,1-.46-.34Zm15.91-.05c-.1-.23,0-.44.68-1.63a7,7,0,0,1,1-1.39.64.64,0,0,1,.34,0c.1,0,.18.1.2.19s-.18.64-.93,2c-.49.85-.67,1-.87,1.08h-.1c-.13,0-.2-.06-.27-.24ZM36,77.21c-.39,0-.27-.45.53-1.84s1.1-1.69,1.31-1.4a.56.56,0,0,1,.11.2c.07.26-.1.62-.68,1.62-.66,1.18-.85,1.43-1.17,1.43Zm15.63-.4A13.68,13.68,0,0,1,53.08,74c.17-.22.27-.26.45-.22s.23.1.26.2-.16.71-.73,1.7a9.59,9.59,0,0,1-1,1.43h-.06a.57.57,0,0,1-.46-.35Zm16,.1c-.2-.3-.12-.53.65-1.84s.86-1.38,1.22-1.34c.12,0,.19.06.21.14s-.16.7-.73,1.69-.93,1.5-1.15,1.5c-.07,0-.14,0-.2-.15Zm15.66-.29a13,13,0,0,1,1.76-3h.1l-1.15,3.12a.61.61,0,0,1-.16.16l-.14,0a.41.41,0,0,1-.4-.28Zm-59.49-1a9.7,9.7,0,0,1,1.62-2.57c.13,0,.27,0,.31.06a.71.71,0,0,1,.14.29h0a12.65,12.65,0,0,1-1.56,2.84ZM39.46,76a8.91,8.91,0,0,1,1.76-3c.13,0,.27,0,.31,0a.82.82,0,0,1,.14.28h0A11.67,11.67,0,0,1,40,76.18l-.2,0a.34.34,0,0,1-.35-.25Zm15.85-.18A13.08,13.08,0,0,1,56.85,73a.37.37,0,0,1,.42-.1.44.44,0,0,1,.27.25,11.9,11.9,0,0,1-1.8,3.08h-.07c-.15,0-.28-.14-.35-.42Zm15.78-.06a7.28,7.28,0,0,1,.76-1.53c.79-1.37,1-1.6,1.38-1.4a.43.43,0,0,1,.19.21,15.92,15.92,0,0,1-1.78,3h-.08a.53.53,0,0,1-.46-.33Zm-43.73-.59c-.09-.22,0-.47.68-1.63s.85-1.38,1-1.43.3,0,.33,0a.56.56,0,0,1,.09.17c.07.24-.1.6-.71,1.64s-.84,1.4-1.06,1.43h-.1c-.12,0-.2-.07-.26-.24ZM43.22,75c-.1-.24,0-.46.69-1.64a7,7,0,0,1,1-1.4.54.54,0,0,1,.33,0c.12.05.2.09.22.17s-.17.57-.86,1.77c-.57,1-.77,1.25-1,1.28h-.09c-.13,0-.2-.07-.27-.24ZM59,74.84a14.11,14.11,0,0,1,1.49-2.79c.2-.24.27-.27.5-.22a.49.49,0,0,1,.32.24,14.44,14.44,0,0,1-1.77,3.1h-.07a.55.55,0,0,1-.47-.33Zm15.86-.14a11.78,11.78,0,0,1,1.62-2.87.72.72,0,0,1,.38-.1.21.21,0,0,1,.21.16c.06.21-.11.65-.53,1.37-.76,1.32-1,1.74-1.18,1.78h0a.56.56,0,0,1-.45-.35Zm-43.73-.59c-.1-.24,0-.45.68-1.64a7.28,7.28,0,0,1,.95-1.39.57.57,0,0,1,.34,0,.5.5,0,0,1,.22.21,8.7,8.7,0,0,1-.77,1.56c-.66,1.15-.86,1.42-1.06,1.45h-.09c-.13,0-.2-.07-.27-.25ZM46.84,74a11.08,11.08,0,0,1,1.73-3.07.6.6,0,0,1,.35,0,.45.45,0,0,1,.22.21,14.23,14.23,0,0,1-1.74,3l-.22,0a.33.33,0,0,1-.34-.23Zm15.85-.17a13.68,13.68,0,0,1,1.49-2.77c.17-.22.27-.26.45-.22s.23.1.26.2-.16.71-.73,1.7a9.59,9.59,0,0,1-.95,1.43h-.05a.56.56,0,0,1-.46-.35Zm16,.1c-.2-.31-.12-.53.65-1.84s.86-1.38,1.23-1.34a.2.2,0,0,1,.2.14c.06.22-.16.7-.72,1.7s-.94,1.49-1.16,1.49-.13,0-.2-.15ZM35,73.38c-.47,0-.37-.42.47-1.86s1.11-1.68,1.32-1.38a.44.44,0,0,1,.1.19c.07.25-.09.61-.63,1.56-.72,1.27-.89,1.49-1.22,1.49Zm15.86-.15c-.46,0-.37-.41.46-1.85s1.11-1.7,1.34-1.39a1.24,1.24,0,0,1,.1.2c.06.25-.09.61-.64,1.56-.72,1.27-.89,1.49-1.22,1.49Zm15.57-.42A13.26,13.26,0,0,1,68,70a.35.35,0,0,1,.41-.1.44.44,0,0,1,.27.25,11,11,0,0,1-1.77,3.08h-.09c-.16,0-.29-.14-.36-.41Zm15.78-.07a12.52,12.52,0,0,1,1.74-2.95,1,1,0,0,1,.35,0c.11,0,.18,0,.2.14s-.17.7-.75,1.69a7.29,7.29,0,0,1-1,1.47h-.08a.53.53,0,0,1-.46-.33Zm-59.64-.55a6.39,6.39,0,0,1,.75-1.53c.56-1,.85-1.38,1-1.43a.58.58,0,0,1,.32,0,.26.26,0,0,1,.13.16c.06.23-.13.68-.65,1.56-.86,1.45-.92,1.54-1.05,1.58H23a.59.59,0,0,1-.45-.34Zm15.88-.07a8.38,8.38,0,0,1,1.75-3c.13,0,.29,0,.32,0a.72.72,0,0,1,.14.26h0a14.62,14.62,0,0,1-1.67,3,.63.63,0,0,1-.19,0,.34.34,0,0,1-.34-.27ZM54.32,72c-.09-.22,0-.46.69-1.63A7.49,7.49,0,0,1,56,69a.62.62,0,0,1,.33.05c.12.06.2.1.22.18s-.17.56-.86,1.76c-.57,1-.77,1.25-1,1.28h-.09c-.13,0-.2-.06-.26-.23Zm15.74-.13a14.52,14.52,0,0,1,1.5-2.8c.2-.24.26-.27.5-.21a.45.45,0,0,1,.31.23,14.44,14.44,0,0,1-1.77,3.1h-.07a.53.53,0,0,1-.46-.33ZM20,70.93c.33-.55.54-.72.81-.72s.27.05.3.16-.1.55-.44,1.17l-.08.13Zm6.3.16A7.91,7.91,0,0,1,27,69.57c.56-.92.83-1.29,1-1.34a.62.62,0,0,1,.33,0,.26.26,0,0,1,.12.15c.06.23-.15.7-.74,1.71a8.26,8.26,0,0,1-1,1.44H26.7a.43.43,0,0,1-.4-.44Zm15.89,0c-.1-.24,0-.45.68-1.64a6.89,6.89,0,0,1,1-1.39.54.54,0,0,1,.33,0,.41.41,0,0,1,.22.21,8.66,8.66,0,0,1-.76,1.56c-.66,1.15-.87,1.42-1.07,1.45h-.08c-.14,0-.21-.07-.27-.25ZM57.94,71A11.11,11.11,0,0,1,59.68,68,.61.61,0,0,1,60,68a.5.5,0,0,1,.21.22,13.77,13.77,0,0,1-1.73,3,.91.91,0,0,1-.23,0,.31.31,0,0,1-.34-.22Zm15.86-.18a13.88,13.88,0,0,1,1.49-2.76c.17-.22.26-.27.44-.22s.24.09.27.2-.16.71-.74,1.7a9.53,9.53,0,0,1-.94,1.43h-.06A.56.56,0,0,1,73.8,70.86Zm-43.65-.41c-.22-.31-.16-.53.52-1.7.79-1.38.9-1.51,1.26-1.52.16,0,.26,0,.3.15s-.17.7-.73,1.68-.94,1.5-1.16,1.5a.21.21,0,0,1-.19-.11Zm16.24-1.62c1-1.75,1.12-1.87,1.51-1.67a.45.45,0,0,1,.22.21,14.23,14.23,0,0,1-1.74,3,.93.93,0,0,1-.29,0c-.44,0-.34-.47.3-1.59ZM61.67,70A9.13,9.13,0,0,1,63.43,67c.13,0,.28,0,.31.06a.44.44,0,0,1,.1.19c.07.26-.09.61-.63,1.56a10.7,10.7,0,0,1-.89,1.4.67.67,0,0,1-.31.1.33.33,0,0,1-.34-.24Zm15.85-.2A13.19,13.19,0,0,1,79.07,67a.35.35,0,0,1,.41-.1.45.45,0,0,1,.28.26A11.38,11.38,0,0,1,78,70.23h-.08c-.17,0-.3-.14-.37-.41Zm-43.86-.61a6.21,6.21,0,0,1,.75-1.53c.56-1,.85-1.39,1-1.43a.5.5,0,0,1,.32,0,.26.26,0,0,1,.13.16c.06.24-.15.71-.73,1.7a7.49,7.49,0,0,1-1,1.42h-.06a.54.54,0,0,1-.47-.33Zm15.88-.07a8.34,8.34,0,0,1,1.75-3c.13,0,.29,0,.32,0a.87.87,0,0,1,.14.27h0a13.42,13.42,0,0,1-1.67,2.95l-.19,0a.33.33,0,0,1-.35-.26ZM65.43,69c-.09-.22,0-.47.69-1.64A8.3,8.3,0,0,1,67.07,66a.54.54,0,0,1,.33.05c.11.06.19.1.22.18s-.17.56-.85,1.76c-.59,1-.76,1.25-1,1.28h-.1c-.14,0-.21-.07-.27-.23ZM18.15,68.6a13.29,13.29,0,0,1,1.36-2.29,1.12,1.12,0,0,1,.32,0,.46.46,0,0,1,.27.24,13.36,13.36,0,0,1-1.43,2.66Zm63,.3a15.69,15.69,0,0,1,1.71-3,1.24,1.24,0,0,1,.33,0,.43.43,0,0,1,.27.24,14.44,14.44,0,0,1-1.77,3.1h-.07A.53.53,0,0,1,81.17,68.9Zm-59.43-.28c-.32-.2-.26-.44.4-1.61.84-1.5,1-1.72,1.32-1.65.15,0,.24.09.27.2s-.14.65-.62,1.49c-.78,1.34-1,1.66-1.14,1.66a.43.43,0,0,1-.23-.1Zm15.65-.41A11.29,11.29,0,0,1,39,65.34a.69.69,0,0,1,.37-.1.2.2,0,0,1,.2.15c.08.31-.34,1.16-1.47,3a.64.64,0,0,1-.21.19h-.06a.53.53,0,0,1-.45-.35Zm15.91,0c-.1-.24,0-.45.68-1.64a7.28,7.28,0,0,1,1-1.39.58.58,0,0,1,.34,0,.43.43,0,0,1,.21.21A8,8,0,0,1,54.72,67c-.66,1.15-.86,1.42-1.06,1.45h-.09c-.13,0-.21-.08-.27-.26ZM69,68.07A11.23,11.23,0,0,1,70.78,65a.6.6,0,0,1,.35,0,.5.5,0,0,1,.21.22,13.77,13.77,0,0,1-1.73,3,.83.83,0,0,1-.22,0,.32.32,0,0,1-.35-.23ZM84.9,67.9a13.68,13.68,0,0,1,1.49-2.77c.17-.22.26-.26.44-.22s.24.1.27.2-.16.71-.74,1.7a9.53,9.53,0,0,1-.94,1.43h-.06a.56.56,0,0,1-.46-.36Zm-59.44-.25c-.34-.2-.25-.5.49-1.75.94-1.6.95-1.6,1.23-1.53s.25.09.28.2-.16.69-.74,1.69a8.13,8.13,0,0,1-1,1.43h-.08a.43.43,0,0,1-.22-.06Zm15.77-.2c-.2-.31-.12-.53.66-1.84s.85-1.38,1.22-1.34a.22.22,0,0,1,.21.15c0,.21-.17.7-.73,1.69s-.93,1.49-1.15,1.49a.31.31,0,0,1-.21-.16Zm15.68-.24a11.2,11.2,0,0,1,1.75-3.06.57.57,0,0,1,.34,0,.5.5,0,0,1,.21.22,13.77,13.77,0,0,1-1.73,3,.85.85,0,0,1-.23,0,.31.31,0,0,1-.34-.25Zm16.14.09c-.45,0-.36-.42.46-1.85s1.11-1.7,1.33-1.4a.54.54,0,0,1,.1.2c.07.25-.09.61-.63,1.56-.72,1.27-.89,1.49-1.22,1.49ZM29,66.3a14.16,14.16,0,0,1,1.64-2.95.85.85,0,0,1,.32,0,.42.42,0,0,1,.28.24,13.08,13.08,0,0,1-1.8,3.09h-.07c-.16,0-.29-.17-.37-.44Zm15.79,0a6.75,6.75,0,0,1,.74-1.53c.79-1.37,1-1.61,1.4-1.4a.43.43,0,0,1,.18.22,15.63,15.63,0,0,1-1.78,3h-.07a.52.52,0,0,1-.47-.34Zm15.88-.06a8.26,8.26,0,0,1,1.75-3c.13,0,.28,0,.32.05a.87.87,0,0,1,.14.27h0a13.42,13.42,0,0,1-1.67,3l-.19,0a.34.34,0,0,1-.35-.27Zm15.89-.11c-.09-.22,0-.47.69-1.64a7.92,7.92,0,0,1,1-1.41.53.53,0,0,1,.33,0c.11.06.19.1.21.18s-.16.57-.84,1.76c-.59,1-.76,1.26-1,1.28h-.1c-.14,0-.2-.07-.27-.23Zm-59.65-.57c-.1-.24,0-.45.68-1.64a7,7,0,0,1,1-1.39.56.56,0,0,1,.34.05.43.43,0,0,1,.22.2v0c0,.14,0,.17-.86,1.7-.58,1-.76,1.26-1,1.29h-.09c-.13,0-.2-.07-.26-.25Zm15.74-.13a14,14,0,0,1,1.49-2.78c.18-.2.27-.26.45-.2a.3.3,0,0,1,.26.2c.06.23-.16.7-.72,1.69a10.3,10.3,0,0,1-.93,1.43s-.05,0-.07,0a.53.53,0,0,1-.47-.35Zm15.87-.14a11.46,11.46,0,0,1,1.62-2.87.69.69,0,0,1,.37-.1.2.2,0,0,1,.2.15c.09.31-.34,1.16-1.47,3a.55.55,0,0,1-.21.19s0,0-.06,0a.55.55,0,0,1-.45-.35Zm15.91,0c-.1-.24,0-.45.68-1.63a7.35,7.35,0,0,1,1-1.4.58.58,0,0,1,.34,0,.43.43,0,0,1,.21.21c0,.14,0,.14-.88,1.76-.56,1-.74,1.22-.94,1.25h-.09c-.13,0-.21-.08-.27-.26Zm15.74-.1A11.37,11.37,0,0,1,81.88,62a.6.6,0,0,1,.35,0,.5.5,0,0,1,.22.21,14.23,14.23,0,0,1-1.74,3l-.22,0a.32.32,0,0,1-.34-.24Zm-59.37-.33c-.44,0-.34-.4.49-1.83s1.1-1.7,1.31-1.4a.57.57,0,0,1,.1.19c.06.25-.09.61-.64,1.56-.71,1.27-.88,1.49-1.22,1.49Zm15.58-.4a5.34,5.34,0,0,1,.7-1.44c.94-1.6,1-1.6,1.24-1.54s.24.1.27.2-.16.7-.74,1.7a9.53,9.53,0,0,1-.94,1.43h-.06a.56.56,0,0,1-.47-.37Zm-21.93-.43c.31-.47.5-.57.73-.43a.34.34,0,0,1,.16.19c0,.17-.06.44-.33.94Zm37.91.53c-.2-.3-.12-.52.66-1.83s.85-1.38,1.22-1.34a.21.21,0,0,1,.21.14c.06.22-.17.7-.73,1.69s-.93,1.5-1.15,1.5a.32.32,0,0,1-.2-.17ZM68,64.17a13.12,13.12,0,0,1,1.76-3,.64.64,0,0,1,.34,0,.47.47,0,0,1,.22.22,12.19,12.19,0,0,1-1.78,3l-.13,0a.42.42,0,0,1-.41-.31Zm16.15.15c-.44,0-.34-.39.47-1.83s1.1-1.71,1.32-1.41a.54.54,0,0,1,.1.2c.07.25-.09.61-.63,1.56-.72,1.27-.89,1.48-1.22,1.48Zm-59.89-.77c-.09-.2,0-.47.7-1.63.77-1.34,1-1.56,1.29-1.38a.32.32,0,0,1,.16.18c.06.23-.14.65-.72,1.64s-.85,1.38-1.07,1.41h-.1c-.13,0-.2-.08-.26-.24Zm15.82-.21a13.22,13.22,0,0,1,1.54-2.84.36.36,0,0,1,.41-.1.45.45,0,0,1,.28.24,13.31,13.31,0,0,1-1.79,3.1h-.08c-.16,0-.29-.16-.36-.43Zm15.78-.06a7.24,7.24,0,0,1,.75-1.53c.8-1.37,1-1.61,1.39-1.4a.45.45,0,0,1,.18.21,15.88,15.88,0,0,1-1.77,3h-.08a.53.53,0,0,1-.47-.34Zm15.88-.07a8.72,8.72,0,0,1,1.76-3.05c.13,0,.28,0,.32.05a.84.84,0,0,1,.13.27h0a13.42,13.42,0,0,1-1.67,3,.57.57,0,0,1-.18,0,.35.35,0,0,1-.36-.26Zm15.89-.11c-.09-.22,0-.47.69-1.63a7.54,7.54,0,0,1,1-1.42.59.59,0,0,1,.32.05c.11.06.19.1.22.18s-.17.56-.85,1.76c-.59,1-.76,1.25-1,1.28h-.1c-.13,0-.2-.08-.26-.24ZM28,62.53c-.1-.22,0-.45.68-1.62a6.75,6.75,0,0,1,1-1.41.59.59,0,0,1,.32,0c.12.06.21.1.23.18s-.18.56-.86,1.76c-.58,1-.77,1.25-1,1.28h-.08c-.13,0-.21-.08-.27-.26Zm15.74-.13a14.48,14.48,0,0,1,1.49-2.8c.21-.25.24-.26.5-.17a.52.52,0,0,1,.32.22,16.76,16.76,0,0,1-1.77,3.07H44.2A.54.54,0,0,1,43.73,62.4Zm15.86-.14a11.6,11.6,0,0,1,1.62-2.87.7.7,0,0,1,.38-.1.22.22,0,0,1,.21.16c.06.21-.12.65-.53,1.37-.76,1.32-1,1.74-1.18,1.78H60a.58.58,0,0,1-.45-.35Zm15.91,0c-.1-.23,0-.44.68-1.63a7,7,0,0,1,.95-1.39.57.57,0,0,1,.34,0,.36.36,0,0,1,.2.18c0,.21-.19.65-.93,2-.49.84-.67,1.05-.87,1.08h-.1C75.64,62.46,75.57,62.39,75.5,62.21Zm-63-.66.29-.51c.76-1.32,1-1.55,1.31-1.37a.28.28,0,0,1,.15.17c.06.21-.14.63-.72,1.63l-.46.79Zm3.33.11c-.1-.24,0-.45.68-1.63a6.62,6.62,0,0,1,1-1.39.53.53,0,0,1,.33,0,.43.43,0,0,1,.22.22,8.91,8.91,0,0,1-.76,1.55c-.66,1.16-.86,1.42-1.07,1.45h-.08c-.13,0-.21-.07-.27-.25Zm16,.12c-.39,0-.28-.44.53-1.83s1.09-1.7,1.31-1.4a.47.47,0,0,1,.1.2c.07.25-.1.62-.67,1.62-.67,1.18-.85,1.43-1.18,1.43l-.09,0Zm15.62-.4a13.88,13.88,0,0,1,1.49-2.76c.18-.22.27-.27.45-.22s.24.09.27.2-.16.71-.74,1.7A9.53,9.53,0,0,1,48,61.73h-.06a.56.56,0,0,1-.46-.35Zm16,.1c-.2-.3-.11-.52.66-1.84s.85-1.37,1.22-1.33c.11,0,.19,0,.21.14s-.17.7-.73,1.69-.93,1.5-1.15,1.5-.14,0-.2-.15Zm15.67-.29a13.45,13.45,0,0,1,1.75-3,.53.53,0,0,1,.35,0,.45.45,0,0,1,.22.21,12.25,12.25,0,0,1-1.78,3h-.13a.41.41,0,0,1-.41-.27Zm-59.63-.51a8.72,8.72,0,0,1,1.76-3c.13,0,.27,0,.31,0a1.11,1.11,0,0,1,.14.29h0A11.61,11.61,0,0,1,20,60.9a.76.76,0,0,1-.21,0,.32.32,0,0,1-.34-.24Zm15.86-.15a8.77,8.77,0,0,1,1.77-3c.13,0,.27,0,.31,0a1,1,0,0,1,.14.28h0a12,12,0,0,1-1.67,2.94.69.69,0,0,1-.2,0,.34.34,0,0,1-.35-.26Zm15.85-.18a13.39,13.39,0,0,1,1.54-2.83.36.36,0,0,1,.41-.1.44.44,0,0,1,.28.25,11.9,11.9,0,0,1-1.8,3.08h-.07c-.15,0-.28-.14-.36-.41ZM67,60.29a7.28,7.28,0,0,1,.76-1.53c.79-1.37,1-1.6,1.38-1.4a.41.41,0,0,1,.18.21,16.19,16.19,0,0,1-1.77,3h-.08a.54.54,0,0,1-.47-.33Zm15.88-.07a8.68,8.68,0,0,1,1.76-3c.12,0,.28,0,.31,0a.78.78,0,0,1,.14.27h0a13.8,13.8,0,0,1-1.66,3,.63.63,0,0,1-.19,0,.34.34,0,0,1-.36-.26ZM23.23,59.7c-.09-.22,0-.46.68-1.62s.85-1.39,1-1.44.29,0,.33,0a.56.56,0,0,1,.09.17c.06.25-.1.6-.72,1.64s-.84,1.4-1,1.43h-.1C23.36,59.94,23.29,59.87,23.23,59.7Zm15.86-.14c-.1-.24,0-.45.69-1.64a7.35,7.35,0,0,1,.95-1.4.54.54,0,0,1,.33,0c.12.06.2.1.22.18s-.17.56-.86,1.76c-.57,1-.77,1.25-1,1.28h-.09c-.13,0-.21-.08-.27-.24Zm15.74-.13a13.84,13.84,0,0,1,1.49-2.79c.2-.25.27-.27.5-.22a.48.48,0,0,1,.32.23,14.51,14.51,0,0,1-1.77,3.11H55.3a.53.53,0,0,1-.47-.34Zm15.86-.15a11.54,11.54,0,0,1,1.62-2.86.58.58,0,0,1,.38-.1.2.2,0,0,1,.21.15c.06.22-.11.65-.53,1.38-.76,1.32-1,1.74-1.18,1.77h0a.58.58,0,0,1-.46-.35Zm15.91,0c-.1-.24,0-.45.68-1.63a6.62,6.62,0,0,1,1-1.39.53.53,0,0,1,.33,0c.1.05.18.1.2.18s-.18.65-.93,2c-.49.84-.66,1.05-.87,1.08h-.1c-.13,0-.2-.07-.26-.25ZM11.16,59c-.2-.3-.12-.53.66-1.84.54-.93.81-1.29,1-1.34a.44.44,0,0,1,.32,0,.24.24,0,0,1,.13.15c.06.23-.16.7-.75,1.71s-.93,1.47-1.15,1.47c-.07,0-.14,0-.2-.15ZM27,58.69c-.1-.24,0-.45.68-1.63a7,7,0,0,1,.95-1.39.56.56,0,0,1,.34,0,.47.47,0,0,1,.22.22,8.91,8.91,0,0,1-.76,1.55c-.66,1.16-.87,1.42-1.07,1.45h-.08c-.14,0-.22-.07-.28-.25Zm15.75-.1a10.92,10.92,0,0,1,1.74-3.06.5.5,0,0,1,.34,0,.4.4,0,0,1,.22.22,14.25,14.25,0,0,1-1.73,3,.91.91,0,0,1-.23,0,.31.31,0,0,1-.34-.23Zm15.85-.17a13.68,13.68,0,0,1,1.49-2.77c.18-.21.27-.26.45-.21s.24.09.27.2-.16.7-.74,1.69a8.61,8.61,0,0,1-.94,1.43H59a.57.57,0,0,1-.47-.36Zm16,.1c-.2-.31-.12-.53.66-1.84s.85-1.38,1.22-1.34a.22.22,0,0,1,.21.15c.05.21-.17.7-.73,1.69s-.93,1.49-1.15,1.49a.29.29,0,0,1-.21-.16Zm15.67-.29a14.29,14.29,0,0,1,1.62-2.88L90.66,58.5h0a.39.39,0,0,1-.41-.28ZM14.92,58c-.23-.3-.17-.53.46-1.63.78-1.36.94-1.57,1.3-1.58.16,0,.27,0,.3.15s-.17.7-.73,1.68-.94,1.5-1.16,1.5A.19.19,0,0,1,14.92,58Zm15.93,0c-.47,0-.37-.42.47-1.86s1.11-1.68,1.32-1.38a.44.44,0,0,1,.1.19c.07.25-.09.61-.63,1.56-.72,1.27-.89,1.49-1.22,1.49Zm15.86-.15c-.46,0-.37-.42.46-1.85s1.11-1.7,1.34-1.39a.75.75,0,0,1,.1.2c.06.25-.09.61-.63,1.56-.73,1.27-.89,1.49-1.23,1.49Zm15.58-.42a12.8,12.8,0,0,1,1.54-2.84.36.36,0,0,1,.41-.1.46.46,0,0,1,.28.25,11.41,11.41,0,0,1-1.78,3.08h-.09c-.16,0-.29-.14-.36-.41Zm15.77-.07a12.87,12.87,0,0,1,1.74-3,1,1,0,0,1,.35,0c.11,0,.18,0,.2.14s-.17.7-.75,1.69a7.29,7.29,0,0,1-1,1.47h-.07a.55.55,0,0,1-.48-.33ZM8.87,57a.71.71,0,0,1,.23-.19.51.51,0,0,1,.3,0,.26.26,0,0,1,.13.16,1.11,1.11,0,0,1-.16.67Zm9.55-.19a6.21,6.21,0,0,1,.75-1.53c.56-1,.85-1.39,1-1.43a.5.5,0,0,1,.32,0,.26.26,0,0,1,.13.16c.06.23-.13.67-.65,1.56-.86,1.44-.91,1.53-1.05,1.57h-.06a.59.59,0,0,1-.45-.34ZM34.3,56.7a8.42,8.42,0,0,1,1.75-3c.14,0,.29,0,.33.05a.91.91,0,0,1,.13.26h0a13.49,13.49,0,0,1-1.67,3,.58.58,0,0,1-.19,0A.34.34,0,0,1,34.3,56.7Zm15.9-.11c-.1-.23,0-.47.69-1.64a7.87,7.87,0,0,1,.94-1.41.53.53,0,0,1,.33.05c.12.06.2.09.22.18s-.17.56-.86,1.76c-.57,1-.77,1.25-1,1.28h-.09C50.33,56.82,50.26,56.75,50.2,56.59Zm15.74-.13a13.92,13.92,0,0,1,1.49-2.8c.2-.24.26-.27.5-.22a.46.46,0,0,1,.31.23,14.24,14.24,0,0,1-1.76,3.11h-.07a.56.56,0,0,1-.48-.33Zm15.85-.17a7.09,7.09,0,0,1,.75-1.51c.56-1,.84-1.37,1-1.42a.5.5,0,0,1,.32,0,.26.26,0,0,1,.13.16c.06.22-.11.62-.54,1.36-.76,1.32-1,1.74-1.17,1.77h0a.57.57,0,0,1-.46-.36Zm-59.62-.62a7.91,7.91,0,0,1,.74-1.52c.55-.93.82-1.29,1-1.34a.53.53,0,0,1,.33,0,.23.23,0,0,1,.12.15c.06.23-.15.7-.74,1.71a8.65,8.65,0,0,1-1,1.44h-.08a.43.43,0,0,1-.4-.44Zm15.89,0c-.1-.24,0-.45.68-1.63a7,7,0,0,1,.95-1.39.56.56,0,0,1,.34,0,.43.43,0,0,1,.22.22,8.91,8.91,0,0,1-.76,1.55c-.66,1.16-.87,1.42-1.07,1.45h-.08c-.14,0-.21-.07-.28-.25Zm15.75-.1a11.06,11.06,0,0,1,1.74-3.06.57.57,0,0,1,.34,0,.43.43,0,0,1,.22.22,14,14,0,0,1-1.73,3,.91.91,0,0,1-.23,0,.32.32,0,0,1-.34-.23Zm15.85-.17a13.68,13.68,0,0,1,1.49-2.77c.18-.21.27-.26.45-.21s.24.09.27.2-.16.7-.74,1.69a9.29,9.29,0,0,1-.94,1.43h-.06a.58.58,0,0,1-.47-.35Zm16,.1c-.2-.31-.12-.53.66-1.84s.85-1.38,1.22-1.34a.23.23,0,0,1,.21.15c.06.21-.16.7-.73,1.69s-.93,1.49-1.15,1.49a.25.25,0,0,1-.21-.15Zm-75.41-.35c-.35-.2-.25-.51.55-1.9a13,13,0,0,1,.9-1.41,1,1,0,0,1,.29,0c.14,0,.23.1.26.2s-.16.71-.74,1.7a7.85,7.85,0,0,1-1,1.44h-.08a.4.4,0,0,1-.22-.06Zm-3.31-.66c.83-1.48,1-1.69,1.3-1.62.15,0,.24.09.27.2s-.14.65-.62,1.49l-.38.64ZM26,55c-.22-.31-.16-.53.52-1.7.78-1.38.9-1.51,1.25-1.52.17,0,.27,0,.3.15s-.16.7-.73,1.69-.93,1.5-1.15,1.5A.25.25,0,0,1,26,55Zm16.24-1.62c1-1.75,1.12-1.87,1.51-1.67A.43.43,0,0,1,44,52a13.77,13.77,0,0,1-1.73,3A1,1,0,0,1,42,55c-.44,0-.34-.48.3-1.59ZM57.54,54.6a9.19,9.19,0,0,1,1.76-3.06c.13,0,.27,0,.31.06a.57.57,0,0,1,.1.19c.07.25-.09.61-.63,1.56a10.7,10.7,0,0,1-.89,1.4.59.59,0,0,1-.31.09A.33.33,0,0,1,57.54,54.6Zm15.85-.19a13.22,13.22,0,0,1,1.54-2.84.36.36,0,0,1,.41-.1.44.44,0,0,1,.28.27,11.07,11.07,0,0,1-1.79,3.06h-.08c-.16,0-.29-.14-.36-.4Zm15.78-.07a13,13,0,0,1,1.73-3,2.07,2.07,0,0,1,.35,0,.22.22,0,0,1,.21.14c.05.22-.17.7-.75,1.69a6.55,6.55,0,0,1-1,1.46h-.08a.53.53,0,0,1-.48-.32Zm-75.43-.5a14.16,14.16,0,0,1,1.64-3,.88.88,0,0,1,.32,0,.4.4,0,0,1,.27.24,12.71,12.71,0,0,1-1.79,3.09h-.07c-.17,0-.3-.16-.37-.43Zm15.78-.05a6.94,6.94,0,0,1,.75-1.52c.56-1,.85-1.39,1-1.44a.55.55,0,0,1,.31,0,.25.25,0,0,1,.14.16c.06.24-.15.71-.73,1.7a8,8,0,0,1-1,1.42H30a.55.55,0,0,1-.47-.33Zm15.88-.06a8.51,8.51,0,0,1,1.76-3,.32.32,0,0,1,.32.05.68.68,0,0,1,.13.27h0a13.42,13.42,0,0,1-1.67,3,.58.58,0,0,1-.19,0,.33.33,0,0,1-.34-.26Zm15.9-.11c-.09-.22,0-.47.69-1.64a7.87,7.87,0,0,1,.94-1.41.53.53,0,0,1,.33,0c.12.05.2.09.22.17s-.17.57-.85,1.76c-.59,1-.75,1.26-1,1.29h-.1c-.13,0-.2-.07-.26-.23ZM77,53.48a15.66,15.66,0,0,1,1.72-3,.85.85,0,0,1,.32,0,.43.43,0,0,1,.28.23,14.21,14.21,0,0,1-1.77,3.1h-.07a.57.57,0,0,1-.48-.35Zm-59.42-.29c-.33-.2-.27-.44.4-1.61.84-1.5,1-1.71,1.32-1.65.14,0,.23.1.26.2s-.13.65-.62,1.5c-.78,1.33-1,1.66-1.13,1.66a.48.48,0,0,1-.23-.1Zm15.64-.41a11.26,11.26,0,0,1,1.63-2.86.55.55,0,0,1,.37-.1.21.21,0,0,1,.2.15c.08.31-.35,1.15-1.47,3a.65.65,0,0,1-.22.18h0a.59.59,0,0,1-.46-.35Zm15.91,0c-.1-.24,0-.45.68-1.63a7,7,0,0,1,1-1.4.62.62,0,0,1,.33,0,.4.4,0,0,1,.22.22,8.91,8.91,0,0,1-.76,1.55c-.66,1.15-.87,1.42-1.07,1.45h-.08c-.14,0-.21-.07-.28-.25Zm15.75-.1a11.11,11.11,0,0,1,1.74-3.07.6.6,0,0,1,.35,0,.41.41,0,0,1,.21.22,14.25,14.25,0,0,1-1.73,3,.85.85,0,0,1-.23,0,.32.32,0,0,1-.34-.23Zm15.85-.17a13.68,13.68,0,0,1,1.49-2.77c.18-.21.27-.26.45-.21s.24.09.27.2-.16.7-.74,1.69a8.61,8.61,0,0,1-.94,1.43h-.06a.57.57,0,0,1-.47-.36ZM5.54,52.31c-.44,0-.34-.4.48-1.83s1.1-1.69,1.31-1.4a.5.5,0,0,1,.1.19c.07.26-.09.61-.63,1.56-.71,1.27-.89,1.49-1.22,1.49Zm15.79-.09c-.34-.2-.25-.5.49-1.75.94-1.6.95-1.6,1.23-1.53s.25.09.28.2-.16.7-.74,1.69a8.13,8.13,0,0,1-1,1.43h-.08a.54.54,0,0,1-.22-.05ZM37.1,52c-.2-.3-.12-.52.65-1.84S38.6,48.8,39,48.84c.12,0,.19,0,.21.14s-.16.7-.73,1.69-.93,1.49-1.15,1.49C37.23,52.16,37.16,52.11,37.1,52Zm15.67-.24a11.2,11.2,0,0,1,1.75-3.06.56.56,0,0,1,.34,0,.45.45,0,0,1,.22.21,13.41,13.41,0,0,1-1.74,3,.85.85,0,0,1-.22,0,.33.33,0,0,1-.34-.24Zm16.14.09c-.45,0-.35-.41.47-1.84s1.11-1.71,1.33-1.4a.69.69,0,0,1,.1.19c.06.26-.09.61-.64,1.56-.71,1.27-.89,1.49-1.22,1.49Zm15.58-.43A13.93,13.93,0,0,1,86,48.62c.15-.16.21-.18.41-.12a.44.44,0,0,1,.29.26A10.59,10.59,0,0,1,85,51.83h-.09c-.17,0-.3-.14-.37-.41ZM9,51.09c-.09-.22,0-.47.69-1.63.78-1.34,1-1.57,1.3-1.39a.31.31,0,0,1,.16.18c.06.23-.14.64-.72,1.64s-.84,1.4-1.07,1.42h-.1c-.13,0-.2-.07-.26-.23Zm15.82-.23a14,14,0,0,1,1.64-3,.88.88,0,0,1,.32,0,.4.4,0,0,1,.27.24,12.71,12.71,0,0,1-1.79,3.09H25.2c-.15,0-.29-.15-.36-.43Zm15.78,0a6.72,6.72,0,0,1,.75-1.52c.79-1.38,1-1.62,1.39-1.4a.43.43,0,0,1,.19.21,16.16,16.16,0,0,1-1.78,3,.11.11,0,0,1-.08,0,.51.51,0,0,1-.47-.32Zm15.88-.06a8.51,8.51,0,0,1,1.76-3c.13,0,.28,0,.32,0a.84.84,0,0,1,.13.27h0A13.42,13.42,0,0,1,57,51a.58.58,0,0,1-.19,0,.33.33,0,0,1-.34-.26Zm15.9-.11c-.09-.22,0-.47.69-1.64A8.24,8.24,0,0,1,74,47.59a.53.53,0,0,1,.33,0c.12,0,.2.1.22.18s-.17.56-.85,1.76c-.59,1-.75,1.25-1,1.28h-.1c-.13,0-.2-.07-.26-.23Zm15.74-.14a15.69,15.69,0,0,1,1.71-3,1.24,1.24,0,0,1,.33,0,.43.43,0,0,1,.27.24,14.44,14.44,0,0,1-1.77,3.1h-.07A.53.53,0,0,1,88.14,50.5Zm-75.39-.43c-.1-.23,0-.44.68-1.63a7,7,0,0,1,1-1.39.64.64,0,0,1,.34,0,.47.47,0,0,1,.21.21v0c0,.14,0,.17-.86,1.7-.58,1-.76,1.26-1,1.29H13c-.13,0-.2-.07-.27-.25ZM28.49,50A14,14,0,0,1,30,47.17c.17-.21.27-.26.45-.21s.23.09.26.2-.16.7-.72,1.69A8.61,8.61,0,0,1,29,50.28H29a.56.56,0,0,1-.48-.34Zm15.87-.15A11.16,11.16,0,0,1,46,46.93a.69.69,0,0,1,.37-.1.2.2,0,0,1,.2.15c.09.32-.35,1.16-1.47,3a.61.61,0,0,1-.21.18h-.06A.56.56,0,0,1,44.36,49.8Zm15.91,0c-.1-.24,0-.45.68-1.63a7.35,7.35,0,0,1,.95-1.4.58.58,0,0,1,.34.05.47.47,0,0,1,.21.21c0,.15,0,.14-.88,1.76-.56,1-.74,1.22-1,1.25h-.08c-.13,0-.21-.07-.27-.25ZM76,49.66a11.37,11.37,0,0,1,1.74-3.07.6.6,0,0,1,.35,0,.41.41,0,0,1,.21.22,14.25,14.25,0,0,1-1.73,3,.83.83,0,0,1-.22,0,.33.33,0,0,1-.35-.23Zm15.86-.17a13.68,13.68,0,0,1,1.49-2.77c.17-.22.26-.26.45-.22s.23.1.26.2-.16.71-.74,1.7a8.81,8.81,0,0,1-.94,1.43h-.06a.57.57,0,0,1-.46-.35Zm-75.23-.16c-.44,0-.34-.4.49-1.83s1.1-1.7,1.31-1.4a.57.57,0,0,1,.1.19c.06.25-.09.61-.64,1.56-.71,1.27-.88,1.49-1.22,1.49Zm15.58-.4a5.65,5.65,0,0,1,.7-1.44c.94-1.6.95-1.6,1.23-1.53s.25.09.28.2-.16.7-.74,1.69a8.61,8.61,0,0,1-.94,1.43h-.06a.57.57,0,0,1-.47-.36Zm16,.11c-.2-.3-.12-.53.66-1.84s.85-1.37,1.22-1.34a.23.23,0,0,1,.21.15c.06.21-.17.7-.73,1.69s-.93,1.49-1.15,1.49A.25.25,0,0,1,48.2,49Zm15.67-.3a13.12,13.12,0,0,1,1.76-3,.57.57,0,0,1,.34,0,.5.5,0,0,1,.22.21,12.25,12.25,0,0,1-1.78,3h-.13a.4.4,0,0,1-.41-.29ZM80,48.89c-.44,0-.34-.4.47-1.83s1.1-1.71,1.32-1.41a.5.5,0,0,1,.1.19c.07.26-.09.61-.63,1.56-.72,1.27-.89,1.49-1.22,1.49ZM4.23,48.24A9,9,0,0,1,6,45.18c.13,0,.27,0,.31.06a.92.92,0,0,1,.14.28h0a12.36,12.36,0,0,1-1.66,2.94l-.21,0a.35.35,0,0,1-.35-.25Zm15.89-.12c-.08-.21,0-.47.7-1.63.78-1.35,1-1.57,1.3-1.39a.29.29,0,0,1,.15.19c.06.22-.13.65-.71,1.63-.66,1.14-.85,1.39-1.07,1.42h-.1c-.14,0-.21-.07-.27-.23ZM36,47.9a12.88,12.88,0,0,1,1.54-2.82.36.36,0,0,1,.41-.1.4.4,0,0,1,.28.24,13.08,13.08,0,0,1-1.8,3.09h-.07C36.15,48.32,36,48.17,36,47.9Zm15.78-.06a7.41,7.41,0,0,1,.75-1.52c.8-1.38,1-1.62,1.39-1.4a.37.37,0,0,1,.18.21,16,16,0,0,1-1.78,3H52.2a.5.5,0,0,1-.47-.33Zm15.88-.06a8.59,8.59,0,0,1,1.76-3c.12,0,.28,0,.32,0a.84.84,0,0,1,.13.27h0A13.42,13.42,0,0,1,68.15,48,.57.57,0,0,1,68,48a.35.35,0,0,1-.36-.26Zm15.89-.11c-.09-.22,0-.47.69-1.63a6.82,6.82,0,0,1,1-1.42.51.51,0,0,1,.32.05c.11,0,.19.1.21.18s-.16.56-.84,1.76c-.59,1-.76,1.25-1,1.28h-.1c-.14,0-.21-.07-.27-.23ZM8,47.25c-.1-.24,0-.46.69-1.64s1-1.55,1.3-1.37a.31.31,0,0,1,.15.17c.06.22-.14.63-.72,1.64s-.84,1.4-1.06,1.43h-.1C8.13,47.49,8.06,47.42,8,47.25Zm-6-.76c.25-.33.41-.36.62-.26a.45.45,0,0,1,.21.22,4.38,4.38,0,0,1-.44,1c-.14-.31-.27-.61-.4-.92Zm21.88.6c-.1-.22,0-.45.68-1.62a6.44,6.44,0,0,1,1-1.4.55.55,0,0,1,.33,0c.12.05.2.09.22.17s-.18.57-.86,1.77c-.57,1-.77,1.25-1,1.28h-.09c-.13,0-.21-.08-.28-.25ZM39.6,47a14.11,14.11,0,0,1,1.49-2.79c.21-.25.24-.26.5-.17a.52.52,0,0,1,.32.22,16.76,16.76,0,0,1-1.77,3.07h-.07A.53.53,0,0,1,39.6,47Zm15.86-.14A11.78,11.78,0,0,1,57.08,44a.7.7,0,0,1,.38-.1.23.23,0,0,1,.21.16c.06.22-.12.65-.53,1.37-.76,1.32-1,1.75-1.18,1.78h-.05a.58.58,0,0,1-.45-.35Zm15.91,0c-.1-.24,0-.45.68-1.63a7.35,7.35,0,0,1,1-1.4.58.58,0,0,1,.34.05.36.36,0,0,1,.2.18c0,.21-.19.65-.94,1.95-.49.85-.66,1.06-.86,1.09h-.1c-.13,0-.21-.07-.27-.25Zm15.73-.16a13,13,0,0,1,1.76-3,.58.58,0,0,1,.34.05.32.32,0,0,1,.21.21.49.49,0,0,1-.07.33,12.88,12.88,0,0,1-1.69,2.68.34.34,0,0,1-.14,0,.41.41,0,0,1-.41-.28Zm-75.37-.39c-.1-.24,0-.45.68-1.63a7.35,7.35,0,0,1,.95-1.4.57.57,0,0,1,.34,0,.41.41,0,0,1,.21.22A8.25,8.25,0,0,1,13.15,45c-.66,1.15-.86,1.42-1.06,1.45H12c-.14,0-.21-.07-.28-.25Zm16,.12c-.39,0-.27-.44.53-1.84s1.1-1.69,1.31-1.4a.56.56,0,0,1,.11.2c.07.26-.1.62-.68,1.62-.66,1.18-.85,1.43-1.17,1.43ZM43.33,46a14,14,0,0,1,1.49-2.77c.17-.21.27-.26.45-.21a.3.3,0,0,1,.26.2c.07.23-.16.7-.74,1.69a8.48,8.48,0,0,1-.94,1.44h-.06a.54.54,0,0,1-.46-.35Zm16,.1c-.2-.3-.12-.53.65-1.84s.86-1.37,1.22-1.34c.12,0,.19.06.21.15s-.16.7-.73,1.69-.93,1.49-1.15,1.49-.14-.05-.21-.15ZM75,45.77a13,13,0,0,1,1.76-3,.53.53,0,0,1,.35.05.43.43,0,0,1,.21.21,12,12,0,0,1-1.77,3,.34.34,0,0,1-.14,0,.41.41,0,0,1-.41-.28Zm16.15.14c-.43,0-.33-.4.49-1.84s1.1-1.69,1.31-1.4a.5.5,0,0,1,.1.19c.07.26-.09.61-.63,1.56-.72,1.28-.89,1.49-1.22,1.49Zm-75.78-.65a9,9,0,0,1,1.76-3c.13,0,.27,0,.31,0a1.11,1.11,0,0,1,.14.29h0a11.78,11.78,0,0,1-1.66,2.93.76.76,0,0,1-.21,0,.31.31,0,0,1-.34-.25ZM31.2,45.1a9,9,0,0,1,1.76-3c.13,0,.27,0,.31,0a.82.82,0,0,1,.14.28h0a11.67,11.67,0,0,1-1.66,2.94l-.2,0A.33.33,0,0,1,31.2,45.1Zm15.85-.18a13.32,13.32,0,0,1,1.54-2.82A.36.36,0,0,1,49,42a.43.43,0,0,1,.28.26,11.9,11.9,0,0,1-1.8,3.08h-.07c-.15,0-.29-.15-.36-.42Zm15.78-.06a7.28,7.28,0,0,1,.76-1.53c.79-1.37,1-1.6,1.38-1.4a.43.43,0,0,1,.19.21,15.92,15.92,0,0,1-1.78,3H63.3a.53.53,0,0,1-.47-.32Zm15.88-.06a8.68,8.68,0,0,1,1.76-3c.12,0,.28,0,.31.06a.66.66,0,0,1,.14.26h0a13.56,13.56,0,0,1-1.66,3,.63.63,0,0,1-.19,0A.33.33,0,0,1,78.71,44.8Zm15.89-.11c-.09-.22,0-.47.69-1.62a7.77,7.77,0,0,1,1-1.43.59.59,0,0,1,.32,0,.45.45,0,0,1,.21.22l-.22.6c-.13.27-.32.61-.52,1-.67,1.17-.84,1.4-1.07,1.44h-.1c-.14,0-.2-.06-.27-.23ZM3.18,44.3a7.55,7.55,0,0,1,.74-1.51c.57-1,.85-1.39,1-1.44a.55.55,0,0,1,.31,0,.25.25,0,0,1,.14.16c.06.23-.14.68-.65,1.56-.86,1.45-.92,1.54-1.06,1.58h0A.59.59,0,0,1,3.18,44.3Zm15.92,0c-.09-.22,0-.47.68-1.63s.85-1.39,1-1.44.29,0,.32,0a.56.56,0,0,1,.09.17c.07.25-.1.6-.71,1.64s-.84,1.4-1.06,1.43h-.1C19.23,44.51,19.16,44.45,19.1,44.28ZM35,44.13c-.1-.24,0-.45.69-1.64a7.35,7.35,0,0,1,1-1.4.62.62,0,0,1,.33,0c.11.06.2.1.22.18s-.18.56-.86,1.76c-.57,1-.77,1.25-1,1.29h-.09c-.13,0-.21-.07-.27-.24ZM50.7,44a14.11,14.11,0,0,1,1.49-2.79c.2-.24.27-.27.5-.22a.51.51,0,0,1,.32.23,14.7,14.7,0,0,1-1.77,3.11h-.07A.53.53,0,0,1,50.7,44Zm15.86-.14A11.78,11.78,0,0,1,68.18,41a.72.72,0,0,1,.38-.1.21.21,0,0,1,.21.16c.06.21-.11.65-.53,1.37-.76,1.32-1,1.74-1.18,1.78h0a.58.58,0,0,1-.46-.35Zm15.91,0c-.1-.24,0-.45.68-1.64a6.89,6.89,0,0,1,1-1.39.54.54,0,0,1,.33.05c.1,0,.18.1.2.18s-.18.65-.93,1.95c-.49.85-.66,1.06-.87,1.09h-.09c-.14,0-.21-.07-.28-.26ZM.77,42.88c.32-.49.49-.57.77-.54a.22.22,0,0,1,.21.14c.05.21-.15.66-.66,1.55C1,43.65.87,43.26.77,42.88ZM7,43.54c-.2-.3-.12-.52.66-1.84.54-.92.81-1.29,1-1.33a.5.5,0,0,1,.32,0,.2.2,0,0,1,.12.15c.07.23-.15.7-.74,1.71s-.93,1.48-1.15,1.48-.14,0-.2-.15Zm15.8-.27c-.1-.24,0-.45.68-1.64a7.28,7.28,0,0,1,.95-1.39.56.56,0,0,1,.34,0,.45.45,0,0,1,.22.21,8.66,8.66,0,0,1-.76,1.56c-.66,1.15-.87,1.42-1.07,1.45h-.08c-.14,0-.22-.08-.28-.26Zm15.75-.1a11.11,11.11,0,0,1,1.74-3.07.57.57,0,0,1,.34,0,.41.41,0,0,1,.22.21,13.77,13.77,0,0,1-1.73,3,.91.91,0,0,1-.23,0,.31.31,0,0,1-.35-.23ZM54.43,43a13.88,13.88,0,0,1,1.49-2.76c.18-.22.27-.26.45-.22s.24.09.27.2-.16.71-.74,1.7A8.61,8.61,0,0,1,55,43.34H54.9a.56.56,0,0,1-.47-.36Zm16,.1c-.2-.3-.12-.52.66-1.83s.85-1.38,1.22-1.34a.21.21,0,0,1,.21.14c0,.22-.17.7-.73,1.69s-.93,1.5-1.15,1.5a.29.29,0,0,1-.21-.16Zm15.67-.29a13.45,13.45,0,0,1,1.75-3,.53.53,0,0,1,.35,0,.43.43,0,0,1,.21.21,11.91,11.91,0,0,1-1.77,3l-.13,0a.42.42,0,0,1-.42-.29Zm-75.29-.22c-.23-.31-.17-.53.46-1.63.78-1.36.95-1.57,1.3-1.58.17,0,.27,0,.3.15s-.17.7-.73,1.68-.93,1.5-1.15,1.5a.23.23,0,0,1-.19-.13Zm15.93,0c-.47,0-.37-.42.47-1.86S28.3,39,28.52,39.3a.57.57,0,0,1,.1.19c.06.25-.09.61-.64,1.56-.71,1.27-.89,1.49-1.22,1.49Zm15.86-.15c-.46,0-.36-.42.46-1.85s1.12-1.7,1.34-1.39a.63.63,0,0,1,.1.2c.07.25-.09.61-.63,1.55-.73,1.28-.89,1.49-1.22,1.49ZM58.16,42a12.87,12.87,0,0,1,1.54-2.85.34.34,0,0,1,.4-.1.43.43,0,0,1,.28.26,10.85,10.85,0,0,1-1.78,3.07h-.08c-.16,0-.3-.14-.37-.4Zm15.77-.07A12.87,12.87,0,0,1,75.67,39a1,1,0,0,1,.35,0c.11,0,.18,0,.2.13s-.17.7-.75,1.7a7.22,7.22,0,0,1-1,1.46h-.07a.52.52,0,0,1-.48-.33Zm15.89-.07a8.81,8.81,0,0,1,1.75-3c.13,0,.28,0,.32.05a1.16,1.16,0,0,1,.14.27h0a12.58,12.58,0,0,1-1.66,3,.69.69,0,0,1-.2,0,.34.34,0,0,1-.36-.26Zm-75.53-.48A7.24,7.24,0,0,1,15,39.82c.56-1,.85-1.39,1-1.43a.47.47,0,0,1,.31,0,.23.23,0,0,1,.13.16c.06.23-.13.67-.65,1.56-.85,1.45-.91,1.54-1,1.57h-.05a.55.55,0,0,1-.46-.34Zm15.88-.07a8.42,8.42,0,0,1,1.75-3c.14,0,.29,0,.33,0a.91.91,0,0,1,.13.26h0a13.56,13.56,0,0,1-1.67,3l-.19,0a.32.32,0,0,1-.35-.26Zm15.9-.11c-.1-.23,0-.47.68-1.64a8.3,8.3,0,0,1,1-1.41.54.54,0,0,1,.33.05c.12.06.2.09.22.18s-.17.56-.86,1.76c-.57,1-.77,1.25-1,1.28h-.09c-.13,0-.21-.07-.27-.23ZM61.81,41a14.19,14.19,0,0,1,1.49-2.8c.2-.24.26-.27.5-.22a.46.46,0,0,1,.31.23,14.28,14.28,0,0,1-1.77,3.11h-.06A.54.54,0,0,1,61.8,41Zm15.85-.16a7.63,7.63,0,0,1,.74-1.52c.57-1,.85-1.37,1-1.42a.53.53,0,0,1,.33,0,.26.26,0,0,1,.13.16c.06.22-.11.63-.54,1.36-.76,1.32-1,1.74-1.17,1.77h0a.54.54,0,0,1-.46-.36Zm15.92,0c-.1-.23,0-.46.68-1.63a7,7,0,0,1,1-1.4.63.63,0,0,1,.33,0c.1.06.17.1.2.19s-.19.64-.93,2c-.49.85-.67,1-.87,1.08h-.1c-.14,0-.21-.07-.28-.25Zm-91.2-.1c-.33-.2-.27-.45.4-1.62.84-1.5,1-1.71,1.31-1.65s.24.1.27.2-.13.65-.62,1.5c-.78,1.33-1,1.66-1.14,1.66a.44.44,0,0,1-.22-.1ZM18,40.25a7.63,7.63,0,0,1,.74-1.52c.55-.93.82-1.29,1-1.34a.58.58,0,0,1,.32,0,.26.26,0,0,1,.13.16c.06.23-.15.7-.74,1.71a8.13,8.13,0,0,1-1,1.44h-.07a.44.44,0,0,1-.4-.45Zm15.89,0c-.09-.23,0-.44.68-1.63a7,7,0,0,1,1-1.39.56.56,0,0,1,.34,0,.47.47,0,0,1,.22.22,8.29,8.29,0,0,1-.77,1.55c-.65,1.16-.86,1.42-1.06,1.46h-.08c-.14,0-.21-.07-.28-.25Zm15.75-.1a11.29,11.29,0,0,1,1.73-3.06.6.6,0,0,1,.35,0,.47.47,0,0,1,.22.22,14,14,0,0,1-1.73,3,.91.91,0,0,1-.23,0,.31.31,0,0,1-.34-.23ZM65.53,40A14,14,0,0,1,67,37.25c.18-.21.27-.26.45-.21s.24.09.26.2-.16.7-.73,1.69a9.19,9.19,0,0,1-1,1.44h0a.56.56,0,0,1-.47-.36Zm16,.1c-.2-.3-.12-.53.66-1.84s.85-1.38,1.22-1.34a.23.23,0,0,1,.21.15c.05.21-.17.7-.73,1.69s-.93,1.49-1.15,1.49a.29.29,0,0,1-.21-.16Zm15.78-.22c-.13-.18-.06-.36.65-1.61.16-.29.3-.53.43-.72-.1.3-.21.6-.32.9l-.59,1.6a.46.46,0,0,1-.17-.17ZM0,38.61l.14-.18a1.12,1.12,0,0,1,.32,0,.43.43,0,0,1,.27.24,4.68,4.68,0,0,1-.57,1.22C.1,39.49.05,39.05,0,38.61Zm6.1,1.16c-.35-.2-.26-.51.55-1.9a13.08,13.08,0,0,1,.9-1.42,1.46,1.46,0,0,1,.29,0c.14,0,.23.1.26.2s-.16.71-.74,1.7a7.9,7.9,0,0,1-1,1.44H6.32A.54.54,0,0,1,6.1,39.77Zm15.79-.17c-.22-.31-.16-.52.51-1.7.79-1.38.9-1.5,1.26-1.51.16,0,.26,0,.3.14s-.17.7-.73,1.69-.93,1.5-1.16,1.5A.25.25,0,0,1,21.89,39.6ZM38.12,38c1-1.75,1.12-1.88,1.51-1.68a.47.47,0,0,1,.22.22,13.64,13.64,0,0,1-1.74,3,1.35,1.35,0,0,1-.29,0c-.43,0-.33-.47.3-1.58Zm15.29,1.19a9,9,0,0,1,1.76-3.06.31.31,0,0,1,.31.05.69.69,0,0,1,.1.19c.06.26-.09.62-.64,1.57a11,11,0,0,1-.89,1.4.56.56,0,0,1-.31.09.32.32,0,0,1-.33-.24ZM69.26,39a12.8,12.8,0,0,1,1.54-2.84.34.34,0,0,1,.4-.1.43.43,0,0,1,.28.26,11.1,11.1,0,0,1-1.78,3.07h-.08c-.16,0-.29-.14-.36-.4ZM85,38.92a12.87,12.87,0,0,1,1.74-3,1,1,0,0,1,.35,0c.11,0,.18.05.2.14s-.17.7-.74,1.69a7.46,7.46,0,0,1-1,1.46h-.09a.53.53,0,0,1-.48-.32Zm-75.42-.5a13.6,13.6,0,0,1,1.64-3,1.06,1.06,0,0,1,.31,0,.44.44,0,0,1,.28.25,13,13,0,0,1-1.79,3.09H10c-.16,0-.29-.16-.36-.43Zm15.78-.05a6.79,6.79,0,0,1,.75-1.53c.56-1,.85-1.38,1-1.43a.55.55,0,0,1,.31,0,.23.23,0,0,1,.13.16c.07.24-.15.71-.73,1.7a8,8,0,0,1-.94,1.43h-.07a.55.55,0,0,1-.47-.33Zm15.88-.07a8.45,8.45,0,0,1,1.76-3c.13,0,.28,0,.32.06a.91.91,0,0,1,.13.26h0a13.27,13.27,0,0,1-1.67,3l-.19,0A.33.33,0,0,1,41.27,38.3Zm15.89-.11c-.08-.22,0-.47.69-1.63a8.58,8.58,0,0,1,.95-1.42.54.54,0,0,1,.33,0c.12.06.19.1.22.18s-.17.56-.85,1.76c-.59,1-.76,1.26-1,1.28h-.1c-.13,0-.2-.06-.27-.23Zm15.74-.14a15.73,15.73,0,0,1,1.72-3,1.12,1.12,0,0,1,.32,0,.49.49,0,0,1,.28.23,14.38,14.38,0,0,1-1.77,3.1h-.07a.54.54,0,0,1-.48-.34Zm15.86-.14a7.72,7.72,0,0,1,.74-1.53c.57-1,.85-1.37,1-1.42a.53.53,0,0,1,.33,0,.26.26,0,0,1,.13.16c.06.23-.14.67-.65,1.56-.86,1.45-.92,1.54-1,1.57h-.06a.57.57,0,0,1-.46-.35Zm-75.28-.14c-.33-.2-.27-.45.4-1.61.84-1.5,1-1.72,1.32-1.65a.3.3,0,0,1,.26.2c.06.22-.13.65-.62,1.49-.78,1.34-1,1.66-1.14,1.66a.43.43,0,0,1-.22-.09Zm15.64-.41a11.6,11.6,0,0,1,1.62-2.87.62.62,0,0,1,.38-.1.21.21,0,0,1,.2.15c.08.31-.35,1.15-1.48,3a.46.46,0,0,1-.21.18h-.05a.55.55,0,0,1-.46-.34Zm15.91,0c-.1-.24,0-.45.68-1.64a7,7,0,0,1,.95-1.39.56.56,0,0,1,.34.05.45.45,0,0,1,.22.21,9.42,9.42,0,0,1-.77,1.56c-.65,1.15-.86,1.42-1.06,1.45h-.08c-.14,0-.21-.08-.28-.25Zm15.75-.1a11,11,0,0,1,1.74-3.07.57.57,0,0,1,.34,0,.43.43,0,0,1,.22.22,14,14,0,0,1-1.73,3,.91.91,0,0,1-.23,0,.32.32,0,0,1-.34-.23ZM76.63,37a14.24,14.24,0,0,1,1.49-2.77c.18-.21.27-.26.45-.21s.24.09.26.2S78.67,35,78.1,36a9.19,9.19,0,0,1-.95,1.44H77.1a.56.56,0,0,1-.47-.35Zm16,.1c-.2-.3-.12-.52.66-1.84s.85-1.37,1.22-1.33a.21.21,0,0,1,.21.14c0,.22-.17.7-.73,1.69s-.93,1.49-1.15,1.49-.14,0-.21-.15ZM1.4,36.89c-.43,0-.33-.4.49-1.84S3,33.36,3.2,33.65a.54.54,0,0,1,.1.2c.07.25-.09.61-.63,1.56-.72,1.27-.89,1.48-1.22,1.48Zm15.8-.1c-.34-.19-.25-.5.49-1.75.94-1.6.95-1.6,1.23-1.53s.25.09.28.2-.17.7-.74,1.69a8.59,8.59,0,0,1-1,1.44h-.08A.43.43,0,0,1,17.2,36.79ZM33,36.59c-.2-.3-.12-.52.65-1.84s.86-1.37,1.23-1.34c.11,0,.18.06.2.15s-.16.7-.72,1.69-.94,1.49-1.16,1.49-.14-.05-.2-.15Zm15.68-.24a11,11,0,0,1,1.75-3.06.58.58,0,0,1,.34.05.43.43,0,0,1,.21.21,13.77,13.77,0,0,1-1.73,3,.62.62,0,0,1-.23,0,.31.31,0,0,1-.34-.24Zm16.13.09c-.44,0-.35-.41.47-1.84s1.11-1.71,1.33-1.4a.69.69,0,0,1,.1.19c.07.26-.09.61-.63,1.56-.72,1.27-.89,1.49-1.22,1.49ZM80.36,36a14.44,14.44,0,0,1,1.53-2.81c.15-.16.22-.18.41-.12a.44.44,0,0,1,.29.26,10.41,10.41,0,0,1-1.77,3.06l-.09,0c-.17,0-.3-.14-.37-.41Zm16,.1c-.22-.26-.15-.43.75-2,.62-1,.78-1.22,1.16-1.17.11,0,.19.05.21.14s-.17.71-.74,1.7-.9,1.46-1.13,1.46a.32.32,0,0,1-.25-.17ZM4.89,35.67c-.09-.21,0-.47.69-1.62.78-1.35,1-1.57,1.3-1.39a.29.29,0,0,1,.16.18c.06.22-.14.64-.72,1.63-.67,1.15-.84,1.4-1.07,1.42h-.1c-.13,0-.2-.07-.26-.23Zm15.82-.22a14,14,0,0,1,1.64-3,1.17,1.17,0,0,1,.32,0,.46.46,0,0,1,.27.24,12.71,12.71,0,0,1-1.79,3.09l-.08,0c-.16,0-.29-.17-.36-.44Zm15.78-.05a7.24,7.24,0,0,1,.75-1.53c.79-1.38,1-1.61,1.39-1.41a.45.45,0,0,1,.19.22,16.16,16.16,0,0,1-1.78,3H37a.51.51,0,0,1-.47-.33Zm15.88-.07a8.59,8.59,0,0,1,1.76-3c.13,0,.28,0,.32.05a1.11,1.11,0,0,1,.13.27h0a13.27,13.27,0,0,1-1.67,3l-.19,0a.33.33,0,0,1-.35-.26Zm15.9-.11c-.09-.22,0-.47.68-1.64a8.93,8.93,0,0,1,1-1.41.53.53,0,0,1,.33,0c.12.06.2.1.22.18s-.17.56-.85,1.76c-.59,1-.76,1.25-1,1.28h-.1c-.13,0-.2-.07-.26-.23ZM84,35.08a15.73,15.73,0,0,1,1.72-3,1.12,1.12,0,0,1,.32,0,.49.49,0,0,1,.28.23,14,14,0,0,1-1.78,3.1h-.06a.53.53,0,0,1-.47-.34ZM8.62,34.65c-.1-.24,0-.45.68-1.64a7.28,7.28,0,0,1,.95-1.39.57.57,0,0,1,.34.05.41.41,0,0,1,.21.2v0c0,.14,0,.17-.86,1.7-.58,1-.76,1.26-1,1.29H8.89C8.76,34.9,8.68,34.83,8.62,34.65Zm15.74-.12a14.32,14.32,0,0,1,1.48-2.79c.18-.2.27-.25.46-.2a.3.3,0,0,1,.26.2c.06.23-.16.7-.73,1.69a8.34,8.34,0,0,1-.93,1.43h-.07a.56.56,0,0,1-.47-.34Zm15.86-.15a11.54,11.54,0,0,1,1.62-2.86.59.59,0,0,1,.38-.1.19.19,0,0,1,.2.14c.08.32-.35,1.16-1.47,3a.57.57,0,0,1-.22.19h0a.59.59,0,0,1-.46-.35Zm15.91,0c-.1-.24,0-.45.68-1.63a7,7,0,0,1,1-1.4.54.54,0,0,1,.33.05.45.45,0,0,1,.22.21c0,.14,0,.14-.88,1.76-.56,1-.75,1.22-.95,1.25h-.08c-.14,0-.21-.07-.28-.25Zm15.75-.1a11.11,11.11,0,0,1,1.74-3.07.6.6,0,0,1,.35,0,.43.43,0,0,1,.21.21,13.77,13.77,0,0,1-1.73,3l-.23,0a.33.33,0,0,1-.34-.23Zm15.85-.17a13.68,13.68,0,0,1,1.49-2.77c.18-.22.27-.26.45-.22s.24.1.27.2-.16.71-.74,1.7a9.53,9.53,0,0,1-.94,1.43H88.2a.58.58,0,0,1-.47-.35Zm-75.22-.16c-.44,0-.34-.4.48-1.83s1.1-1.7,1.31-1.4a.44.44,0,0,1,.1.19c.07.25-.09.61-.63,1.56-.72,1.27-.89,1.49-1.22,1.49Zm15.58-.41a5.65,5.65,0,0,1,.7-1.44c.94-1.6.95-1.6,1.23-1.53s.25.09.28.2-.16.7-.74,1.69a8.61,8.61,0,0,1-.94,1.43h-.06A.56.56,0,0,1,28.09,33.5Zm16,.11c-.2-.3-.12-.53.65-1.84s.86-1.37,1.23-1.34c.11,0,.18.06.2.15s-.16.7-.72,1.69-.93,1.49-1.16,1.49c-.07,0-.14,0-.2-.15Zm15.66-.3a13.53,13.53,0,0,1,1.77-3,.58.58,0,0,1,.34.05.43.43,0,0,1,.21.21,12.21,12.21,0,0,1-1.77,3h-.13a.42.42,0,0,1-.42-.29Zm16.15.15c-.43,0-.33-.39.48-1.83s1.1-1.71,1.32-1.41a.5.5,0,0,1,.1.19c.07.26-.09.61-.63,1.56-.72,1.27-.89,1.49-1.22,1.49ZM91.46,33A14.48,14.48,0,0,1,93,30.22a.31.31,0,0,1,.41-.12.47.47,0,0,1,.29.26,10.69,10.69,0,0,1-1.77,3.07h-.09c-.18,0-.31-.14-.38-.4ZM.1,32.81a9,9,0,0,1,1.76-3.05c.13,0,.27,0,.31,0a1,1,0,0,1,.14.28h0A11.84,11.84,0,0,1,.65,33l-.21,0A.31.31,0,0,1,.1,32.81ZM16,32.69c-.09-.21,0-.47.7-1.63.78-1.34,1-1.57,1.29-1.39a.33.33,0,0,1,.16.19c.06.23-.14.65-.71,1.64s-.85,1.38-1.08,1.41h-.1c-.13,0-.2-.06-.26-.23Zm15.82-.22a13.57,13.57,0,0,1,1.54-2.82.37.37,0,0,1,.42-.1.46.46,0,0,1,.27.24,13.31,13.31,0,0,1-1.79,3.1h-.08c-.16,0-.28-.16-.36-.43Zm15.78,0a7.24,7.24,0,0,1,.75-1.53c.8-1.37,1-1.61,1.39-1.41a.39.39,0,0,1,.18.22,15.59,15.59,0,0,1-1.77,3h-.08a.52.52,0,0,1-.46-.32Zm15.88-.07a8.84,8.84,0,0,1,1.76-3c.13,0,.28,0,.32.05a.84.84,0,0,1,.13.27h0A13.42,13.42,0,0,1,64,32.58a.57.57,0,0,1-.18,0,.33.33,0,0,1-.35-.26Zm15.9-.11c-.1-.22,0-.47.69-1.63a7.18,7.18,0,0,1,1-1.42.51.51,0,0,1,.32,0c.12.06.19.1.22.18s-.17.56-.85,1.76c-.59,1-.76,1.25-1,1.28h-.1c-.13,0-.2-.07-.26-.23Zm15.81-.38a19.76,19.76,0,0,1,1.65-2.8,1.1,1.1,0,0,1,.31,0,.46.46,0,0,1,.28.23,13.34,13.34,0,0,1-1.8,3.1h-.06a.49.49,0,0,1-.38-.58Zm-91.32,0c-.1-.23,0-.45.69-1.63s1-1.55,1.3-1.38A.3.3,0,0,1,6,29c.06.21-.14.63-.72,1.63-.66,1.16-.84,1.41-1.06,1.43h-.1c-.12,0-.2-.06-.26-.23Zm15.86-.15c-.1-.23,0-.45.68-1.62a6.44,6.44,0,0,1,1-1.4.63.63,0,0,1,.33,0c.11.06.2.1.22.18s-.18.57-.86,1.76c-.57,1-.77,1.25-1,1.29H20c-.13,0-.2-.07-.27-.25Zm15.74-.12A14.11,14.11,0,0,1,37,28.76c.21-.26.24-.26.5-.18a.52.52,0,0,1,.32.22A16.51,16.51,0,0,1,36,31.88h-.07a.56.56,0,0,1-.47-.34Zm15.86-.15A11.26,11.26,0,0,1,53,28.54a.55.55,0,0,1,.37-.1.22.22,0,0,1,.22.15c.05.22-.12.65-.54,1.37-.76,1.32-1,1.75-1.17,1.78h0A.59.59,0,0,1,51.32,31.4Zm15.92,0c-.1-.24,0-.45.67-1.63a7.47,7.47,0,0,1,1-1.39.57.57,0,0,1,.34,0,.36.36,0,0,1,.2.18c0,.21-.19.65-.94,2-.49.84-.66,1.05-.86,1.08h-.1c-.14,0-.21-.06-.27-.25ZM83,31.2a12.59,12.59,0,0,1,1.75-3,.6.6,0,0,1,.35,0,.32.32,0,0,1,.2.21.43.43,0,0,1-.07.33,13.22,13.22,0,0,1-1.69,2.69h-.13A.4.4,0,0,1,83,31.2Zm16.09.16c-.33-.19-.27-.44.4-1.61.15-.28.29-.51.4-.7,0,.63,0,1.25-.11,1.88-.25.41-.36.54-.47.54a.55.55,0,0,1-.22-.1ZM7.59,30.81c-.1-.24,0-.45.68-1.63a7.35,7.35,0,0,1,1-1.4.64.64,0,0,1,.34,0,.47.47,0,0,1,.22.22A9.68,9.68,0,0,1,9,29.6C8.36,30.76,8.15,31,8,31.05H7.87c-.14,0-.21-.07-.28-.24Zm16,.12c-.39,0-.28-.44.53-1.83s1.09-1.7,1.3-1.4a.49.49,0,0,1,.11.2c.07.25-.1.62-.67,1.61-.67,1.19-.85,1.43-1.18,1.43h-.09Zm15.62-.4a14.24,14.24,0,0,1,1.49-2.77c.18-.21.27-.26.45-.21s.24.09.27.2-.16.71-.74,1.69a9.9,9.9,0,0,1-.94,1.44h-.06a.55.55,0,0,1-.47-.34Zm16,.1c-.2-.3-.12-.52.66-1.84s.85-1.37,1.22-1.33a.21.21,0,0,1,.21.14c.05.22-.17.7-.73,1.69s-.93,1.49-1.15,1.49-.15,0-.21-.14Zm15.67-.29a13.52,13.52,0,0,1,1.75-3,.6.6,0,0,1,.35.05.43.43,0,0,1,.21.21,12.21,12.21,0,0,1-1.77,3h-.13a.4.4,0,0,1-.41-.27ZM87,30.48c-.43,0-.33-.4.49-1.84s1.1-1.69,1.31-1.4a.5.5,0,0,1,.1.19c.07.26-.09.62-.63,1.57-.72,1.26-.89,1.48-1.22,1.48ZM11.2,29.83a8.91,8.91,0,0,1,1.77-3,.31.31,0,0,1,.31,0,1.11,1.11,0,0,1,.14.29h0a11.78,11.78,0,0,1-1.66,2.93.76.76,0,0,1-.21,0,.33.33,0,0,1-.35-.24Zm15.86-.15a8.77,8.77,0,0,1,1.77-3,.3.3,0,0,1,.31.05.92.92,0,0,1,.14.28h0a12.4,12.4,0,0,1-1.67,2.94.69.69,0,0,1-.2,0,.34.34,0,0,1-.35-.26Zm15.86-.18a13.28,13.28,0,0,1,1.53-2.82.38.38,0,0,1,.42-.1.44.44,0,0,1,.28.25,12.43,12.43,0,0,1-1.8,3.09h-.07C43.12,29.92,43,29.77,42.92,29.5Zm15.78-.06a7.16,7.16,0,0,1,.75-1.52c.8-1.38,1-1.6,1.39-1.41a.43.43,0,0,1,.18.22,15.63,15.63,0,0,1-1.78,3h-.07a.54.54,0,0,1-.47-.33Zm15.88-.06a8.72,8.72,0,0,1,1.75-3c.13,0,.28,0,.32.05a.87.87,0,0,1,.14.27h0a13.42,13.42,0,0,1-1.67,2.95.58.58,0,0,1-.19,0,.34.34,0,0,1-.35-.26Zm15.89-.11c-.09-.22,0-.47.69-1.63a6.82,6.82,0,0,1,1-1.42.51.51,0,0,1,.32.05.49.49,0,0,1,.22.23,7.16,7.16,0,0,1-.75,1.55c-.67,1.17-.84,1.4-1.07,1.44h-.1c-.14,0-.21-.07-.27-.23ZM15,28.85c-.09-.22,0-.46.68-1.62s.85-1.39,1-1.44.29,0,.33.05a.56.56,0,0,1,.09.17c.06.25-.1.6-.71,1.64s-.85,1.4-1.06,1.43h-.1c-.13,0-.2-.07-.27-.24Zm15.86-.15c-.09-.23,0-.45.69-1.63a6.77,6.77,0,0,1,.95-1.4.47.47,0,0,1,.33,0c.12.05.2.09.22.17s-.17.57-.86,1.76c-.57,1-.77,1.25-1,1.29H31.1C31,29,30.89,28.88,30.82,28.7Zm15.74-.13a14.15,14.15,0,0,1,1.5-2.79c.2-.24.26-.27.5-.22a.46.46,0,0,1,.31.23A14.28,14.28,0,0,1,47.1,28.9H47a.56.56,0,0,1-.48-.33Zm15.87-.14a11.29,11.29,0,0,1,1.62-2.87.61.61,0,0,1,.37-.1.22.22,0,0,1,.22.16c0,.21-.12.65-.54,1.37-.76,1.32-1,1.74-1.17,1.78h0a.55.55,0,0,1-.45-.34Zm15.91,0c-.1-.24,0-.45.68-1.64a7,7,0,0,1,1-1.39.58.58,0,0,1,.34.05.36.36,0,0,1,.2.18c.06.21-.19.65-.93,1.95-.49.85-.67,1.05-.87,1.09h-.1c-.14,0-.21-.06-.27-.24Zm15.86-.15c-.1-.24,0-.45.68-1.63a7,7,0,0,1,1-1.39.57.57,0,0,1,.34,0,.43.43,0,0,1,.21.21c0,.16,0,.16-.87,1.76-.56,1-.75,1.22-1,1.25h-.09c-.13,0-.21-.07-.27-.24ZM2.9,28.11c-.2-.3-.12-.53.66-1.84.54-.92.81-1.29,1-1.34a.53.53,0,0,1,.33,0,.2.2,0,0,1,.12.15c.07.23-.15.7-.74,1.71s-.93,1.48-1.15,1.48-.14-.05-.2-.15Zm15.8-.27c-.1-.24,0-.45.68-1.64a7,7,0,0,1,.95-1.39.57.57,0,0,1,.34.05.45.45,0,0,1,.22.21,9,9,0,0,1-.77,1.55c-.66,1.16-.86,1.42-1.06,1.46H19c-.14,0-.21-.06-.27-.24Zm15.75-.1a11.08,11.08,0,0,1,1.73-3.07.6.6,0,0,1,.35,0,.43.43,0,0,1,.21.21,13.77,13.77,0,0,1-1.73,3,.85.85,0,0,1-.23,0,.31.31,0,0,1-.34-.22Zm15.85-.17a13.68,13.68,0,0,1,1.49-2.77c.17-.22.26-.26.45-.22s.23.09.26.2-.16.71-.74,1.7a8.81,8.81,0,0,1-.94,1.43h-.06A.55.55,0,0,1,50.3,27.57Zm16,.1c-.2-.31-.12-.53.65-1.84s.85-1.38,1.22-1.34c.12,0,.19.05.21.14s-.16.7-.73,1.69-.93,1.5-1.15,1.5-.14-.06-.2-.16Zm15.66-.3a13.45,13.45,0,0,1,1.75-3,.53.53,0,0,1,.35,0,.43.43,0,0,1,.22.22,12.34,12.34,0,0,1-1.77,3l-.14,0a.42.42,0,0,1-.41-.29Zm16.15.14c-.44,0-.34-.4.49-1.83a5.51,5.51,0,0,1,1-1.44c.05.38.1.76.14,1.14-.09.18-.21.39-.35.65-.72,1.27-.89,1.48-1.22,1.48ZM6.65,27.15c-.23-.3-.16-.53.46-1.63.78-1.36,1-1.57,1.3-1.58.17,0,.28,0,.3.15s-.16.7-.72,1.68-.94,1.5-1.16,1.5a.22.22,0,0,1-.18-.12Zm15.93,0c-.47,0-.36-.42.47-1.85s1.11-1.69,1.33-1.39a.75.75,0,0,1,.1.2c.07.25-.09.61-.63,1.56-.72,1.27-.89,1.48-1.22,1.48ZM38.44,27c-.45,0-.36-.42.47-1.85s1.11-1.7,1.33-1.39a.5.5,0,0,1,.1.19c.07.26-.09.61-.63,1.56C39,26.75,38.82,27,38.49,27ZM54,26.53a13.43,13.43,0,0,1,1.55-2.83.34.34,0,0,1,.4-.1.44.44,0,0,1,.28.25,11.26,11.26,0,0,1-1.78,3.08h-.08c-.17,0-.3-.14-.37-.4Zm15.78-.06a12.52,12.52,0,0,1,1.74-2.95,1,1,0,0,1,.35,0,.2.2,0,0,1,.2.14c0,.21-.17.69-.76,1.69a7.61,7.61,0,0,1-1,1.46h-.08A.51.51,0,0,1,69.8,26.47Zm15.88-.07a8.68,8.68,0,0,1,1.76-3c.12,0,.28,0,.32.05a1.11,1.11,0,0,1,.13.27h0a12.58,12.58,0,0,1-1.66,2.95.63.63,0,0,1-.19,0A.33.33,0,0,1,85.68,26.4Zm-75.53-.48a7.24,7.24,0,0,1,.75-1.53c.56-1,.85-1.39,1-1.43a.47.47,0,0,1,.31,0,.21.21,0,0,1,.13.16c.07.23-.13.67-.64,1.56-.86,1.45-.92,1.54-1.06,1.58h-.05a.57.57,0,0,1-.46-.33ZM26,25.85a8.28,8.28,0,0,1,1.74-3c.14,0,.29,0,.33.05a.6.6,0,0,1,.13.25h0a13.56,13.56,0,0,1-1.67,3,.58.58,0,0,1-.19,0,.32.32,0,0,1-.34-.26Zm15.89-.11c-.09-.22,0-.46.69-1.63a7.49,7.49,0,0,1,1-1.42.59.59,0,0,1,.32,0c.12.06.2.1.22.18s-.17.56-.85,1.76c-.58,1-.78,1.25-1,1.28H42.2c-.14,0-.21-.07-.27-.23Zm15.74-.13a14.48,14.48,0,0,1,1.49-2.8c.2-.24.27-.27.5-.22a.52.52,0,0,1,.32.24,14.88,14.88,0,0,1-1.77,3.1h-.07a.54.54,0,0,1-.47-.33Zm15.85-.16a7.41,7.41,0,0,1,.75-1.52c.56-1,.84-1.37,1-1.42a.5.5,0,0,1,.32,0,.26.26,0,0,1,.13.16c.06.22-.11.63-.53,1.36-.77,1.32-1,1.74-1.18,1.78h0a.55.55,0,0,1-.45-.35Zm15.92,0c-.09-.23,0-.46.68-1.63a7.4,7.4,0,0,1,1-1.4.62.62,0,0,1,.33.05.36.36,0,0,1,.2.18c.06.21-.18.65-.93,1.95-.49.85-.67,1.06-.87,1.09h-.1c-.13,0-.2-.07-.27-.25Zm-75.54-.6a7.91,7.91,0,0,1,.74-1.52c.56-.93.83-1.29,1-1.34A.53.53,0,0,1,16,22a.2.2,0,0,1,.12.15c.07.23-.15.7-.74,1.71a8.65,8.65,0,0,1-1,1.44H14.3a.44.44,0,0,1-.4-.44Zm15.89,0c-.1-.23,0-.44.68-1.63a7.47,7.47,0,0,1,1-1.39.53.53,0,0,1,.33,0,.43.43,0,0,1,.22.22,8.91,8.91,0,0,1-.76,1.55c-.66,1.16-.86,1.42-1.07,1.46h-.08c-.14,0-.21-.07-.27-.24Zm15.75-.1a11.06,11.06,0,0,1,1.74-3.06.6.6,0,0,1,.35,0,.45.45,0,0,1,.21.22,14,14,0,0,1-1.73,3,.85.85,0,0,1-.23,0,.32.32,0,0,1-.34-.23Zm15.86-.17a13.68,13.68,0,0,1,1.49-2.77c.17-.21.26-.26.44-.21s.24.09.27.2-.16.7-.74,1.69a9.13,9.13,0,0,1-.94,1.44h-.06A.53.53,0,0,1,61.4,24.59Zm16,.1c-.2-.3-.12-.53.65-1.84s.85-1.37,1.22-1.34c.12,0,.19.06.21.15s-.16.7-.73,1.69-.93,1.49-1.15,1.49-.14-.05-.2-.15Zm15.78-.22c-.14-.18-.07-.36.65-1.61s1-1.6,1.33-1.42a.41.41,0,0,1,.22.21,8.91,8.91,0,0,1-.76,1.55c-.65,1.12-.86,1.42-1.06,1.45h0a.38.38,0,0,1-.34-.18Zm-91-.07a29.3,29.3,0,0,1,1.65-3.32.26.26,0,0,1,.17.17c.06.24-.16.71-.74,1.7a7.85,7.85,0,0,1-1,1.44H2.14Zm15.61-.22c-.22-.31-.16-.53.52-1.7.79-1.38.9-1.51,1.26-1.52.16,0,.26,0,.3.15s-.17.7-.74,1.68-.93,1.5-1.15,1.5a.24.24,0,0,1-.19-.11ZM34,22.56c1-1.75,1.12-1.87,1.51-1.68a.45.45,0,0,1,.21.22,13.77,13.77,0,0,1-1.73,3,1.35,1.35,0,0,1-.29,0c-.44,0-.33-.47.3-1.59Zm15.28,1.2A9.13,9.13,0,0,1,51,20.69c.13,0,.27,0,.31.06a.44.44,0,0,1,.1.19c.07.25-.09.61-.63,1.56a10.7,10.7,0,0,1-.89,1.4.67.67,0,0,1-.31.1.34.34,0,0,1-.34-.25Zm15.85-.2a13.19,13.19,0,0,1,1.55-2.83.34.34,0,0,1,.4-.1.44.44,0,0,1,.29.26A11.38,11.38,0,0,1,65.57,24h-.08c-.16,0-.29-.14-.37-.41Zm15.78-.07a13.31,13.31,0,0,1,1.74-2.95,2,2,0,0,1,.35,0c.11,0,.18.06.2.14s-.17.7-.75,1.69a7.2,7.2,0,0,1-1,1.47h-.09a.53.53,0,0,1-.48-.33Zm15.89,0a9,9,0,0,1,1.76-3.05.33.33,0,0,1,.17,0l.18.65a13.21,13.21,0,0,1-1.56,2.63.76.76,0,0,1-.21,0,.32.32,0,0,1-.34-.25ZM5.47,23A14.42,14.42,0,0,1,7.11,20a.85.85,0,0,1,.32,0,.4.4,0,0,1,.28.24,12.74,12.74,0,0,1-1.8,3.09H5.84c-.16,0-.29-.16-.37-.43Zm15.79,0A6.32,6.32,0,0,1,22,21.42c.56-1,.85-1.39,1-1.43a.5.5,0,0,1,.32,0,.26.26,0,0,1,.13.16c.06.24-.15.71-.73,1.7a7.49,7.49,0,0,1-.95,1.42h-.06a.54.54,0,0,1-.47-.33Zm15.88-.06a8.34,8.34,0,0,1,1.75-3c.13,0,.29,0,.32.05a.7.7,0,0,1,.14.27h0a13.42,13.42,0,0,1-1.67,2.95.63.63,0,0,1-.19,0,.33.33,0,0,1-.35-.26ZM53,22.77c-.09-.22,0-.47.69-1.64a8.3,8.3,0,0,1,1-1.41.54.54,0,0,1,.33.05c.11.05.19.1.21.18s-.16.56-.84,1.76c-.59,1-.76,1.25-1,1.28h-.1c-.14,0-.2-.07-.27-.23Zm15.74-.14a15.92,15.92,0,0,1,1.71-3,.93.93,0,0,1,.33,0,.41.41,0,0,1,.27.23A13.81,13.81,0,0,1,69.31,23h-.07a.56.56,0,0,1-.47-.34Zm15.86-.15A7.91,7.91,0,0,1,85.37,21c.57-1,.84-1.37,1-1.42a.59.59,0,0,1,.32,0,.31.31,0,0,1,.14.16c.06.23-.14.68-.66,1.56-.85,1.45-.91,1.54-1,1.58h0a.57.57,0,0,1-.46-.35ZM9.35,22.35c-.33-.2-.27-.45.4-1.62.84-1.5,1-1.71,1.31-1.65.15,0,.24.1.27.2s-.14.65-.62,1.5c-.78,1.33-1,1.66-1.14,1.66a.52.52,0,0,1-.23-.1ZM25,21.93a11.4,11.4,0,0,1,1.62-2.86A.55.55,0,0,1,27,19a.19.19,0,0,1,.2.15c.09.31-.34,1.15-1.47,3a.52.52,0,0,1-.21.18h-.05a.56.56,0,0,1-.46-.35Zm15.91,0c-.1-.23,0-.45.68-1.63a7,7,0,0,1,1-1.39.57.57,0,0,1,.34,0,.45.45,0,0,1,.21.22,8.25,8.25,0,0,1-.76,1.55c-.66,1.16-.86,1.42-1.06,1.45h-.09c-.13,0-.21-.07-.27-.25Zm15.75-.1a11.29,11.29,0,0,1,1.73-3.06.6.6,0,0,1,.35,0A.47.47,0,0,1,59,19a14,14,0,0,1-1.74,3A.83.83,0,0,1,57,22a.31.31,0,0,1-.34-.23Zm15.85-.17A13.68,13.68,0,0,1,74,18.85c.17-.22.26-.26.44-.22s.24.1.27.2-.16.71-.74,1.7A8.4,8.4,0,0,1,73,22H73A.55.55,0,0,1,72.5,21.62Zm16,.1c-.2-.31-.12-.53.65-1.84s.85-1.38,1.22-1.34c.12,0,.19.05.21.14s-.16.7-.73,1.69-.93,1.5-1.15,1.5-.14-.06-.2-.15Zm-75.42-.35c-.33-.2-.25-.5.49-1.75.94-1.6.95-1.6,1.23-1.53s.25.09.28.2-.16.7-.74,1.69a8.13,8.13,0,0,1-1,1.43h-.08a.59.59,0,0,1-.22-.05Zm15.77-.2c-.2-.3-.12-.53.66-1.84S30.34,18,30.71,18a.23.23,0,0,1,.21.15c.06.21-.17.7-.73,1.69s-.93,1.49-1.15,1.49-.14-.06-.2-.15Zm15.68-.24a11.2,11.2,0,0,1,1.75-3.06.57.57,0,0,1,.34.05.43.43,0,0,1,.21.21,13.77,13.77,0,0,1-1.73,3l-.23,0a.33.33,0,0,1-.34-.25ZM60.65,21c-.45,0-.36-.41.46-1.84s1.11-1.71,1.33-1.4a.44.44,0,0,1,.1.19c.07.25-.09.61-.63,1.56C61.19,20.8,61,21,60.69,21Zm15.57-.43a14.48,14.48,0,0,1,1.54-2.81c.14-.17.21-.19.41-.12a.44.44,0,0,1,.29.26A10.87,10.87,0,0,1,76.69,21h-.1c-.16,0-.29-.14-.36-.4Zm16,.1c-.22-.26-.15-.43.76-2,.61-1,.78-1.22,1.16-1.17.11,0,.18.05.2.14s-.17.71-.74,1.71-.9,1.45-1.13,1.45a.36.36,0,0,1-.25-.17ZM16.57,20a14.5,14.5,0,0,1,1.64-3,1.12,1.12,0,0,1,.32,0,.46.46,0,0,1,.27.24A13,13,0,0,1,17,20.45h-.07c-.16,0-.29-.17-.36-.44ZM32.35,20a7.24,7.24,0,0,1,.75-1.53c.79-1.38,1-1.61,1.4-1.4a.46.46,0,0,1,.18.21,15.42,15.42,0,0,1-1.78,3h-.08a.53.53,0,0,1-.46-.34Zm15.89-.08a8.45,8.45,0,0,1,1.76-3c.13,0,.28,0,.32.05a1,1,0,0,1,.13.27h0a13.49,13.49,0,0,1-1.67,3l-.19,0A.33.33,0,0,1,48.24,19.9Zm15.89-.11c-.09-.21,0-.47.69-1.64a8.93,8.93,0,0,1,1-1.41.54.54,0,0,1,.33.05c.11.06.19.1.22.18s-.17.56-.85,1.76c-.59,1-.76,1.26-1,1.28h-.1c-.13,0-.2-.06-.26-.23Zm15.74-.14a16.23,16.23,0,0,1,1.71-3,1.24,1.24,0,0,1,.33,0,.44.44,0,0,1,.27.23A13.59,13.59,0,0,1,80.41,20h-.07a.53.53,0,0,1-.47-.34Zm15.86-.14A7.91,7.91,0,0,1,96.47,18a7.86,7.86,0,0,1,.88-1.33c.12.28.25.56.36.85-.1.21-.24.46-.41.76-.86,1.45-.92,1.54-1.06,1.57h0a.57.57,0,0,1-.46-.35ZM6.06,17.75l-.25.42c-.58,1-.75,1.26-1,1.3h0C5.2,18.88,5.62,18.31,6.06,17.75ZM20.23,19.1a14.35,14.35,0,0,1,1.48-2.79c.18-.2.27-.25.45-.2s.23.1.26.2-.15.7-.72,1.7a9.46,9.46,0,0,1-.93,1.43H20.7A.53.53,0,0,1,20.23,19.1ZM36.09,19a11.6,11.6,0,0,1,1.62-2.87.62.62,0,0,1,.38-.1.21.21,0,0,1,.2.15c.08.31-.35,1.16-1.48,3a.55.55,0,0,1-.21.19h-.05a.55.55,0,0,1-.46-.34Zm15.91,0c-.1-.24,0-.45.68-1.64a7,7,0,0,1,1-1.39.58.58,0,0,1,.34,0,.41.41,0,0,1,.21.2c0,.15,0,.15-.88,1.76-.56,1-.74,1.22-.94,1.26h-.09C52.14,19.16,52.07,19.09,52,18.92Zm15.74-.1a11.23,11.23,0,0,1,1.74-3.07.6.6,0,0,1,.35,0,.47.47,0,0,1,.22.22,14.23,14.23,0,0,1-1.74,3,.83.83,0,0,1-.22,0,.31.31,0,0,1-.34-.23Zm15.86-.18a13.88,13.88,0,0,1,1.49-2.76c.17-.22.27-.27.45-.22a.3.3,0,0,1,.26.2c.06.23-.16.71-.73,1.69A9.19,9.19,0,0,1,84.12,19h-.06a.54.54,0,0,1-.46-.35ZM8.37,18.49c-.44,0-.34-.4.49-1.84S10,15,10.17,15.25a.75.75,0,0,1,.1.2c.07.25-.09.61-.63,1.56-.72,1.27-.89,1.49-1.22,1.49ZM24,18.09a5.49,5.49,0,0,1,.7-1.44c.94-1.6,1-1.6,1.24-1.53s.24.09.27.2S26,16,25.42,17a9.53,9.53,0,0,1-.94,1.43h-.06a.57.57,0,0,1-.46-.37Zm16,.11c-.2-.31-.11-.53.66-1.84S41.44,15,41.81,15c.11,0,.19.05.21.14s-.16.7-.73,1.69-.93,1.5-1.15,1.5a.28.28,0,0,1-.2-.16Zm15.67-.3a12.7,12.7,0,0,1,1.76-3,.56.56,0,0,1,.34,0,.47.47,0,0,1,.22.22,12.09,12.09,0,0,1-1.77,3l-.13,0a.41.41,0,0,1-.42-.29Zm16.15.15c-.44,0-.34-.4.48-1.84s1.1-1.7,1.31-1.4a.44.44,0,0,1,.1.19c.07.25-.09.61-.63,1.56-.72,1.27-.89,1.49-1.22,1.49Zm15.58-.43a13.66,13.66,0,0,1,1.53-2.81c.14-.17.21-.19.41-.12a.42.42,0,0,1,.29.26A10.77,10.77,0,0,1,87.79,18H87.7c-.17,0-.3-.14-.37-.41Zm-75.47-.34c-.09-.21,0-.47.7-1.63.77-1.35,1-1.57,1.29-1.39a.32.32,0,0,1,.16.18c.06.23-.14.66-.72,1.64-.66,1.14-.85,1.39-1.07,1.42h-.1c-.13,0-.2-.08-.26-.24Zm15.82-.22a13.08,13.08,0,0,1,1.54-2.82.36.36,0,0,1,.41-.1.4.4,0,0,1,.28.24,12.74,12.74,0,0,1-1.8,3.09H28c-.16,0-.29-.16-.36-.43ZM43.46,17a7.48,7.48,0,0,1,.75-1.53c.8-1.37,1-1.61,1.39-1.4a.43.43,0,0,1,.18.22,15.63,15.63,0,0,1-1.78,3h-.07a.53.53,0,0,1-.47-.34Zm15.88-.06a8.55,8.55,0,0,1,1.76-3.05.32.32,0,0,1,.32,0,.68.68,0,0,1,.13.27h0a13.42,13.42,0,0,1-1.67,2.95l-.18,0a.35.35,0,0,1-.36-.26Zm15.89-.11c-.09-.22,0-.47.69-1.63a7.16,7.16,0,0,1,1-1.43.59.59,0,0,1,.32.06c.11.05.19.1.21.17s-.16.57-.84,1.76c-.59,1-.76,1.26-1,1.29h-.1c-.13,0-.2-.07-.26-.23ZM91,16.44a21.87,21.87,0,0,1,1.65-2.8.86.86,0,0,1,.32,0,.43.43,0,0,1,.28.23,13.34,13.34,0,0,1-1.8,3.1h-.06a.51.51,0,0,1-.39-.58Zm-75.45-.19c-.09-.23,0-.45.68-1.63a7,7,0,0,1,1-1.4.64.64,0,0,1,.33,0c.12.06.2.1.22.18s-.18.56-.86,1.76c-.57,1-.77,1.25-1,1.28h-.09C15.73,16.5,15.65,16.42,15.59,16.25Zm15.74-.12a13.84,13.84,0,0,1,1.49-2.79c.21-.26.24-.27.5-.18a.59.59,0,0,1,.33.22,17.13,17.13,0,0,1-1.78,3.08H31.8A.56.56,0,0,1,31.33,16.13ZM47.19,16a11.26,11.26,0,0,1,1.63-2.86.55.55,0,0,1,.37-.1.2.2,0,0,1,.21.15c.06.22-.11.65-.53,1.37-.76,1.32-1,1.75-1.18,1.78h0a.58.58,0,0,1-.46-.35Zm15.91,0c-.1-.24,0-.45.68-1.63a6.62,6.62,0,0,1,1-1.39.53.53,0,0,1,.33,0c.1,0,.18.1.2.18s-.18.65-.93,2c-.49.84-.66,1-.86,1.08h-.1c-.14,0-.21-.07-.28-.25Zm15.74-.16a12.59,12.59,0,0,1,1.75-3,.6.6,0,0,1,.35.05.32.32,0,0,1,.2.21.43.43,0,0,1-.07.33A12.88,12.88,0,0,1,79.38,16a.3.3,0,0,1-.13,0,.41.41,0,0,1-.42-.28Zm16.09.16c-.33-.2-.27-.44.4-1.61l.42-.74.5.86c-.74,1.27-.92,1.59-1.1,1.59a.44.44,0,0,1-.22-.1Zm-75.49-.43c-.4,0-.28-.44.52-1.83s1.1-1.7,1.31-1.4a.43.43,0,0,1,.11.2c.07.25-.1.62-.67,1.61-.67,1.19-.86,1.43-1.18,1.43h-.09Zm15.62-.4a14.24,14.24,0,0,1,1.49-2.77c.18-.21.27-.26.45-.21s.24.09.27.2S37.1,13,36.53,14a9.19,9.19,0,0,1-1,1.44h0a.55.55,0,0,1-.47-.34Zm16,.1c-.2-.3-.12-.52.66-1.84S52.55,12,52.92,12c.11,0,.18.06.2.15s-.16.7-.72,1.69-.93,1.49-1.15,1.49-.15,0-.21-.14Zm15.66-.29a13,13,0,0,1,1.76-3,.6.6,0,0,1,.35.05.43.43,0,0,1,.21.21,12,12,0,0,1-1.77,3,.3.3,0,0,1-.13,0,.41.41,0,0,1-.42-.28Zm16.16.14c-.44,0-.34-.41.48-1.84s1.1-1.69,1.31-1.4a.5.5,0,0,1,.1.19c.07.26-.09.61-.63,1.56-.72,1.28-.89,1.49-1.22,1.49Zm-59.93-.8a8.77,8.77,0,0,1,1.77-3,.3.3,0,0,1,.31,0,.92.92,0,0,1,.14.28h0a12.4,12.4,0,0,1-1.67,2.94.64.64,0,0,1-.2,0,.34.34,0,0,1-.35-.26Zm15.86-.19a13.52,13.52,0,0,1,1.53-2.82.37.37,0,0,1,.42-.1.46.46,0,0,1,.28.25,12.25,12.25,0,0,1-1.8,3.09h-.07c-.16,0-.29-.15-.37-.42ZM54.57,14a7.24,7.24,0,0,1,.75-1.53c.8-1.37,1-1.6,1.39-1.4a.37.37,0,0,1,.18.21,15.63,15.63,0,0,1-1.78,3,.09.09,0,0,1-.07,0,.53.53,0,0,1-.48-.32ZM70.45,14a8.81,8.81,0,0,1,1.75-3c.13,0,.28,0,.32.05a.75.75,0,0,1,.13.27h0A13,13,0,0,1,71,14.18a.63.63,0,0,1-.19,0,.33.33,0,0,1-.35-.26Zm15.89-.11c-.09-.22,0-.47.69-1.63a6.82,6.82,0,0,1,1-1.42.51.51,0,0,1,.32.05.49.49,0,0,1,.22.23,7.16,7.16,0,0,1-.75,1.55c-.67,1.17-.84,1.4-1.07,1.44h-.1c-.14,0-.21-.07-.27-.23Zm-75.51-.42a.53.53,0,0,1,.05-.44c.52-.4,1-.77,1.59-1.13-.06.11-.13.24-.21.37-.66,1.16-.85,1.41-1.06,1.43h-.1c-.14,0-.2-.06-.27-.23Zm15.86-.14c-.1-.24,0-.45.69-1.64a7.35,7.35,0,0,1,.95-1.4.53.53,0,0,1,.33,0c.12.06.2.1.22.18s-.17.56-.86,1.76c-.57,1-.77,1.25-1,1.28H27c-.13,0-.21-.07-.27-.24Zm15.74-.13a14.15,14.15,0,0,1,1.5-2.79c.2-.24.26-.27.5-.22a.46.46,0,0,1,.31.23A14.28,14.28,0,0,1,43,13.48h-.06a.58.58,0,0,1-.48-.34ZM58.3,13a11.23,11.23,0,0,1,1.62-2.86.55.55,0,0,1,.37-.1.22.22,0,0,1,.22.15c.06.22-.12.65-.53,1.37-.76,1.32-1,1.75-1.18,1.78h0A.58.58,0,0,1,58.3,13Zm15.91,0c-.1-.24,0-.45.68-1.63a7,7,0,0,1,1-1.39.56.56,0,0,1,.34,0c.1,0,.18.1.2.18s-.18.65-.93,2c-.49.84-.67,1.05-.87,1.08h-.1c-.14,0-.21-.06-.27-.24Zm15.86-.14c-.1-.24,0-.45.68-1.64a7.28,7.28,0,0,1,1-1.39.56.56,0,0,1,.34.05.43.43,0,0,1,.22.2c0,.16,0,.16-.88,1.77-.56,1-.75,1.22-.95,1.25h-.08c-.14,0-.22-.07-.28-.25Zm-75.5-.41c-.1-.24,0-.45.68-1.63.16-.28.32-.54.46-.76l1-.45,0,.08A8.91,8.91,0,0,1,16,11.2c-.66,1.16-.86,1.42-1.06,1.45h-.09c-.14,0-.21-.06-.28-.24Zm15.74-.1a11.17,11.17,0,0,1,1.74-3.06.53.53,0,0,1,.35,0,.41.41,0,0,1,.21.22,14.25,14.25,0,0,1-1.73,3,.83.83,0,0,1-.22,0,.31.31,0,0,1-.35-.23Zm15.86-.17a13.68,13.68,0,0,1,1.49-2.77c.17-.22.26-.26.45-.22s.23.1.26.2-.16.71-.74,1.7a8.61,8.61,0,0,1-.94,1.43h-.06a.56.56,0,0,1-.47-.35Zm16,.1c-.2-.31-.12-.53.65-1.84S63.65,9,64,9.06c.12,0,.19,0,.21.14s-.16.7-.73,1.69-.93,1.5-1.15,1.5a.25.25,0,0,1-.21-.15ZM77.81,12a13,13,0,0,1,1.76-3,.57.57,0,0,1,.34,0,.43.43,0,0,1,.22.22,12.15,12.15,0,0,1-1.77,3l-.14,0a.41.41,0,0,1-.41-.28ZM94,12.08c-.34,0-.36-.25.06-1.05l.52.71c-.21.28-.35.35-.53.35Zm-75.51-.4c-.47,0-.36-.42.48-1.86a6.92,6.92,0,0,1,.92-1.36l.33-.09.07.07a.44.44,0,0,1,.1.19c.07.26-.09.61-.63,1.56-.72,1.27-.89,1.49-1.22,1.49Zm15.87-.15c-.46,0-.37-.41.46-1.85S35.89,8,36.11,8.29a.54.54,0,0,1,.1.2c.07.25-.09.61-.63,1.56-.72,1.27-.89,1.49-1.22,1.49Zm15.57-.42a13.26,13.26,0,0,1,1.55-2.84.34.34,0,0,1,.4-.1.44.44,0,0,1,.28.25,11,11,0,0,1-1.78,3.08h-.08c-.17,0-.3-.14-.37-.4ZM65.67,11A12.48,12.48,0,0,1,67.4,8.09a2,2,0,0,1,.35,0c.11,0,.18.06.2.14s-.17.7-.75,1.7a7.51,7.51,0,0,1-1,1.46h-.07a.56.56,0,0,1-.48-.33ZM81.55,11a8.84,8.84,0,0,1,1.76-3c.13,0,.28,0,.32.06a.91.91,0,0,1,.13.26h0A12.58,12.58,0,0,1,82.1,11.2a.63.63,0,0,1-.19,0,.33.33,0,0,1-.36-.25Zm-59.64-.55A8.87,8.87,0,0,1,23.34,7.7l.73-.12s0,.08,0,.12h0a13.56,13.56,0,0,1-1.67,3l-.19,0a.33.33,0,0,1-.34-.26Zm15.89-.1c-.1-.23,0-.47.69-1.64a7.87,7.87,0,0,1,.94-1.41.53.53,0,0,1,.33.05c.12,0,.2.09.22.17s-.17.57-.86,1.77c-.57,1-.77,1.25-1,1.28h-.08C37.93,10.55,37.86,10.48,37.8,10.32Zm15.74-.13A13.92,13.92,0,0,1,55,7.39c.2-.24.26-.27.5-.22a.46.46,0,0,1,.31.23,14.59,14.59,0,0,1-1.76,3.1H54A.53.53,0,0,1,53.54,10.19ZM69.4,10a6.61,6.61,0,0,1,.74-1.51c.57-1,.84-1.38,1-1.42a.5.5,0,0,1,.32,0,.24.24,0,0,1,.13.17c.06.22-.1.62-.53,1.35-.76,1.32-1,1.74-1.18,1.78h-.05A.56.56,0,0,1,69.4,10Zm15.91,0c-.09-.23,0-.45.68-1.62A7.23,7.23,0,0,1,87,7a.61.61,0,0,1,.33,0c.1.06.18.1.2.19s-.18.65-.93,2c-.49.85-.66,1-.87,1.08h-.1c-.14,0-.21-.07-.27-.25ZM25.67,9.45c-.09-.23,0-.45.59-1.5.2-.34.35-.61.48-.81l1-.16c-.13.3-.37.76-.65,1.25-.66,1.16-.86,1.42-1.06,1.46h-.09c-.14,0-.21-.07-.27-.24Zm15.75-.11a11.08,11.08,0,0,1,1.73-3.07.6.6,0,0,1,.35.05.45.45,0,0,1,.22.21,14.23,14.23,0,0,1-1.74,3l-.22,0a.32.32,0,0,1-.35-.23Zm15.85-.17A13.68,13.68,0,0,1,58.76,6.4c.17-.21.26-.26.44-.21s.24.09.27.2-.16.7-.74,1.69a8.61,8.61,0,0,1-.94,1.43h-.06a.58.58,0,0,1-.47-.35Zm16,.1c-.2-.31-.12-.53.66-1.84s.85-1.38,1.22-1.34c.11,0,.18,0,.2.14s-.16.7-.72,1.69-.93,1.5-1.16,1.5c-.08,0-.14-.06-.21-.15ZM89,9.05c-.13-.19-.07-.36.65-1.62l.38-.65.64.58-.23.42c-.65,1.12-.86,1.42-1.06,1.45h0A.44.44,0,0,1,89,9.05ZM29.28,8.47a6.66,6.66,0,0,1,.91-1.9l1.11-.19a15.63,15.63,0,0,1-1.45,2.3.93.93,0,0,1-.23,0A.32.32,0,0,1,29.28,8.47Zm15.86-.14A9,9,0,0,1,46.9,5.27a.3.3,0,0,1,.31.05.5.5,0,0,1,.1.19c.07.26-.09.61-.63,1.57a12.22,12.22,0,0,1-.89,1.4.66.66,0,0,1-.31.09.33.33,0,0,1-.34-.24ZM61,8.14A13.26,13.26,0,0,1,62.54,5.3a.34.34,0,0,1,.4-.1.44.44,0,0,1,.28.27,11,11,0,0,1-1.79,3.07h-.07c-.16,0-.3-.15-.37-.41Zm15.78-.07A12.83,12.83,0,0,1,78.5,5.12a1,1,0,0,1,.35,0,.21.21,0,0,1,.21.14c0,.21-.17.7-.75,1.69a7,7,0,0,1-1,1.46h-.08a.53.53,0,0,1-.48-.32ZM33.24,7.7c-.38,0-.3-.47.27-1.48L33.64,6l1.1-.18c-.08.15-.19.33-.31.54-.68,1.16-.82,1.36-1.1,1.36ZM48.9,7.34c-.09-.22,0-.47.69-1.63a7.94,7.94,0,0,1,.94-1.42.61.61,0,0,1,.33,0c.12.06.2.1.22.18s-.17.56-.85,1.76c-.59,1-.75,1.26-1,1.28h-.1C49,7.57,49,7.5,48.9,7.34ZM64.64,7.2a15.32,15.32,0,0,1,1.71-3,.93.93,0,0,1,.33,0,.43.43,0,0,1,.27.24,14.44,14.44,0,0,1-1.77,3.1h-.07A.53.53,0,0,1,64.64,7.2ZM80.5,7.06a6.75,6.75,0,0,1,.74-1.53c.56-1,.84-1.37,1-1.42a.58.58,0,0,1,.32,0,.23.23,0,0,1,.13.16c.06.23-.13.67-.65,1.56-.85,1.45-.91,1.54-1,1.58H81a.55.55,0,0,1-.46-.34ZM36.77,6.48c-.09-.21,0-.42.33-1.05l1.09-.18-.2.34c-.5.86-.69,1.1-.88,1.12H37c-.12,0-.2-.07-.26-.24Zm15.74-.11A11.37,11.37,0,0,1,54.25,3.3a.6.6,0,0,1,.35.05.43.43,0,0,1,.21.21,13.77,13.77,0,0,1-1.73,3l-.22,0a.33.33,0,0,1-.35-.23Zm15.86-.18a13.24,13.24,0,0,1,1.49-2.77c.17-.21.26-.26.44-.21s.24.09.27.2-.16.71-.74,1.69a9.13,9.13,0,0,1-.94,1.44h-.06a.53.53,0,0,1-.46-.35Zm16,.1c-.2-.3-.12-.52.65-1.84.24-.4.41-.69.55-.89l.68.4c-.12.25-.3.58-.53,1-.61,1.06-.93,1.49-1.15,1.49s-.14-.05-.2-.15ZM40.59,4.85l1.09-.18h0a3.85,3.85,0,0,1-.72,1,.84.84,0,0,1-.27,0C40.33,5.74,40.3,5.44,40.59,4.85Zm15.93.74c-.45,0-.36-.41.46-1.84S58.09,2,58.31,2.35a.44.44,0,0,1,.1.19c.07.25-.09.61-.63,1.56-.72,1.27-.89,1.49-1.22,1.49ZM72.1,5.16a13.93,13.93,0,0,1,1.53-2.81c.15-.17.21-.18.41-.12a.44.44,0,0,1,.29.26,10.41,10.41,0,0,1-1.77,3.06l-.09,0C72.3,5.57,72.16,5.43,72.1,5.16Zm16,.1a.49.49,0,0,1-.1-.15l.42.3H88.3A.35.35,0,0,1,88,5.26Zm-43.91-1,1-.17a3.43,3.43,0,0,1-.45.61l-.2,0c-.26,0-.37-.18-.32-.48ZM60,4.37c-.09-.22,0-.47.68-1.64a13.59,13.59,0,0,1,.88-1.35l.31,0,.09,0c.12,0,.2.1.22.17s-.17.57-.85,1.76c-.58,1-.75,1.26-1,1.29h-.1c-.14,0-.21-.06-.27-.22Zm15.73-.15a15.37,15.37,0,0,1,1.72-3,.85.85,0,0,1,.32,0,.43.43,0,0,1,.28.23,14.49,14.49,0,0,1-1.78,3.1h-.06a.56.56,0,0,1-.48-.34ZM47.93,3.66l0,0,.6-.1a.55.55,0,0,1-.39.23.21.21,0,0,1-.19-.1Zm15.69-.27A11.4,11.4,0,0,1,65,.82l1-.15a15,15,0,0,1-1.72,2.91.85.85,0,0,1-.23,0,.33.33,0,0,1-.35-.23Zm15.85-.18a10.21,10.21,0,0,1,1-1.93l.83.29-.32.56A9.53,9.53,0,0,1,80,3.56h-.06a.58.58,0,0,1-.47-.35Zm-11.85-.6c-.43,0-.33-.39.48-1.83l.3-.51c.34-.05.67-.09,1-.12-.1.23-.27.54-.52,1C68.17,2.4,68,2.62,67.67,2.62Zm15.66-.22.39.19h-.1a.34.34,0,0,1-.3-.2Zm-12.17-1c-.08-.2,0-.43.55-1.38h1l-.18.32c-.59,1-.76,1.26-1,1.29h-.1c-.14,0-.21-.06-.27-.23Zm3.6-1a.61.61,0,0,1,.07-.24l.82.09a1.25,1.25,0,0,1-.35.41l-.13,0A.41.41,0,0,1,74.7.36Z" transform="translate(0 0)"/></svg>