<svg id="Layer_1" data-name="Layer 1" xmlns="http://www.w3.org/2000/svg" viewBox="0 0 98.83 100"><title>4_02</title><path id="Intersection_4" data-name="Intersection 4" d="M45,99.9c-.83-.84-1-1.06-1-1.28s.09-.27.31-.29.44.14,1.39,1.09c.2.19.38.38.54.55l-1.16,0Zm-4,0,0,0c-.83-.84-1-1.06-1-1.28s.1-.27.31-.29.45.14,1.39,1.09c.2.19.38.38.54.55C41.83,100,41.44,100,41,99.94Zm7-1.31c0-.2.09-.27.31-.29s.44.14,1.39,1.08l.39.4L49,99.88C48.15,99.06,48,98.84,48,98.63ZM36.78,99.69c-.66-.66-.81-.87-.78-1.06s.09-.27.31-.29.44.14,1.39,1.08l.36.37-1.28-.1ZM52,98.63c0-.2.09-.27.31-.29s.44.14,1.39,1.08l.11.12-1.09.1C52.12,99,52,98.82,52,98.63Zm-19.71.55c-.25-.28-.31-.42-.29-.55s.09-.27.31-.29.43.13,1.33,1l-1.35-.19ZM56,98.63c0-.2.09-.27.31-.29s.4.1,1.1.8l-1,.13C56.06,98.92,56,98.77,56,98.63Zm4,0c0-.2.09-.27.31-.29s.27,0,.56.29l-.86.14A.33.33,0,0,1,60,98.63Zm-31.91-.22a.33.33,0,0,1,.21-.07c.13,0,.25,0,.49.22l-.7-.16ZM65,95.9c-.84-.83-1-1.06-1-1.27s.09-.28.31-.29.44.14,1.39,1.08a7.69,7.69,0,0,1,1.13,1.29.52.52,0,0,1-.13.3c-.09.1-.15.17-.23.17S66,96.86,65,95.9Zm-4,0c-.84-.83-1-1.06-1-1.27s.09-.28.31-.29.44.14,1.39,1.08a7.69,7.69,0,0,1,1.13,1.29.52.52,0,0,1-.13.3c-.09.1-.15.17-.23.17S62,96.86,61,95.9Zm-4,0c-.84-.83-1-1.06-1-1.27s.09-.28.31-.29.44.14,1.39,1.08a7.69,7.69,0,0,1,1.13,1.29.52.52,0,0,1-.13.3c-.09.1-.15.17-.23.17S58,96.86,57,95.9Zm-4,0c-.84-.83-1-1.06-1-1.27s.09-.28.31-.29.44.14,1.39,1.08a7.69,7.69,0,0,1,1.13,1.29.52.52,0,0,1-.13.3c-.09.1-.15.17-.23.17S54,96.86,53,95.9Zm-4,0c-.84-.83-1-1.06-1-1.27s.09-.28.31-.29.44.14,1.39,1.08a7.69,7.69,0,0,1,1.13,1.29.52.52,0,0,1-.13.3c-.09.1-.15.17-.23.17S50,96.86,49,95.9Zm-4,0c-.84-.83-1-1.06-1-1.27s.09-.28.31-.29.44.14,1.39,1.08a7.69,7.69,0,0,1,1.13,1.29.52.52,0,0,1-.13.3c-.09.1-.15.17-.23.17S46,96.86,45,95.9Zm-4,0c-.84-.83-1-1.06-1-1.27s.09-.28.31-.29.44.14,1.39,1.08a7.69,7.69,0,0,1,1.13,1.29.52.52,0,0,1-.13.3c-.09.1-.15.17-.23.17S42,96.86,41,95.9Zm-4,0c-.84-.83-1-1.06-1-1.27s.09-.28.31-.29.44.14,1.39,1.08a7.26,7.26,0,0,1,1.13,1.29.52.52,0,0,1-.13.3c-.09.1-.14.17-.23.17S38,96.86,37,95.9Zm-4,0c-.84-.83-1-1.06-1-1.27s.09-.28.31-.29.44.14,1.39,1.08a7.69,7.69,0,0,1,1.13,1.29.52.52,0,0,1-.13.3c-.09.1-.14.17-.23.17S34,96.86,33,95.9Zm-4,0c-.84-.83-1-1.06-1-1.27s.09-.28.31-.29.44.14,1.39,1.08a7.69,7.69,0,0,1,1.13,1.29.52.52,0,0,1-.13.3c-.09.1-.15.17-.23.17S30,96.86,29,95.9Zm-4,0c-.84-.83-1-1.06-1-1.27s.09-.28.31-.29.44.14,1.39,1.08a7.69,7.69,0,0,1,1.13,1.29.52.52,0,0,1-.13.3c-.09.1-.15.17-.23.17S26,96.86,25,95.9Zm-3.45.55c-.15-.16-.34-.34-.55-.55-.84-.83-1-1.06-1-1.27s.09-.28.31-.29.44.14,1.39,1.08a7.69,7.69,0,0,1,1.13,1.29.53.53,0,0,1-.06.19c-.42-.15-.83-.3-1.22-.46ZM69,95.9c-.84-.83-1-1.06-1-1.27s.09-.28.31-.29.44.14,1.39,1.08c.42.43.8.84,1,1.08l-.85.23L69,95.9Zm3-1.27c0-.2.09-.28.31-.29s.44.14,1.39,1.08l.14.14-.91.29C72.15,95.05,72,94.83,72,94.63Zm4,0c0-.2.09-.28.31-.29s.24,0,.47.21l-.75.27A.31.31,0,0,1,76,94.63Zm1-2.73c-.84-.83-1-1.06-1-1.27s.09-.28.31-.3.44.15,1.39,1.09a8.16,8.16,0,0,1,1.13,1.29.53.53,0,0,1-.14.3c-.08.1-.14.17-.22.17S78,92.86,77,91.9Zm-4,0c-.84-.83-1-1.06-1-1.27s.09-.28.31-.3.44.15,1.39,1.09a7.69,7.69,0,0,1,1.13,1.29.52.52,0,0,1-.13.3c-.09.1-.15.17-.23.17S74,92.86,73,91.9Zm-4,0c-.84-.83-1-1.06-1-1.27s.09-.28.31-.3.44.15,1.39,1.09a8.16,8.16,0,0,1,1.13,1.29.59.59,0,0,1-.13.3c-.09.1-.15.17-.23.17S70,92.86,69,91.9Zm-4,0c-.84-.83-1-1.06-1-1.27s.09-.28.3-.3.45.15,1.4,1.09a8.16,8.16,0,0,1,1.13,1.29.53.53,0,0,1-.14.3c-.08.1-.14.17-.22.17S66,92.86,65,91.9Zm-4,0c-.84-.83-1-1.06-1-1.27s.09-.28.31-.3.44.15,1.39,1.09a8.16,8.16,0,0,1,1.13,1.29.52.52,0,0,1-.13.3c-.09.1-.15.17-.23.17S62,92.86,61,91.9Zm-4,0c-.84-.83-1-1.06-1-1.27s.09-.28.31-.3.44.15,1.39,1.09a8.16,8.16,0,0,1,1.13,1.29.53.53,0,0,1-.14.3c-.08.1-.14.17-.22.17S58,92.86,57,91.9Zm-4,0c-.84-.83-1-1.06-1-1.27s.09-.28.31-.3.44.15,1.39,1.09a8.16,8.16,0,0,1,1.13,1.29.59.59,0,0,1-.13.3c-.09.1-.15.17-.23.17S54,92.86,53,91.9Zm-4,0c-.84-.83-1-1.06-1-1.27s.09-.28.31-.3.44.15,1.39,1.09a8.16,8.16,0,0,1,1.13,1.29.59.59,0,0,1-.13.3c-.09.1-.15.17-.23.17S50,92.86,49,91.9Zm-4,0c-.84-.83-1-1.06-1-1.27s.09-.28.31-.3.44.15,1.39,1.09a8.16,8.16,0,0,1,1.13,1.29.59.59,0,0,1-.13.3c-.09.1-.15.17-.23.17S46,92.86,45,91.9Zm-4,0c-.84-.83-1-1.06-1-1.27s.09-.28.31-.3.44.15,1.39,1.09a8.16,8.16,0,0,1,1.13,1.29.59.59,0,0,1-.13.3c-.09.1-.15.17-.23.17S42,92.86,41,91.9Zm-4,0c-.84-.83-1-1.06-1-1.27s.09-.28.31-.3.44.15,1.39,1.09a7.69,7.69,0,0,1,1.13,1.29.52.52,0,0,1-.13.3c-.09.1-.15.17-.23.17S38,92.86,37,91.9Zm-4,0c-.84-.83-1-1.06-1-1.27s.09-.28.31-.3.44.15,1.39,1.09a8.16,8.16,0,0,1,1.13,1.29.59.59,0,0,1-.13.3c-.09.1-.15.17-.23.17S34,92.86,33,91.9Zm-4,0c-.84-.83-1-1.06-1-1.27s.09-.28.3-.3.45.15,1.4,1.09a8.16,8.16,0,0,1,1.13,1.29.59.59,0,0,1-.13.3c-.09.1-.15.17-.23.17S30,92.86,29,91.9Zm-4,0c-.84-.83-1-1.06-1-1.27s.09-.28.31-.3.44.15,1.39,1.09a8.16,8.16,0,0,1,1.13,1.29.59.59,0,0,1-.13.3c-.09.1-.15.17-.23.17S26,92.86,25,91.9Zm-4,0c-.84-.83-1-1.06-1-1.27s.09-.28.31-.3.44.15,1.39,1.09a8.16,8.16,0,0,1,1.13,1.29.53.53,0,0,1-.14.3c-.08.1-.14.17-.22.17S22,92.86,21,91.9Zm-4,0c-.84-.83-1-1.06-1-1.27s.09-.28.31-.3.44.15,1.39,1.09a8.16,8.16,0,0,1,1.13,1.29.53.53,0,0,1-.14.3c-.08.1-.14.17-.22.17S18,92.86,17,91.9Zm64,0c-.84-.83-1-1.06-1-1.27s.09-.28.31-.3.44.15,1.39,1.09c.26.27.51.52.7.74l-.77.37L81,91.9ZM12.58,90.4a7.7,7.7,0,0,1,1.12,1c.42.42.8.83,1,1.07a21.91,21.91,0,0,1-2.11-2.09ZM84,90.63c0-.2.09-.27.31-.29s.31,0,.71.42l-.73.42C84.05,90.89,84,90.76,84,90.63Zm1-2.73c-.84-.83-1-1.06-1-1.27s.09-.27.31-.29.44.14,1.39,1.08a8.16,8.16,0,0,1,1.13,1.29.53.53,0,0,1-.14.3c-.08.1-.14.17-.22.17S86,88.86,85,87.9Zm-4,0c-.84-.83-1-1.06-1-1.27s.09-.27.31-.29.44.14,1.39,1.08a8.16,8.16,0,0,1,1.13,1.29.52.52,0,0,1-.13.3c-.09.1-.15.17-.23.17S82,88.86,81,87.9Zm-4,0c-.84-.83-1-1.06-1-1.27s.09-.27.31-.29.44.14,1.39,1.08a8.16,8.16,0,0,1,1.13,1.29.47.47,0,0,1-.14.3c-.08.1-.14.17-.22.17S78,88.86,77,87.9Zm-4,0c-.84-.83-1-1.06-1-1.27s.09-.27.31-.29.44.14,1.39,1.08a7.69,7.69,0,0,1,1.13,1.29.52.52,0,0,1-.13.3c-.09.1-.15.17-.23.17S74,88.86,73,87.9Zm-4,0c-.84-.83-1-1.06-1-1.27s.09-.27.31-.29.44.14,1.39,1.08a8.16,8.16,0,0,1,1.13,1.29.52.52,0,0,1-.13.3c-.09.1-.15.17-.23.17S70,88.86,69,87.9Zm-4,0c-.84-.83-1-1.06-1-1.27s.09-.27.3-.29.45.14,1.4,1.08a8.16,8.16,0,0,1,1.13,1.29.53.53,0,0,1-.14.3c-.08.1-.14.17-.22.17S66,88.86,65,87.9Zm-4,0c-.84-.83-1-1.06-1-1.27s.09-.27.31-.29.44.14,1.39,1.08a8.16,8.16,0,0,1,1.13,1.29.52.52,0,0,1-.13.3c-.09.1-.15.17-.23.17S62,88.86,61,87.9Zm-4,0c-.84-.83-1-1.06-1-1.27s.09-.27.31-.29.44.14,1.39,1.08a8.16,8.16,0,0,1,1.13,1.29.53.53,0,0,1-.14.3c-.08.1-.14.17-.22.17S58,88.86,57,87.9Zm-4,0c-.84-.83-1-1.06-1-1.27s.09-.27.31-.29.44.14,1.39,1.08a8.16,8.16,0,0,1,1.13,1.29.59.59,0,0,1-.13.3c-.09.1-.15.17-.23.17S54,88.86,53,87.9Zm-4,0c-.84-.83-1-1.06-1-1.27s.09-.27.31-.29.44.14,1.39,1.08a8.16,8.16,0,0,1,1.13,1.29.59.59,0,0,1-.13.3c-.09.1-.15.17-.23.17S50,88.86,49,87.9Zm-4,0c-.84-.83-1-1.06-1-1.27s.09-.27.31-.29.44.14,1.39,1.08a8.16,8.16,0,0,1,1.13,1.29.59.59,0,0,1-.13.3c-.09.1-.15.17-.23.17S46,88.86,45,87.9Zm-4,0c-.84-.83-1-1.06-1-1.27s.09-.27.31-.29.44.14,1.39,1.08a8.16,8.16,0,0,1,1.13,1.29.52.52,0,0,1-.13.3c-.09.1-.15.17-.23.17S42,88.86,41,87.9Zm-4,0c-.84-.83-1-1.06-1-1.27s.09-.27.31-.29.44.14,1.39,1.08a7.69,7.69,0,0,1,1.13,1.29.52.52,0,0,1-.13.3c-.09.1-.15.17-.23.17S38,88.86,37,87.9Zm-4,0c-.84-.83-1-1.06-1-1.27s.09-.27.31-.29.44.14,1.39,1.08a8.16,8.16,0,0,1,1.13,1.29.52.52,0,0,1-.13.3c-.09.1-.15.17-.23.17S34,88.86,33,87.9Zm-4,0c-.84-.83-1-1.06-1-1.27s.09-.27.3-.29.45.14,1.4,1.08a8.16,8.16,0,0,1,1.13,1.29.59.59,0,0,1-.13.3c-.09.1-.15.17-.23.17S30,88.86,29,87.9Zm-4,0c-.84-.83-1-1.06-1-1.27s.09-.27.31-.29.44.14,1.39,1.08a8.16,8.16,0,0,1,1.13,1.29.59.59,0,0,1-.13.3c-.09.1-.15.17-.23.17S26,88.86,25,87.9Zm-4,0c-.84-.83-1-1.06-1-1.27s.09-.27.31-.29.44.14,1.39,1.08a8.16,8.16,0,0,1,1.13,1.29.53.53,0,0,1-.14.3c-.08.1-.14.17-.22.17S22,88.86,21,87.9Zm-4,0c-.84-.83-1-1.06-1-1.27s.09-.27.31-.29.44.14,1.39,1.08a8.16,8.16,0,0,1,1.13,1.29.53.53,0,0,1-.14.3c-.08.1-.14.17-.22.17S18,88.86,17,87.9Zm-4,0c-.84-.83-1-1.06-1-1.27s.09-.27.31-.29.44.14,1.39,1.08a8.16,8.16,0,0,1,1.13,1.29.53.53,0,0,1-.14.3c-.08.1-.14.17-.22.17S14,88.86,13,87.9Zm76,0c-.84-.83-1-1.06-1-1.27s.09-.27.31-.29.44.14,1.39,1.08l0,.06L89.1,88Zm0-4c-.84-.83-1-1.06-1-1.27s.09-.27.31-.29.44.14,1.39,1.08a7.81,7.81,0,0,1,1.13,1.3.58.58,0,0,1-.13.3c-.09.1-.15.16-.23.16S90,84.86,89,83.9Zm-4,0c-.84-.83-1-1.06-1-1.27s.09-.27.31-.29.44.14,1.39,1.08a7.81,7.81,0,0,1,1.13,1.3.59.59,0,0,1-.14.3c-.08.1-.14.16-.22.16S86,84.86,85,83.9Zm-4,0c-.84-.83-1-1.06-1-1.27s.09-.27.31-.29.44.14,1.39,1.08a7.81,7.81,0,0,1,1.13,1.3.58.58,0,0,1-.13.3c-.09.1-.15.16-.23.16S82,84.86,81,83.9Zm-4,0c-.84-.83-1-1.06-1-1.27s.09-.27.31-.29.44.14,1.39,1.08a7.81,7.81,0,0,1,1.13,1.3.59.59,0,0,1-.14.3c-.08.1-.14.16-.22.16S78,84.86,77,83.9Zm-4,0c-.84-.83-1-1.06-1-1.27s.09-.27.31-.29.44.14,1.39,1.08a7.38,7.38,0,0,1,1.13,1.3.58.58,0,0,1-.13.3c-.09.1-.15.16-.23.16S74,84.86,73,83.9Zm-4,0c-.84-.83-1-1.06-1-1.27s.09-.27.31-.29.44.14,1.39,1.08a7.81,7.81,0,0,1,1.13,1.3.67.67,0,0,1-.13.3c-.09.1-.15.16-.23.16S70,84.86,69,83.9Zm-4,0c-.84-.83-1-1.06-1-1.27s.09-.27.3-.29.45.14,1.4,1.08a7.81,7.81,0,0,1,1.13,1.3.59.59,0,0,1-.14.3c-.08.1-.14.16-.22.16S66,84.86,65,83.9Zm-4,0c-.84-.83-1-1.06-1-1.27s.09-.27.31-.29.44.14,1.39,1.08a7.81,7.81,0,0,1,1.13,1.3.58.58,0,0,1-.13.3c-.09.1-.15.16-.23.16S62,84.86,61,83.9Zm-4,0c-.84-.83-1-1.06-1-1.27s.09-.27.31-.29.44.14,1.39,1.08a7.81,7.81,0,0,1,1.13,1.3.59.59,0,0,1-.14.3c-.08.1-.14.16-.22.16S58,84.86,57,83.9Zm-4,0c-.84-.83-1-1.06-1-1.27s.09-.27.31-.29.44.14,1.39,1.08a7.81,7.81,0,0,1,1.13,1.3.67.67,0,0,1-.13.3c-.09.1-.15.16-.23.16S54,84.86,53,83.9Zm-4,0c-.84-.83-1-1.06-1-1.27s.09-.27.31-.29.44.14,1.39,1.08a7.81,7.81,0,0,1,1.13,1.3.67.67,0,0,1-.13.3c-.09.1-.15.16-.23.16S50,84.86,49,83.9Zm-4,0c-.84-.83-1-1.06-1-1.27s.09-.27.31-.29.44.14,1.39,1.08a7.81,7.81,0,0,1,1.13,1.3.67.67,0,0,1-.13.3c-.09.1-.15.16-.23.16S46,84.86,45,83.9Zm-4,0c-.84-.83-1-1.06-1-1.27s.09-.27.31-.29.44.14,1.39,1.08a7.81,7.81,0,0,1,1.13,1.3.67.67,0,0,1-.13.3c-.09.1-.15.16-.23.16S42,84.86,41,83.9Zm-4,0c-.84-.83-1-1.06-1-1.27s.09-.27.31-.29.44.14,1.39,1.08a7.38,7.38,0,0,1,1.13,1.3.58.58,0,0,1-.13.3c-.09.1-.15.16-.23.16S38,84.86,37,83.9Zm-4,0c-.84-.83-1-1.06-1-1.27s.09-.27.31-.29.44.14,1.39,1.08a7.81,7.81,0,0,1,1.13,1.3.67.67,0,0,1-.13.3c-.09.1-.15.16-.23.16S34,84.86,33,83.9Zm-4,0c-.84-.83-1-1.06-1-1.27s.09-.27.3-.29.45.14,1.4,1.08a7.81,7.81,0,0,1,1.13,1.3.67.67,0,0,1-.13.3c-.09.1-.15.16-.23.16S30,84.86,29,83.9Zm-4,0c-.84-.83-1-1.06-1-1.27s.09-.27.31-.29.44.14,1.39,1.08a7.81,7.81,0,0,1,1.13,1.3.67.67,0,0,1-.13.3c-.09.1-.15.16-.23.16S26,84.86,25,83.9Zm-4,0c-.84-.83-1-1.06-1-1.27s.09-.27.31-.29.44.14,1.39,1.08a7.81,7.81,0,0,1,1.13,1.3.59.59,0,0,1-.14.3c-.08.1-.14.16-.22.16S22,84.86,21,83.9Zm-4,0c-.84-.83-1-1.06-1-1.27s.09-.27.31-.29.44.14,1.39,1.08a7.81,7.81,0,0,1,1.13,1.3.59.59,0,0,1-.14.3c-.08.1-.14.16-.22.16S18,84.86,17,83.9Zm-4,0c-.84-.83-1-1.06-1-1.27s.09-.27.31-.29.44.14,1.39,1.08a7.81,7.81,0,0,1,1.13,1.3.59.59,0,0,1-.14.3c-.08.1-.14.16-.22.16S14,84.86,13,83.9Zm-4,0c-.84-.83-1-1.06-1-1.27s.09-.27.31-.29.44.14,1.39,1.08a7.81,7.81,0,0,1,1.13,1.3.59.59,0,0,1-.14.3c-.08.1-.14.16-.22.16S10,84.86,9,83.9Zm84,0c-.84-.83-1-1.06-1-1.27s.09-.27.31-.29.42.12,1.25.94l-.49.7Zm0-4c-.84-.83-1-1.06-1-1.27s.09-.27.31-.29.44.14,1.39,1.08a7.81,7.81,0,0,1,1.13,1.3.59.59,0,0,1-.14.3c-.08.1-.14.16-.22.16S94,80.86,93,79.9Zm-4,0c-.84-.83-1-1.06-1-1.27s.09-.27.31-.29.44.14,1.39,1.08a7.81,7.81,0,0,1,1.13,1.3.58.58,0,0,1-.13.3c-.09.1-.15.16-.23.16S90,80.86,89,79.9Zm-4,0c-.84-.83-1-1.06-1-1.27s.09-.27.31-.29.44.14,1.39,1.08a7.81,7.81,0,0,1,1.13,1.3.59.59,0,0,1-.14.3c-.08.1-.14.16-.22.16S86,80.86,85,79.9Zm-4,0c-.84-.83-1-1.06-1-1.27s.09-.27.31-.29.44.14,1.39,1.08a7.81,7.81,0,0,1,1.13,1.3.58.58,0,0,1-.13.3c-.09.1-.15.16-.23.16S82,80.86,81,79.9Zm-4,0c-.84-.83-1-1.06-1-1.27s.09-.27.31-.29.44.14,1.39,1.08a7.81,7.81,0,0,1,1.13,1.3.52.52,0,0,1-.14.3c-.08.1-.14.16-.22.16S78,80.86,77,79.9Zm-4,0c-.84-.83-1-1.06-1-1.27s.09-.27.31-.29.44.14,1.39,1.08a7.38,7.38,0,0,1,1.13,1.3.58.58,0,0,1-.13.3c-.09.1-.15.16-.23.16S74,80.86,73,79.9Zm-4,0c-.84-.83-1-1.06-1-1.27s.09-.27.31-.29.44.14,1.39,1.08a7.81,7.81,0,0,1,1.13,1.3.58.58,0,0,1-.13.3c-.09.1-.15.16-.23.16S70,80.86,69,79.9Zm-4,0c-.84-.83-1-1.06-1-1.27s.09-.27.3-.29.45.14,1.4,1.08a7.81,7.81,0,0,1,1.13,1.3.59.59,0,0,1-.14.3c-.08.1-.14.16-.22.16S66,80.86,65,79.9Zm-4,0c-.84-.83-1-1.06-1-1.27s.09-.27.31-.29.44.14,1.39,1.08a7.81,7.81,0,0,1,1.13,1.3.58.58,0,0,1-.13.3c-.09.1-.15.16-.23.16S62,80.86,61,79.9Zm-4,0c-.84-.83-1-1.06-1-1.27s.09-.27.31-.29.44.14,1.39,1.08a7.81,7.81,0,0,1,1.13,1.3.59.59,0,0,1-.14.3c-.08.1-.14.16-.22.16S58,80.86,57,79.9Zm-4,0c-.84-.83-1-1.06-1-1.27s.09-.27.31-.29.44.14,1.39,1.08a7.81,7.81,0,0,1,1.13,1.3.67.67,0,0,1-.13.3c-.09.1-.15.16-.23.16S54,80.86,53,79.9Zm-4,0c-.84-.83-1-1.06-1-1.27s.09-.27.31-.29.44.14,1.39,1.08a7.81,7.81,0,0,1,1.13,1.3.67.67,0,0,1-.13.3c-.09.1-.15.16-.23.16S50,80.86,49,79.9Zm-4,0c-.84-.83-1-1.06-1-1.27s.09-.27.31-.29.44.14,1.39,1.08a7.81,7.81,0,0,1,1.13,1.3.67.67,0,0,1-.13.3c-.09.1-.15.16-.23.16S46,80.86,45,79.9Zm-4,0c-.84-.83-1-1.06-1-1.27s.09-.27.31-.29.44.14,1.39,1.08a7.81,7.81,0,0,1,1.13,1.3.58.58,0,0,1-.13.3c-.09.1-.15.16-.23.16S42,80.86,41,79.9Zm-4,0c-.84-.83-1-1.06-1-1.27s.09-.27.31-.29.44.14,1.39,1.08a7.38,7.38,0,0,1,1.13,1.3.58.58,0,0,1-.13.3c-.09.1-.15.16-.23.16S38,80.86,37,79.9Zm-4,0c-.84-.83-1-1.06-1-1.27s.09-.27.31-.29.44.14,1.39,1.08a7.81,7.81,0,0,1,1.13,1.3.58.58,0,0,1-.13.3c-.09.1-.15.16-.23.16S34,80.86,33,79.9Zm-4,0c-.84-.83-1-1.06-1-1.27s.09-.27.3-.29.45.14,1.4,1.08a7.81,7.81,0,0,1,1.13,1.3.67.67,0,0,1-.13.3c-.09.1-.15.16-.23.16S30,80.86,29,79.9Zm-4,0c-.84-.83-1-1.06-1-1.27s.09-.27.31-.29.44.14,1.39,1.08a7.81,7.81,0,0,1,1.13,1.3.67.67,0,0,1-.13.3c-.09.1-.15.16-.23.16S26,80.86,25,79.9Zm-4,0c-.84-.83-1-1.06-1-1.27s.09-.27.31-.29.44.14,1.39,1.08a7.81,7.81,0,0,1,1.13,1.3.59.59,0,0,1-.14.3c-.08.1-.14.16-.22.16S22,80.86,21,79.9Zm-4,0c-.84-.83-1-1.06-1-1.27s.09-.27.31-.29.44.14,1.39,1.08a7.81,7.81,0,0,1,1.13,1.3.59.59,0,0,1-.14.3c-.08.1-.14.16-.22.16S18,80.86,17,79.9Zm-4,0c-.84-.83-1-1.06-1-1.27s.09-.27.31-.29.44.14,1.39,1.08a7.81,7.81,0,0,1,1.13,1.3.59.59,0,0,1-.14.3c-.08.1-.14.16-.22.16S14,80.86,13,79.9Zm-4,0c-.84-.83-1-1.06-1-1.27s.09-.27.31-.29.44.14,1.39,1.08a7.81,7.81,0,0,1,1.13,1.3.59.59,0,0,1-.14.3c-.08.1-.14.16-.22.16S10,80.86,9,79.9Zm-2.58.27a2.18,2.18,0,0,1,.42.54.63.63,0,0,1-.08.23c-.11-.26-.23-.51-.34-.77Zm89.67-1.76-.08.2a.27.27,0,0,1,.09-.2ZM93,75.9c-.83-.83-1-1.06-1-1.27s.09-.28.3-.3.45.15,1.39,1.09a7.26,7.26,0,0,1,1.13,1.29.52.52,0,0,1-.13.3c-.08.1-.14.17-.23.17S94,76.86,93,75.9Zm-4,0c-.83-.83-1-1.06-1-1.27s.09-.28.3-.3.45.15,1.39,1.09a7.26,7.26,0,0,1,1.13,1.29.46.46,0,0,1-.13.3c-.08.1-.14.17-.23.17S90,76.86,89,75.9Zm-4,0c-.83-.83-1-1.06-1-1.27s.09-.28.3-.3.45.15,1.39,1.09a7.26,7.26,0,0,1,1.13,1.29.52.52,0,0,1-.13.3c-.08.1-.14.17-.23.17S86,76.86,85,75.9Zm-4,0c-.83-.83-1-1.06-1-1.27s.09-.28.3-.3.45.15,1.39,1.09a7.26,7.26,0,0,1,1.13,1.29.46.46,0,0,1-.13.3c-.08.1-.14.17-.23.17S82,76.86,81,75.9Zm-4,0c-.83-.83-1-1.06-1-1.27s.09-.28.3-.3.45.15,1.39,1.09a7.26,7.26,0,0,1,1.13,1.29.52.52,0,0,1-.13.3c-.08.1-.14.17-.23.17S78,76.86,77,75.9Zm-4,0c-.83-.83-1-1.06-1-1.27s.09-.28.3-.3.45.15,1.39,1.09a7.26,7.26,0,0,1,1.13,1.29.46.46,0,0,1-.13.3c-.08.1-.14.17-.23.17S74,76.86,73,75.9Zm-4,0c-.83-.83-1-1.06-1-1.27s.09-.28.3-.3.45.15,1.39,1.09a7.26,7.26,0,0,1,1.13,1.29.46.46,0,0,1-.13.3c-.08.1-.14.17-.23.17S70,76.86,69,75.9Zm-4,0c-.83-.83-1-1.06-1-1.27s.09-.28.3-.3.45.15,1.39,1.09a7.26,7.26,0,0,1,1.13,1.29.52.52,0,0,1-.13.3c-.08.1-.14.17-.23.17S66,76.86,65,75.9Zm-4,0c-.83-.83-1-1.06-1-1.27s.09-.28.3-.3.45.15,1.39,1.09a7.26,7.26,0,0,1,1.13,1.29.46.46,0,0,1-.13.3c-.08.1-.14.17-.23.17S62,76.86,61,75.9Zm-4,0c-.83-.83-1-1.06-1-1.27s.09-.28.3-.3.45.15,1.39,1.09a7.26,7.26,0,0,1,1.13,1.29.52.52,0,0,1-.13.3c-.08.1-.14.17-.23.17S58,76.86,57,75.9Zm-4,0c-.83-.83-1-1.06-1-1.27s.09-.28.3-.3.45.15,1.39,1.09a7.26,7.26,0,0,1,1.13,1.29.52.52,0,0,1-.13.3c-.08.1-.14.17-.23.17S54,76.86,53,75.9Zm-4,0c-.83-.83-1-1.06-1-1.27s.09-.28.3-.3.45.15,1.39,1.09a7.26,7.26,0,0,1,1.13,1.29.52.52,0,0,1-.13.3c-.08.1-.14.17-.23.17S50,76.86,49,75.9Zm-4,0c-.83-.83-1-1.06-1-1.27s.09-.28.3-.3.45.15,1.39,1.09a7.26,7.26,0,0,1,1.13,1.29.52.52,0,0,1-.13.3c-.08.1-.14.17-.23.17S46,76.86,45,75.9Zm-4,0c-.83-.83-1-1.06-1-1.27s.09-.28.3-.3.45.15,1.39,1.09a7.26,7.26,0,0,1,1.13,1.29.52.52,0,0,1-.13.3c-.08.1-.14.17-.23.17S42,76.86,41,75.9Zm-4,0c-.83-.83-1-1.06-1-1.27s.09-.28.3-.3.45.15,1.4,1.09a7.63,7.63,0,0,1,1.12,1.29.46.46,0,0,1-.13.3c-.08.1-.14.17-.23.17S38,76.86,37,75.9Zm-4,0c-.83-.83-1-1.06-1-1.27s.09-.28.3-.3.45.15,1.39,1.09a7.26,7.26,0,0,1,1.13,1.29.46.46,0,0,1-.13.3c-.08.1-.14.17-.23.17S34,76.86,33,75.9Zm-4,0c-.83-.83-1-1.06-1-1.27s.09-.28.3-.3.45.15,1.39,1.09a7.26,7.26,0,0,1,1.13,1.29.52.52,0,0,1-.13.3c-.08.1-.14.17-.23.17S30,76.86,29,75.9Zm-4,0c-.83-.83-1-1.06-1-1.27s.09-.28.3-.3.45.15,1.39,1.09a7.26,7.26,0,0,1,1.13,1.29.52.52,0,0,1-.13.3c-.08.1-.14.17-.23.17S26,76.86,25,75.9Zm-4,0c-.83-.83-1-1.06-1-1.27s.09-.28.3-.3.45.15,1.39,1.09a7.26,7.26,0,0,1,1.13,1.29.52.52,0,0,1-.13.3c-.08.1-.14.17-.23.17S22,76.86,21,75.9Zm-4,0c-.83-.83-1-1.06-1-1.27s.09-.28.3-.3.45.15,1.39,1.09a7.26,7.26,0,0,1,1.13,1.29.52.52,0,0,1-.13.3c-.08.1-.14.17-.23.17S18,76.86,17,75.9Zm-4,0c-.83-.83-1-1.06-1-1.27s.09-.28.3-.3.45.15,1.39,1.09a7.26,7.26,0,0,1,1.13,1.29.52.52,0,0,1-.13.3c-.08.1-.14.17-.23.17S14,76.86,13,75.9Zm-4,0c-.83-.83-1-1.06-1-1.27s.09-.28.3-.3.45.15,1.39,1.09a7.26,7.26,0,0,1,1.13,1.29.52.52,0,0,1-.13.3c-.08.1-.14.17-.23.17S10,76.86,9,75.9Zm-4,0-.35-.36c-.14-.4-.27-.79-.4-1.2H4.3c.23,0,.45.14,1.39,1.09a7.26,7.26,0,0,1,1.13,1.29.54.54,0,0,1-.13.3c-.08.1-.14.16-.23.16S6,76.86,5,75.9Zm92,0c-.83-.83-1-1.06-1-1.27s.09-.28.3-.3.37.09,1,.67c-.09.3-.18.6-.28.9Zm-4-4c-.83-.83-1-1.06-1-1.27s.09-.28.3-.3.45.15,1.39,1.09a7.26,7.26,0,0,1,1.13,1.29.52.52,0,0,1-.13.3c-.08.1-.14.17-.23.17S94,72.86,93,71.9Zm-4,0c-.83-.83-1-1.06-1-1.27s.09-.28.3-.3.45.15,1.39,1.09a7.26,7.26,0,0,1,1.13,1.29.46.46,0,0,1-.13.3c-.08.1-.14.17-.23.17S90,72.86,89,71.9Zm-4,0c-.83-.83-1-1.06-1-1.27s.09-.28.3-.3.45.15,1.39,1.09a7.26,7.26,0,0,1,1.13,1.29.52.52,0,0,1-.13.3c-.08.1-.14.17-.23.17S86,72.86,85,71.9Zm-4,0c-.83-.83-1-1.06-1-1.27s.09-.28.3-.3.45.15,1.39,1.09a7.26,7.26,0,0,1,1.13,1.29.46.46,0,0,1-.13.3c-.08.1-.14.17-.23.17S82,72.86,81,71.9Zm-4,0c-.83-.83-1-1.06-1-1.27s.09-.28.3-.3.45.15,1.39,1.09a7.26,7.26,0,0,1,1.13,1.29.52.52,0,0,1-.13.3c-.08.1-.14.17-.23.17S78,72.86,77,71.9Zm-4,0c-.83-.83-1-1.06-1-1.27s.09-.28.3-.3.45.15,1.39,1.09a7.26,7.26,0,0,1,1.13,1.29.46.46,0,0,1-.13.3c-.08.1-.14.17-.23.17S74,72.86,73,71.9Zm-4,0c-.83-.83-1-1.06-1-1.27s.09-.28.3-.3.45.15,1.39,1.09a7.26,7.26,0,0,1,1.13,1.29.46.46,0,0,1-.13.3c-.08.1-.14.17-.23.17S70,72.86,69,71.9Zm-4,0c-.83-.83-1-1.06-1-1.27s.09-.28.3-.3.45.15,1.39,1.09a7.26,7.26,0,0,1,1.13,1.29.52.52,0,0,1-.13.3c-.08.1-.14.17-.23.17S66,72.86,65,71.9Zm-4,0c-.83-.83-1-1.06-1-1.27s.09-.28.3-.3.45.15,1.39,1.09a7.26,7.26,0,0,1,1.13,1.29.46.46,0,0,1-.13.3c-.08.1-.14.17-.23.17S62,72.86,61,71.9Zm-4,0c-.83-.83-1-1.06-1-1.27s.09-.28.3-.3.45.15,1.39,1.09a7.26,7.26,0,0,1,1.13,1.29.52.52,0,0,1-.13.3c-.08.1-.14.17-.23.17S58,72.86,57,71.9Zm-4,0c-.83-.83-1-1.06-1-1.27s.09-.28.3-.3.45.15,1.39,1.09a7.26,7.26,0,0,1,1.13,1.29.52.52,0,0,1-.13.3c-.08.1-.14.17-.23.17S54,72.86,53,71.9Zm-4,0c-.83-.83-1-1.06-1-1.27s.09-.28.3-.3.45.15,1.39,1.09a7.26,7.26,0,0,1,1.13,1.29.52.52,0,0,1-.13.3c-.08.1-.14.17-.23.17S50,72.86,49,71.9Zm-4,0c-.83-.83-1-1.06-1-1.27s.09-.28.3-.3.45.15,1.39,1.09a7.26,7.26,0,0,1,1.13,1.29.52.52,0,0,1-.13.3c-.08.1-.14.17-.23.17S46,72.86,45,71.9Zm-4,0c-.83-.83-1-1.06-1-1.27s.09-.28.3-.3.45.15,1.39,1.09a7.26,7.26,0,0,1,1.13,1.29.52.52,0,0,1-.13.3c-.08.1-.14.17-.23.17S42,72.86,41,71.9Zm-4,0c-.83-.83-1-1.06-1-1.27s.09-.28.3-.3.45.15,1.4,1.09a7.63,7.63,0,0,1,1.12,1.29.46.46,0,0,1-.13.3c-.08.1-.14.17-.23.17S38,72.86,37,71.9Zm-4,0c-.83-.83-1-1.06-1-1.27s.09-.28.3-.3.45.15,1.39,1.09a7.26,7.26,0,0,1,1.13,1.29.46.46,0,0,1-.13.3c-.08.1-.14.17-.23.17S34,72.86,33,71.9Zm-4,0c-.83-.83-1-1.06-1-1.27s.09-.28.3-.3.45.15,1.39,1.09a7.26,7.26,0,0,1,1.13,1.29.52.52,0,0,1-.13.3c-.08.1-.14.17-.23.17S30,72.86,29,71.9Zm-4,0c-.83-.83-1-1.06-1-1.27s.09-.28.3-.3.45.15,1.39,1.09a7.26,7.26,0,0,1,1.13,1.29.52.52,0,0,1-.13.3c-.08.1-.14.17-.23.17S26,72.86,25,71.9Zm-4,0c-.83-.83-1-1.06-1-1.27s.09-.28.3-.3.45.15,1.39,1.09a7.26,7.26,0,0,1,1.13,1.29.52.52,0,0,1-.13.3c-.08.1-.14.17-.23.17S22,72.86,21,71.9Zm-4,0c-.83-.83-1-1.06-1-1.27s.09-.28.3-.3.45.15,1.39,1.09a7.26,7.26,0,0,1,1.13,1.29.52.52,0,0,1-.13.3c-.08.1-.14.17-.23.17S18,72.86,17,71.9Zm-4,0c-.83-.83-1-1.06-1-1.27s.09-.28.3-.3.45.15,1.39,1.09a7.26,7.26,0,0,1,1.13,1.29.52.52,0,0,1-.13.3c-.08.1-.14.17-.23.17S14,72.86,13,71.9Zm-4,0c-.83-.83-1-1.06-1-1.27s.09-.28.3-.3.45.15,1.39,1.09a7.26,7.26,0,0,1,1.13,1.29.52.52,0,0,1-.13.3c-.08.1-.14.17-.23.17S10,72.86,9,71.9Zm-4,0c-.83-.83-1-1.06-1-1.27s.09-.28.3-.3.45.15,1.39,1.09a7.26,7.26,0,0,1,1.13,1.29.52.52,0,0,1-.13.3c-.08.1-.14.17-.23.17S6,72.86,5,71.9Zm92,0c-.83-.83-1-1.06-1-1.27s.09-.28.3-.3.45.15,1.39,1.09l.4.4c-.07.32-.15.63-.22.94L97,71.9Zm0-4c-.83-.83-1-1.06-1-1.27s.09-.28.3-.3.45.15,1.39,1.09a12.21,12.21,0,0,1,1,1.13l-.09.53a.27.27,0,0,1-.17.1c-.17,0-.49-.32-1.47-1.28Zm-4,0c-.83-.83-1-1.06-1-1.27s.09-.28.3-.3.45.15,1.39,1.09a7.26,7.26,0,0,1,1.13,1.29.52.52,0,0,1-.13.3c-.08.1-.14.17-.23.17S94,68.86,93,67.9Zm-4,0c-.83-.83-1-1.06-1-1.27s.09-.28.3-.3.45.15,1.39,1.09a7.26,7.26,0,0,1,1.13,1.29.46.46,0,0,1-.13.3c-.08.1-.14.17-.23.17S90,68.86,89,67.9Zm-4,0c-.83-.83-1-1.06-1-1.27s.09-.28.3-.3.45.15,1.39,1.09a7.26,7.26,0,0,1,1.13,1.29.52.52,0,0,1-.13.3c-.08.1-.14.17-.23.17S86,68.86,85,67.9Zm-4,0c-.83-.83-1-1.06-1-1.27s.09-.28.3-.3.45.15,1.39,1.09a7.26,7.26,0,0,1,1.13,1.29.46.46,0,0,1-.13.3c-.08.1-.14.17-.23.17S82,68.86,81,67.9Zm-4,0c-.83-.83-1-1.06-1-1.27s.09-.28.3-.3.45.15,1.39,1.09a7.26,7.26,0,0,1,1.13,1.29.52.52,0,0,1-.13.3c-.08.1-.14.17-.23.17S78,68.86,77,67.9Zm-4,0c-.83-.83-1-1.06-1-1.27s.09-.28.3-.3.45.15,1.39,1.09a7.26,7.26,0,0,1,1.13,1.29.46.46,0,0,1-.13.3c-.08.1-.14.17-.23.17S74,68.86,73,67.9Zm-4,0c-.83-.83-1-1.06-1-1.27s.09-.28.3-.3.45.15,1.39,1.09a7.26,7.26,0,0,1,1.13,1.29.46.46,0,0,1-.13.3c-.08.1-.14.17-.23.17S70,68.86,69,67.9Zm-4,0c-.83-.83-1-1.06-1-1.27s.09-.28.3-.3.45.15,1.39,1.09a7.26,7.26,0,0,1,1.13,1.29.52.52,0,0,1-.13.3c-.08.1-.14.17-.23.17S66,68.86,65,67.9Zm-4,0c-.83-.83-1-1.06-1-1.27s.09-.28.3-.3.45.15,1.39,1.09a7.26,7.26,0,0,1,1.13,1.29.46.46,0,0,1-.13.3c-.08.1-.14.17-.23.17S62,68.86,61,67.9Zm-4,0c-.83-.83-1-1.06-1-1.27s.09-.28.3-.3.45.15,1.39,1.09a7.26,7.26,0,0,1,1.13,1.29.52.52,0,0,1-.13.3c-.08.1-.14.17-.23.17S58,68.86,57,67.9Zm-4,0c-.83-.83-1-1.06-1-1.27s.09-.28.3-.3.45.15,1.39,1.09a7.26,7.26,0,0,1,1.13,1.29.52.52,0,0,1-.13.3c-.08.1-.14.17-.23.17S54,68.86,53,67.9Zm-4,0c-.83-.83-1-1.06-1-1.27s.09-.28.3-.3.45.15,1.39,1.09a7.26,7.26,0,0,1,1.13,1.29.52.52,0,0,1-.13.3c-.08.1-.14.17-.23.17S50,68.86,49,67.9Zm-4,0c-.83-.83-1-1.06-1-1.27s.09-.28.3-.3.45.15,1.39,1.09a7.26,7.26,0,0,1,1.13,1.29.52.52,0,0,1-.13.3c-.08.1-.14.17-.23.17S46,68.86,45,67.9Zm-4,0c-.83-.83-1-1.06-1-1.27s.09-.28.3-.3.45.15,1.39,1.09a7.26,7.26,0,0,1,1.13,1.29.52.52,0,0,1-.13.3c-.08.1-.14.17-.23.17S42,68.86,41,67.9Zm-4,0c-.83-.83-1-1.06-1-1.27s.09-.28.3-.3.45.15,1.4,1.09a7.63,7.63,0,0,1,1.12,1.29.46.46,0,0,1-.13.3c-.08.1-.14.17-.23.17S38,68.86,37,67.9Zm-4,0c-.83-.83-1-1.06-1-1.27s.09-.28.3-.3.45.15,1.39,1.09a7.26,7.26,0,0,1,1.13,1.29.46.46,0,0,1-.13.3c-.08.1-.14.17-.23.17S34,68.86,33,67.9Zm-4,0c-.83-.83-1-1.06-1-1.27s.09-.28.3-.3.45.15,1.39,1.09a7.26,7.26,0,0,1,1.13,1.29.52.52,0,0,1-.13.3c-.08.1-.14.17-.23.17S30,68.86,29,67.9Zm-4,0c-.83-.83-1-1.06-1-1.27s.09-.28.3-.3.45.15,1.39,1.09a7.26,7.26,0,0,1,1.13,1.29.52.52,0,0,1-.13.3c-.08.1-.14.17-.23.17S26,68.86,25,67.9Zm-4,0c-.83-.83-1-1.06-1-1.27s.09-.28.3-.3.45.15,1.39,1.09a7.26,7.26,0,0,1,1.13,1.29.52.52,0,0,1-.13.3c-.08.1-.14.17-.23.17S22,68.86,21,67.9Zm-4,0c-.83-.83-1-1.06-1-1.27s.09-.28.3-.3.45.15,1.39,1.09a7.26,7.26,0,0,1,1.13,1.29.52.52,0,0,1-.13.3c-.08.1-.14.17-.23.17S18,68.86,17,67.9Zm-4,0c-.83-.83-1-1.06-1-1.27s.09-.28.3-.3.45.15,1.39,1.09a7.26,7.26,0,0,1,1.13,1.29.52.52,0,0,1-.13.3c-.08.1-.14.17-.23.17S14,68.86,13,67.9Zm-4,0c-.83-.83-1-1.06-1-1.27s.09-.28.3-.3.45.15,1.39,1.09a7.26,7.26,0,0,1,1.13,1.29.52.52,0,0,1-.13.3c-.08.1-.14.17-.23.17S10,68.86,9,67.9Zm-4,0c-.83-.83-1-1.06-1-1.27s.09-.28.3-.3.45.15,1.39,1.09a7.26,7.26,0,0,1,1.13,1.29.52.52,0,0,1-.13.3c-.08.1-.14.17-.23.17S6,68.86,5,67.9Zm-2.44.42a1.55,1.55,0,0,1,.28.39A.47.47,0,0,1,2.7,69c-.05-.22-.1-.45-.16-.67ZM97,63.9c-.83-.83-1-1.06-1-1.27s.09-.28.3-.29.45.14,1.39,1.08a7.26,7.26,0,0,1,1.13,1.29.46.46,0,0,1-.13.3c-.08.1-.14.17-.23.17S98,64.86,97,63.9Zm-4,0c-.83-.83-1-1.06-1-1.27s.09-.28.3-.29.45.14,1.39,1.08a7.26,7.26,0,0,1,1.13,1.29.52.52,0,0,1-.13.3c-.08.1-.14.17-.23.17S94,64.86,93,63.9Zm-4,0c-.83-.83-1-1.06-1-1.27s.09-.28.3-.29.45.14,1.39,1.08a7.26,7.26,0,0,1,1.13,1.29.46.46,0,0,1-.13.3c-.08.1-.14.17-.23.17S90,64.86,89,63.9Zm-4,0c-.83-.83-1-1.06-1-1.27s.09-.28.3-.29.45.14,1.39,1.08a7.26,7.26,0,0,1,1.13,1.29.52.52,0,0,1-.13.3c-.08.1-.14.17-.23.17S86,64.86,85,63.9Zm-4,0c-.83-.83-1-1.06-1-1.27s.09-.28.3-.29.45.14,1.39,1.08a7.26,7.26,0,0,1,1.13,1.29.46.46,0,0,1-.13.3c-.08.1-.14.17-.23.17S82,64.86,81,63.9Zm-4,0c-.83-.83-1-1.06-1-1.27s.09-.28.3-.29.45.14,1.39,1.08a7.26,7.26,0,0,1,1.13,1.29.52.52,0,0,1-.13.3c-.08.1-.14.17-.23.17S78,64.86,77,63.9Zm-4,0c-.83-.83-1-1.06-1-1.27s.09-.28.3-.29.45.14,1.39,1.08a7.26,7.26,0,0,1,1.13,1.29.46.46,0,0,1-.13.3c-.08.1-.14.17-.23.17S74,64.86,73,63.9Zm-4,0c-.83-.83-1-1.06-1-1.27s.09-.28.3-.29.45.14,1.39,1.08a7.26,7.26,0,0,1,1.13,1.29.46.46,0,0,1-.13.3c-.08.1-.14.17-.23.17S70,64.86,69,63.9Zm-4,0c-.83-.83-1-1.06-1-1.27s.09-.28.3-.29.45.14,1.39,1.08a7.26,7.26,0,0,1,1.13,1.29.52.52,0,0,1-.13.3c-.08.1-.14.17-.23.17S66,64.86,65,63.9Zm-4,0c-.83-.83-1-1.06-1-1.27s.09-.28.3-.29.45.14,1.39,1.08a7.26,7.26,0,0,1,1.13,1.29.46.46,0,0,1-.13.3c-.08.1-.14.17-.23.17S62,64.86,61,63.9Zm-4,0c-.83-.83-1-1.06-1-1.27s.09-.28.3-.29.45.14,1.39,1.08a7.26,7.26,0,0,1,1.13,1.29.52.52,0,0,1-.13.3c-.08.1-.14.17-.23.17S58,64.86,57,63.9Zm-4,0c-.83-.83-1-1.06-1-1.27s.09-.28.3-.29.45.14,1.39,1.08a7.26,7.26,0,0,1,1.13,1.29.52.52,0,0,1-.13.3c-.08.1-.14.17-.23.17S54,64.86,53,63.9Zm-4,0c-.83-.83-1-1.06-1-1.27s.09-.28.3-.29.45.14,1.39,1.08a7.26,7.26,0,0,1,1.13,1.29.52.52,0,0,1-.13.3c-.08.1-.14.17-.23.17S50,64.86,49,63.9Zm-4,0c-.83-.83-1-1.06-1-1.27s.09-.28.3-.29.45.14,1.39,1.08a7.26,7.26,0,0,1,1.13,1.29.52.52,0,0,1-.13.3c-.08.1-.14.17-.23.17S46,64.86,45,63.9Zm-4,0c-.83-.83-1-1.06-1-1.27s.09-.28.3-.29.45.14,1.39,1.08a7.26,7.26,0,0,1,1.13,1.29.52.52,0,0,1-.13.3c-.08.1-.14.17-.23.17S42,64.86,41,63.9Zm-4,0c-.83-.83-1-1.06-1-1.27s.09-.28.3-.29.45.14,1.4,1.08a7.63,7.63,0,0,1,1.12,1.29.46.46,0,0,1-.13.3c-.08.1-.14.17-.23.17S38,64.86,37,63.9Zm-4,0c-.83-.83-1-1.06-1-1.27s.09-.28.3-.29.45.14,1.39,1.08a7.26,7.26,0,0,1,1.13,1.29.46.46,0,0,1-.13.3c-.08.1-.14.17-.23.17S34,64.86,33,63.9Zm-4,0c-.83-.83-1-1.06-1-1.27s.09-.28.3-.29.45.14,1.39,1.08a7.26,7.26,0,0,1,1.13,1.29.52.52,0,0,1-.13.3c-.08.1-.14.17-.23.17S30,64.86,29,63.9Zm-4,0c-.83-.83-1-1.06-1-1.27s.09-.28.3-.29.45.14,1.39,1.08a7.26,7.26,0,0,1,1.13,1.29.52.52,0,0,1-.13.3c-.08.1-.14.17-.23.17S26,64.86,25,63.9Zm-4,0c-.83-.83-1-1.06-1-1.27s.09-.28.3-.29.45.14,1.39,1.08a7.26,7.26,0,0,1,1.13,1.29.52.52,0,0,1-.13.3c-.08.1-.14.17-.23.17S22,64.86,21,63.9Zm-4,0c-.83-.83-1-1.06-1-1.27s.09-.28.3-.29.45.14,1.39,1.08a7.26,7.26,0,0,1,1.13,1.29.52.52,0,0,1-.13.3c-.08.1-.14.17-.23.17S18,64.86,17,63.9Zm-4,0c-.83-.83-1-1.06-1-1.27s.09-.28.3-.29.45.14,1.39,1.08a7.26,7.26,0,0,1,1.13,1.29.52.52,0,0,1-.13.3c-.08.1-.14.17-.23.17S14,64.86,13,63.9Zm-4,0c-.83-.83-1-1.06-1-1.27s.09-.28.3-.29.45.14,1.39,1.08a7.26,7.26,0,0,1,1.13,1.29.52.52,0,0,1-.13.3c-.08.1-.14.17-.23.17S10,64.86,9,63.9Zm-4,0c-.83-.83-1-1.06-1-1.27s.09-.28.3-.29.45.14,1.39,1.08a7.26,7.26,0,0,1,1.13,1.29.52.52,0,0,1-.13.3c-.08.1-.14.17-.23.17S6,64.86,5,63.9Zm-3.26.72c-.1-.48-.19-1-.28-1.45l.25.25a7,7,0,0,1,1.13,1.3.58.58,0,0,1-.13.3c-.08.1-.14.16-.23.16s-.31-.15-.73-.56ZM97,59.9c-.83-.83-1-1.06-1-1.27s.09-.28.3-.3.45.15,1.39,1.09a7.26,7.26,0,0,1,1.13,1.29.46.46,0,0,1-.13.3c-.08.1-.14.17-.23.17S98,60.86,97,59.9Zm-4,0c-.83-.83-1-1.06-1-1.27s.09-.28.3-.3.45.15,1.39,1.09a7.26,7.26,0,0,1,1.13,1.29.52.52,0,0,1-.13.3c-.08.1-.14.17-.23.17S94,60.86,93,59.9Zm-4,0c-.83-.83-1-1.06-1-1.27s.09-.28.3-.3.45.15,1.39,1.09a7.26,7.26,0,0,1,1.13,1.29.46.46,0,0,1-.13.3c-.08.1-.14.17-.23.17S90,60.86,89,59.9Zm-4,0c-.83-.83-1-1.06-1-1.27s.09-.28.3-.3.45.15,1.39,1.09a7.26,7.26,0,0,1,1.13,1.29.52.52,0,0,1-.13.3c-.08.1-.14.17-.23.17S86,60.86,85,59.9Zm-4,0c-.83-.83-1-1.06-1-1.27s.09-.28.3-.3.45.15,1.39,1.09a7.26,7.26,0,0,1,1.13,1.29.46.46,0,0,1-.13.3c-.08.1-.14.17-.23.17S82,60.86,81,59.9Zm-4,0c-.83-.83-1-1.06-1-1.27s.09-.28.3-.3.45.15,1.39,1.09a7.26,7.26,0,0,1,1.13,1.29.46.46,0,0,1-.13.3c-.08.1-.14.17-.23.17S78,60.86,77,59.9Zm-4,0c-.83-.83-1-1.06-1-1.27s.09-.28.3-.3.45.15,1.39,1.09a7.26,7.26,0,0,1,1.13,1.29.46.46,0,0,1-.13.3c-.08.1-.14.17-.23.17S74,60.86,73,59.9Zm-4,0c-.83-.83-1-1.06-1-1.27s.09-.28.3-.3.45.15,1.39,1.09a7.26,7.26,0,0,1,1.13,1.29.46.46,0,0,1-.13.3c-.08.1-.14.17-.23.17S70,60.86,69,59.9Zm-4,0c-.83-.83-1-1.06-1-1.27s.09-.28.3-.3.45.15,1.39,1.09a7.26,7.26,0,0,1,1.13,1.29.52.52,0,0,1-.13.3c-.08.1-.14.17-.23.17S66,60.86,65,59.9Zm-4,0c-.83-.83-1-1.06-1-1.27s.09-.28.3-.3.45.15,1.39,1.09a7.26,7.26,0,0,1,1.13,1.29.46.46,0,0,1-.13.3c-.08.1-.14.17-.23.17S62,60.86,61,59.9Zm-4,0c-.83-.83-1-1.06-1-1.27s.09-.28.3-.3.45.15,1.39,1.09a7.26,7.26,0,0,1,1.13,1.29.52.52,0,0,1-.13.3c-.08.1-.14.17-.23.17S58,60.86,57,59.9Zm-4,0c-.83-.83-1-1.06-1-1.27s.09-.28.3-.3.45.15,1.39,1.09a7.26,7.26,0,0,1,1.13,1.29.52.52,0,0,1-.13.3c-.08.1-.14.17-.23.17S54,60.86,53,59.9Zm-4,0c-.83-.83-1-1.06-1-1.27s.09-.28.3-.3.45.15,1.39,1.09a7.26,7.26,0,0,1,1.13,1.29.52.52,0,0,1-.13.3c-.08.1-.14.17-.23.17S50,60.86,49,59.9Zm-4,0c-.83-.83-1-1.06-1-1.27s.09-.28.3-.3.45.15,1.39,1.09a7.26,7.26,0,0,1,1.13,1.29.52.52,0,0,1-.13.3c-.08.1-.14.17-.23.17S46,60.86,45,59.9Zm-4,0c-.83-.83-1-1.06-1-1.27s.09-.28.3-.3.45.15,1.39,1.09a7.26,7.26,0,0,1,1.13,1.29.52.52,0,0,1-.13.3c-.08.1-.14.17-.23.17S42,60.86,41,59.9Zm-4,0c-.83-.83-1-1.06-1-1.27s.09-.28.3-.3.45.15,1.4,1.09a7.63,7.63,0,0,1,1.12,1.29.46.46,0,0,1-.13.3c-.08.1-.14.17-.23.17S38,60.86,37,59.9Zm-4,0c-.83-.83-1-1.06-1-1.27s.09-.28.3-.3.45.15,1.39,1.09a7.26,7.26,0,0,1,1.13,1.29.46.46,0,0,1-.13.3c-.08.1-.14.17-.23.17S34,60.86,33,59.9Zm-4,0c-.83-.83-1-1.06-1-1.27s.09-.28.3-.3.45.15,1.39,1.09a7.26,7.26,0,0,1,1.13,1.29.52.52,0,0,1-.13.3c-.08.1-.14.17-.23.17S30,60.86,29,59.9Zm-4,0c-.83-.83-1-1.06-1-1.27s.09-.28.3-.3.45.15,1.39,1.09a7.26,7.26,0,0,1,1.13,1.29.52.52,0,0,1-.13.3c-.08.1-.14.17-.23.17S26,60.86,25,59.9Zm-4,0c-.83-.83-1-1.06-1-1.27s.09-.28.3-.3.45.15,1.39,1.09a7.26,7.26,0,0,1,1.13,1.29.52.52,0,0,1-.13.3c-.08.1-.14.17-.23.17S22,60.86,21,59.9Zm-4,0c-.83-.83-1-1.06-1-1.27s.09-.28.3-.3.45.15,1.39,1.09a7.26,7.26,0,0,1,1.13,1.29.52.52,0,0,1-.13.3c-.08.1-.14.17-.23.17S18,60.86,17,59.9Zm-4,0c-.83-.83-1-1.06-1-1.27s.09-.28.3-.3.45.15,1.39,1.09a7.26,7.26,0,0,1,1.13,1.29.52.52,0,0,1-.13.3c-.08.1-.14.17-.23.17S14,60.86,13,59.9Zm-4,0c-.83-.83-1-1.06-1-1.27s.09-.28.3-.3.45.15,1.39,1.09a7.26,7.26,0,0,1,1.13,1.29.52.52,0,0,1-.13.3c-.08.1-.14.17-.23.17S10,60.86,9,59.9Zm-4,0c-.83-.83-1-1.06-1-1.27s.09-.28.3-.3.45.15,1.39,1.09a7.26,7.26,0,0,1,1.13,1.29.52.52,0,0,1-.13.3c-.08.1-.14.17-.23.17S6,60.86,5,59.9Zm-4,0-.1-.1c-.06-.44-.13-.87-.19-1.32a11.22,11.22,0,0,1,1,1,6.62,6.62,0,0,1,1.13,1.29.58.58,0,0,1-.13.3c-.08.1-.14.16-.23.16S2,60.86,1,59.9Zm96-4c-.83-.83-1-1.06-1-1.27s.09-.28.3-.29.45.14,1.39,1.08a7.26,7.26,0,0,1,1.13,1.29.46.46,0,0,1-.13.3c-.08.1-.14.17-.23.17S98,56.86,97,55.9Zm-4,0c-.83-.83-1-1.06-1-1.27s.09-.28.3-.29.45.14,1.39,1.08a7.26,7.26,0,0,1,1.13,1.29.52.52,0,0,1-.13.3c-.08.1-.14.17-.23.17S94,56.86,93,55.9Zm-4,0c-.83-.83-1-1.06-1-1.27s.09-.28.3-.29.45.14,1.39,1.08a7.26,7.26,0,0,1,1.13,1.29.46.46,0,0,1-.13.3c-.08.1-.14.17-.23.17S90,56.86,89,55.9Zm-4,0c-.83-.83-1-1.06-1-1.27s.09-.28.3-.29.45.14,1.39,1.08a7.26,7.26,0,0,1,1.13,1.29.52.52,0,0,1-.13.3c-.08.1-.14.17-.23.17S86,56.86,85,55.9Zm-4,0c-.83-.83-1-1.06-1-1.27s.09-.28.3-.29.45.14,1.39,1.08a7.26,7.26,0,0,1,1.13,1.29.46.46,0,0,1-.13.3c-.08.1-.14.17-.23.17S82,56.86,81,55.9Zm-4,0c-.83-.83-1-1.06-1-1.27s.09-.28.3-.29.45.14,1.39,1.08a7.26,7.26,0,0,1,1.13,1.29.52.52,0,0,1-.13.3c-.08.1-.14.17-.23.17S78,56.86,77,55.9Zm-4,0c-.83-.83-1-1.06-1-1.27s.09-.28.3-.29.45.14,1.39,1.08a7.26,7.26,0,0,1,1.13,1.29.46.46,0,0,1-.13.3c-.08.1-.14.17-.23.17S74,56.86,73,55.9Zm-4,0c-.83-.83-1-1.06-1-1.27s.09-.28.3-.29.45.14,1.39,1.08a7.26,7.26,0,0,1,1.13,1.29.46.46,0,0,1-.13.3c-.08.1-.14.17-.23.17S70,56.86,69,55.9Zm-4,0c-.83-.83-1-1.06-1-1.27s.09-.28.3-.29.45.14,1.39,1.08a7.26,7.26,0,0,1,1.13,1.29.52.52,0,0,1-.13.3c-.08.1-.14.17-.23.17S66,56.86,65,55.9Zm-4,0c-.83-.83-1-1.06-1-1.27s.09-.28.3-.29.45.14,1.39,1.08a7.26,7.26,0,0,1,1.13,1.29.46.46,0,0,1-.13.3c-.08.1-.14.17-.23.17S62,56.86,61,55.9Zm-4,0c-.83-.83-1-1.06-1-1.27s.09-.28.3-.29.45.14,1.39,1.08a7.26,7.26,0,0,1,1.13,1.29.52.52,0,0,1-.13.3c-.08.1-.14.17-.23.17S58,56.86,57,55.9Zm-4,0c-.83-.83-1-1.06-1-1.27s.09-.28.3-.29.45.14,1.39,1.08a7.26,7.26,0,0,1,1.13,1.29.52.52,0,0,1-.13.3c-.08.1-.14.17-.23.17S54,56.86,53,55.9Zm-4,0c-.83-.83-1-1.06-1-1.27s.09-.28.3-.29.45.14,1.39,1.08a7.26,7.26,0,0,1,1.13,1.29.52.52,0,0,1-.13.3c-.08.1-.14.17-.23.17S50,56.86,49,55.9Zm-4,0c-.83-.83-1-1.06-1-1.27s.09-.28.3-.29.45.14,1.39,1.08a7.26,7.26,0,0,1,1.13,1.29.52.52,0,0,1-.13.3c-.08.1-.14.17-.23.17S46,56.86,45,55.9Zm-4,0c-.83-.83-1-1.06-1-1.27s.09-.28.3-.29.45.14,1.39,1.08a7.26,7.26,0,0,1,1.13,1.29.52.52,0,0,1-.13.3c-.08.1-.14.17-.23.17S42,56.86,41,55.9Zm-4,0c-.83-.83-1-1.06-1-1.27s.09-.28.3-.29.45.14,1.4,1.08a7.63,7.63,0,0,1,1.12,1.29.46.46,0,0,1-.13.3c-.08.1-.14.17-.23.17S38,56.86,37,55.9Zm-4,0c-.83-.83-1-1.06-1-1.27s.09-.28.3-.29.45.14,1.39,1.08a7.26,7.26,0,0,1,1.13,1.29.46.46,0,0,1-.13.3c-.08.1-.14.17-.23.17S34,56.86,33,55.9Zm-4,0c-.83-.83-1-1.06-1-1.27s.09-.28.3-.29.45.14,1.39,1.08a7.26,7.26,0,0,1,1.13,1.29.52.52,0,0,1-.13.3c-.08.1-.14.17-.23.17S30,56.86,29,55.9Zm-4,0c-.83-.83-1-1.06-1-1.27s.09-.28.3-.29.45.14,1.39,1.08a7.26,7.26,0,0,1,1.13,1.29.52.52,0,0,1-.13.3c-.08.1-.14.17-.23.17S26,56.86,25,55.9Zm-4,0c-.83-.83-1-1.06-1-1.27s.09-.28.3-.29.45.14,1.39,1.08a7.26,7.26,0,0,1,1.13,1.29.52.52,0,0,1-.13.3c-.08.1-.14.17-.23.17S22,56.86,21,55.9Zm-4,0c-.83-.83-1-1.06-1-1.27s.09-.28.3-.29.45.14,1.39,1.08a7.26,7.26,0,0,1,1.13,1.29.52.52,0,0,1-.13.3c-.08.1-.14.17-.23.17S18,56.86,17,55.9Zm-4,0c-.83-.83-1-1.06-1-1.27s.09-.28.3-.29.45.14,1.39,1.08a7.26,7.26,0,0,1,1.13,1.29.52.52,0,0,1-.13.3c-.08.1-.14.17-.23.17S14,56.86,13,55.9Zm-4,0c-.83-.83-1-1.06-1-1.27s.09-.28.3-.29.45.14,1.39,1.08a7.26,7.26,0,0,1,1.13,1.29.52.52,0,0,1-.13.3c-.08.1-.14.17-.23.17S10,56.86,9,55.9Zm-4,0c-.83-.83-1-1.06-1-1.27s.09-.28.3-.29.45.14,1.39,1.08a7.26,7.26,0,0,1,1.13,1.29.52.52,0,0,1-.13.3c-.08.1-.14.17-.23.17S6,56.86,5,55.9Zm-4,0c-.31-.32-.54-.54-.69-.72s-.06-.55-.08-.83l.1,0c.23,0,.45.14,1.39,1.09a6.62,6.62,0,0,1,1.13,1.29.58.58,0,0,1-.13.3c-.09.1-.14.16-.23.16S2,56.86,1,55.9Zm96-4c-.83-.83-1-1.06-1-1.27s.09-.28.3-.3.45.15,1.39,1.09a7.26,7.26,0,0,1,1.13,1.29.46.46,0,0,1-.13.3c-.08.1-.14.17-.23.17S98,52.86,97,51.9Zm-4,0c-.83-.83-1-1.06-1-1.27s.09-.28.3-.3.45.15,1.39,1.09a7.26,7.26,0,0,1,1.13,1.29.52.52,0,0,1-.13.3c-.08.1-.14.17-.23.17S94,52.86,93,51.9Zm-4,0c-.83-.83-1-1.06-1-1.27s.09-.28.3-.3.45.15,1.39,1.09a7.26,7.26,0,0,1,1.13,1.29.46.46,0,0,1-.13.3c-.08.1-.14.17-.23.17S90,52.86,89,51.9Zm-4,0c-.83-.83-1-1.06-1-1.27s.09-.28.3-.3.45.15,1.39,1.09a7.26,7.26,0,0,1,1.13,1.29.52.52,0,0,1-.13.3c-.08.1-.14.17-.23.17S86,52.86,85,51.9Zm-4,0c-.83-.83-1-1.06-1-1.27s.09-.28.3-.3.45.15,1.39,1.09a7.26,7.26,0,0,1,1.13,1.29.46.46,0,0,1-.13.3c-.08.1-.14.17-.23.17S82,52.86,81,51.9Zm-4,0c-.83-.83-1-1.06-1-1.27s.09-.28.3-.3.45.15,1.39,1.09a7.26,7.26,0,0,1,1.13,1.29.52.52,0,0,1-.13.3c-.08.1-.14.17-.23.17S78,52.86,77,51.9Zm-4,0c-.83-.83-1-1.06-1-1.27s.09-.28.3-.3.45.15,1.39,1.09a7.26,7.26,0,0,1,1.13,1.29.46.46,0,0,1-.13.3c-.08.1-.14.17-.23.17S74,52.86,73,51.9Zm-4,0c-.83-.83-1-1.06-1-1.27s.09-.28.3-.3.45.15,1.39,1.09a7.26,7.26,0,0,1,1.13,1.29.46.46,0,0,1-.13.3c-.08.1-.14.17-.23.17S70,52.86,69,51.9Zm-4,0c-.83-.83-1-1.06-1-1.27s.09-.28.3-.3.45.15,1.39,1.09a7.26,7.26,0,0,1,1.13,1.29.52.52,0,0,1-.13.3c-.08.1-.14.17-.23.17S66,52.86,65,51.9Zm-4,0c-.83-.83-1-1.06-1-1.27s.09-.28.3-.3.45.15,1.39,1.09a7.26,7.26,0,0,1,1.13,1.29.46.46,0,0,1-.13.3c-.08.1-.14.17-.23.17S62,52.86,61,51.9Zm-4,0c-.83-.83-1-1.06-1-1.27s.09-.28.3-.3.45.15,1.39,1.09a7.26,7.26,0,0,1,1.13,1.29.52.52,0,0,1-.13.3c-.08.1-.14.17-.23.17S58,52.86,57,51.9Zm-4,0c-.83-.83-1-1.06-1-1.27s.09-.28.3-.3.45.15,1.39,1.09a7.26,7.26,0,0,1,1.13,1.29.52.52,0,0,1-.13.3c-.08.1-.14.17-.23.17S54,52.86,53,51.9Zm-4,0c-.83-.83-1-1.06-1-1.27s.09-.28.3-.3.45.15,1.39,1.09a7.26,7.26,0,0,1,1.13,1.29.52.52,0,0,1-.13.3c-.08.1-.14.17-.23.17S50,52.86,49,51.9Zm-4,0c-.83-.83-1-1.06-1-1.27s.09-.28.3-.3.45.15,1.39,1.09a7.26,7.26,0,0,1,1.13,1.29.52.52,0,0,1-.13.3c-.08.1-.14.17-.23.17S46,52.86,45,51.9Zm-4,0c-.83-.83-1-1.06-1-1.27s.09-.28.3-.3.45.15,1.39,1.09a7.26,7.26,0,0,1,1.13,1.29.52.52,0,0,1-.13.3c-.08.1-.14.17-.23.17S42,52.86,41,51.9Zm-4,0c-.83-.83-1-1.06-1-1.27s.09-.28.3-.3.45.15,1.4,1.09a7.63,7.63,0,0,1,1.12,1.29.46.46,0,0,1-.13.3c-.08.1-.14.17-.23.17S38,52.86,37,51.9Zm-4,0c-.83-.83-1-1.06-1-1.27s.09-.28.3-.3.45.15,1.39,1.09a7.26,7.26,0,0,1,1.13,1.29.46.46,0,0,1-.13.3c-.08.1-.14.17-.23.17S34,52.86,33,51.9Zm-4,0c-.83-.83-1-1.06-1-1.27s.09-.28.3-.3.45.15,1.39,1.09a7.26,7.26,0,0,1,1.13,1.29.52.52,0,0,1-.13.3c-.08.1-.14.17-.23.17S30,52.86,29,51.9Zm-4,0c-.83-.83-1-1.06-1-1.27s.09-.28.3-.3.45.15,1.39,1.09a7.26,7.26,0,0,1,1.13,1.29.52.52,0,0,1-.13.3c-.08.1-.14.17-.23.17S26,52.86,25,51.9Zm-4,0c-.83-.83-1-1.06-1-1.27s.09-.28.3-.3.45.15,1.39,1.09a7.26,7.26,0,0,1,1.13,1.29.52.52,0,0,1-.13.3c-.08.1-.14.17-.23.17S22,52.86,21,51.9Zm-4,0c-.83-.83-1-1.06-1-1.27s.09-.28.3-.3.45.15,1.39,1.09a7.26,7.26,0,0,1,1.13,1.29.52.52,0,0,1-.13.3c-.08.1-.14.17-.23.17S18,52.86,17,51.9Zm-4,0c-.83-.83-1-1.06-1-1.27s.09-.28.3-.3.45.15,1.39,1.09a7.26,7.26,0,0,1,1.13,1.29.52.52,0,0,1-.13.3c-.08.1-.14.17-.23.17S14,52.86,13,51.9Zm-4,0c-.83-.83-1-1.06-1-1.27s.09-.28.3-.3.45.15,1.39,1.09a7.26,7.26,0,0,1,1.13,1.29.52.52,0,0,1-.13.3c-.08.1-.14.17-.23.17S10,52.86,9,51.9Zm-4,0c-.83-.83-1-1.06-1-1.27s.09-.28.3-.3.45.15,1.39,1.09a7.26,7.26,0,0,1,1.13,1.29.52.52,0,0,1-.13.3c-.08.1-.14.17-.23.17S6,52.86,5,51.9Zm-4,0c-.82-.84-1-1.06-1-1.27s.09-.27.31-.29.44.14,1.39,1.08a7.69,7.69,0,0,1,1.13,1.29.52.52,0,0,1-.13.3c-.09.1-.15.17-.23.17S2,52.86,1,51.9Zm96-4c-.83-.83-1-1.06-1-1.27s.09-.27.3-.29.45.14,1.39,1.08a7,7,0,0,1,1.13,1.3.51.51,0,0,1-.13.3c-.08.09-.14.16-.23.16S98,48.86,97,47.9Zm-4,0c-.83-.83-1-1.06-1-1.27s.09-.27.3-.29.45.14,1.39,1.08a7,7,0,0,1,1.13,1.3.58.58,0,0,1-.13.3c-.08.09-.14.16-.23.16S94,48.86,93,47.9Zm-4,0c-.83-.83-1-1.06-1-1.27s.09-.27.3-.29.45.14,1.39,1.08a7,7,0,0,1,1.13,1.3.51.51,0,0,1-.13.3c-.08.09-.14.16-.23.16S90,48.86,89,47.9Zm-4,0c-.83-.83-1-1.06-1-1.27s.09-.27.3-.29.45.14,1.39,1.08a7,7,0,0,1,1.13,1.3.58.58,0,0,1-.13.3c-.08.09-.14.16-.23.16S86,48.86,85,47.9Zm-4,0c-.83-.83-1-1.06-1-1.27s.09-.27.3-.29.45.14,1.39,1.08a7,7,0,0,1,1.13,1.3.51.51,0,0,1-.13.3c-.08.09-.14.16-.23.16S82,48.86,81,47.9Zm-4,0c-.83-.83-1-1.06-1-1.27s.09-.27.3-.29.45.14,1.39,1.08a7,7,0,0,1,1.13,1.3.58.58,0,0,1-.13.3c-.08.09-.14.16-.23.16S78,48.86,77,47.9Zm-4,0c-.83-.83-1-1.06-1-1.27s.09-.27.3-.29.45.14,1.39,1.08a7,7,0,0,1,1.13,1.3.51.51,0,0,1-.13.3c-.08.09-.14.16-.23.16S74,48.86,73,47.9Zm-4,0c-.83-.83-1-1.06-1-1.27s.09-.27.3-.29.45.14,1.39,1.08a7,7,0,0,1,1.13,1.3.51.51,0,0,1-.13.3c-.08.09-.14.16-.23.16S70,48.86,69,47.9Zm-4,0c-.83-.83-1-1.06-1-1.27s.09-.27.3-.29.45.14,1.39,1.08a7,7,0,0,1,1.13,1.3.58.58,0,0,1-.13.3c-.08.09-.14.16-.23.16S66,48.86,65,47.9Zm-4,0c-.83-.83-1-1.06-1-1.27s.09-.27.3-.29.45.14,1.39,1.08a7,7,0,0,1,1.13,1.3.51.51,0,0,1-.13.3c-.08.09-.14.16-.23.16S62,48.86,61,47.9Zm-4,0c-.83-.83-1-1.06-1-1.27s.09-.27.3-.29.45.14,1.39,1.08a7,7,0,0,1,1.13,1.3.58.58,0,0,1-.13.3c-.08.09-.14.16-.23.16S58,48.86,57,47.9Zm-4,0c-.83-.83-1-1.06-1-1.27s.09-.27.3-.29.45.14,1.39,1.08a7,7,0,0,1,1.13,1.3.58.58,0,0,1-.13.3c-.08.09-.14.16-.23.16S54,48.86,53,47.9Zm-4,0c-.83-.83-1-1.06-1-1.27s.09-.27.3-.29.45.14,1.39,1.08a7,7,0,0,1,1.13,1.3.58.58,0,0,1-.13.3c-.08.09-.14.16-.23.16S50,48.86,49,47.9Zm-4,0c-.83-.83-1-1.06-1-1.27s.09-.27.3-.29.45.14,1.39,1.08a7,7,0,0,1,1.13,1.3.58.58,0,0,1-.13.3c-.08.09-.14.16-.23.16S46,48.86,45,47.9Zm-4,0c-.83-.83-1-1.06-1-1.27s.09-.27.3-.29.45.14,1.39,1.08a7,7,0,0,1,1.13,1.3.58.58,0,0,1-.13.3c-.08.09-.14.16-.23.16S42,48.86,41,47.9Zm-4,0c-.83-.83-1-1.06-1-1.27s.09-.27.3-.29.45.14,1.4,1.08a7.32,7.32,0,0,1,1.12,1.3.51.51,0,0,1-.13.3c-.08.09-.14.16-.23.16S38,48.86,37,47.9Zm-4,0c-.83-.83-1-1.06-1-1.27s.09-.27.3-.29.45.14,1.39,1.08a7,7,0,0,1,1.13,1.3.51.51,0,0,1-.13.3c-.08.09-.14.16-.23.16S34,48.86,33,47.9Zm-4,0c-.83-.83-1-1.06-1-1.27s.09-.27.3-.29.45.14,1.39,1.08a7,7,0,0,1,1.13,1.3.58.58,0,0,1-.13.3c-.08.09-.14.16-.23.16S30,48.86,29,47.9Zm-4,0c-.83-.83-1-1.06-1-1.27s.09-.27.3-.29.45.14,1.39,1.08a7,7,0,0,1,1.13,1.3.58.58,0,0,1-.13.3c-.08.09-.14.16-.23.16S26,48.86,25,47.9Zm-4,0c-.83-.83-1-1.06-1-1.27s.09-.27.3-.29.45.14,1.39,1.08a7,7,0,0,1,1.13,1.3.58.58,0,0,1-.13.3c-.08.09-.14.16-.23.16S22,48.86,21,47.9Zm-4,0c-.83-.83-1-1.06-1-1.27s.09-.27.3-.29.45.14,1.39,1.08a7,7,0,0,1,1.13,1.3.58.58,0,0,1-.13.3c-.08.09-.14.16-.23.16S18,48.86,17,47.9Zm-4,0c-.83-.83-1-1.06-1-1.27s.09-.27.3-.29.45.14,1.39,1.08a7,7,0,0,1,1.13,1.3.58.58,0,0,1-.13.3c-.08.09-.14.16-.23.16S14,48.86,13,47.9Zm-4,0c-.83-.83-1-1.06-1-1.27s.09-.27.3-.29.45.14,1.39,1.08a7,7,0,0,1,1.13,1.3.58.58,0,0,1-.13.3c-.08.09-.14.16-.23.16S10,48.86,9,47.9Zm-4,0c-.83-.83-1-1.06-1-1.27s.09-.27.3-.29.45.14,1.39,1.08a7,7,0,0,1,1.13,1.3.58.58,0,0,1-.13.3c-.08.09-.14.16-.23.16S6,48.86,5,47.9Zm-4,0c-.82-.84-1-1.06-1-1.27s.09-.27.31-.29.44.14,1.39,1.08a7.38,7.38,0,0,1,1.13,1.3.58.58,0,0,1-.13.3c-.09.09-.15.16-.23.16S2,48.86,1,47.9Zm96-4c-.83-.83-1-1.06-1-1.27s.09-.27.3-.29.45.14,1.39,1.08a7,7,0,0,1,1.13,1.3.51.51,0,0,1-.13.3c-.08.09-.14.16-.23.16S98,44.86,97,43.9Zm-4,0c-.83-.83-1-1.06-1-1.27s.09-.27.3-.29.45.14,1.39,1.08a7,7,0,0,1,1.13,1.3.58.58,0,0,1-.13.3c-.08.09-.14.16-.23.16S94,44.86,93,43.9Zm-4,0c-.83-.83-1-1.06-1-1.27s.09-.27.3-.29.45.14,1.39,1.08a7,7,0,0,1,1.13,1.3.51.51,0,0,1-.13.3c-.08.09-.14.16-.23.16S90,44.86,89,43.9Zm-4,0c-.83-.83-1-1.06-1-1.27s.09-.27.3-.29.45.14,1.39,1.08a7,7,0,0,1,1.13,1.3.58.58,0,0,1-.13.3c-.08.09-.14.16-.23.16S86,44.86,85,43.9Zm-4,0c-.83-.83-1-1.06-1-1.27s.09-.27.3-.29.45.14,1.39,1.08a7,7,0,0,1,1.13,1.3.51.51,0,0,1-.13.3c-.08.09-.14.16-.23.16S82,44.86,81,43.9Zm-4,0c-.83-.83-1-1.06-1-1.27s.09-.27.3-.29.45.14,1.39,1.08a7,7,0,0,1,1.13,1.3.58.58,0,0,1-.13.3c-.08.09-.14.16-.23.16S78,44.86,77,43.9Zm-4,0c-.83-.83-1-1.06-1-1.27s.09-.27.3-.29.45.14,1.39,1.08a7,7,0,0,1,1.13,1.3.51.51,0,0,1-.13.3c-.08.09-.14.16-.23.16S74,44.86,73,43.9Zm-4,0c-.83-.83-1-1.06-1-1.27s.09-.27.3-.29.45.14,1.39,1.08a7,7,0,0,1,1.13,1.3.51.51,0,0,1-.13.3c-.08.09-.14.16-.23.16S70,44.86,69,43.9Zm-4,0c-.83-.83-1-1.06-1-1.27s.09-.27.3-.29.45.14,1.39,1.08a7,7,0,0,1,1.13,1.3.58.58,0,0,1-.13.3c-.08.09-.14.16-.23.16S66,44.86,65,43.9Zm-4,0c-.83-.83-1-1.06-1-1.27s.09-.27.3-.29.45.14,1.39,1.08a7,7,0,0,1,1.13,1.3.51.51,0,0,1-.13.3c-.08.09-.14.16-.23.16S62,44.86,61,43.9Zm-4,0c-.83-.83-1-1.06-1-1.27s.09-.27.3-.29.45.14,1.39,1.08a7,7,0,0,1,1.13,1.3.58.58,0,0,1-.13.3c-.08.09-.14.16-.23.16S58,44.86,57,43.9Zm-4,0c-.83-.83-1-1.06-1-1.27s.09-.27.3-.29.45.14,1.39,1.08a7,7,0,0,1,1.13,1.3.58.58,0,0,1-.13.3c-.08.09-.14.16-.23.16S54,44.86,53,43.9Zm-4,0c-.83-.83-1-1.06-1-1.27s.09-.27.3-.29.45.14,1.39,1.08a7,7,0,0,1,1.13,1.3.58.58,0,0,1-.13.3c-.08.09-.14.16-.23.16S50,44.86,49,43.9Zm-4,0c-.83-.83-1-1.06-1-1.27s.09-.27.3-.29.45.14,1.39,1.08a7,7,0,0,1,1.13,1.3.58.58,0,0,1-.13.3c-.08.09-.14.16-.23.16S46,44.86,45,43.9Zm-4,0c-.83-.83-1-1.06-1-1.27s.09-.27.3-.29.45.14,1.39,1.08a7,7,0,0,1,1.13,1.3.58.58,0,0,1-.13.3c-.08.09-.14.16-.23.16S42,44.86,41,43.9Zm-4,0c-.83-.83-1-1.06-1-1.27s.09-.27.3-.29.45.14,1.4,1.08a7.32,7.32,0,0,1,1.12,1.3.51.51,0,0,1-.13.3c-.08.09-.14.16-.23.16S38,44.86,37,43.9Zm-4,0c-.83-.83-1-1.06-1-1.27s.09-.27.3-.29.45.14,1.39,1.08a7,7,0,0,1,1.13,1.3.51.51,0,0,1-.13.3c-.08.09-.14.16-.23.16S34,44.86,33,43.9Zm-4,0c-.83-.83-1-1.06-1-1.27s.09-.27.3-.29.45.14,1.39,1.08a7,7,0,0,1,1.13,1.3.58.58,0,0,1-.13.3c-.08.09-.14.16-.23.16S30,44.86,29,43.9Zm-4,0c-.83-.83-1-1.06-1-1.27s.09-.27.3-.29.45.14,1.39,1.08a7,7,0,0,1,1.13,1.3.58.58,0,0,1-.13.3c-.08.09-.14.16-.23.16S26,44.86,25,43.9Zm-4,0c-.83-.83-1-1.06-1-1.27s.09-.27.3-.29.45.14,1.39,1.08a7,7,0,0,1,1.13,1.3.58.58,0,0,1-.13.3c-.08.09-.14.16-.23.16S22,44.86,21,43.9Zm-4,0c-.83-.83-1-1.06-1-1.27s.09-.27.3-.29.45.14,1.39,1.08a7,7,0,0,1,1.13,1.3.58.58,0,0,1-.13.3c-.08.09-.14.16-.23.16S18,44.86,17,43.9Zm-4,0c-.83-.83-1-1.06-1-1.27s.09-.27.3-.29.45.14,1.39,1.08a7,7,0,0,1,1.13,1.3.58.58,0,0,1-.13.3c-.08.09-.14.16-.23.16S14,44.86,13,43.9Zm-4,0c-.83-.83-1-1.06-1-1.27s.09-.27.3-.29.45.14,1.39,1.08a7,7,0,0,1,1.13,1.3.58.58,0,0,1-.13.3c-.08.09-.14.16-.23.16S10,44.86,9,43.9Zm-4,0c-.83-.83-1-1.06-1-1.27s.09-.27.3-.29.45.14,1.39,1.08a7,7,0,0,1,1.13,1.3.58.58,0,0,1-.13.3c-.08.09-.14.16-.23.16S6,44.86,5,43.9Zm-4,0c-.82-.84-1-1.06-1-1.27s.09-.27.31-.29.44.14,1.39,1.08a7.38,7.38,0,0,1,1.13,1.3.58.58,0,0,1-.13.3c-.09.09-.15.16-.23.16S2,44.86,1,43.9Zm96-4c-.83-.83-1-1.06-1-1.27s.09-.27.3-.29.45.14,1.39,1.08c.32.32.6.63.81.86,0,.27.07.55.1.82a.19.19,0,0,1-.14.07c-.17,0-.49-.31-1.47-1.27Zm-4,0c-.83-.83-1-1.06-1-1.27s.09-.27.3-.29.45.14,1.39,1.08a7,7,0,0,1,1.13,1.3.58.58,0,0,1-.13.3c-.08.09-.14.16-.23.16S94,40.86,93,39.9Zm-4,0c-.83-.83-1-1.06-1-1.27s.09-.27.3-.29.45.14,1.39,1.08a7,7,0,0,1,1.13,1.3.51.51,0,0,1-.13.3c-.08.09-.14.16-.23.16S90,40.86,89,39.9Zm-4,0c-.83-.83-1-1.06-1-1.27s.09-.27.3-.29.45.14,1.39,1.08a7,7,0,0,1,1.13,1.3.58.58,0,0,1-.13.3c-.08.09-.14.16-.23.16S86,40.86,85,39.9Zm-4,0c-.83-.83-1-1.06-1-1.27s.09-.27.3-.29.45.14,1.39,1.08a7,7,0,0,1,1.13,1.3.51.51,0,0,1-.13.3c-.08.09-.14.16-.23.16S82,40.86,81,39.9Zm-4,0c-.83-.83-1-1.06-1-1.27s.09-.27.3-.29.45.14,1.39,1.08a7,7,0,0,1,1.13,1.3.58.58,0,0,1-.13.3c-.08.09-.14.16-.23.16S78,40.86,77,39.9Zm-4,0c-.83-.83-1-1.06-1-1.27s.09-.27.3-.29.45.14,1.39,1.08a7,7,0,0,1,1.13,1.3.51.51,0,0,1-.13.3c-.08.09-.14.16-.23.16S74,40.86,73,39.9Zm-4,0c-.83-.83-1-1.06-1-1.27s.09-.27.3-.29.45.14,1.39,1.08a7,7,0,0,1,1.13,1.3.51.51,0,0,1-.13.3c-.08.09-.14.16-.23.16S70,40.86,69,39.9Zm-4,0c-.83-.83-1-1.06-1-1.27s.09-.27.3-.29.45.14,1.39,1.08a7,7,0,0,1,1.13,1.3.58.58,0,0,1-.13.3c-.08.09-.14.16-.23.16S66,40.86,65,39.9Zm-4,0c-.83-.83-1-1.06-1-1.27s.09-.27.3-.29.45.14,1.39,1.08a7,7,0,0,1,1.13,1.3.51.51,0,0,1-.13.3c-.08.09-.14.16-.23.16S62,40.86,61,39.9Zm-4,0c-.83-.83-1-1.06-1-1.27s.09-.27.3-.29.45.14,1.39,1.08a7,7,0,0,1,1.13,1.3.58.58,0,0,1-.13.3c-.08.09-.14.16-.23.16S58,40.86,57,39.9Zm-4,0c-.83-.83-1-1.06-1-1.27s.09-.27.3-.29.45.14,1.39,1.08a7,7,0,0,1,1.13,1.3.58.58,0,0,1-.13.3c-.08.09-.14.16-.23.16S54,40.86,53,39.9Zm-4,0c-.83-.83-1-1.06-1-1.27s.09-.27.3-.29.45.14,1.39,1.08a7,7,0,0,1,1.13,1.3.58.58,0,0,1-.13.3c-.08.09-.14.16-.23.16S50,40.86,49,39.9Zm-4,0c-.83-.83-1-1.06-1-1.27s.09-.27.3-.29.45.14,1.39,1.08a7,7,0,0,1,1.13,1.3.58.58,0,0,1-.13.3c-.08.09-.14.16-.23.16S46,40.86,45,39.9Zm-4,0c-.83-.83-1-1.06-1-1.27s.09-.27.3-.29.45.14,1.39,1.08a7,7,0,0,1,1.13,1.3.58.58,0,0,1-.13.3c-.08.09-.14.16-.23.16S42,40.86,41,39.9Zm-4,0c-.83-.83-1-1.06-1-1.27s.09-.27.3-.29.45.14,1.4,1.08a7.32,7.32,0,0,1,1.12,1.3.51.51,0,0,1-.13.3c-.08.09-.14.16-.23.16S38,40.86,37,39.9Zm-4,0c-.83-.83-1-1.06-1-1.27s.09-.27.3-.29.45.14,1.39,1.08a7,7,0,0,1,1.13,1.3.51.51,0,0,1-.13.3c-.08.09-.14.16-.23.16S34,40.86,33,39.9Zm-4,0c-.83-.83-1-1.06-1-1.27s.09-.27.3-.29.45.14,1.39,1.08a7,7,0,0,1,1.13,1.3.58.58,0,0,1-.13.3c-.08.09-.14.16-.23.16S30,40.86,29,39.9Zm-4,0c-.83-.83-1-1.06-1-1.27s.09-.27.3-.29.45.14,1.39,1.08a7,7,0,0,1,1.13,1.3.58.58,0,0,1-.13.3c-.08.09-.14.16-.23.16S26,40.86,25,39.9Zm-4,0c-.83-.83-1-1.06-1-1.27s.09-.27.3-.29.45.14,1.39,1.08a7,7,0,0,1,1.13,1.3.58.58,0,0,1-.13.3c-.08.09-.14.16-.23.16S22,40.86,21,39.9Zm-4,0c-.83-.83-1-1.06-1-1.27s.09-.27.3-.29.45.14,1.39,1.08a7,7,0,0,1,1.13,1.3.58.58,0,0,1-.13.3c-.08.09-.14.16-.23.16S18,40.86,17,39.9Zm-4,0c-.83-.83-1-1.06-1-1.27s.09-.27.3-.29.45.14,1.39,1.08a7,7,0,0,1,1.13,1.3.58.58,0,0,1-.13.3c-.08.09-.14.16-.23.16S14,40.86,13,39.9Zm-4,0c-.83-.83-1-1.06-1-1.27s.09-.27.3-.29.45.14,1.39,1.08a7,7,0,0,1,1.13,1.3.58.58,0,0,1-.13.3c-.08.09-.14.16-.23.16S10,40.86,9,39.9Zm-4,0c-.83-.83-1-1.06-1-1.27s.09-.27.3-.29.45.14,1.39,1.08a7,7,0,0,1,1.13,1.3.58.58,0,0,1-.13.3c-.08.09-.14.16-.23.16S6,40.86,5,39.9Zm-4,0c-.82-.84-1-1.06-1-1.27s.09-.27.31-.29.44.14,1.39,1.08a7.69,7.69,0,0,1,1.13,1.29.52.52,0,0,1-.13.3c-.09.1-.15.17-.23.17S2,40.86,1,39.9Zm92-4c-.83-.83-1-1.06-1-1.27s.09-.27.3-.29.45.14,1.39,1.08a7,7,0,0,1,1.13,1.3.58.58,0,0,1-.13.3c-.08.09-.14.16-.23.16S94,36.86,93,35.9Zm-4,0c-.83-.83-1-1.06-1-1.27s.09-.27.3-.29.45.14,1.39,1.08a7,7,0,0,1,1.13,1.3.51.51,0,0,1-.13.3c-.08.09-.14.16-.23.16S90,36.86,89,35.9Zm-4,0c-.83-.83-1-1.06-1-1.27s.09-.27.3-.29.45.14,1.39,1.08a7,7,0,0,1,1.13,1.3.58.58,0,0,1-.13.3c-.08.09-.14.16-.23.16S86,36.86,85,35.9Zm-4,0c-.83-.83-1-1.06-1-1.27s.09-.27.3-.29.45.14,1.39,1.08a7,7,0,0,1,1.13,1.3.51.51,0,0,1-.13.3c-.08.09-.14.16-.23.16S82,36.86,81,35.9Zm-4,0c-.83-.83-1-1.06-1-1.27s.09-.27.3-.29.45.14,1.39,1.08a7,7,0,0,1,1.13,1.3.58.58,0,0,1-.13.3c-.08.09-.14.16-.23.16S78,36.86,77,35.9Zm-4,0c-.83-.83-1-1.06-1-1.27s.09-.27.3-.29.45.14,1.39,1.08a7,7,0,0,1,1.13,1.3.51.51,0,0,1-.13.3c-.08.09-.14.16-.23.16S74,36.86,73,35.9Zm-4,0c-.83-.83-1-1.06-1-1.27s.09-.27.3-.29.45.14,1.39,1.08a7,7,0,0,1,1.13,1.3.51.51,0,0,1-.13.3c-.08.09-.14.16-.23.16S70,36.86,69,35.9Zm-4,0c-.83-.83-1-1.06-1-1.27s.09-.27.3-.29.45.14,1.39,1.08a7,7,0,0,1,1.13,1.3.58.58,0,0,1-.13.3c-.08.09-.14.16-.23.16S66,36.86,65,35.9Zm-4,0c-.83-.83-1-1.06-1-1.27s.09-.27.3-.29.45.14,1.39,1.08a7,7,0,0,1,1.13,1.3.51.51,0,0,1-.13.3c-.08.09-.14.16-.23.16S62,36.86,61,35.9Zm-4,0c-.83-.83-1-1.06-1-1.27s.09-.27.3-.29.45.14,1.39,1.08a7,7,0,0,1,1.13,1.3.58.58,0,0,1-.13.3c-.08.09-.14.16-.23.16S58,36.86,57,35.9Zm-4,0c-.83-.83-1-1.06-1-1.27s.09-.27.3-.29.45.14,1.39,1.08a7,7,0,0,1,1.13,1.3.58.58,0,0,1-.13.3c-.08.09-.14.16-.23.16S54,36.86,53,35.9Zm-4,0c-.83-.83-1-1.06-1-1.27s.09-.27.3-.29.45.14,1.39,1.08a7,7,0,0,1,1.13,1.3.58.58,0,0,1-.13.3c-.08.09-.14.16-.23.16S50,36.86,49,35.9Zm-4,0c-.83-.83-1-1.06-1-1.27s.09-.27.3-.29.45.14,1.39,1.08a7,7,0,0,1,1.13,1.3.58.58,0,0,1-.13.3c-.08.09-.14.16-.23.16S46,36.86,45,35.9Zm-4,0c-.83-.83-1-1.06-1-1.27s.09-.27.3-.29.45.14,1.39,1.08a7,7,0,0,1,1.13,1.3.58.58,0,0,1-.13.3c-.08.09-.14.16-.23.16S42,36.86,41,35.9Zm-4,0c-.83-.83-1-1.06-1-1.27s.09-.27.3-.29.45.14,1.4,1.08a7.32,7.32,0,0,1,1.12,1.3.51.51,0,0,1-.13.3c-.08.09-.14.16-.23.16S38,36.86,37,35.9Zm-4,0c-.83-.83-1-1.06-1-1.27s.09-.27.3-.29.45.14,1.39,1.08a7,7,0,0,1,1.13,1.3.51.51,0,0,1-.13.3c-.08.09-.14.16-.23.16S34,36.86,33,35.9Zm-4,0c-.83-.83-1-1.06-1-1.27s.09-.27.3-.29.45.14,1.39,1.08a7,7,0,0,1,1.13,1.3.58.58,0,0,1-.13.3c-.08.09-.14.16-.23.16S30,36.86,29,35.9Zm-4,0c-.83-.83-1-1.06-1-1.27s.09-.27.3-.29.45.14,1.39,1.08a7,7,0,0,1,1.13,1.3.58.58,0,0,1-.13.3c-.08.09-.14.16-.23.16S26,36.86,25,35.9Zm-4,0c-.83-.83-1-1.06-1-1.27s.09-.27.3-.29.45.14,1.39,1.08a7,7,0,0,1,1.13,1.3.58.58,0,0,1-.13.3c-.08.09-.14.16-.23.16S22,36.86,21,35.9Zm-4,0c-.83-.83-1-1.06-1-1.27s.09-.27.3-.29.45.14,1.39,1.08a7,7,0,0,1,1.13,1.3.58.58,0,0,1-.13.3c-.08.09-.14.16-.23.16S18,36.86,17,35.9Zm-4,0c-.83-.83-1-1.06-1-1.27s.09-.27.3-.29.45.14,1.39,1.08a7,7,0,0,1,1.13,1.3.58.58,0,0,1-.13.3c-.08.09-.14.16-.23.16S14,36.86,13,35.9Zm-4,0c-.83-.83-1-1.06-1-1.27s.09-.27.3-.29.45.14,1.39,1.08a7,7,0,0,1,1.13,1.3.58.58,0,0,1-.13.3c-.08.09-.14.16-.23.16S10,36.86,9,35.9Zm-4,0c-.83-.83-1-1.06-1-1.27s.09-.27.3-.29.45.14,1.39,1.08a7,7,0,0,1,1.13,1.3.58.58,0,0,1-.13.3c-.08.09-.14.16-.23.16S6,36.86,5,35.9Zm-4,0c-.36-.37-.6-.62-.76-.8l.09-.77c.23,0,.45.16,1.39,1.09a7.26,7.26,0,0,1,1.12,1.29.48.48,0,0,1-.13.3c-.08.1-.14.16-.23.16S2,36.86,1,35.9Zm96,0c-.83-.83-1-1.06-1-1.27s.09-.27.3-.29.45.14,1.39,1.08l0,0c.09.44.18.92.26,1.41l-1-1Zm-4-4c-.83-.83-1-1.06-1-1.27s.09-.27.3-.29.45.14,1.39,1.08a7,7,0,0,1,1.13,1.3.58.58,0,0,1-.13.3c-.08.09-.14.16-.23.16S94,32.86,93,31.9Zm-4,0c-.83-.83-1-1.06-1-1.27s.09-.27.3-.29.45.14,1.39,1.08a7,7,0,0,1,1.13,1.3.51.51,0,0,1-.13.3c-.08.09-.14.16-.23.16S90,32.86,89,31.9Zm-4,0c-.83-.83-1-1.06-1-1.27s.09-.27.3-.29.45.14,1.39,1.08a7,7,0,0,1,1.13,1.3.58.58,0,0,1-.13.3c-.08.09-.14.16-.23.16S86,32.86,85,31.9Zm-4,0c-.83-.83-1-1.06-1-1.27s.09-.27.3-.29.45.14,1.39,1.08a7,7,0,0,1,1.13,1.3.51.51,0,0,1-.13.3c-.08.09-.14.16-.23.16S82,32.86,81,31.9Zm-4,0c-.83-.83-1-1.06-1-1.27s.09-.27.3-.29.45.14,1.39,1.08a7,7,0,0,1,1.13,1.3.58.58,0,0,1-.13.3c-.08.09-.14.16-.23.16S78,32.86,77,31.9Zm-4,0c-.83-.83-1-1.06-1-1.27s.09-.27.3-.29.45.14,1.39,1.08a7,7,0,0,1,1.13,1.3.51.51,0,0,1-.13.3c-.08.09-.14.16-.23.16S74,32.86,73,31.9Zm-4,0c-.83-.83-1-1.06-1-1.27s.09-.27.3-.29.45.14,1.39,1.08a7,7,0,0,1,1.13,1.3.51.51,0,0,1-.13.3c-.08.09-.14.16-.23.16S70,32.86,69,31.9Zm-4,0c-.83-.83-1-1.06-1-1.27s.09-.27.3-.29.45.14,1.39,1.08a7,7,0,0,1,1.13,1.3.58.58,0,0,1-.13.3c-.08.09-.14.16-.23.16S66,32.86,65,31.9Zm-4,0c-.83-.83-1-1.06-1-1.27s.09-.27.3-.29.45.14,1.39,1.08a7,7,0,0,1,1.13,1.3.51.51,0,0,1-.13.3c-.08.09-.14.16-.23.16S62,32.86,61,31.9Zm-4,0c-.83-.83-1-1.06-1-1.27s.09-.27.3-.29.45.14,1.39,1.08a7,7,0,0,1,1.13,1.3.58.58,0,0,1-.13.3c-.08.09-.14.16-.23.16S58,32.86,57,31.9Zm-4,0c-.83-.83-1-1.06-1-1.27s.09-.27.3-.29.45.14,1.39,1.08a7,7,0,0,1,1.13,1.3.58.58,0,0,1-.13.3c-.08.09-.14.16-.23.16S54,32.86,53,31.9Zm-4,0c-.83-.83-1-1.06-1-1.27s.09-.27.3-.29.45.14,1.39,1.08a7,7,0,0,1,1.13,1.3.58.58,0,0,1-.13.3c-.08.09-.14.16-.23.16S50,32.86,49,31.9Zm-4,0c-.83-.83-1-1.06-1-1.27s.09-.27.3-.29.45.14,1.39,1.08a7,7,0,0,1,1.13,1.3.58.58,0,0,1-.13.3c-.08.09-.14.16-.23.16S46,32.86,45,31.9Zm-4,0c-.83-.83-1-1.06-1-1.27s.09-.27.3-.29.45.14,1.39,1.08a7,7,0,0,1,1.13,1.3.58.58,0,0,1-.13.3c-.08.09-.14.16-.23.16S42,32.86,41,31.9Zm-4,0c-.83-.83-1-1.06-1-1.27s.09-.27.3-.29.45.14,1.4,1.08a7.32,7.32,0,0,1,1.12,1.3.51.51,0,0,1-.13.3c-.08.09-.14.16-.23.16S38,32.86,37,31.9Zm-4,0c-.83-.83-1-1.06-1-1.27s.09-.27.3-.29.45.14,1.39,1.08a7,7,0,0,1,1.13,1.3.51.51,0,0,1-.13.3c-.08.09-.14.16-.23.16S34,32.86,33,31.9Zm-4,0c-.83-.83-1-1.06-1-1.27s.09-.27.3-.29.45.14,1.39,1.08a7,7,0,0,1,1.13,1.3.58.58,0,0,1-.13.3c-.08.09-.14.16-.23.16S30,32.86,29,31.9Zm-4,0c-.83-.83-1-1.06-1-1.27s.09-.27.3-.29.45.14,1.39,1.08a7,7,0,0,1,1.13,1.3.58.58,0,0,1-.13.3c-.08.09-.14.16-.23.16S26,32.86,25,31.9Zm-4,0c-.83-.83-1-1.06-1-1.27s.09-.27.3-.29.45.14,1.39,1.08a7,7,0,0,1,1.13,1.3.58.58,0,0,1-.13.3c-.08.09-.14.16-.23.16S22,32.86,21,31.9Zm-4,0c-.83-.83-1-1.06-1-1.27s.09-.27.3-.29.45.14,1.39,1.08a7,7,0,0,1,1.13,1.3.58.58,0,0,1-.13.3c-.08.09-.14.16-.23.16S18,32.86,17,31.9Zm-4,0c-.83-.83-1-1.06-1-1.27s.09-.27.3-.29.45.14,1.39,1.08a7,7,0,0,1,1.13,1.3.58.58,0,0,1-.13.3c-.08.09-.14.16-.23.16S14,32.86,13,31.9Zm-4,0c-.83-.83-1-1.06-1-1.27s.09-.27.3-.29.45.14,1.39,1.08a7,7,0,0,1,1.13,1.3.58.58,0,0,1-.13.3c-.08.09-.14.16-.23.16S10,32.86,9,31.9Zm-4,0c-.83-.83-1-1.06-1-1.27s.09-.27.3-.29.45.14,1.39,1.08a7,7,0,0,1,1.13,1.3.58.58,0,0,1-.13.3c-.08.09-.14.16-.23.16S6,32.86,5,31.9Zm-4,0L.7,31.61c.05-.33.11-.66.17-1,.19.17.45.42.82.8a6.62,6.62,0,0,1,1.13,1.29.58.58,0,0,1-.13.3c-.08.1-.14.16-.23.16S2,32.86,1,31.9Zm95-1.27c0-.2.09-.27.31-.29a.35.35,0,0,1,.26.06l.36,1.45C96.15,31.05,96,30.84,96,30.63ZM93,27.9c-.84-.83-1-1.06-1-1.27s.09-.28.31-.29.44.14,1.39,1.08a7.69,7.69,0,0,1,1.13,1.29.52.52,0,0,1-.13.3c-.09.1-.15.17-.23.17S94,28.86,93,27.9Zm-4,0c-.84-.83-1-1.06-1-1.27s.09-.28.31-.29.44.14,1.39,1.08a7.26,7.26,0,0,1,1.13,1.29.52.52,0,0,1-.13.3c-.09.1-.15.17-.23.17S90,28.86,89,27.9Zm-4,0c-.84-.83-1-1.06-1-1.27s.09-.28.31-.29.44.14,1.39,1.08a7.69,7.69,0,0,1,1.13,1.29.52.52,0,0,1-.13.3c-.09.1-.15.17-.23.17S86,28.86,85,27.9Zm-4,0c-.84-.83-1-1.06-1-1.27s.09-.28.31-.29.44.14,1.39,1.08a7.26,7.26,0,0,1,1.13,1.29.52.52,0,0,1-.13.3c-.09.1-.15.17-.23.17S82,28.86,81,27.9Zm-4,0c-.84-.83-1-1.06-1-1.27s.09-.28.31-.29.44.14,1.39,1.08a7.69,7.69,0,0,1,1.13,1.29.52.52,0,0,1-.13.3c-.09.1-.15.17-.23.17S78,28.86,77,27.9Zm-4,0c-.84-.83-1-1.06-1-1.27s.09-.28.31-.29.44.14,1.39,1.08a7.26,7.26,0,0,1,1.13,1.29.52.52,0,0,1-.13.3c-.09.1-.15.17-.23.17S74,28.86,73,27.9Zm-4,0c-.84-.83-1-1.06-1-1.27s.09-.28.31-.29.44.14,1.39,1.08a7.69,7.69,0,0,1,1.13,1.29.54.54,0,0,1-.13.3c-.09.1-.14.17-.23.17S70,28.86,69,27.9Zm-4,0c-.84-.83-1-1.06-1-1.27s.09-.28.31-.29.44.14,1.39,1.08a7.69,7.69,0,0,1,1.13,1.29.52.52,0,0,1-.13.3c-.09.1-.15.17-.23.17S66,28.86,65,27.9Zm-4,0c-.84-.83-1-1.06-1-1.27s.09-.28.31-.29.44.14,1.39,1.08a7.26,7.26,0,0,1,1.13,1.29.52.52,0,0,1-.13.3c-.09.1-.15.17-.23.17S62,28.86,61,27.9Zm-4,0c-.84-.83-1-1.06-1-1.27s.09-.28.31-.29.44.14,1.39,1.08a7.69,7.69,0,0,1,1.13,1.29.52.52,0,0,1-.13.3c-.09.1-.15.17-.23.17S58,28.86,57,27.9Zm-4,0c-.84-.83-1-1.06-1-1.27s.09-.28.31-.29.44.14,1.39,1.08a7.69,7.69,0,0,1,1.13,1.29.52.52,0,0,1-.13.3c-.09.1-.15.17-.23.17S54,28.86,53,27.9Zm-4,0c-.84-.83-1-1.06-1-1.27s.09-.28.31-.29.44.14,1.39,1.08a7.69,7.69,0,0,1,1.13,1.29.52.52,0,0,1-.13.3c-.09.1-.14.17-.23.17S50,28.86,49,27.9Zm-4,0c-.84-.83-1-1.06-1-1.27s.09-.28.31-.29.44.14,1.39,1.08a7.69,7.69,0,0,1,1.13,1.29.52.52,0,0,1-.13.3c-.09.1-.15.17-.23.17S46,28.86,45,27.9Zm-4,0c-.84-.83-1-1.06-1-1.27s.09-.28.31-.29.44.14,1.39,1.08a7.69,7.69,0,0,1,1.13,1.29.52.52,0,0,1-.13.3c-.09.1-.14.17-.23.17S42,28.86,41,27.9Zm-4,0c-.84-.83-1-1.06-1-1.27s.09-.28.31-.29.44.14,1.39,1.08a7.26,7.26,0,0,1,1.13,1.29.52.52,0,0,1-.13.3c-.09.1-.14.17-.23.17S38,28.86,37,27.9Zm-4,0c-.84-.83-1-1.06-1-1.27s.09-.28.31-.29.44.14,1.39,1.08a7.69,7.69,0,0,1,1.13,1.29.54.54,0,0,1-.13.3c-.09.1-.14.17-.23.17S34,28.86,33,27.9Zm-4,0c-.84-.83-1-1.06-1-1.27s.09-.28.31-.29.44.14,1.39,1.08a7.69,7.69,0,0,1,1.13,1.29.52.52,0,0,1-.13.3c-.09.1-.15.17-.23.17S30,28.86,29,27.9Zm-4,0c-.84-.83-1-1.06-1-1.27s.09-.28.31-.29.44.14,1.39,1.08a7.69,7.69,0,0,1,1.13,1.29.52.52,0,0,1-.13.3c-.09.1-.15.17-.23.17S26,28.86,25,27.9Zm-4,0c-.84-.83-1-1.06-1-1.27s.09-.28.31-.29.44.14,1.39,1.08a7.69,7.69,0,0,1,1.13,1.29.52.52,0,0,1-.13.3c-.09.1-.15.17-.23.17S22,28.86,21,27.9Zm-4,0c-.84-.83-1-1.06-1-1.27s.09-.28.31-.29.44.14,1.39,1.08a7.69,7.69,0,0,1,1.13,1.29.52.52,0,0,1-.13.3c-.09.1-.15.17-.23.17S18,28.86,17,27.9Zm-4,0c-.84-.83-1-1.06-1-1.27s.09-.28.31-.29.44.14,1.39,1.08a7.69,7.69,0,0,1,1.13,1.29.52.52,0,0,1-.13.3c-.09.1-.15.17-.23.17S14,28.86,13,27.9Zm-4,0c-.84-.83-1-1.06-1-1.27s.09-.28.31-.29.44.14,1.39,1.08a7.69,7.69,0,0,1,1.13,1.29.52.52,0,0,1-.13.3c-.09.1-.15.17-.23.17S10,28.86,9,27.9Zm-4,0c-.84-.83-1-1.06-1-1.27s.09-.28.31-.29.44.14,1.39,1.08a7.69,7.69,0,0,1,1.13,1.29.52.52,0,0,1-.13.3c-.09.1-.15.17-.23.17S6,28.86,5,27.9Zm-3.64.36c.07-.33.15-.65.22-1l.13.12a7.69,7.69,0,0,1,1.13,1.29.52.52,0,0,1-.13.3c-.09.1-.15.17-.23.17s-.42-.24-1.12-.93ZM93,23.9c-.84-.83-1-1.06-1-1.27s.09-.28.31-.29.44.14,1.39,1.08a7.69,7.69,0,0,1,1.13,1.29.52.52,0,0,1-.13.3c-.09.1-.15.17-.23.17S94,24.86,93,23.9Zm-4,0c-.84-.83-1-1.06-1-1.27s.09-.28.31-.29.44.14,1.39,1.08a7.69,7.69,0,0,1,1.13,1.29.52.52,0,0,1-.13.3c-.09.1-.15.17-.23.17S90,24.86,89,23.9Zm-4,0c-.84-.83-1-1.06-1-1.27s.09-.28.31-.29.44.14,1.39,1.08a7.69,7.69,0,0,1,1.13,1.29.52.52,0,0,1-.13.3c-.09.1-.15.17-.23.17S86,24.86,85,23.9Zm-4,0c-.84-.83-1-1.06-1-1.27s.09-.28.31-.29.44.14,1.39,1.08a7.69,7.69,0,0,1,1.13,1.29.52.52,0,0,1-.13.3c-.09.1-.15.17-.23.17S82,24.86,81,23.9Zm-4,0c-.84-.83-1-1.06-1-1.27s.09-.28.31-.29.44.14,1.39,1.08a7.69,7.69,0,0,1,1.13,1.29.52.52,0,0,1-.13.3c-.09.1-.15.17-.23.17S78,24.86,77,23.9Zm-4,0c-.84-.83-1-1.06-1-1.27s.09-.28.31-.29.44.14,1.39,1.08a7.26,7.26,0,0,1,1.13,1.29.52.52,0,0,1-.13.3c-.09.1-.15.17-.23.17S74,24.86,73,23.9Zm-4,0c-.84-.83-1-1.06-1-1.27s.09-.28.31-.29.44.14,1.39,1.08a7.69,7.69,0,0,1,1.13,1.29.52.52,0,0,1-.13.3c-.09.1-.14.17-.23.17S70,24.86,69,23.9Zm-4,0c-.84-.83-1-1.06-1-1.27s.09-.28.31-.29.44.14,1.39,1.08a7.69,7.69,0,0,1,1.13,1.29.52.52,0,0,1-.13.3c-.09.1-.15.17-.23.17S66,24.86,65,23.9Zm-4,0c-.84-.83-1-1.06-1-1.27s.09-.28.31-.29.44.14,1.39,1.08a7.69,7.69,0,0,1,1.13,1.29.52.52,0,0,1-.13.3c-.09.1-.15.17-.23.17S62,24.86,61,23.9Zm-4,0c-.84-.83-1-1.06-1-1.27s.09-.28.31-.29.44.14,1.39,1.08a7.69,7.69,0,0,1,1.13,1.29.52.52,0,0,1-.13.3c-.09.1-.15.17-.23.17S58,24.86,57,23.9Zm-4,0c-.84-.83-1-1.06-1-1.27s.09-.28.31-.29.44.14,1.39,1.08a7.69,7.69,0,0,1,1.13,1.29.52.52,0,0,1-.13.3c-.09.1-.15.17-.23.17S54,24.86,53,23.9Zm-4,0c-.84-.83-1-1.06-1-1.27s.09-.28.31-.29.44.14,1.39,1.08a7.69,7.69,0,0,1,1.13,1.29.52.52,0,0,1-.13.3c-.09.1-.15.17-.23.17S50,24.86,49,23.9Zm-4,0c-.84-.83-1-1.06-1-1.27s.09-.28.31-.29.44.14,1.39,1.08a7.69,7.69,0,0,1,1.13,1.29.52.52,0,0,1-.13.3c-.09.1-.15.17-.23.17S46,24.86,45,23.9Zm-4,0c-.84-.83-1-1.06-1-1.27s.09-.28.31-.29.44.14,1.39,1.08a7.69,7.69,0,0,1,1.13,1.29.52.52,0,0,1-.13.3c-.09.1-.15.17-.23.17S42,24.86,41,23.9Zm-4,0c-.84-.83-1-1.06-1-1.27s.09-.28.31-.29.44.14,1.39,1.08a7.26,7.26,0,0,1,1.13,1.29.52.52,0,0,1-.13.3c-.09.1-.14.17-.23.17S38,24.86,37,23.9Zm-4,0c-.84-.83-1-1.06-1-1.27s.09-.28.31-.29.44.14,1.39,1.08a7.69,7.69,0,0,1,1.13,1.29.52.52,0,0,1-.13.3c-.09.1-.14.17-.23.17S34,24.86,33,23.9Zm-4,0c-.84-.83-1-1.06-1-1.27s.09-.28.31-.29.44.14,1.39,1.08a7.69,7.69,0,0,1,1.13,1.29.52.52,0,0,1-.13.3c-.09.1-.15.17-.23.17S30,24.86,29,23.9Zm-4,0c-.84-.83-1-1.06-1-1.27s.09-.28.31-.29.44.14,1.39,1.08a7.69,7.69,0,0,1,1.13,1.29.52.52,0,0,1-.13.3c-.09.1-.15.17-.23.17S26,24.86,25,23.9Zm-4,0c-.84-.83-1-1.06-1-1.27s.09-.28.31-.29.44.14,1.39,1.08a7.69,7.69,0,0,1,1.13,1.29.52.52,0,0,1-.13.3c-.09.1-.15.17-.23.17S22,24.86,21,23.9Zm-4,0c-.84-.83-1-1.06-1-1.27s.09-.28.31-.29.44.14,1.39,1.08a7.69,7.69,0,0,1,1.13,1.29.52.52,0,0,1-.13.3c-.09.1-.15.17-.23.17S18,24.86,17,23.9Zm-4,0c-.84-.83-1-1.06-1-1.27s.09-.28.31-.29.44.14,1.39,1.08a7.69,7.69,0,0,1,1.13,1.29.52.52,0,0,1-.13.3c-.09.1-.15.17-.23.17S14,24.86,13,23.9Zm-4,0c-.84-.83-1-1.06-1-1.27s.09-.28.31-.29.44.14,1.39,1.08a7.69,7.69,0,0,1,1.13,1.29.52.52,0,0,1-.13.3c-.09.1-.15.17-.23.17S10,24.86,9,23.9Zm-4,0c-.84-.83-1-1.06-1-1.27s.09-.28.31-.29.44.14,1.39,1.08a7.69,7.69,0,0,1,1.13,1.29.52.52,0,0,1-.13.3c-.09.1-.15.17-.23.17S6,24.86,5,23.9ZM2.19,25c.08-.28.16-.55.25-.83a1.92,1.92,0,0,1,.39.51.52.52,0,0,1-.13.3c-.09.1-.14.17-.23.17A.48.48,0,0,1,2.19,25ZM89,19.9c-.84-.83-1-1.06-1-1.27s.09-.28.31-.29.44.14,1.39,1.08a7,7,0,0,1,1.13,1.3.58.58,0,0,1-.13.3c-.09.09-.15.16-.23.16S90,20.86,89,19.9Zm-4,0c-.84-.83-1-1.06-1-1.27s.09-.28.31-.29.44.14,1.39,1.08a7.38,7.38,0,0,1,1.13,1.3.58.58,0,0,1-.13.3c-.09.09-.15.16-.23.16S86,20.86,85,19.9Zm-4,0c-.84-.83-1-1.06-1-1.27s.09-.28.31-.29.44.14,1.39,1.08a7,7,0,0,1,1.13,1.3.58.58,0,0,1-.13.3c-.09.09-.15.16-.23.16S82,20.86,81,19.9Zm-4,0c-.84-.83-1-1.06-1-1.27s.09-.28.31-.29.44.14,1.39,1.08a7.38,7.38,0,0,1,1.13,1.3.58.58,0,0,1-.13.3c-.09.09-.15.16-.23.16S78,20.86,77,19.9Zm-4,0c-.84-.83-1-1.06-1-1.27s.09-.28.31-.29.44.14,1.39,1.08a7,7,0,0,1,1.13,1.3.58.58,0,0,1-.13.3c-.09.09-.15.16-.23.16S74,20.86,73,19.9Zm-4,0c-.84-.83-1-1.06-1-1.27s.09-.28.31-.29.44.14,1.39,1.08a7.38,7.38,0,0,1,1.13,1.3.58.58,0,0,1-.13.3c-.09.09-.14.16-.23.16S70,20.86,69,19.9Zm-4,0c-.84-.83-1-1.06-1-1.27s.09-.28.31-.29.44.14,1.39,1.08a7.38,7.38,0,0,1,1.13,1.3.58.58,0,0,1-.13.3c-.09.09-.15.16-.23.16S66,20.86,65,19.9Zm-4,0c-.84-.83-1-1.06-1-1.27s.09-.28.31-.29.44.14,1.39,1.08a7,7,0,0,1,1.13,1.3.58.58,0,0,1-.13.3c-.09.09-.15.16-.23.16S62,20.86,61,19.9Zm-4,0c-.84-.83-1-1.06-1-1.27s.09-.28.31-.29.44.14,1.39,1.08a7.38,7.38,0,0,1,1.13,1.3.58.58,0,0,1-.13.3c-.09.09-.15.16-.23.16S58,20.86,57,19.9Zm-4,0c-.84-.83-1-1.06-1-1.27s.09-.28.31-.29.44.14,1.39,1.08a7.38,7.38,0,0,1,1.13,1.3.58.58,0,0,1-.13.3c-.09.09-.15.16-.23.16S54,20.86,53,19.9Zm-4,0c-.84-.83-1-1.06-1-1.27s.09-.28.31-.29.44.14,1.39,1.08a7.38,7.38,0,0,1,1.13,1.3.58.58,0,0,1-.13.3c-.09.09-.14.16-.23.16S50,20.86,49,19.9Zm-4,0c-.84-.83-1-1.06-1-1.27s.09-.28.31-.29.44.14,1.39,1.08a7.38,7.38,0,0,1,1.13,1.3.58.58,0,0,1-.13.3c-.09.09-.15.16-.23.16S46,20.86,45,19.9Zm-4,0c-.84-.83-1-1.06-1-1.27s.09-.28.31-.29.44.14,1.39,1.08a7.38,7.38,0,0,1,1.13,1.3.58.58,0,0,1-.13.3c-.09.09-.14.16-.23.16S42,20.86,41,19.9Zm-4,0c-.84-.83-1-1.06-1-1.27s.09-.28.31-.29.44.14,1.39,1.08a7,7,0,0,1,1.13,1.3.58.58,0,0,1-.13.3c-.09.09-.14.16-.23.16S38,20.86,37,19.9Zm-4,0c-.84-.83-1-1.06-1-1.27s.09-.28.31-.29.44.14,1.39,1.08a7.38,7.38,0,0,1,1.13,1.3.58.58,0,0,1-.13.3c-.09.09-.14.16-.23.16S34,20.86,33,19.9Zm-4,0c-.84-.83-1-1.06-1-1.27s.09-.28.31-.29.44.14,1.39,1.08a7.38,7.38,0,0,1,1.13,1.3.58.58,0,0,1-.13.3c-.09.09-.15.16-.23.16S30,20.86,29,19.9Zm-4,0c-.84-.83-1-1.06-1-1.27s.09-.28.31-.29.44.14,1.39,1.08a7.38,7.38,0,0,1,1.13,1.3.58.58,0,0,1-.13.3c-.09.09-.15.16-.23.16S26,20.86,25,19.9Zm-4,0c-.84-.83-1-1.06-1-1.27s.09-.28.31-.29.44.14,1.39,1.08a7.38,7.38,0,0,1,1.13,1.3.58.58,0,0,1-.13.3c-.09.09-.15.16-.23.16S22,20.86,21,19.9Zm-4,0c-.84-.83-1-1.06-1-1.27s.09-.28.31-.29.44.14,1.39,1.08a7.38,7.38,0,0,1,1.13,1.3.58.58,0,0,1-.13.3c-.09.09-.15.16-.23.16S18,20.86,17,19.9Zm-4,0c-.84-.83-1-1.06-1-1.27s.09-.28.31-.29.44.14,1.39,1.08a7.38,7.38,0,0,1,1.13,1.3.58.58,0,0,1-.13.3c-.09.09-.15.16-.23.16S14,20.86,13,19.9Zm-4,0c-.84-.83-1-1.06-1-1.27s.09-.28.31-.29.44.14,1.39,1.08a7.38,7.38,0,0,1,1.13,1.3.58.58,0,0,1-.13.3c-.09.09-.15.16-.23.16S10,20.86,9,19.9Zm-4,0c-.25-.24-.44-.44-.58-.59.12-.26.25-.5.39-.75.2.17.47.44.9.86a8.16,8.16,0,0,1,1.13,1.29.53.53,0,0,1-.14.3c-.08.1-.14.17-.22.17S6,20.86,5,19.9Zm88,0c-.84-.83-1-1.06-1-1.27s.09-.28.31-.29h0c.25.54.49,1.09.73,1.65Zm-4-4c-.84-.83-1-1.06-1-1.27s.09-.28.31-.3.44.15,1.39,1.09a7.69,7.69,0,0,1,1.13,1.29.52.52,0,0,1-.13.3c-.09.1-.15.17-.23.17S90,16.86,89,15.9Zm-4,0c-.84-.83-1-1.06-1-1.27s.09-.28.31-.3.44.15,1.39,1.09a7.69,7.69,0,0,1,1.13,1.29.52.52,0,0,1-.13.3c-.09.1-.15.17-.23.17S86,16.86,85,15.9Zm-4,0c-.84-.83-1-1.06-1-1.27s.09-.28.31-.3.44.15,1.39,1.09a7.69,7.69,0,0,1,1.13,1.29.52.52,0,0,1-.13.3c-.09.1-.15.17-.23.17S82,16.86,81,15.9Zm-4,0c-.84-.83-1-1.06-1-1.27s.09-.28.31-.3.44.15,1.39,1.09a7.69,7.69,0,0,1,1.13,1.29.52.52,0,0,1-.13.3c-.09.1-.15.17-.23.17S78,16.86,77,15.9Zm-4,0c-.84-.83-1-1.06-1-1.27s.09-.28.31-.3.44.15,1.39,1.09a7.26,7.26,0,0,1,1.13,1.29.52.52,0,0,1-.13.3c-.09.1-.15.17-.23.17S74,16.86,73,15.9Zm-4,0c-.84-.83-1-1.06-1-1.27s.09-.28.31-.3.44.15,1.39,1.09a7.69,7.69,0,0,1,1.13,1.29.52.52,0,0,1-.13.3c-.09.1-.14.17-.23.17S70,16.86,69,15.9Zm-4,0c-.84-.83-1-1.06-1-1.27s.09-.28.31-.3.44.15,1.39,1.09a7.69,7.69,0,0,1,1.13,1.29.52.52,0,0,1-.13.3c-.09.1-.15.17-.23.17S66,16.86,65,15.9Zm-4,0c-.84-.83-1-1.06-1-1.27s.09-.28.31-.3.44.15,1.39,1.09a7.69,7.69,0,0,1,1.13,1.29.52.52,0,0,1-.13.3c-.09.1-.15.17-.23.17S62,16.86,61,15.9Zm-4,0c-.84-.83-1-1.06-1-1.27s.09-.28.31-.3.44.15,1.39,1.09a7.69,7.69,0,0,1,1.13,1.29.52.52,0,0,1-.13.3c-.09.1-.15.17-.23.17S58,16.86,57,15.9Zm-4,0c-.84-.83-1-1.06-1-1.27s.09-.28.31-.3.44.15,1.39,1.09a7.69,7.69,0,0,1,1.13,1.29.52.52,0,0,1-.13.3c-.09.1-.15.17-.23.17S54,16.86,53,15.9Zm-4,0c-.84-.83-1-1.06-1-1.27s.09-.28.31-.3.44.15,1.39,1.09a7.69,7.69,0,0,1,1.13,1.29.52.52,0,0,1-.13.3c-.09.1-.15.17-.23.17S50,16.86,49,15.9Zm-4,0c-.84-.83-1-1.06-1-1.27s.09-.28.31-.3.44.15,1.39,1.09a7.69,7.69,0,0,1,1.13,1.29.52.52,0,0,1-.13.3c-.09.1-.15.17-.23.17S46,16.86,45,15.9Zm-4,0c-.84-.83-1-1.06-1-1.27s.09-.28.31-.3.44.15,1.39,1.09a7.69,7.69,0,0,1,1.13,1.29.52.52,0,0,1-.13.3c-.09.1-.15.17-.23.17S42,16.86,41,15.9Zm-4,0c-.84-.83-1-1.06-1-1.27s.09-.28.31-.3.44.15,1.39,1.09a7.26,7.26,0,0,1,1.13,1.29.52.52,0,0,1-.13.3c-.09.1-.14.17-.23.17S38,16.86,37,15.9Zm-4,0c-.84-.83-1-1.06-1-1.27s.09-.28.31-.3.44.15,1.39,1.09a7.69,7.69,0,0,1,1.13,1.29.52.52,0,0,1-.13.3c-.09.1-.14.17-.23.17S34,16.86,33,15.9Zm-4,0c-.84-.83-1-1.06-1-1.27s.09-.28.31-.3.44.15,1.39,1.09a7.69,7.69,0,0,1,1.13,1.29.52.52,0,0,1-.13.3c-.09.1-.15.17-.23.17S30,16.86,29,15.9Zm-4,0c-.84-.83-1-1.06-1-1.27s.09-.28.31-.3.44.15,1.39,1.09a7.69,7.69,0,0,1,1.13,1.29.52.52,0,0,1-.13.3c-.09.1-.15.17-.23.17S26,16.86,25,15.9Zm-4,0c-.84-.83-1-1.06-1-1.27s.09-.28.31-.3.44.15,1.39,1.09a7.69,7.69,0,0,1,1.13,1.29.52.52,0,0,1-.13.3c-.09.1-.15.17-.23.17S22,16.86,21,15.9Zm-4,0c-.84-.83-1-1.06-1-1.27s.09-.28.31-.3.44.15,1.39,1.09a7.69,7.69,0,0,1,1.13,1.29.52.52,0,0,1-.13.3c-.09.1-.15.17-.23.17S18,16.86,17,15.9Zm-4,0c-.84-.83-1-1.06-1-1.27s.09-.28.31-.3.44.15,1.39,1.09a7.69,7.69,0,0,1,1.13,1.29.52.52,0,0,1-.13.3c-.09.1-.15.17-.23.17S14,16.86,13,15.9Zm-4,0c-.84-.83-1-1.06-1-1.27s.09-.28.31-.3.44.15,1.39,1.09a7.69,7.69,0,0,1,1.13,1.29.52.52,0,0,1-.13.3c-.09.1-.15.17-.23.17S10,16.86,9,15.9Zm-3.11.87c.15-.23.31-.46.46-.67a2.58,2.58,0,0,1,.49.61.52.52,0,0,1-.13.3c-.09.1-.15.17-.23.17s-.27-.12-.59-.42ZM85,11.9c-.83-.84-1-1.06-1-1.27s.1-.28.31-.3.45.14,1.39,1.09a6.93,6.93,0,0,1,1.13,1.29.54.54,0,0,1-.13.3c-.09.1-.14.16-.23.16S86,12.86,85,11.9Zm-4,0c-.83-.84-1-1.06-1-1.27s.1-.28.31-.3.45.14,1.39,1.09a6.93,6.93,0,0,1,1.13,1.29.54.54,0,0,1-.13.3c-.08.1-.14.16-.23.16S82,12.86,81,11.9Zm-4,0c-.83-.84-1-1.06-1-1.27s.1-.28.31-.3.45.14,1.39,1.09a6.93,6.93,0,0,1,1.13,1.29.54.54,0,0,1-.13.3c-.09.1-.14.16-.23.16S78,12.86,77,11.9Zm-4,0c-.83-.84-1-1.06-1-1.27s.1-.28.31-.3.45.14,1.39,1.09a6.93,6.93,0,0,1,1.13,1.29.54.54,0,0,1-.13.3c-.08.1-.14.16-.23.16S74,12.86,73,11.9Zm-4,0c-.83-.84-1-1.06-1-1.27s.1-.28.31-.3.45.14,1.39,1.09a6.93,6.93,0,0,1,1.13,1.29.54.54,0,0,1-.13.3c-.08.1-.14.16-.23.16S70,12.86,69,11.9Zm-4,0c-.83-.84-1-1.06-1-1.27s.1-.28.31-.3.45.14,1.39,1.09a6.93,6.93,0,0,1,1.13,1.29.54.54,0,0,1-.13.3c-.09.1-.14.16-.23.16S66,12.86,65,11.9Zm-4,0c-.83-.84-1-1.06-1-1.27s.1-.28.31-.3.45.14,1.39,1.09a6.93,6.93,0,0,1,1.13,1.29.54.54,0,0,1-.13.3c-.08.1-.14.16-.23.16S62,12.86,61,11.9Zm-4,0c-.83-.84-1-1.06-1-1.27s.1-.28.31-.3.45.14,1.39,1.09a6.93,6.93,0,0,1,1.13,1.29.54.54,0,0,1-.13.3c-.09.1-.14.16-.23.16S58,12.86,57,11.9Zm-4,0c-.83-.84-1-1.06-1-1.27s.1-.28.31-.3.45.14,1.39,1.09a6.93,6.93,0,0,1,1.13,1.29.54.54,0,0,1-.13.3c-.08.1-.14.16-.23.16S54,12.86,53,11.9Zm-4,0c-.83-.84-1-1.06-1-1.27s.09-.28.31-.3.45.14,1.39,1.09a6.93,6.93,0,0,1,1.13,1.29.54.54,0,0,1-.13.3c-.08.1-.14.16-.23.16S50,12.86,49,11.9Zm-4,0c-.83-.84-1-1.06-1-1.27s.1-.28.31-.3.45.14,1.39,1.09a6.93,6.93,0,0,1,1.13,1.29.54.54,0,0,1-.13.3c-.08.1-.14.16-.23.16S46,12.86,45,11.9Zm-4,0c-.83-.84-1-1.06-1-1.27s.09-.28.31-.3.45.14,1.39,1.09a6.93,6.93,0,0,1,1.13,1.29.54.54,0,0,1-.13.3c-.08.1-.14.16-.23.16S42,12.86,41,11.9Zm-4,0c-.83-.84-1-1.06-1-1.27s.1-.28.31-.3.45.14,1.39,1.09a6.93,6.93,0,0,1,1.13,1.29.54.54,0,0,1-.13.3c-.08.1-.14.16-.23.16S38,12.86,37,11.9Zm-4,0c-.83-.84-1-1.06-1-1.27s.1-.28.31-.3.45.14,1.39,1.09a6.93,6.93,0,0,1,1.13,1.29.54.54,0,0,1-.13.3c-.08.1-.14.16-.23.16S34,12.86,33,11.9Zm-4,0c-.83-.84-1-1.06-1-1.27s.09-.28.31-.3.45.14,1.39,1.09a6.93,6.93,0,0,1,1.13,1.29.54.54,0,0,1-.13.3c-.08.1-.14.16-.23.16S30,12.86,29,11.9Zm-4,0c-.83-.84-1-1.06-1-1.27s.1-.28.31-.3.45.14,1.39,1.09a6.93,6.93,0,0,1,1.13,1.29.54.54,0,0,1-.13.3c-.08.1-.14.16-.23.16S26,12.86,25,11.9Zm-4,0c-.83-.84-1-1.06-1-1.27s.09-.28.31-.3.45.14,1.39,1.09a6.93,6.93,0,0,1,1.13,1.29.54.54,0,0,1-.13.3c-.09.1-.14.16-.23.16S22,12.86,21,11.9Zm-4,0c-.83-.84-1-1.06-1-1.27s.1-.28.31-.3.45.14,1.39,1.09a6.93,6.93,0,0,1,1.13,1.29.54.54,0,0,1-.13.3c-.09.1-.14.16-.23.16S18,12.86,17,11.9Zm-4,0c-.66-.66-.91-.94-1-1.13l.55-.38a7.9,7.9,0,0,1,1.13,1,6.93,6.93,0,0,1,1.13,1.29.54.54,0,0,1-.13.3c-.09.1-.14.16-.23.16S14,12.86,13,11.9Zm-3.32.66c.2-.17.41-.35.63-.52a2.85,2.85,0,0,1,.53.67.54.54,0,0,1-.13.3c-.09.1-.14.16-.23.16S10.14,13,9.67,12.56ZM85,7.9A10.52,10.52,0,0,1,84.14,7l.24.2a18.89,18.89,0,0,1,2.11,2h0C86.28,9.17,86,8.86,85,7.9Zm-4,0c-.83-.84-1-1.06-1-1.27s.1-.28.31-.3.45.14,1.39,1.09a6.93,6.93,0,0,1,1.13,1.29.54.54,0,0,1-.13.3c-.08.1-.14.16-.23.16S82,8.86,81,7.9Zm-4,0c-.83-.84-1-1.06-1-1.27s.1-.28.31-.3.45.14,1.39,1.09a6.93,6.93,0,0,1,1.13,1.29.54.54,0,0,1-.13.3c-.09.1-.14.16-.23.16S78,8.86,77,7.9Zm-4,0c-.83-.84-1-1.06-1-1.27s.1-.28.31-.3.45.14,1.39,1.09a6.93,6.93,0,0,1,1.13,1.29.54.54,0,0,1-.13.3c-.08.1-.14.16-.23.16S74,8.86,73,7.9Zm-4,0c-.83-.84-1-1.06-1-1.27s.1-.28.31-.3.45.14,1.39,1.09a6.93,6.93,0,0,1,1.13,1.29.54.54,0,0,1-.13.3c-.08.1-.14.16-.23.16S70,8.86,69,7.9Zm-4,0c-.83-.84-1-1.06-1-1.27s.1-.28.31-.3.45.14,1.39,1.09a6.93,6.93,0,0,1,1.13,1.29.54.54,0,0,1-.13.3c-.09.1-.14.16-.23.16S66,8.86,65,7.9Zm-4,0c-.83-.84-1-1.06-1-1.27s.1-.28.31-.3.45.14,1.39,1.09a6.93,6.93,0,0,1,1.13,1.29.54.54,0,0,1-.13.3c-.08.1-.14.16-.23.16S62,8.86,61,7.9Zm-4,0c-.83-.84-1-1.06-1-1.27s.1-.28.31-.3.45.14,1.39,1.09a6.93,6.93,0,0,1,1.13,1.29.54.54,0,0,1-.13.3c-.09.1-.14.16-.23.16S58,8.86,57,7.9Zm-4,0c-.83-.84-1-1.06-1-1.27s.1-.28.31-.3.45.14,1.39,1.09a6.93,6.93,0,0,1,1.13,1.29.54.54,0,0,1-.13.3c-.08.1-.14.16-.23.16S54,8.86,53,7.9Zm-4,0c-.83-.84-1-1.06-1-1.27s.09-.28.31-.3.45.14,1.39,1.09a6.93,6.93,0,0,1,1.13,1.29.54.54,0,0,1-.13.3c-.08.1-.14.16-.23.16S50,8.86,49,7.9Zm-4,0c-.83-.84-1-1.06-1-1.27s.1-.28.31-.3.45.14,1.39,1.09a6.93,6.93,0,0,1,1.13,1.29.54.54,0,0,1-.13.3c-.08.1-.14.16-.23.16S46,8.86,45,7.9Zm-4,0c-.83-.84-1-1.06-1-1.27s.09-.28.31-.3.45.14,1.39,1.09a6.93,6.93,0,0,1,1.13,1.29.54.54,0,0,1-.13.3c-.08.1-.14.16-.23.16S42,8.86,41,7.9Zm-4,0c-.83-.84-1-1.06-1-1.27s.1-.28.31-.3.45.14,1.39,1.09a6.93,6.93,0,0,1,1.13,1.29.54.54,0,0,1-.13.3c-.08.1-.14.16-.23.16S38,8.86,37,7.9Zm-4,0c-.83-.84-1-1.06-1-1.27s.1-.28.31-.3.45.14,1.39,1.09a6.93,6.93,0,0,1,1.13,1.29.54.54,0,0,1-.13.3c-.08.1-.14.16-.23.16S34,8.86,33,7.9Zm-4,0c-.83-.84-1-1.06-1-1.27s.09-.28.31-.3.45.14,1.39,1.09a6.93,6.93,0,0,1,1.13,1.29.54.54,0,0,1-.13.3c-.08.1-.14.16-.23.16S30,8.86,29,7.9Zm-4,0c-.83-.84-1-1.06-1-1.27s.1-.28.31-.3.45.14,1.39,1.09a6.93,6.93,0,0,1,1.13,1.29.54.54,0,0,1-.13.3c-.08.1-.14.16-.23.16S26,8.86,25,7.9Zm-4,0c-.83-.84-1-1.06-1-1.27l0-.15.37-.15c.21,0,.48.26,1.3,1.09a6.93,6.93,0,0,1,1.13,1.29.54.54,0,0,1-.13.3c-.09.1-.15.16-.23.16S22,8.86,21,7.9Zm-4,0,0,0,.8-.39a6.5,6.5,0,0,1,1.06,1.22.54.54,0,0,1-.13.3c-.09.1-.14.16-.23.16S18,8.86,17,7.9Zm60-4a6.84,6.84,0,0,1-.92-1c.58.19,1.15.4,1.71.62a6.76,6.76,0,0,1,1,1.21.54.54,0,0,1-.13.3c-.09.1-.14.16-.23.16S78,4.86,77,3.9Zm-4,0c-.83-.84-1-1.06-1-1.27s.1-.28.31-.3.45.14,1.39,1.09a6.93,6.93,0,0,1,1.13,1.29.54.54,0,0,1-.13.3c-.08.1-.14.16-.23.16S74,4.86,73,3.9Zm-4,0c-.83-.84-1-1.06-1-1.27s.1-.28.31-.3.45.14,1.39,1.09a6.93,6.93,0,0,1,1.13,1.29.54.54,0,0,1-.13.3c-.08.1-.14.16-.23.16S70,4.86,69,3.9Zm-4,0c-.83-.84-1-1.06-1-1.27s.1-.28.31-.3.45.14,1.39,1.09a6.93,6.93,0,0,1,1.13,1.29.54.54,0,0,1-.13.3c-.09.1-.14.16-.23.16S66,4.86,65,3.9Zm-4,0c-.83-.84-1-1.06-1-1.27s.1-.28.31-.3.45.14,1.39,1.09a6.93,6.93,0,0,1,1.13,1.29.54.54,0,0,1-.13.3c-.08.1-.14.16-.23.16S62,4.86,61,3.9Zm-4,0c-.83-.84-1-1.06-1-1.27s.1-.28.31-.3.45.14,1.39,1.09a6.93,6.93,0,0,1,1.13,1.29.54.54,0,0,1-.13.3c-.09.1-.14.16-.23.16S58,4.86,57,3.9Zm-4,0c-.83-.84-1-1.06-1-1.27s.1-.28.31-.3.45.14,1.39,1.09a6.93,6.93,0,0,1,1.13,1.29.54.54,0,0,1-.13.3c-.08.1-.14.16-.23.16S54,4.86,53,3.9Zm-4,0c-.83-.84-1-1.06-1-1.27s.09-.28.31-.3.45.14,1.39,1.09a6.93,6.93,0,0,1,1.13,1.29.54.54,0,0,1-.13.3c-.08.1-.14.16-.23.16S50,4.86,49,3.9Zm-4,0c-.83-.84-1-1.06-1-1.27s.1-.28.31-.3.45.14,1.39,1.09a6.93,6.93,0,0,1,1.13,1.29.54.54,0,0,1-.13.3c-.08.1-.14.16-.23.16S46,4.86,45,3.9Zm-4,0c-.83-.84-1-1.06-1-1.27s.09-.28.31-.3.45.14,1.39,1.09a6.93,6.93,0,0,1,1.13,1.29.54.54,0,0,1-.13.3c-.08.1-.14.16-.23.16S42,4.86,41,3.9Zm-4,0c-.83-.84-1-1.06-1-1.27s.1-.28.31-.3.45.14,1.39,1.09a6.93,6.93,0,0,1,1.13,1.29.54.54,0,0,1-.13.3c-.08.1-.14.16-.23.16S38,4.86,37,3.9Zm-4,0c-.78-.78-1-1-1-1.23l.73-.17c.34.29.66.6,1,.92a6.93,6.93,0,0,1,1.13,1.29.54.54,0,0,1-.13.3c-.08.1-.14.16-.23.16S34,4.86,33,3.9Zm-4,0-.36-.37.93-.25.14.14a6.93,6.93,0,0,1,1.13,1.29.54.54,0,0,1-.13.3c-.09.1-.14.16-.23.16S30,4.86,29,3.9Zm-3.43.55.86-.27a1.93,1.93,0,0,1,.41.53.54.54,0,0,1-.13.3c-.09.1-.14.16-.23.16S26.1,5,25.56,4.45ZM65.73.62l1.09.15A.55.55,0,0,1,66.7,1c-.09.1-.14.16-.23.16S66.15,1,65.73.62ZM61.29.2q.62,0,1.23.09a1.43,1.43,0,0,1,.31.42.54.54,0,0,1-.13.3c-.09.1-.14.17-.23.17S62,.93,61.29.2ZM57.11,0l1.2,0a3.07,3.07,0,0,1,.53.66.56.56,0,0,1-.14.3c-.08.1-.14.17-.23.17S58,.89,57.11,0Zm-4,0h1.15a3.07,3.07,0,0,1,.57.71.59.59,0,0,1-.14.3c-.08.1-.14.16-.22.16S54,.89,53.11,0ZM49.27.17l1.1-.06a2.66,2.66,0,0,1,.46.6.54.54,0,0,1-.13.3c-.08.1-.14.17-.23.17s-.44-.26-1.2-1ZM45.56.46c.34,0,.68-.07,1-.09a1,1,0,0,1,.24.34.59.59,0,0,1-.14.3c-.08.1-.14.16-.22.16S46.11,1,45.56.46ZM42,.86l.83-.1a.56.56,0,0,1-.13.24c-.08.1-.14.17-.22.17s-.23-.08-.48-.31Z" transform="translate(0 0)"/></svg>