<svg width="626" height="436" viewBox="0 0 626 436" fill="none" xmlns="http://www.w3.org/2000/svg">
<path d="M482.65 84.9C482.65 74.02 477.93 70.69 468.23 70.69H133.42C123.72 70.69 119 74.81 119 85.69V278.54H482.65V84.9Z" fill="#353535"/>
<path d="M119 278.54V283.76C119 294.64 123.72 298.76 133.42 298.76H468.23C477.93 298.76 482.65 293.86 482.65 282.98V278.54H119Z" fill="#E9EBEA"/>
<path d="M468.23 291.12H133.42C123.72 291.12 119 291.69 119 282.9V283.77C119 294.65 123.72 298.77 133.42 298.77H468.23C477.93 298.77 482.65 293.87 482.65 282.99V282.12C482.65 289.84 477.93 291.12 468.23 291.12Z" fill="#CACCCC"/>
<path d="M470.87 81.02H130.78V265.85H470.87V81.02Z" fill="#51AEE2"/>
<path d="M334.63 322.2H267.01L268.95 298.77H332.06L334.63 322.2Z" fill="#EDEDEE"/>
<path d="M332.98 307.23L332.05 298.77H268.94L268.24 307.23H332.98Z" fill="#999B9E"/>
<path d="M346.47 332.35C348.41 335.05 346.94 337.25 343.22 337.25H258.43C254.71 337.25 253.25 335.04 255.18 332.35L267 322.2H334.62L346.47 332.35Z" fill="#B7B9BB"/>
<line x1="144" y1="332" x2="160" y2="332" stroke="black" stroke-width="2"/>
<line x1="131" y1="348" x2="141" y2="348" stroke="black" stroke-width="2"/>
<line x1="437" y1="358" x2="447" y2="358" stroke="black" stroke-width="2"/>
<line x1="188" y1="348" x2="198" y2="348" stroke="black" stroke-width="2"/>
<line x1="210" y1="348" x2="226" y2="348" stroke="black" stroke-width="2"/>
<line x1="387" y1="348" x2="403" y2="348" stroke="black" stroke-width="2"/>
<line x1="410" y1="348" x2="442" y2="348" stroke="black" stroke-width="2"/>
<path d="M531.145 229L520 240.136" stroke="#4F4F4F" stroke-width="3" stroke-miterlimit="10"/>
<path d="M520 229L531.145 240.136" stroke="#4F4F4F" stroke-width="3" stroke-miterlimit="10"/>
<path d="M531.145 254.688L520 265.838" stroke="#4F4F4F" stroke-width="3" stroke-miterlimit="10"/>
<path d="M520 254.688L531.145 265.838" stroke="#4F4F4F" stroke-width="3" stroke-miterlimit="10"/>
<path d="M165.428 95.6862L154.283 106.822" stroke="#4F4F4F" stroke-width="3" stroke-miterlimit="10"/>
<path d="M154.283 95.6862L165.428 106.822" stroke="#4F4F4F" stroke-width="3" stroke-miterlimit="10"/>
<path d="M232.006 325.015C234.218 325.015 236.012 323.221 236.012 321.008C236.012 318.794 234.218 317 232.006 317C229.793 317 228 318.794 228 321.008C228 323.221 229.793 325.015 232.006 325.015Z" stroke="#4F4F4F" stroke-width="2" stroke-miterlimit="10"/>
<path d="M555.712 264.359C555.712 267.319 553.314 269.718 550.356 269.718C547.398 269.718 545 267.319 545 264.359C545 261.399 547.398 259 550.356 259C553.314 259 555.712 261.399 555.712 264.359Z" stroke="#4F4F4F" stroke-width="2"/>
<path d="M211 370.354L212.954 372.349L221.177 363.983L230.039 373L232 371.012L221.177 360L211 370.354Z" fill="#C1BDBD"/>
<path d="M212.954 384.342L221.177 375.981L230.039 385L232 383.006L221.177 372L211 382.356L212.954 384.342Z" fill="#C1BDBD"/>
<path d="M211 395.354L212.954 397.342L221.177 388.976L230.039 398L232 396.005L221.177 385L211 395.354Z" fill="#C1BDBD"/>
<path d="M212.954 409.349L221.177 400.983L230.039 410L232 408.012L221.177 397L211 407.354L212.954 409.349Z" fill="#C1BDBD"/>
<path d="M457.718 190.333V204.9" stroke="#6745C4" stroke-width="2" stroke-miterlimit="10"/>
<path d="M450.43 197.609H465.005" stroke="#6745C4" stroke-width="2" stroke-miterlimit="10"/>
<path d="M463.897 384.085L445.073 402.918L463.897 421.752L482.721 402.918L463.897 384.085Z" stroke="white" stroke-width="4" stroke-miterlimit="10"/>
<path d="M604.79 143.2L550 197.98" stroke="#9CECDF" stroke-width="3" stroke-linecap="round" stroke-linejoin="round"/>
<path d="M624.27 112L569.49 166.79" stroke="#9CECDF" stroke-width="3" stroke-linecap="round" stroke-linejoin="round"/>
<path d="M527.72 41.44C529.228 41.44 530.45 40.2177 530.45 38.71C530.45 37.2023 529.228 35.98 527.72 35.98C526.212 35.98 524.99 37.2023 524.99 38.71C524.99 40.2177 526.212 41.44 527.72 41.44Z" fill="#FFE550"/>
<path d="M494.17 42.34C500.339 42.34 505.34 37.339 505.34 31.17C505.34 25.001 500.339 20 494.17 20C488.001 20 483 25.001 483 31.17C483 37.339 488.001 42.34 494.17 42.34Z" stroke="#FFD25B" stroke-width="3" stroke-miterlimit="10"/>
<path d="M609.48 11.8L571.46 21.9901L599.3 49.83L609.48 11.8Z" stroke="#9CECDF" stroke-width="1.33" stroke-miterlimit="10"/>
<path d="M606.02 1L568 11.19L595.84 39.03L606.02 1Z" stroke="white" stroke-width="1.33" stroke-miterlimit="10"/>
<path d="M26.17 232.34C32.339 232.34 37.34 227.339 37.34 221.17C37.34 215.001 32.339 210 26.17 210C20.001 210 15 215.001 15 221.17C15 227.339 20.001 232.34 26.17 232.34Z" stroke="#FFD25B" stroke-width="3" stroke-miterlimit="10"/>
<path d="M599.17 225.34C605.339 225.34 610.34 220.339 610.34 214.17C610.34 208.001 605.339 203 599.17 203C593.001 203 588 208.001 588 214.17C588 220.339 593.001 225.34 599.17 225.34Z" stroke="#0EB3F3" stroke-width="3" stroke-miterlimit="10"/>
<path d="M64.31 152.22L7.20001 167.52L49.01 209.33L64.31 152.22Z" stroke="#9CECDF" stroke-width="1.99" stroke-miterlimit="10"/>
<path d="M59.11 136L2 151.3L43.81 193.11L59.11 136Z" stroke="#9CECDF" stroke-width="1.99" stroke-miterlimit="10"/>
<path d="M131 81H471V266H131V81Z" fill="url(#paint0_linear)"/>
<path d="M195.25 228V225.75L205.75 222.75V200.25H163L160 195.75L216.25 121.5H230.5V193.5H246.25V200.25H230.5V222.75L241 225.75V228H195.25ZM168.25 193.5H205.75V144L168.25 193.5ZM297.262 230.25C289.162 230.25 281.812 228.1 275.212 223.8C268.612 219.5 263.362 213.25 259.462 205.05C255.662 196.75 253.762 186.9 253.762 175.5C253.762 164.1 255.662 154.3 259.462 146.1C263.362 137.8 268.612 131.5 275.212 127.2C281.812 122.9 289.162 120.75 297.262 120.75C305.362 120.75 312.712 122.9 319.312 127.2C325.912 131.5 331.112 137.8 334.912 146.1C338.812 154.3 340.762 164.1 340.762 175.5C340.762 186.9 338.812 196.75 334.912 205.05C331.112 213.25 325.912 219.5 319.312 223.8C312.712 228.1 305.362 230.25 297.262 230.25ZM297.262 227.25C308.762 227.25 314.512 210 314.512 175.5C314.512 141 308.762 123.75 297.262 123.75C285.762 123.75 280.012 141 280.012 175.5C280.012 210 285.762 227.25 297.262 227.25ZM382.75 228V225.75L393.25 222.75V200.25H350.5L347.5 195.75L403.75 121.5H418V193.5H433.75V200.25H418V222.75L428.5 225.75V228H382.75ZM355.75 193.5H393.25V144L355.75 193.5Z" fill="white"/>
<path d="M152.275 172.975C146.785 178.465 140.745 178.085 135.895 177.785C131.565 177.515 128.155 177.305 124.895 180.555C121.635 183.805 121.895 187.225 122.125 191.555C122.425 196.405 122.805 202.445 117.315 207.935C111.825 213.425 105.785 213.045 100.935 212.745C96.6052 212.475 93.1952 212.265 89.9352 215.515C86.6752 218.765 86.9352 222.185 87.1652 226.515C87.4652 231.365 87.8452 237.405 82.3552 242.895C76.8652 248.385 70.8252 248.005 65.9752 247.705C61.6452 247.435 58.2352 247.225 54.9752 250.475C54.3188 251.132 53.4285 251.5 52.5002 251.5C51.5719 251.5 50.6816 251.132 50.0252 250.475C49.3688 249.819 49 248.928 49 248C49 247.072 49.3688 246.182 50.0252 245.525C55.5152 240.035 61.5552 240.415 66.4052 240.715C70.7352 240.985 74.1452 241.195 77.4052 237.945C80.6652 234.695 80.4052 231.275 80.1752 226.945C79.8752 222.095 79.4952 216.055 84.9852 210.565C90.4752 205.075 96.5152 205.455 101.365 205.755C105.695 206.025 109.105 206.235 112.365 202.985C115.625 199.735 115.365 196.315 115.135 191.985C114.835 187.135 114.455 181.095 119.945 175.605C125.435 170.115 131.475 170.495 136.325 170.795C140.655 171.065 144.065 171.275 147.325 168.025C147.65 167.7 148.036 167.442 148.461 167.266C148.885 167.091 149.341 167 149.8 167C150.26 167 150.715 167.091 151.14 167.266C151.564 167.442 151.95 167.7 152.275 168.025C152.6 168.35 152.858 168.736 153.034 169.161C153.21 169.585 153.3 170.041 153.3 170.5C153.3 170.96 153.21 171.415 153.034 171.84C152.858 172.264 152.6 172.65 152.275 172.975Z" fill="#9CECDF"/>
<path d="M89.1506 136.145L78 125" stroke="#4F4F4F" stroke-width="3" stroke-miterlimit="10"/>
<path d="M89.1506 125L78 136.145" stroke="#4F4F4F" stroke-width="3" stroke-miterlimit="10"/>
<path d="M89.1506 164.54L78 153.395" stroke="#4F4F4F" stroke-width="3" stroke-miterlimit="10"/>
<path d="M89.1506 153.395L78 164.54" stroke="#4F4F4F" stroke-width="3" stroke-miterlimit="10"/>
<defs>
<linearGradient id="paint0_linear" x1="101" y1="-113" x2="836.993" y2="130.834" gradientUnits="userSpaceOnUse">
<stop stop-color="#00B3A3"/>
<stop offset="1" stop-color="#0053A6"/>
</linearGradient>
</defs>
</svg>
