<?xml version="1.0" encoding="utf-8"?>
<!-- Generator: Adobe Illustrator 21.1.0, SVG Export Plug-In . SVG Version: 6.00 Build 0)  -->
<svg version="1.0" id="Layer_1" xmlns="http://www.w3.org/2000/svg" xmlns:xlink="http://www.w3.org/1999/xlink" x="0px" y="0px"
	 viewBox="0 0 50 16" style="enable-background:new 0 0 50 16;" xml:space="preserve">
<style type="text/css">
	.st0{fill-rule:evenodd;clip-rule:evenodd;}
	.st1{fill-rule:evenodd;clip-rule:evenodd;fill:none;}
</style>
<g>
	<path class="st0" d="M17.3,0.6L4.6,13.3c-0.6,0.6-0.6,1.5,0,2.1c0.6,0.6,1.5,0.6,2.1,0L19.4,2.7c0.6-0.6,0.6-1.5,0-2.1
		C18.8,0,17.9,0,17.3,0.6z"/>
	<path class="st0" d="M42.3,0.6L29.6,13.3c-0.6,0.6-0.6,1.5,0,2.1c0.6,0.6,1.5,0.6,2.1,0L44.4,2.7c0.6-0.6,0.6-1.5,0-2.1
		C43.8,0,42.9,0,42.3,0.6z"/>
	<path class="st0" d="M42.3,0.6L29.6,13.3c-0.6,0.6-0.6,1.5,0,2.1c0.6,0.6,1.5,0.6,2.1,0L44.4,2.7c0.6-0.6,0.6-1.5,0-2.1
		C43.8,0,42.9,0,42.3,0.6z"/>
	<rect class="st1" width="50" height="16"/>
</g>
</svg>
