<svg id="Layer_1" data-name="Layer 1" xmlns="http://www.w3.org/2000/svg" viewBox="0 0 99.99 94.71"><title>3_02</title><path id="Intersection_3" data-name="Intersection 3" d="M56,94.56a.54.54,0,0,1,0-.22c0-.26.24-.56,1-1.34,1.08-1.09,1.26-1.22,1.61-1.11s.24.5-.93,1.67c-.8.79-1.23,1.15-1.46,1.15A.22.22,0,0,1,56,94.56Zm15.36,0a.59.59,0,0,1,0-.22c0-.27.26-.57,1.07-1.39,1-1.06,1.23-1.19,1.6-1s.15.5-1,1.64c-.8.81-1.22,1.15-1.45,1.15A.17.17,0,0,1,71.35,94.56Zm3.85,0c-.1-.09-.17-.15-.17-.23s.32-.5,1.29-1.48c.81-.83,1.07-1,1.27-1s.26.1.28.33-.11.43-1.07,1.39a7.27,7.27,0,0,1-1.3,1.11A.54.54,0,0,1,75.2,94.56Zm-7.71,0a.81.81,0,0,1-.06-.31h0a12,12,0,0,1,2.37-2.41c.3,0,.47.13.47.37a9,9,0,0,1-2.49,2.48C67.64,94.69,67.51,94.63,67.49,94.56Zm-3.79,0c-.1-.09-.16-.15-.16-.23s.31-.5,1.28-1.48c.82-.83,1.07-1,1.27-1s.27.1.29.32-.12.43-1.09,1.4A7.14,7.14,0,0,1,64,94.69.61.61,0,0,1,63.7,94.56Zm-3.86,0a.41.41,0,0,1-.15-.27,13.86,13.86,0,0,1,2.45-2.45c.31,0,.5.12.5.34a11.31,11.31,0,0,1-2.47,2.51.64.64,0,0,1-.33-.13Zm-7.54.06-.09-.06c-.1-.09-.17-.15-.17-.23s.32-.5,1.29-1.48c.81-.83,1.07-1,1.27-1s.27.1.29.31-.14.44-1.09,1.4a14.72,14.72,0,0,1-1.17,1.06Zm26.63-.27c0-.24.3-.6,1.11-1.4s1.18-1.12,1.4-1.09.27.09.3.3-.15.45-1.1,1.4q-.47.47-.75.72l-.9.23a.23.23,0,0,1-.06-.16Zm-30.65.13a.42.42,0,0,1-.09-.19,14.56,14.56,0,0,1,2.45-2.45c.32,0,.5.12.5.34A12,12,0,0,1,49,94.51Zm-3.83-.12h0c0-.27.25-.57,1-1.35a10,10,0,0,1,1.22-1.12c.3-.09.59.05.59.31a10.06,10.06,0,0,1-2,2.2Zm-3.87-.13a8.15,8.15,0,0,1,1.24-1.38c.84-.84,1.06-1,1.28-1s.27.09.29.31-.14.44-1.09,1.4c-.26.26-.52.5-.73.69Zm-3.77-.13a15.64,15.64,0,0,1,2.34-2.26c.31,0,.5.12.5.34a10.55,10.55,0,0,1-1.76,2ZM33.09,94A8.2,8.2,0,0,1,34,93c1.07-1.09,1.26-1.22,1.61-1.11s.23.49-.93,1.66c-.17.18-.33.33-.48.47Zm-3.73-.12c.2-.23.51-.54,1-1,.83-.84,1.06-1,1.27-1s.28.09.3.31-.14.44-1.09,1.4l-.33.32Zm-2.87-.1-.84,0a13.18,13.18,0,0,1,2-1.88c.32,0,.5.12.5.33a7.43,7.43,0,0,1-1.37,1.59Zm-4.3-.46a2.69,2.69,0,0,1,.29-.3c1.07-1.09,1.26-1.23,1.61-1.11s.23.45-.87,1.58l-1-.17Zm-3-.76c.58-.58.77-.71,1-.68s.27.09.29.3,0,.3-.35.64c-.31-.08-.61-.16-.9-.26Zm66.27-.65a.44.44,0,0,1,.15.08c-.48.26-1,.52-1.48.75C84.92,91.89,85.11,91.79,85.42,91.89Zm1.32-1.29a.48.48,0,0,1-.2-.3,13,13,0,0,1,2.54-2.53c.2,0,.31.2.31.52A13.86,13.86,0,0,1,87,90.72a.94.94,0,0,1-.3-.12Zm-11.49,0a.44.44,0,0,1-.2-.3,12.9,12.9,0,0,1,2.53-2.53c.2,0,.32.2.32.52a13.86,13.86,0,0,1-2.35,2.43.79.79,0,0,1-.3-.12Zm-49.84,0a.4.4,0,0,1-.2-.3,14,14,0,0,1,2.51-2.53.53.53,0,0,1,.44.46,16.41,16.41,0,0,1-2.44,2.49,1.05,1.05,0,0,1-.31-.12Zm23,0c-.13-.08-.25-.21-.25-.3a14.48,14.48,0,0,1,2.52-2.55.52.52,0,0,1,.43.46A13.89,13.89,0,0,1,49,90.54a.56.56,0,0,1-.32.15.44.44,0,0,1-.22-.07Zm-11.5,0c-.13-.08-.24-.21-.24-.3a14.43,14.43,0,0,1,2.51-2.55.52.52,0,0,1,.43.45,14.39,14.39,0,0,1-2.16,2.32.56.56,0,0,1-.32.15.44.44,0,0,1-.22-.07Zm23,0c-.14-.09-.25-.22-.25-.3a16.1,16.1,0,0,1,2.51-2.51.53.53,0,0,1,.44.45,14,14,0,0,1-2.17,2.31c-.14.1-.21.15-.29.15a.51.51,0,0,1-.24-.1Zm-42.15,0a.45.45,0,0,1-.22-.33,11,11,0,0,1,2.5-2.5c.23,0,.35.18.35.5a13.5,13.5,0,0,1-2.21,2.32.37.37,0,0,1-.22.1.4.4,0,0,1-.2-.09Zm61.33,0c-.13-.07-.21-.15-.21-.27s.34-.63,1.15-1.44a8.85,8.85,0,0,1,1.3-1.14.45.45,0,0,1,.27.12c.28.28.12.55-.92,1.57s-1.25,1.22-1.42,1.22a.27.27,0,0,1-.17-.06Zm-11.49,0c-.14-.07-.21-.15-.21-.27s.33-.63,1.14-1.44a9.31,9.31,0,0,1,1.29-1.14.52.52,0,0,1,.41.48,5.46,5.46,0,0,1-1,1.21c-1,1-1.25,1.22-1.42,1.22a.27.27,0,0,1-.17-.06Zm3.85,0c-.12-.07-.2-.15-.2-.26s.34-.63,1.14-1.45a9.15,9.15,0,0,1,1.27-1.14.54.54,0,0,1,.44.46A13.89,13.89,0,0,1,72,90.54a.56.56,0,0,1-.31.14.49.49,0,0,1-.17-.06Zm-15.35,0c-.14-.07-.21-.15-.21-.26s.34-.64,1.15-1.45a9.23,9.23,0,0,1,1.28-1.14.53.53,0,0,1,.42.47,14.13,14.13,0,0,1-2.15,2.29.63.63,0,0,1-.32.15.43.43,0,0,1-.18-.06Zm-11.5,0c-.13-.07-.2-.15-.2-.26s.34-.64,1.15-1.45a9.23,9.23,0,0,1,1.28-1.14.53.53,0,0,1,.42.47,13.73,13.73,0,0,1-2.15,2.29.63.63,0,0,1-.32.15A.43.43,0,0,1,44.63,90.62Zm-11.49,0c-.13-.07-.2-.15-.2-.26s.34-.64,1.15-1.45a9.23,9.23,0,0,1,1.28-1.14.53.53,0,0,1,.42.47,13.39,13.39,0,0,1-2.16,2.29.64.64,0,0,1-.31.15A.35.35,0,0,1,33.14,90.62Zm-11.49,0c-.14-.07-.21-.15-.21-.26s.34-.64,1.15-1.45a9.23,9.23,0,0,1,1.28-1.14.53.53,0,0,1,.42.47,13.77,13.77,0,0,1-2.16,2.29.57.57,0,0,1-.31.15A.35.35,0,0,1,21.65,90.62Zm42.1,0a.48.48,0,0,1-.2-.3,13,13,0,0,1,2.54-2.53c.2,0,.31.2.31.51a12.89,12.89,0,0,1-2.22,2.33.32.32,0,0,1-.2.06.34.34,0,0,1-.22-.07Zm-11.49,0a.46.46,0,0,1-.2-.32,12.54,12.54,0,0,1,2.53-2.51c.2,0,.32.19.32.51a13.24,13.24,0,0,1-2.22,2.33.36.36,0,0,1-.2.06.39.39,0,0,1-.23-.07Zm-11.49,0a.43.43,0,0,1-.2-.32,11.28,11.28,0,0,1,2.51-2.51c.21,0,.34.19.34.5a13.37,13.37,0,0,1-2.23,2.34.48.48,0,0,1-.2.07.42.42,0,0,1-.22-.08Zm-11.5,0a.46.46,0,0,1-.2-.33,11.49,11.49,0,0,1,2.52-2.5c.2,0,.33.19.33.5a12.68,12.68,0,0,1-2.23,2.34.37.37,0,0,1-.2.07.45.45,0,0,1-.22-.08Zm53.71,0c-.13-.07-.2-.15-.2-.26s.3-.6,1-1.29c1.5-1.48,1.44-1.44,1.72-1.15s.14.5-.8,1.45-1.3,1.29-1.54,1.29a.29.29,0,0,1-.16,0Zm-69.2-.44a15.39,15.39,0,0,1,2.44-2.4.53.53,0,0,1,.44.45,16.25,16.25,0,0,1-2.21,2.33c-.23-.12-.45-.25-.67-.38ZM11.4,88.62a6.17,6.17,0,0,1,1-.85.54.54,0,0,1,.42.47,4.59,4.59,0,0,1-.7.88l-.71-.5Zm48.41-2.09a.42.42,0,0,1-.12-.25,15.78,15.78,0,0,1,2.5-2.47.52.52,0,0,1,.45.44,6.92,6.92,0,0,1-1.12,1.29c-.81.81-1.19,1.12-1.45,1.12a.33.33,0,0,1-.26-.13Zm-11.49,0a.42.42,0,0,1-.12-.25,15.37,15.37,0,0,1,2.5-2.47.51.51,0,0,1,.44.44A7.63,7.63,0,0,1,50,85.54c-.81.8-1.19,1.12-1.45,1.12a.35.35,0,0,1-.26-.13Zm-11.5,0a.42.42,0,0,1-.12-.25,15.78,15.78,0,0,1,2.5-2.47.52.52,0,0,1,.45.44,8.16,8.16,0,0,1-1.13,1.29c-.81.81-1.19,1.11-1.45,1.11a.33.33,0,0,1-.25-.12Zm53.66,0a.28.28,0,0,1-.09-.18c0-.24.33-.63,1.16-1.46,1.18-1.15,1.52-1.35,1.65-.93s0,.54-1.11,1.61c-.76.75-1.12,1-1.3,1a.48.48,0,0,1-.31-.07Zm-7.63,0a.22.22,0,0,1-.09-.19c0-.23.3-.61,1-1.33,1.2-1.18,1.29-1.25,1.43-1.25a.53.53,0,0,1,.41.44,6.92,6.92,0,0,1-1.12,1.29c-.8.79-1.18,1.11-1.36,1.11a.46.46,0,0,1-.3-.07Zm-3.87,0a.23.23,0,0,1-.08-.18c0-.24.33-.63,1.16-1.46a8.78,8.78,0,0,1,1.31-1.13.42.42,0,0,1,.37.46.64.64,0,0,1,0,.07,7.14,7.14,0,0,1-1.11,1.28c-.77.75-1.13,1-1.31,1a.52.52,0,0,1-.32-.07Zm-7.63,0a.27.27,0,0,1-.08-.19c0-.25.32-.65,1.14-1.46a8.56,8.56,0,0,1,1.28-1.13.53.53,0,0,1,.44.45A6.24,6.24,0,0,1,73,85.53c-.79.8-1.18,1.12-1.35,1.12a.49.49,0,0,1-.31-.07Zm-46,0c-.1,0-.16-.1-.16-.18s.35-.63,1.17-1.44a7,7,0,0,1,1.33-1.16.52.52,0,0,1,.45.44,12.66,12.66,0,0,1-2.45,2.4,1,1,0,0,1-.34-.06Zm-3.86,0a.27.27,0,0,1-.08-.19c0-.23.26-.58.87-1.17,1.08-1.08,1.45-1.42,1.6-1.42a.54.54,0,0,1,.4.47,6.75,6.75,0,0,1-1.11,1.27c-.8.82-1.17,1.11-1.35,1.11a.48.48,0,0,1-.33-.07Zm-7.63,0c-.11,0-.17-.1-.17-.19s.35-.63,1.16-1.43a7,7,0,0,1,1.33-1.16.5.5,0,0,1,.46.44,12.61,12.61,0,0,1-2.44,2.4,1,1,0,0,1-.34-.06Zm-3.86,0a.24.24,0,0,1-.08-.19c0-.23.3-.61,1-1.33,1.2-1.18,1.28-1.25,1.42-1.25a.53.53,0,0,1,.41.45,7.57,7.57,0,0,1-1.11,1.29c-.8.81-1.17,1.1-1.35,1.1a.52.52,0,0,1-.32-.07Zm57.55,0a.2.2,0,0,1-.16-.2c0-.32.64-1,2.2-2.49a.58.58,0,0,1,.25-.12.54.54,0,0,1,.41.46A11.69,11.69,0,0,1,68,86.61a.76.76,0,0,1-.21,0,.38.38,0,0,1-.18,0Zm-11.49,0a.19.19,0,0,1-.16-.2c0-.32.63-1,2.19-2.49a.62.62,0,0,1,.26-.12.52.52,0,0,1,.4.46,11.43,11.43,0,0,1-2.31,2.35.71.71,0,0,1-.21,0,.32.32,0,0,1-.17,0Zm-11.5,0a.2.2,0,0,1-.16-.2c0-.23.28-.6.86-1.19,1.08-1.08,1.46-1.41,1.6-1.41a.51.51,0,0,1,.4.45A11.39,11.39,0,0,1,45,86.61a.78.78,0,0,1-.22,0,.29.29,0,0,1-.18,0Zm-11.49,0a.2.2,0,0,1-.17-.2c0-.23.28-.6.87-1.19,1.08-1.08,1.45-1.41,1.6-1.41a.51.51,0,0,1,.4.45,11.19,11.19,0,0,1-2.31,2.35.76.76,0,0,1-.21,0,.29.29,0,0,1-.18,0Zm30.63,0c-.11,0-.17-.1-.17-.19s.34-.64,1.14-1.45c1.17-1.16,1.53-1.37,1.66-.94s0,.54-1.11,1.61c-.8.79-1.07,1-1.32,1a.54.54,0,0,1-.21,0Zm-11.5,0c-.1,0-.16-.1-.16-.19s.34-.64,1.14-1.45c1.17-1.16,1.52-1.37,1.66-.94s0,.54-1.11,1.61c-.8.79-1.07,1-1.32,1a.54.54,0,0,1-.21,0Zm-11.49,0c-.11,0-.17-.1-.17-.19s.34-.64,1.14-1.45c1.17-1.16,1.53-1.37,1.66-.94s0,.54-1.11,1.61c-.8.79-1.07,1-1.31,1a.5.5,0,0,1-.21,0Zm-11.5,0c-.1,0-.16-.1-.16-.19s.34-.64,1.14-1.45c1.17-1.16,1.53-1.37,1.66-.94s0,.54-1.11,1.61c-.8.79-1.07,1-1.32,1a.54.54,0,0,1-.21,0Zm-11.49,0c-.11,0-.16-.1-.16-.19s.34-.64,1.13-1.45c1.17-1.16,1.53-1.37,1.66-.94s0,.54-1.11,1.61c-.8.79-1.06,1-1.31,1a.5.5,0,0,1-.21,0Zm57.55,0c-.16,0-.25-.1-.25-.21s.35-.64,1.14-1.45c1.14-1.13,1.5-1.36,1.65-1s0,.55-.93,1.5-1.19,1.17-1.45,1.17a.9.9,0,0,1-.16,0Zm11.5,0c-.16,0-.25-.1-.25-.22s.34-.63,1.13-1.44c1.14-1.13,1.5-1.36,1.65-1s0,.56-.86,1.45-1.25,1.21-1.53,1.21l-.14,0ZM7.27,84.9c1.13-1.12,1.48-1.31,1.6-.89s0,.53-1,1.52l-.58-.63Zm64.08-2.35a.46.46,0,0,1,0-.21c0-.26.25-.56,1-1.34,1.06-1.09,1.26-1.22,1.6-1.11s.25.5-.93,1.67c-.8.8-1.23,1.14-1.46,1.14a.19.19,0,0,1-.18-.14Zm-11.51,0a.44.44,0,0,1-.16-.26,13.91,13.91,0,0,1,2.46-2.45c.77,0,.66.4-.41,1.48s-1.38,1.37-1.63,1.37a.43.43,0,0,1-.26-.13Zm34.5,0a.77.77,0,0,1-.06-.3h0a12,12,0,0,1,2.36-2.41A.55.55,0,0,1,97,80c-.2.4-.41.8-.63,1.18a7.52,7.52,0,0,1-1.78,1.55c-.13,0-.26-.06-.28-.13Zm-7.65,0a.44.44,0,0,1-.16-.26A8.85,8.85,0,0,1,87.67,81c.94-.95,1.2-1.15,1.4-1.13s.27.1.29.33-.1.43-1.08,1.4A7.5,7.5,0,0,1,87,82.69a.71.71,0,0,1-.31-.13Zm-3.85,0a.81.81,0,0,1-.06-.31h0a11.67,11.67,0,0,1,2.36-2.4c.31,0,.48.12.48.35a9,9,0,0,1-2.49,2.5c-.13,0-.26-.06-.28-.13Zm-7.65,0a.43.43,0,0,1-.15-.26A8.85,8.85,0,0,1,76.18,81c.94-.95,1.2-1.15,1.4-1.13s.26.1.29.33-.1.43-1.08,1.4a7.91,7.91,0,0,1-1.28,1.1.66.66,0,0,1-.31-.13Zm-7.71,0a.88.88,0,0,1-.06-.28h0a14,14,0,0,1,2.38-2.43c.3,0,.46.13.46.37a8.34,8.34,0,0,1-2.47,2.48c-.14,0-.28-.06-.3-.13Zm-3.78,0a.43.43,0,0,1-.15-.26A7.81,7.81,0,0,1,64.69,81c.93-.95,1.2-1.15,1.4-1.13s.26.1.28.33-.1.43-1.08,1.4A7.5,7.5,0,0,1,64,82.69a.71.71,0,0,1-.31-.13Zm-7.71,0a.73.73,0,0,1-.06-.3h0a14,14,0,0,1,2.38-2.42c.29,0,.46.14.46.37a8.38,8.38,0,0,1-2.48,2.48c-.13,0-.28-.05-.3-.12Zm-3.78,0a.44.44,0,0,1-.16-.26A8.85,8.85,0,0,1,53.19,81c.94-.95,1.2-1.15,1.4-1.13s.27.1.29.33-.1.43-1.08,1.4a7.5,7.5,0,0,1-1.28,1.1.66.66,0,0,1-.31-.13Zm-3.87,0a.43.43,0,0,1-.15-.26,13.53,13.53,0,0,1,2.45-2.45c.33,0,.5.12.5.34a11.1,11.1,0,0,1-2.48,2.5.54.54,0,0,1-.31-.12Zm-3.84,0a.73.73,0,0,1-.06-.3h0a13.29,13.29,0,0,1,2.38-2.42c.3,0,.45.14.45.37a8.38,8.38,0,0,1-2.48,2.48c-.13,0-.27-.05-.29-.12Zm-3.79,0a.41.41,0,0,1-.15-.25c0-.15,0-.15,1.3-1.47.79-.8,1-1,1.24-1s.27.1.28.32-.1.44-1.07,1.4A7.09,7.09,0,0,1,41,82.68a.53.53,0,0,1-.3-.12Zm-3.86,0a.4.4,0,0,1-.16-.26,12.3,12.3,0,0,1,2.49-2.45.43.43,0,0,1,.46.4,12.79,12.79,0,0,1-2.48,2.45.61.61,0,0,1-.31-.13Zm-3.85,0a.73.73,0,0,1-.06-.3h0a14,14,0,0,1,2.38-2.42c.28,0,.46.14.46.37a8.74,8.74,0,0,1-2.48,2.48c-.13,0-.27-.05-.29-.12Zm-7.65,0a.43.43,0,0,1-.15-.26,12.3,12.3,0,0,1,2.49-2.45.43.43,0,0,1,.46.4,13,13,0,0,1-2.47,2.45.61.61,0,0,1-.32-.13Zm-3.84,0a.73.73,0,0,1-.06-.3h0a13.57,13.57,0,0,1,2.37-2.42c.29,0,.46.14.46.37a8.62,8.62,0,0,1-2.48,2.48c-.13,0-.27-.05-.29-.12Zm-7.65,0a.39.39,0,0,1-.15-.26,11.81,11.81,0,0,1,2.49-2.45.42.42,0,0,1,.45.4,13,13,0,0,1-2.47,2.45.58.58,0,0,1-.31-.13Zm-3.85,0a.73.73,0,0,1-.06-.3h0a13.24,13.24,0,0,1,2.37-2.42c.3,0,.47.14.47.37a8.74,8.74,0,0,1-2.48,2.48c-.13,0-.27-.05-.29-.12Zm69,0a1,1,0,0,1,0-.18c0-.26.26-.56,1.11-1.4s1.18-1.14,1.4-1.11.27.09.3.31-.14.45-1.08,1.4-1.18,1.12-1.37,1.12-.29-.06-.31-.13Zm-49.75,0c-.09-.07-.15-.13-.15-.22s.35-.58,1.4-1.65c.69-.69.92-.84,1.12-.82s.28.09.3.32-.1.44-1.08,1.4a6.71,6.71,0,0,1-1.28,1.1.59.59,0,0,1-.31-.12Zm-11.5,0a.28.28,0,0,1-.14-.22c0-.22.34-.58,1.4-1.65.69-.69.91-.84,1.12-.82s.27.09.29.32-.1.44-1.08,1.4A6.71,6.71,0,0,1,18,82.68a.56.56,0,0,1-.3-.12Zm-11.49,0c-.09-.07-.15-.13-.15-.22s.35-.58,1.41-1.65c.69-.69.91-.84,1.11-.82s.28.09.3.32-.11.44-1.07,1.4a7.27,7.27,0,0,1-1.3,1.11.67.67,0,0,1-.3-.13Zm84.29,0a.26.26,0,0,1-.1-.2c0-.22.3-.57,1.12-1.39s1.18-1.14,1.39-1.11.27.09.29.31-.12.44-1.08,1.4c-.8.8-1.16,1.1-1.4,1.1a.35.35,0,0,1-.22-.1ZM4,80.4c.46-.43.65-.56.79-.54a.42.42,0,0,1,.33.27c.07.19,0,.32-.66,1C4.26,80.89,4.11,80.64,4,80.4Zm52-1.81a.52.52,0,0,1,0-.21c0-.26.24-.57,1-1.35C58,76,58.22,75.81,58.57,75.92s.24.5-.93,1.67c-.8.8-1.23,1.15-1.46,1.15a.2.2,0,0,1-.19-.15Zm-23,0a.54.54,0,0,1,0-.21c0-.27.25-.57,1-1.35C35,76,35.23,75.81,35.58,75.92s.23.49-.93,1.66c-.8.8-1.23,1.16-1.46,1.16a.18.18,0,0,1-.18-.15Zm-11.5,0a.52.52,0,0,1,0-.21c0-.27.24-.57,1-1.35,1.07-1.08,1.26-1.22,1.61-1.11s.22.47-.94,1.65c-.8.81-1.23,1.16-1.46,1.16a.18.18,0,0,1-.18-.14Zm72.83,0a.54.54,0,0,1,0-.21c0-.26.25-.57,1-1.35,1.06-1.08,1.26-1.22,1.6-1.11s.23.48-.94,1.65c-.8.81-1.23,1.16-1.46,1.16a.18.18,0,0,1-.17-.14Zm-11.49,0a.54.54,0,0,1,0-.21c0-.27.25-.57,1-1.35,1.07-1.08,1.26-1.22,1.61-1.11s.22.48-1,1.65c-.8.81-1.23,1.16-1.45,1.16a.18.18,0,0,1-.17-.14Zm-11.5,0a.54.54,0,0,1,0-.22c0-.26.26-.57,1.07-1.39,1-1,1.23-1.19,1.6-1s.15.5-1,1.64c-.8.81-1.23,1.16-1.46,1.16a.19.19,0,0,1-.18-.14ZM10,78.59a.54.54,0,0,1,0-.21c0-.27.25-.57,1-1.35,1.07-1.08,1.27-1.22,1.61-1.11s.22.48-.95,1.65c-.8.81-1.22,1.16-1.45,1.16a.18.18,0,0,1-.17-.14Zm76.67,0a.46.46,0,0,1-.15-.26v0c0-.14,0-.17,1.27-1.42.83-.83,1.06-1,1.27-1s.27.09.29.33-.1.43-1.08,1.4A7.5,7.5,0,0,1,87,78.72a.61.61,0,0,1-.32-.13Zm-11.49,0c-.1-.08-.17-.14-.17-.23s.32-.5,1.29-1.48c.81-.82,1.07-1,1.27-1s.26.1.28.33-.11.44-1.07,1.39a6.88,6.88,0,0,1-1.3,1.11.54.54,0,0,1-.3-.13Zm-7.71,0a.82.82,0,0,1-.07-.31h0a11.77,11.77,0,0,1,2.38-2.4c.3,0,.46.13.46.36a8.65,8.65,0,0,1-2.49,2.48c-.13,0-.26-.06-.28-.13Zm-3.79,0c-.1-.08-.16-.14-.16-.23s.31-.5,1.28-1.48c.82-.82,1.07-1,1.27-1s.27.1.29.32-.12.44-1.09,1.4A7.14,7.14,0,0,1,64,78.72a.61.61,0,0,1-.31-.13Zm-3.86,0a.41.41,0,0,1-.15-.27,13.8,13.8,0,0,1,2.45-2.44c.31,0,.5.12.5.33a11.1,11.1,0,0,1-2.47,2.51.51.51,0,0,1-.33-.13Zm-7.63,0c-.1-.08-.17-.14-.17-.23s.32-.5,1.29-1.48c.81-.82,1.07-1,1.27-1s.27.1.29.31-.14.45-1.09,1.4a8.49,8.49,0,0,1-1.28,1.12.58.58,0,0,1-.31-.13Zm-3.86,0a.42.42,0,0,1-.16-.27,14.5,14.5,0,0,1,2.45-2.44c.32,0,.5.12.5.33a10.9,10.9,0,0,1-2.47,2.51.54.54,0,0,1-.32-.13Zm-3.85,0a.54.54,0,0,1,0-.21c0-.26.25-.57,1-1.35a10.88,10.88,0,0,1,1.22-1.12c.3-.09.59,0,.59.31a9,9,0,0,1-2.5,2.5c-.13,0-.26-.06-.28-.13Zm-3.78,0c-.1-.08-.17-.14-.17-.23s.31-.5,1.27-1.48c.84-.83,1.06-1,1.28-1s.27.1.29.31-.14.45-1.09,1.4A7.62,7.62,0,0,1,41,78.72a.54.54,0,0,1-.3-.13Zm-3.87,0a.41.41,0,0,1-.15-.27,13.8,13.8,0,0,1,2.45-2.44c.32,0,.5.12.5.33a11.1,11.1,0,0,1-2.47,2.51.51.51,0,0,1-.33-.13Zm-7.63,0c-.1-.08-.16-.14-.16-.23s.31-.5,1.27-1.48c.83-.83,1.06-1,1.27-1s.28.1.3.31-.14.45-1.09,1.4a7.62,7.62,0,0,1-1.28,1.12.61.61,0,0,1-.31-.13Zm-3.86,0a.42.42,0,0,1-.16-.27,14.2,14.2,0,0,1,2.46-2.44c.31,0,.5.12.5.33a10.94,10.94,0,0,1-2.48,2.51.54.54,0,0,1-.32-.13Zm-7.63,0c-.1-.08-.16-.14-.16-.23s.3-.5,1.27-1.48c.83-.83,1.05-1,1.27-1s.27.1.29.31-.14.45-1.08,1.39A7,7,0,0,1,18,78.72a.51.51,0,0,1-.29-.13Zm-3.87,0a.38.38,0,0,1-.14-.26.42.42,0,0,1,.15-.3,12.82,12.82,0,0,1,2.33-2.15.43.43,0,0,1,.46.4,13,13,0,0,1-2.47,2.45.55.55,0,0,1-.32-.14Zm-7.63,0a.51.51,0,0,1-.15-.28A6.68,6.68,0,0,1,7.21,77c1-1,1.17-1.14,1.4-1.11s.27.09.3.3-.14.45-1.09,1.39a6.93,6.93,0,0,1-1.29,1.13.51.51,0,0,1-.29-.13Zm84.29,0a.35.35,0,0,1-.1-.22c0-.22.3-.58,1.12-1.39s1.18-1.13,1.4-1.1.27.1.29.31-.14.45-1.09,1.39S91,78.7,90.74,78.7a.32.32,0,0,1-.22-.1ZM79,78.6a.32.32,0,0,1-.1-.22c0-.23.3-.6,1.11-1.4s1.18-1.12,1.4-1.09.28.1.3.31-.15.45-1.1,1.39-1.16,1.11-1.39,1.11a.32.32,0,0,1-.22-.1ZM2.6,77.8l.92-.94c.79-.79,1-1,1.24-1s.26.1.28.33-.1.44-1.08,1.4a13.48,13.48,0,0,1-1,.92c-.12-.24-.24-.49-.35-.74Zm95.63-3.17a.47.47,0,0,1-.2-.29,9,9,0,0,1,1.46-1.62q-.15.75-.33,1.5a3.54,3.54,0,0,1-.63.53.81.81,0,0,1-.29-.12Zm-7.63,0c-.13-.07-.2-.14-.2-.25s.33-.64,1.15-1.45a7.81,7.81,0,0,1,1.3-1.14.4.4,0,0,1,.27.12c.29.28.12.56-1,1.69a16.6,16.6,0,0,1-1.23,1.14,1.09,1.09,0,0,1-.27-.11Zm-3.86,0a.42.42,0,0,1-.2-.3,12.85,12.85,0,0,1,2.53-2.52c.2,0,.32.19.32.51A13.52,13.52,0,0,1,87,74.75a.79.79,0,0,1-.3-.12Zm-11.49,0a.39.39,0,0,1-.2-.3,12.59,12.59,0,0,1,2.53-2.52c.2,0,.32.19.32.51a14.24,14.24,0,0,1-2.35,2.43.79.79,0,0,1-.3-.12Zm-49.84,0a.4.4,0,0,1-.2-.29,13.67,13.67,0,0,1,2.51-2.53.52.52,0,0,1,.44.45,15.66,15.66,0,0,1-2.45,2.5,1.14,1.14,0,0,1-.3-.13Zm-11.5,0a.43.43,0,0,1-.2-.29,14.37,14.37,0,0,1,2.51-2.54.54.54,0,0,1,.44.46,15.54,15.54,0,0,1-2.44,2.49.79.79,0,0,1-.3-.12Zm-11.49,0a.43.43,0,0,1-.2-.29,13,13,0,0,1,2.54-2.53c.25,0,.42.41.28.67a20.73,20.73,0,0,1-2.32,2.27A.86.86,0,0,1,2.42,74.63Zm46,0c-.13-.08-.24-.21-.24-.3a14.37,14.37,0,0,1,2.51-2.54.52.52,0,0,1,.44.45A14,14,0,0,1,49,74.57a.65.65,0,0,1-.32.16.58.58,0,0,1-.22-.08Zm-11.5,0c-.13-.08-.24-.21-.24-.3a14.37,14.37,0,0,1,2.51-2.54.52.52,0,0,1,.44.44,14.92,14.92,0,0,1-2.17,2.32.65.65,0,0,1-.32.16.58.58,0,0,1-.22-.08Zm23,0c-.14-.09-.25-.22-.25-.29a16.1,16.1,0,0,1,2.51-2.51.52.52,0,0,1,.44.45,13.57,13.57,0,0,1-2.17,2.31c-.14.1-.21.15-.29.15a.44.44,0,0,1-.24-.11Zm-42.15,0a.41.41,0,0,1-.21-.32,10.41,10.41,0,0,1,2.5-2.5c.22,0,.34.17.34.5a13.85,13.85,0,0,1-2.21,2.32.43.43,0,0,1-.22.09.4.4,0,0,1-.2-.09Zm-11.5,0a.44.44,0,0,1-.21-.32,10.6,10.6,0,0,1,2.5-2.5c.22,0,.34.17.34.5a13.75,13.75,0,0,1-2.2,2.31.44.44,0,0,1-.22.1.4.4,0,0,1-.21-.09Zm72.83,0c-.14-.07-.21-.15-.21-.26s.33-.64,1.15-1.44a7.43,7.43,0,0,1,1.3-1.14.4.4,0,0,1,.27.12c.28.27.11.55-.92,1.56s-1.25,1.23-1.42,1.23a.36.36,0,0,1-.17-.07Zm-11.49,0c-.14-.07-.22-.15-.22-.26s.34-.64,1.15-1.44a8.63,8.63,0,0,1,1.28-1.14.53.53,0,0,1,.42.47,5.34,5.34,0,0,1-1.05,1.22c-1,1-1.24,1.22-1.41,1.22a.36.36,0,0,1-.17-.07Zm3.85,0c-.13-.07-.2-.15-.2-.26s.33-.63,1.14-1.45a8.49,8.49,0,0,1,1.27-1.13.52.52,0,0,1,.44.45A14.32,14.32,0,0,1,72,74.57a.62.62,0,0,1-.31.14.35.35,0,0,1-.17-.06Zm-15.36,0c-.13-.07-.2-.15-.2-.26s.34-.64,1.15-1.45a9.16,9.16,0,0,1,1.28-1.13.51.51,0,0,1,.42.46,13.39,13.39,0,0,1-2.16,2.29.6.6,0,0,1-.31.15.28.28,0,0,1-.18-.06Zm-11.49,0c-.13-.07-.2-.15-.2-.26s.34-.64,1.15-1.45a9.16,9.16,0,0,1,1.28-1.13.51.51,0,0,1,.42.46,13.39,13.39,0,0,1-2.16,2.29.64.64,0,0,1-.31.15.35.35,0,0,1-.18-.06Zm-11.49,0c-.14-.07-.2-.15-.2-.26s.33-.64,1.15-1.45a9.16,9.16,0,0,1,1.28-1.13.51.51,0,0,1,.41.46,13.33,13.33,0,0,1-2.15,2.29.63.63,0,0,1-.32.15.27.27,0,0,1-.17-.06Zm-11.5,0c-.13-.07-.2-.15-.2-.26s.34-.64,1.15-1.45a8.56,8.56,0,0,1,1.28-1.13.52.52,0,0,1,.42.46,13.79,13.79,0,0,1-2.16,2.29.63.63,0,0,1-.32.15.31.31,0,0,1-.16-.06Zm-11.5,0c-.13-.07-.2-.15-.2-.26s.34-.64,1.15-1.45a9.16,9.16,0,0,1,1.28-1.13.51.51,0,0,1,.42.46,13.33,13.33,0,0,1-2.15,2.29.63.63,0,0,1-.32.15.35.35,0,0,1-.17-.06Zm53.6,0a.42.42,0,0,1-.2-.3,13,13,0,0,1,2.54-2.53c.2,0,.31.2.31.51a12.9,12.9,0,0,1-2.22,2.33.43.43,0,0,1-.2.07.54.54,0,0,1-.21-.08Zm-11.49,0a.44.44,0,0,1-.2-.31,12.09,12.09,0,0,1,2.53-2.52c.19,0,.32.19.32.51a13.26,13.26,0,0,1-2.22,2.33.48.48,0,0,1-.2.07.58.58,0,0,1-.22-.08Zm-11.49,0a.41.41,0,0,1-.2-.31,11.12,11.12,0,0,1,2.51-2.52c.21,0,.33.19.33.5a13,13,0,0,1-2.22,2.34.48.48,0,0,1-.2.07.39.39,0,0,1-.21-.08Zm-11.5,0a.46.46,0,0,1-.2-.32,10.87,10.87,0,0,1,2.52-2.5c.2,0,.33.18.33.5a13.34,13.34,0,0,1-2.23,2.34.47.47,0,0,1-.2.06.42.42,0,0,1-.21-.08Zm65.2,0c-.13-.07-.2-.15-.2-.26s.3-.59,1-1.28C96.74,71.62,96.68,71.66,97,72s.15.5-.8,1.45-1.3,1.3-1.54,1.3a.44.44,0,0,1-.15,0ZM83,74.65c-.13-.07-.2-.15-.2-.26s.3-.59,1-1.28c1.5-1.49,1.44-1.45,1.72-1.16s.14.5-.8,1.45-1.3,1.3-1.54,1.3a.38.38,0,0,1-.15,0ZM.63,72c.3-.25.35-.16.52,0s.17.4-.3.93L.64,72ZM59.8,70.57a.43.43,0,0,1-.13-.26,16.68,16.68,0,0,1,2.5-2.47.52.52,0,0,1,.45.45,6.71,6.71,0,0,1-1.1,1.28c-.8.81-1.18,1.12-1.44,1.12a.35.35,0,0,1-.27-.13Zm-11.5,0a.42.42,0,0,1-.12-.26,16.22,16.22,0,0,1,2.5-2.47.53.53,0,0,1,.45.45A7.9,7.9,0,0,1,50,69.57c-.82.81-1.19,1.12-1.45,1.12a.35.35,0,0,1-.26-.13Zm-11.49,0a.42.42,0,0,1-.12-.26,16.22,16.22,0,0,1,2.5-2.47.52.52,0,0,1,.44.45,7.14,7.14,0,0,1-1.11,1.28c-.81.81-1.19,1.12-1.44,1.12a.38.38,0,0,1-.26-.13Zm57.52.05a.25.25,0,0,1-.09-.19c0-.24.3-.62,1-1.34,1.2-1.18,1.28-1.25,1.43-1.25a.52.52,0,0,1,.4.46A7.84,7.84,0,0,1,96,69.57c-.8.8-1.18,1.12-1.37,1.12a.5.5,0,0,1-.29-.07Zm-11.5,0a.27.27,0,0,1-.08-.19c0-.24.3-.62,1-1.34,1.2-1.18,1.28-1.25,1.42-1.25a.53.53,0,0,1,.41.45,6.81,6.81,0,0,1-1.12,1.28c-.79.8-1.18,1.12-1.35,1.12a.48.48,0,0,1-.29-.07Zm-3.86,0a.25.25,0,0,1-.08-.18c0-.24.33-.63,1.16-1.46a7.94,7.94,0,0,1,1.31-1.14.42.42,0,0,1,.36.47.19.19,0,0,1,0,.07,7.84,7.84,0,0,1-1.1,1.27c-.78.76-1.13,1-1.32,1a.53.53,0,0,1-.3-.07Zm-7.63,0a.28.28,0,0,1-.09-.19c0-.25.33-.65,1.15-1.46a7.67,7.67,0,0,1,1.28-1.13.53.53,0,0,1,.44.45A7.19,7.19,0,0,1,73,69.57c-.79.79-1.18,1.12-1.35,1.12a.51.51,0,0,1-.3-.07Zm-46,0a.2.2,0,0,1-.15-.19c0-.22.34-.62,1.16-1.44a7.69,7.69,0,0,1,1.33-1.16.52.52,0,0,1,.45.45,12.61,12.61,0,0,1-2.44,2.4,1.21,1.21,0,0,1-.33-.07Zm-3.85,0a.27.27,0,0,1-.08-.19c0-.23.26-.58.86-1.17,1.08-1.08,1.46-1.42,1.6-1.42a.53.53,0,0,1,.4.47,7,7,0,0,1-1.1,1.27c-.8.81-1.17,1.11-1.35,1.11a.6.6,0,0,1-.32-.07Zm-7.64,0c-.1,0-.16-.1-.16-.19s.35-.63,1.16-1.44a7,7,0,0,1,1.32-1.16.52.52,0,0,1,.47.45,13.52,13.52,0,0,1-2.44,2.4,1.14,1.14,0,0,1-.33-.07Zm-3.84,0a.27.27,0,0,1-.08-.19c0-.24.3-.62,1-1.34,1.2-1.18,1.28-1.25,1.42-1.25a.53.53,0,0,1,.41.46,7.5,7.5,0,0,1-1.11,1.28c-.8.81-1.17,1.11-1.35,1.11A.6.6,0,0,1,10,70.62Zm80.46,0a.27.27,0,0,1-.08-.18c0-.24.33-.64,1.16-1.46,1.18-1.16,1.51-1.36,1.65-.94s0,.54-1.11,1.61c-.77.75-1.12,1-1.3,1a.5.5,0,0,1-.32-.08Zm-22.91,0a.19.19,0,0,1-.15-.2c0-.33.63-1,2.19-2.49a.49.49,0,0,1,.25-.12.53.53,0,0,1,.41.45A11.43,11.43,0,0,1,68,70.64a.76.76,0,0,1-.21,0,.37.37,0,0,1-.18,0Zm-11.49,0a.2.2,0,0,1-.16-.2c0-.33.64-1,2.19-2.49a.52.52,0,0,1,.26-.12.53.53,0,0,1,.41.45,11.69,11.69,0,0,1-2.31,2.35.78.78,0,0,1-.22,0,.32.32,0,0,1-.17,0Zm-11.5,0a.23.23,0,0,1-.16-.21c0-.22.28-.6.87-1.19,1.07-1.07,1.45-1.41,1.6-1.41a.55.55,0,0,1,.4.46A11.69,11.69,0,0,1,45,70.65a.78.78,0,0,1-.22,0,.57.57,0,0,1-.18,0Zm-11.49,0a.23.23,0,0,1-.17-.21c0-.22.28-.6.87-1.19,1.08-1.07,1.46-1.41,1.6-1.41a.52.52,0,0,1,.4.46,11.43,11.43,0,0,1-2.31,2.35.76.76,0,0,1-.21,0,.57.57,0,0,1-.18,0Zm65.11,0c-.11,0-.16-.1-.16-.19s.34-.64,1.15-1.45c.33-.33.59-.57.79-.75,0,.42,0,.85-.06,1.27l-.3.29c-.67.66-.94.89-1.2.89a.55.55,0,0,1-.22-.06Zm-95.82,0c-.1,0-.16-.1-.16-.19s.35-.64,1.16-1.45c1.2-1.19,1.46-1.33,1.67-.9s0,.46-1.24,1.71c-.67.66-1,.89-1.2.89a.6.6,0,0,1-.23-.06Zm61.34,0c-.11,0-.17-.1-.17-.19s.34-.64,1.14-1.44c1.17-1.17,1.53-1.38,1.66-.95s0,.54-1.11,1.61c-.8.79-1.07,1-1.31,1a.54.54,0,0,1-.22,0Zm-11.5,0c-.1,0-.16-.1-.16-.19s.34-.64,1.14-1.44c1.17-1.17,1.52-1.38,1.66-.95s0,.54-1.11,1.61c-.8.79-1.07,1-1.32,1a.54.54,0,0,1-.21,0Zm-11.49,0c-.11,0-.16-.1-.16-.19s.34-.64,1.14-1.44c1.17-1.17,1.52-1.38,1.65-.95s0,.54-1.1,1.61c-.8.79-1.07,1-1.32,1a.5.5,0,0,1-.21,0Zm-11.5,0c-.1,0-.16-.1-.16-.19s.34-.64,1.14-1.44c1.17-1.17,1.53-1.38,1.66-.95s0,.54-1.11,1.61c-.8.79-1.07,1-1.32,1a.54.54,0,0,1-.21,0Zm-11.49,0c-.11,0-.16-.1-.16-.19s.34-.64,1.14-1.44c1.17-1.17,1.52-1.38,1.66-.95s0,.54-1.11,1.61c-.8.79-1.07,1-1.32,1a.5.5,0,0,1-.21,0Zm-11.49,0c-.11,0-.17-.1-.17-.19s.34-.64,1.14-1.44c1.17-1.17,1.53-1.38,1.66-.95s0,.54-1.11,1.61c-.8.79-1.07,1-1.31,1a.46.46,0,0,1-.21,0Zm69,0c-.16,0-.25-.1-.25-.21s.35-.64,1.15-1.44c1.14-1.14,1.5-1.37,1.64-1s0,.55-.93,1.51-1.19,1.16-1.45,1.16l-.16,0Zm11.5,0c-.16,0-.25-.1-.25-.21s.34-.64,1.14-1.44c1.14-1.14,1.5-1.37,1.64-1s0,.56-.86,1.45-1.24,1.21-1.53,1.21h-.14ZM.11,68.47c.6-.59.67-.63.79-.63a.52.52,0,0,1,.4.46A7.07,7.07,0,0,1,.22,69.54C.18,69.18.14,68.82.11,68.47Zm71.24-1.88a.52.52,0,0,1,0-.21c0-.27.24-.57,1-1.35,1.07-1.09,1.26-1.22,1.61-1.11s.24.5-.94,1.67c-.8.8-1.23,1.14-1.46,1.14A.19.19,0,0,1,71.35,66.59Zm-11.51,0a.41.41,0,0,1-.15-.27,13.86,13.86,0,0,1,2.45-2.45c.77,0,.66.41-.41,1.49s-1.38,1.36-1.63,1.36a.43.43,0,0,1-.26-.13Zm34.5,0a.81.81,0,0,1-.06-.31h0a12,12,0,0,1,2.36-2.41c.3,0,.48.13.48.36a9,9,0,0,1-2.5,2.49c-.13,0-.26-.06-.28-.13Zm-7.65,0a.41.41,0,0,1-.15-.27A8.24,8.24,0,0,1,87.68,65c.93-.94,1.2-1.15,1.4-1.13s.26.1.28.33-.1.44-1.08,1.4A7.08,7.08,0,0,1,87,66.72a.61.61,0,0,1-.31-.13Zm-3.85,0a.87.87,0,0,1-.06-.32h0a11.67,11.67,0,0,1,2.36-2.4c.31,0,.48.12.48.36a9.08,9.08,0,0,1-2.49,2.49c-.13,0-.26-.06-.28-.13Zm-3.86,0a.43.43,0,0,1,0-.19c0-.25.25-.55,1.11-1.4s1.18-1.14,1.39-1.11.28.09.3.32-.13.44-1.08,1.39-1.18,1.12-1.37,1.12-.29-.06-.31-.13Zm-3.78,0a.42.42,0,0,1-.16-.27A9.39,9.39,0,0,1,76.18,65c.94-.94,1.2-1.15,1.4-1.13s.27.1.29.33-.1.44-1.08,1.4a7.08,7.08,0,0,1-1.28,1.1.58.58,0,0,1-.31-.13Zm-7.71,0a.73.73,0,0,1-.07-.29h0a14,14,0,0,1,2.38-2.43c.3,0,.46.14.46.37a8.34,8.34,0,0,1-2.47,2.48c-.14,0-.28-.06-.3-.13Zm-3.79,0a.46.46,0,0,1-.15-.27A8.78,8.78,0,0,1,64.69,65c.93-.94,1.2-1.15,1.4-1.13s.26.1.28.33-.1.44-1.08,1.4A7.08,7.08,0,0,1,64,66.72a.61.61,0,0,1-.31-.13Zm-7.71,0a.8.8,0,0,1-.06-.3h0a13.3,13.3,0,0,1,2.38-2.42c.3,0,.46.13.46.36a8.41,8.41,0,0,1-2.48,2.49c-.13,0-.28-.06-.3-.13Zm-3.78,0a.41.41,0,0,1-.15-.27A8.71,8.71,0,0,1,53.19,65c.94-.94,1.2-1.15,1.4-1.13s.27.1.29.33-.1.44-1.08,1.4a7.08,7.08,0,0,1-1.28,1.1.61.61,0,0,1-.31-.13Zm-3.87,0a.46.46,0,0,1-.15-.27,14.2,14.2,0,0,1,2.45-2.45c.33,0,.5.12.5.35a11.31,11.31,0,0,1-2.48,2.5.54.54,0,0,1-.31-.13Zm-3.84,0a.8.8,0,0,1-.06-.3h0a12.69,12.69,0,0,1,2.38-2.42c.3,0,.45.13.45.36a8.29,8.29,0,0,1-2.48,2.49c-.13,0-.27-.06-.29-.13Zm-3.79,0a.46.46,0,0,1-.15-.26c0-.15,0-.15,1.3-1.47.8-.8,1-1,1.24-1s.27.1.29.33-.1.43-1.08,1.4A8.36,8.36,0,0,1,41,66.72a.54.54,0,0,1-.31-.13Zm-3.86,0a.47.47,0,0,1-.16-.27,12.1,12.1,0,0,1,2.5-2.45.43.43,0,0,1,.45.41,13,13,0,0,1-2.48,2.44.61.61,0,0,1-.31-.13Zm-3.85,0a.8.8,0,0,1-.06-.3h0a13.3,13.3,0,0,1,2.38-2.42c.29,0,.46.13.46.37a8.87,8.87,0,0,1-2.48,2.48c-.13,0-.27-.06-.29-.13Zm-3.78,0c-.09-.08-.15-.14-.15-.23s.35-.58,1.4-1.64c.7-.7.92-.85,1.12-.83s.28.09.3.33-.1.44-1.07,1.4a8,8,0,0,1-1.29,1.1.61.61,0,0,1-.31-.13Zm-3.87,0a.46.46,0,0,1-.15-.27,12.3,12.3,0,0,1,2.49-2.45.44.44,0,0,1,.46.4,13,13,0,0,1-2.47,2.45.61.61,0,0,1-.32-.13Zm-3.84,0a.8.8,0,0,1-.06-.3h0a12.93,12.93,0,0,1,2.37-2.42c.29,0,.46.13.46.36a8.78,8.78,0,0,1-2.48,2.49c-.13,0-.27-.06-.29-.13Zm-3.79,0c-.08-.08-.14-.14-.14-.23s.35-.58,1.4-1.64c.69-.7.92-.85,1.12-.83s.27.09.29.33-.1.44-1.07,1.4A8,8,0,0,1,18,66.72a.54.54,0,0,1-.3-.13Zm-3.86,0a.41.41,0,0,1-.15-.27,11.81,11.81,0,0,1,2.49-2.45.43.43,0,0,1,.45.4,13,13,0,0,1-2.47,2.45.58.58,0,0,1-.31-.13Zm-3.85,0a.8.8,0,0,1-.06-.3h0a12.93,12.93,0,0,1,2.37-2.42c.3,0,.47.13.47.36a8.91,8.91,0,0,1-2.48,2.49c-.13,0-.27-.06-.29-.13Zm-3.78,0c-.09-.08-.14-.14-.14-.23s.34-.58,1.4-1.64c.69-.7.91-.85,1.11-.83s.28.09.3.33-.11.43-1.07,1.39a7.27,7.27,0,0,1-1.3,1.11.58.58,0,0,1-.3-.13Zm84.29,0a.28.28,0,0,1-.1-.21c0-.22.3-.57,1.12-1.39s1.18-1.14,1.39-1.11.27.09.29.32-.12.44-1.08,1.4c-.8.79-1.16,1.09-1.4,1.09a.3.3,0,0,1-.22-.1Zm7.66,0a.41.41,0,0,1-.15-.27A8.24,8.24,0,0,1,99.17,65l.64-.63c0,.37.08.73.1,1.09l-.07.08c-.83.84-1.18,1.14-1.42,1.14a.38.38,0,0,1-.23-.11Zm-95.82,0a.46.46,0,0,1-.15-.27A9.39,9.39,0,0,1,3.35,65c.92-.91,1.2-1.15,1.39-1.13a.43.43,0,0,1,.33.28c.08.21,0,.36-1.05,1.39-.83.84-1.17,1.14-1.41,1.14a.38.38,0,0,1-.24-.11ZM0,64.52a3.3,3.3,0,0,1,.79-.65c.3,0,.47.12.47.36A6,6,0,0,1,0,65.77c0-.41,0-.83.05-1.25Zm56-1.9a.54.54,0,0,1-.05-.21c0-.27.24-.57,1-1.35C58,60,58.22,59.84,58.56,60s.25.5-.92,1.67c-.8.79-1.24,1.15-1.47,1.15a.22.22,0,0,1-.18-.15Zm-23,0a.54.54,0,0,1,0-.21c0-.27.25-.57,1-1.35C35,60,35.23,59.84,35.57,60s.24.49-.92,1.66c-.8.8-1.24,1.16-1.47,1.16a.18.18,0,0,1-.17-.15Zm-11.49,0a.54.54,0,0,1-.05-.21c0-.27.24-.57,1-1.35C23.54,60,23.73,59.84,24.08,60s.22.47-.94,1.65c-.8.81-1.23,1.16-1.46,1.16a.18.18,0,0,1-.17-.14Zm72.82,0a.52.52,0,0,1,0-.21c0-.27.24-.57,1-1.35C96.37,60,96.56,59.84,96.91,60s.22.48-1,1.65c-.8.81-1.23,1.16-1.45,1.16a.19.19,0,0,1-.17-.14Zm-11.49,0a.54.54,0,0,1,0-.21c0-.27.25-.57,1-1.35,1.06-1.09,1.26-1.22,1.6-1.11s.23.48-.94,1.65c-.8.81-1.23,1.16-1.46,1.16a.18.18,0,0,1-.16-.14Zm-11.49,0a.44.44,0,0,1,0-.22c0-.27.26-.57,1.06-1.39,1-1.06,1.23-1.19,1.6-1s.16.5-1,1.64c-.8.81-1.23,1.16-1.45,1.16a.19.19,0,0,1-.18-.14ZM10,62.62a.54.54,0,0,1,0-.21c0-.27.25-.57,1-1.35C12,60,12.24,59.84,12.58,60s.23.48-.94,1.65c-.8.81-1.23,1.16-1.46,1.16a.19.19,0,0,1-.16-.14Zm76.67,0a.53.53,0,0,1-.15-.26v0c0-.14,0-.17,1.27-1.42.83-.84,1.06-1,1.28-1s.26.09.28.32-.1.44-1.08,1.4A6.71,6.71,0,0,1,87,62.74a.59.59,0,0,1-.31-.12Zm-11.49,0c-.1-.09-.16-.14-.16-.23s.31-.5,1.28-1.48c.81-.82,1.07-1,1.27-1s.27.1.29.33-.12.43-1.08,1.39a7.57,7.57,0,0,1-1.29,1.11.54.54,0,0,1-.3-.13Zm-7.71,0a.8.8,0,0,1-.06-.3h0a11.52,11.52,0,0,1,2.37-2.41c.31,0,.47.13.47.36a8.65,8.65,0,0,1-2.49,2.48c-.13,0-.26-.06-.28-.13Zm-3.78,0c-.1-.09-.17-.14-.17-.23s.31-.5,1.29-1.48c.81-.82,1.06-1,1.27-1s.26.1.28.32-.12.44-1.09,1.4A7.14,7.14,0,0,1,64,62.75a.58.58,0,0,1-.3-.13Zm-3.87,0a.46.46,0,0,1-.15-.27,14.2,14.2,0,0,1,2.45-2.45c.32,0,.5.12.5.34a11.1,11.1,0,0,1-2.47,2.51.54.54,0,0,1-.32-.13Zm-7.63,0c-.1-.09-.16-.14-.16-.23s.31-.5,1.28-1.48c.82-.82,1.07-1,1.27-1s.27.1.29.31-.13.45-1.09,1.4a7.62,7.62,0,0,1-1.28,1.12.54.54,0,0,1-.3-.13Zm-3.86,0a.41.41,0,0,1-.15-.27,13.86,13.86,0,0,1,2.45-2.45c.31,0,.5.12.5.34a11.31,11.31,0,0,1-2.47,2.51.54.54,0,0,1-.32-.13Zm-3.85,0a.52.52,0,0,1,0-.21c0-.27.24-.57,1-1.35a10.8,10.8,0,0,1,1.22-1.12c.3-.09.59.05.59.31a9.4,9.4,0,0,1-2.49,2.5c-.13,0-.26-.06-.28-.13Zm-3.78,0c-.1-.09-.16-.14-.16-.23s.3-.5,1.27-1.48,1-1,1.27-1,.27.09.29.31-.14.44-1.08,1.4A8.49,8.49,0,0,1,41,62.75a.48.48,0,0,1-.3-.13Zm-3.87,0a.46.46,0,0,1-.15-.27,14.2,14.2,0,0,1,2.45-2.45c.32,0,.5.12.5.34a11.1,11.1,0,0,1-2.47,2.51.54.54,0,0,1-.32-.13Zm-7.63,0c-.1-.09-.16-.14-.16-.23s.31-.5,1.27-1.48,1.06-1,1.27-1,.28.09.3.31-.14.44-1.08,1.4a8.64,8.64,0,0,1-1.29,1.12.58.58,0,0,1-.3-.13Zm-3.86,0a.41.41,0,0,1-.15-.27,13.86,13.86,0,0,1,2.45-2.45c.31,0,.5.12.5.34a11.14,11.14,0,0,1-2.48,2.51.61.61,0,0,1-.31-.13Zm-7.63,0c-.1-.09-.16-.14-.16-.23s.3-.5,1.27-1.48c.83-.83,1.06-1,1.27-1s.28.09.3.31-.15.45-1.09,1.39A6.93,6.93,0,0,1,18,62.75a.51.51,0,0,1-.29-.13Zm-3.86,0a.35.35,0,0,1-.15-.26.43.43,0,0,1,.16-.3,12.5,12.5,0,0,1,2.32-2.16.43.43,0,0,1,.46.4,13,13,0,0,1-2.47,2.45.49.49,0,0,1-.31-.13Zm-7.63,0a.5.5,0,0,1-.16-.29A8.24,8.24,0,0,1,7.2,61c1-1,1.17-1.14,1.4-1.11s.28.1.3.31-.14.45-1.09,1.39a6.62,6.62,0,0,1-1.29,1.13.52.52,0,0,1-.28-.13Zm-3.87,0a.46.46,0,0,1-.15-.26c0-.16,0-.16,1.3-1.47.79-.79,1-1,1.24-1s.26.1.28.33-.1.43-1.07,1.4a8.36,8.36,0,0,1-1.28,1.1.58.58,0,0,1-.31-.13Zm95.82,0a.48.48,0,0,1-.16-.26h0c0-.15,0-.16.92-1.08l.27-.28c.08.33.16.66.22,1l-.12.12c-.47.44-.7.63-.89.63a.35.35,0,0,1-.23-.12Zm-7.66,0a.32.32,0,0,1-.1-.22c0-.23.3-.58,1.11-1.39s1.18-1.13,1.4-1.1.27.09.29.31-.14.44-1.08,1.39-1.17,1.11-1.4,1.11a.3.3,0,0,1-.22-.1Zm-11.5,0a.37.37,0,0,1-.1-.22c0-.24.3-.6,1.12-1.4s1.18-1.12,1.4-1.09.27.09.3.31-.16.44-1.1,1.39-1.17,1.11-1.4,1.11a.3.3,0,0,1-.21-.1ZM.65,60a.49.49,0,0,1,.44,0c.39.13.25.43-.7,1.4Q.51,60.68.66,60Zm89.94-1.32c-.13-.07-.2-.15-.2-.26s.34-.64,1.15-1.45a9.39,9.39,0,0,1,1.3-1.14.43.43,0,0,1,.28.13c.28.28.11.56-1,1.68a13.18,13.18,0,0,1-1.23,1.14.82.82,0,0,1-.26-.1Zm-3.86,0a.44.44,0,0,1-.2-.3,13,13,0,0,1,2.54-2.53c.2,0,.31.2.31.52A13.86,13.86,0,0,1,87,58.78a.81.81,0,0,1-.29-.12Zm-11.49,0a.44.44,0,0,1-.2-.3,12.64,12.64,0,0,1,2.53-2.53c.2,0,.32.2.32.52a13.86,13.86,0,0,1-2.35,2.43.81.81,0,0,1-.29-.12Zm-49.84,0a.4.4,0,0,1-.2-.29,14,14,0,0,1,2.51-2.54.54.54,0,0,1,.44.46,16,16,0,0,1-2.44,2.49.79.79,0,0,1-.3-.12Zm-11.49,0a.4.4,0,0,1-.2-.29,13.67,13.67,0,0,1,2.51-2.53.53.53,0,0,1,.44.45,15.54,15.54,0,0,1-2.44,2.49.79.79,0,0,1-.3-.12Zm-11.49,0a.43.43,0,0,1-.2-.29,13,13,0,0,1,2.54-2.53c.25,0,.42.41.28.67a20.82,20.82,0,0,1-2.32,2.28A1.14,1.14,0,0,1,2.42,58.66Zm95.87,0a.43.43,0,0,1-.25-.39.26.26,0,0,1,.17-.26.2.2,0,0,1,.11,0c.09.24.18.5.26.74h0a.54.54,0,0,1-.24-.09Zm-49.85,0c-.13-.08-.24-.21-.24-.3a14.37,14.37,0,0,1,2.51-2.54.53.53,0,0,1,.44.45A14,14,0,0,1,49,58.6a.58.58,0,0,1-.32.16.57.57,0,0,1-.22-.07Zm-11.5,0c-.13-.08-.24-.21-.24-.3a14.37,14.37,0,0,1,2.51-2.54.53.53,0,0,1,.44.44,14.92,14.92,0,0,1-2.17,2.32.65.65,0,0,1-.32.16.57.57,0,0,1-.22-.07Zm23,0c-.14-.09-.25-.22-.25-.3a17,17,0,0,1,2.51-2.51.54.54,0,0,1,.44.46,14,14,0,0,1-2.17,2.31c-.14.1-.21.15-.29.15A.44.44,0,0,1,59.94,58.64Zm-42.15,0a.41.41,0,0,1-.21-.32,10.41,10.41,0,0,1,2.5-2.5c.22,0,.34.17.34.5a13.85,13.85,0,0,1-2.21,2.32.43.43,0,0,1-.22.09A.4.4,0,0,1,17.79,58.66Zm-11.5,0a.41.41,0,0,1-.21-.32,10.6,10.6,0,0,1,2.5-2.5c.22,0,.34.17.34.5a13.75,13.75,0,0,1-2.2,2.31.37.37,0,0,1-.22.1.4.4,0,0,1-.21-.09Zm72.83,0c-.14-.07-.21-.15-.21-.26s.33-.64,1.15-1.44a7.43,7.43,0,0,1,1.3-1.14.4.4,0,0,1,.27.12c.28.27.11.55-.92,1.56s-1.25,1.23-1.42,1.23a.36.36,0,0,1-.17-.07Zm-11.49,0c-.14-.07-.22-.15-.22-.26s.34-.64,1.15-1.44a8.63,8.63,0,0,1,1.28-1.14.53.53,0,0,1,.42.47,5.09,5.09,0,0,1-1.05,1.21c-1,1-1.24,1.23-1.41,1.23a.36.36,0,0,1-.17-.07Zm3.85,0c-.13-.07-.2-.14-.2-.26s.33-.63,1.14-1.44a8.56,8.56,0,0,1,1.27-1.14.53.53,0,0,1,.44.45A13.92,13.92,0,0,1,72,58.6a.55.55,0,0,1-.31.14.34.34,0,0,1-.17-.05Zm-15.36,0c-.13-.07-.2-.15-.2-.26s.34-.64,1.15-1.44a8.63,8.63,0,0,1,1.28-1.14.51.51,0,0,1,.42.46,13.39,13.39,0,0,1-2.16,2.29.6.6,0,0,1-.31.15.37.37,0,0,1-.18-.05Zm-11.49,0c-.13-.07-.2-.15-.2-.26s.34-.64,1.15-1.44a8.63,8.63,0,0,1,1.28-1.14.51.51,0,0,1,.42.46,13,13,0,0,1-2.16,2.29.64.64,0,0,1-.31.15.35.35,0,0,1-.18-.05Zm-11.49,0c-.14-.07-.2-.15-.2-.26s.33-.64,1.15-1.44a8.63,8.63,0,0,1,1.28-1.14.51.51,0,0,1,.41.46,13,13,0,0,1-2.15,2.29.63.63,0,0,1-.32.15.34.34,0,0,1-.17-.05Zm-11.5,0c-.13-.07-.2-.15-.2-.26s.34-.64,1.15-1.44a8.63,8.63,0,0,1,1.28-1.14.52.52,0,0,1,.42.46,13.79,13.79,0,0,1-2.16,2.29.63.63,0,0,1-.32.15.3.3,0,0,1-.16-.05Zm-11.5,0c-.13-.07-.2-.15-.2-.26s.34-.64,1.15-1.44a8.63,8.63,0,0,1,1.28-1.14.51.51,0,0,1,.42.46,13.33,13.33,0,0,1-2.15,2.29.63.63,0,0,1-.32.15.34.34,0,0,1-.17-.05Zm53.6,0a.42.42,0,0,1-.2-.3,13,13,0,0,1,2.54-2.53c.2,0,.31.2.31.51a13.24,13.24,0,0,1-2.21,2.34.36.36,0,0,1-.2.06.35.35,0,0,1-.22-.08Zm-11.49,0a.44.44,0,0,1-.2-.31,12.09,12.09,0,0,1,2.53-2.52c.19,0,.32.19.32.51a13.24,13.24,0,0,1-2.21,2.34.36.36,0,0,1-.2.06.4.4,0,0,1-.23-.08Zm-11.49,0a.41.41,0,0,1-.2-.31,11.12,11.12,0,0,1,2.51-2.52c.21,0,.33.19.33.5a13.3,13.3,0,0,1-2.21,2.35.36.36,0,0,1-.2.06.35.35,0,0,1-.22-.08Zm-11.5,0a.46.46,0,0,1-.2-.32,10.87,10.87,0,0,1,2.52-2.5c.2,0,.33.18.33.5a13.3,13.3,0,0,1-2.22,2.34.36.36,0,0,1-.2.06.37.37,0,0,1-.22-.08Zm65.2,0c-.13-.07-.2-.15-.2-.26s.3-.59,1-1.28C96.74,55.65,96.68,55.69,97,56s.15.5-.8,1.45-1.3,1.29-1.54,1.29a.28.28,0,0,1-.15,0ZM83,58.68c-.13-.07-.2-.15-.2-.26s.3-.59,1-1.28c1.5-1.49,1.44-1.45,1.72-1.16s.14.5-.8,1.45-1.3,1.29-1.54,1.29a.28.28,0,0,1-.15,0ZM59.81,54.59a.37.37,0,0,1-.12-.25,16.22,16.22,0,0,1,2.5-2.47.51.51,0,0,1,.44.45,6.42,6.42,0,0,1-1.11,1.28c-.8.81-1.18,1.12-1.44,1.12A.35.35,0,0,1,59.81,54.59Zm-11.49,0a.38.38,0,0,1-.13-.25,16.22,16.22,0,0,1,2.5-2.47.51.51,0,0,1,.45.45A7.56,7.56,0,0,1,50,53.6c-.82.81-1.19,1.12-1.45,1.12A.31.31,0,0,1,48.32,54.59Zm42.16.06a.24.24,0,0,1-.09-.18c0-.24.33-.64,1.16-1.46,1.18-1.16,1.52-1.35,1.65-.94s0,.54-1.11,1.61c-.76.75-1.12,1-1.3,1a.55.55,0,0,1-.31-.07Zm-53.66-.06a.37.37,0,0,1-.12-.25,16.22,16.22,0,0,1,2.5-2.47.52.52,0,0,1,.45.45,7.25,7.25,0,0,1-1.13,1.28c-.81.81-1.19,1.12-1.44,1.12A.38.38,0,0,1,36.82,54.59Zm57.52.06a.28.28,0,0,1-.08-.2c0-.22.23-.55.73-1.05a7.76,7.76,0,0,1,.8-.72h0l.25.47a1.7,1.7,0,0,1,0,.22,3.61,3.61,0,0,1-1.48,1.34.45.45,0,0,1-.28-.06Zm-11.49,0a.25.25,0,0,1-.09-.19c0-.24.3-.62,1-1.34,1.2-1.18,1.29-1.25,1.43-1.25a.55.55,0,0,1,.41.45,7.19,7.19,0,0,1-1.12,1.28c-.8.79-1.18,1.12-1.36,1.12a.53.53,0,0,1-.3-.07Zm-3.87,0a.27.27,0,0,1-.08-.18c0-.24.33-.64,1.16-1.46a8.3,8.3,0,0,1,1.31-1.14.42.42,0,0,1,.37.46s0,.05,0,.08a7.9,7.9,0,0,1-1.11,1.27c-.77.75-1.13,1-1.31,1a.6.6,0,0,1-.32-.07Zm-7.63,0a.28.28,0,0,1-.08-.2c0-.25.33-.64,1.14-1.45a8.16,8.16,0,0,1,1.29-1.13.53.53,0,0,1,.43.45A6.47,6.47,0,0,1,73,53.6c-.79.79-1.18,1.12-1.35,1.12a.57.57,0,0,1-.31-.07Zm-46,0c-.1,0-.16-.1-.16-.19s.35-.63,1.17-1.44a7,7,0,0,1,1.33-1.16.52.52,0,0,1,.45.45,13.2,13.2,0,0,1-2.44,2.4,2,2,0,0,1-.35-.06Zm-3.86,0a.28.28,0,0,1-.08-.2c0-.22.26-.57.87-1.17,1.08-1.08,1.45-1.41,1.6-1.41a.52.52,0,0,1,.4.47,7.44,7.44,0,0,1-1.11,1.27c-.8.81-1.17,1.11-1.35,1.11a.62.62,0,0,1-.33-.07Zm-7.63,0c-.11,0-.16-.1-.16-.19s.34-.64,1.15-1.44a7,7,0,0,1,1.33-1.16.51.51,0,0,1,.46.45,12.9,12.9,0,0,1-2.44,2.4,1.86,1.86,0,0,1-.34-.06Zm-3.86,0a.27.27,0,0,1-.08-.19c0-.24.3-.62,1-1.34,1.2-1.18,1.28-1.25,1.42-1.25a.53.53,0,0,1,.41.46,7.14,7.14,0,0,1-1.11,1.28c-.8.81-1.17,1.11-1.35,1.11A.6.6,0,0,1,10,54.65Zm-7.58,0c.21-.47.43-.94.67-1.4A3.44,3.44,0,0,1,3.38,53c1.2-1.19,1.46-1.33,1.66-.89s0,.45-1.24,1.7c-.67.67-.94.89-1.2.89A.45.45,0,0,1,2.44,54.68Zm65.13,0a.21.21,0,0,1-.16-.2c0-.33.64-1,2.19-2.49a.62.62,0,0,1,.26-.12.53.53,0,0,1,.41.45A11.49,11.49,0,0,1,68,54.68a.78.78,0,0,1-.22,0A.51.51,0,0,1,67.57,54.68Zm-11.49,0a.2.2,0,0,1-.16-.2c0-.33.63-1,2.19-2.49a.57.57,0,0,1,.26-.12.52.52,0,0,1,.4.45,11.24,11.24,0,0,1-2.31,2.36.76.76,0,0,1-.21,0A.47.47,0,0,1,56.08,54.68Zm-11.5,0a.23.23,0,0,1-.16-.21c0-.22.27-.6.86-1.19,1.08-1.08,1.46-1.41,1.6-1.41a.52.52,0,0,1,.4.46A11.43,11.43,0,0,1,45,54.68a.76.76,0,0,1-.21,0A.57.57,0,0,1,44.58,54.68Zm-11.49,0a.22.22,0,0,1-.17-.21c0-.22.28-.6.87-1.19,1.08-1.08,1.45-1.41,1.6-1.41a.55.55,0,0,1,.4.46,11.23,11.23,0,0,1-2.32,2.35.71.71,0,0,1-.21,0A.47.47,0,0,1,33.09,54.68Zm30.62,0c-.1,0-.16-.1-.16-.2s.34-.63,1.14-1.44c1.17-1.17,1.53-1.38,1.66-1s0,.54-1.11,1.61c-.8.79-1.07,1-1.32,1A.78.78,0,0,1,63.71,54.66Zm-11.49,0c-.11,0-.16-.1-.16-.2s.34-.63,1.14-1.44c1.17-1.17,1.52-1.38,1.65-1s0,.54-1.1,1.61c-.8.79-1.07,1-1.32,1a.78.78,0,0,1-.21,0Zm-11.49,0c-.11,0-.17-.1-.17-.2s.34-.63,1.14-1.44c1.17-1.17,1.53-1.38,1.66-1s0,.54-1.11,1.61c-.8.79-1.07,1-1.31,1A.65.65,0,0,1,40.73,54.66Zm-11.5,0c-.1,0-.16-.1-.16-.2s.34-.63,1.14-1.44c1.17-1.17,1.52-1.38,1.66-1s0,.54-1.11,1.61c-.8.79-1.07,1-1.32,1a.78.78,0,0,1-.21,0Zm-11.49,0c-.11,0-.17-.1-.17-.2s.34-.63,1.14-1.44c1.17-1.17,1.53-1.38,1.66-1s0,.54-1.11,1.61c-.8.79-1.07,1-1.31,1a.65.65,0,0,1-.21,0Zm-11.5,0c-.1,0-.16-.1-.16-.2s.34-.63,1.14-1.44c1.17-1.17,1.53-1.38,1.66-1s0,.54-1.11,1.61c-.8.79-1.07,1-1.32,1a.65.65,0,0,1-.2,0Zm69.05,0c-.16,0-.25-.1-.25-.22s.35-.64,1.14-1.44c1.14-1.14,1.5-1.36,1.65-1s0,.55-.93,1.51-1.19,1.16-1.45,1.16Zm11.5,0c-.17,0-.26-.11-.26-.22s.35-.64,1.14-1.44c1.14-1.14,1.5-1.36,1.65-1s0,.56-.86,1.46-1.25,1.2-1.53,1.2ZM71.35,50.62a.54.54,0,0,1,0-.21c0-.26.25-.57,1-1.35,1.06-1.08,1.26-1.22,1.6-1.11s.25.5-.93,1.67c-.8.8-1.23,1.15-1.46,1.15a.2.2,0,0,1-.18-.15Zm-11.52,0a.46.46,0,0,1-.15-.26,14.62,14.62,0,0,1,2.45-2.46c.78,0,.67.41-.4,1.49s-1.39,1.37-1.63,1.37a.4.4,0,0,1-.26-.14Zm34.5,0a.86.86,0,0,1,0-.27.51.51,0,0,1,.08-.29l0,0,.39.72a.38.38,0,0,1-.15,0c-.14,0-.27-.06-.29-.13Zm-7.64,0a.48.48,0,0,1-.16-.26,8.85,8.85,0,0,1,1.14-1.3c.94-1,1.2-1.15,1.4-1.13s.27.1.29.32-.1.44-1.08,1.4A6.71,6.71,0,0,1,87,50.75a.58.58,0,0,1-.31-.13Zm-3.85,0a.85.85,0,0,1-.06-.31h0a11.67,11.67,0,0,1,2.36-2.4c.31,0,.48.12.48.35a8.94,8.94,0,0,1-2.49,2.49c-.13,0-.26-.06-.28-.13Zm-7.65,0a.46.46,0,0,1-.15-.26,8.85,8.85,0,0,1,1.14-1.3c.93-1,1.2-1.15,1.4-1.13s.26.1.28.32-.1.44-1.07,1.4a7.09,7.09,0,0,1-1.29,1.1.54.54,0,0,1-.3-.13Zm-7.71,0a.72.72,0,0,1-.06-.29h0A14,14,0,0,1,69.8,47.9c.3,0,.46.14.46.37a8.34,8.34,0,0,1-2.47,2.48c-.14,0-.28-.06-.3-.13Zm-3.78,0a.41.41,0,0,1-.15-.26,8.24,8.24,0,0,1,1.13-1.3c.94-1,1.2-1.15,1.4-1.13s.27.1.29.32-.1.44-1.08,1.4A6.71,6.71,0,0,1,64,50.75a.61.61,0,0,1-.31-.13Zm-7.71,0a.72.72,0,0,1-.06-.29h0a13.3,13.3,0,0,1,2.38-2.42c.29,0,.46.13.46.36a8.18,8.18,0,0,1-2.49,2.48c-.12,0-.27-.06-.29-.13Zm-3.79,0a.46.46,0,0,1-.15-.26,8.85,8.85,0,0,1,1.14-1.3c.94-1,1.2-1.15,1.4-1.13s.27.1.29.32-.1.44-1.08,1.4a6.71,6.71,0,0,1-1.28,1.1.58.58,0,0,1-.31-.13Zm-3.86,0a.46.46,0,0,1-.15-.26,13.53,13.53,0,0,1,2.45-2.45c.33,0,.5.12.5.34a11.1,11.1,0,0,1-2.48,2.5.54.54,0,0,1-.31-.13Zm-3.85,0a1.36,1.36,0,0,1-.06-.29h0a13.3,13.3,0,0,1,2.38-2.42c.3,0,.46.13.46.36a8.26,8.26,0,0,1-2.48,2.48c-.13,0-.27-.06-.29-.13Zm-3.78,0a.41.41,0,0,1-.15-.25c0-.16,0-.16,1.3-1.48.79-.79,1-1,1.24-1s.26.1.28.32-.1.44-1.08,1.4A6.71,6.71,0,0,1,41,50.75a.54.54,0,0,1-.3-.13Zm-3.87,0a.46.46,0,0,1-.15-.26,12,12,0,0,1,2.49-2.45.42.42,0,0,1,.46.4,13,13,0,0,1-2.48,2.44.58.58,0,0,1-.31-.13Zm-3.84,0a.72.72,0,0,1-.06-.29h0a13.3,13.3,0,0,1,2.38-2.42c.28,0,.46.13.46.36a8.74,8.74,0,0,1-2.48,2.48c-.13,0-.27-.06-.29-.13Zm-3.79,0c-.08-.08-.14-.14-.14-.22s.35-.58,1.4-1.65c.69-.69.92-.84,1.12-.82s.28.09.3.32-.1.44-1.08,1.4a6.71,6.71,0,0,1-1.28,1.1.61.61,0,0,1-.31-.13Zm-3.86,0a.41.41,0,0,1-.15-.26,11.57,11.57,0,0,1,2.49-2.45.43.43,0,0,1,.46.4,13.7,13.7,0,0,1-2.48,2.45.62.62,0,0,1-.31-.14Zm-3.85,0a1.36,1.36,0,0,1-.06-.29h0a13.58,13.58,0,0,1,2.37-2.42c.3,0,.47.13.47.36a8.62,8.62,0,0,1-2.48,2.48c-.13,0-.27-.06-.29-.13Zm-3.78,0c-.09-.08-.14-.14-.14-.22s.34-.58,1.4-1.65c.69-.69.91-.84,1.12-.82s.27.09.29.32-.1.44-1.08,1.4A6.71,6.71,0,0,1,18,50.75a.54.54,0,0,1-.3-.13Zm-3.86,0a.48.48,0,0,1-.16-.26,12,12,0,0,1,2.49-2.45.43.43,0,0,1,.46.4,13.33,13.33,0,0,1-2.47,2.45.56.56,0,0,1-.31-.14Zm-3.85,0a.72.72,0,0,1-.06-.29h0a12.64,12.64,0,0,1,2.37-2.42c.3,0,.47.13.47.36a8.65,8.65,0,0,1-2.49,2.48c-.12,0-.26-.06-.28-.13Zm-3.79,0c-.08-.08-.14-.14-.14-.22s.35-.58,1.4-1.65c.69-.69.92-.84,1.12-.82s.28.09.3.32-.11.44-1.08,1.4a6.82,6.82,0,0,1-1.29,1.1.58.58,0,0,1-.3-.13Zm72.75,0a.58.58,0,0,1,0-.19c0-.25.26-.55,1.11-1.4s1.18-1.13,1.39-1.1.28.09.3.31-.13.45-1.07,1.39-1.18,1.12-1.38,1.12-.28-.06-.3-.13Zm11.55,0a.26.26,0,0,1-.1-.2c0-.23.3-.58,1.11-1.4s1.18-1.13,1.4-1.1.27.09.29.31-.12.44-1.09,1.4c-.79.79-1.15,1.09-1.4,1.09a.3.3,0,0,1-.21-.1ZM56,46.65a.49.49,0,0,1,0-.21c0-.26.24-.57,1-1.35C58,44,58.22,43.87,58.57,44s.24.5-.93,1.66c-.8.8-1.23,1.15-1.46,1.15A.19.19,0,0,1,56,46.65Zm-23,0a.5.5,0,0,1,0-.21c0-.26.24-.57,1-1.34C35,44,35.23,43.88,35.58,44s.23.49-.93,1.65c-.8.8-1.23,1.16-1.46,1.16A.18.18,0,0,1,33,46.65Zm-11.5,0a.49.49,0,0,1,0-.21c0-.26.24-.57,1-1.34,1.07-1.09,1.26-1.22,1.6-1.11s.23.47-.93,1.64c-.8.82-1.23,1.17-1.46,1.17A.18.18,0,0,1,21.51,46.65Zm49.84,0a.54.54,0,0,1,0-.22c0-.26.26-.57,1.07-1.38,1-1.06,1.23-1.2,1.6-1s.15.5-1,1.63c-.8.81-1.22,1.16-1.45,1.16A.19.19,0,0,1,71.35,46.65Zm11.5,0a.5.5,0,0,1,0-.21c0-.26.25-.57,1-1.34C84.88,44,85.07,43.88,85.42,44s.22.47-1,1.64c-.8.81-1.23,1.16-1.45,1.16A.18.18,0,0,1,82.85,46.65ZM10,46.65a.5.5,0,0,1,0-.21c0-.26.25-.57,1-1.34C12.05,44,12.25,43.88,12.59,44s.22.47-.95,1.64c-.8.81-1.22,1.16-1.45,1.16a.18.18,0,0,1-.17-.14Zm57.47,0a1,1,0,0,1-.07-.3h0a11.77,11.77,0,0,1,2.37-2.41c.31,0,.47.13.47.36a8.81,8.81,0,0,1-2.49,2.49C67.64,46.79,67.51,46.72,67.49,46.65Zm-7.65,0a.46.46,0,0,1-.15-.26,13.53,13.53,0,0,1,2.45-2.45c.32,0,.5.12.5.33a11.1,11.1,0,0,1-2.47,2.51A.51.51,0,0,1,59.84,46.65Zm-11.49,0a.48.48,0,0,1-.16-.26,14.2,14.2,0,0,1,2.45-2.45c.32,0,.5.12.5.33a10.7,10.7,0,0,1-2.47,2.51A.48.48,0,0,1,48.35,46.65Zm-3.85,0a.5.5,0,0,1,0-.21c0-.26.25-.57,1-1.35A9.93,9.93,0,0,1,46.69,44c.3-.1.59.05.59.3a9,9,0,0,1-2.5,2.5A.28.28,0,0,1,44.5,46.65Zm-7.65,0a.46.46,0,0,1-.15-.26,13.53,13.53,0,0,1,2.45-2.45c.32,0,.5.12.5.33a11.1,11.1,0,0,1-2.47,2.51A.51.51,0,0,1,36.85,46.65Zm-11.49,0a.48.48,0,0,1-.16-.26,13.91,13.91,0,0,1,2.46-2.45c.31,0,.5.12.5.33a10.94,10.94,0,0,1-2.48,2.51A.48.48,0,0,1,25.36,46.65Zm-11.5,0a.36.36,0,0,1-.14-.26.51.51,0,0,1,.15-.3,12.82,12.82,0,0,1,2.33-2.15.43.43,0,0,1,.46.4,13.33,13.33,0,0,1-2.47,2.45A.61.61,0,0,1,13.86,46.65Zm72.83,0a.41.41,0,0,1-.15-.25v0c0-.14,0-.17,1.27-1.43.82-.83,1.06-1,1.27-1s.27.1.29.33-.1.44-1.08,1.4A7.5,7.5,0,0,1,87,46.78.54.54,0,0,1,86.69,46.65Zm-11.49,0c-.1-.08-.17-.14-.17-.23s.31-.5,1.29-1.48c.81-.82,1.06-1,1.27-1s.26.1.28.32-.11.44-1.07,1.4a7.27,7.27,0,0,1-1.3,1.11A.56.56,0,0,1,75.2,46.65Zm-11.5,0c-.1-.08-.16-.14-.16-.23s.31-.5,1.28-1.48c.82-.82,1.07-1,1.27-1s.27.1.29.31-.12.44-1.09,1.4A6.76,6.76,0,0,1,64,46.78.53.53,0,0,1,63.7,46.65Zm-11.49,0c-.1-.08-.17-.14-.17-.23s.32-.5,1.29-1.48c.81-.82,1.07-1,1.27-1s.27.1.29.3-.14.45-1.09,1.4a8,8,0,0,1-1.28,1.12.51.51,0,0,1-.31-.13Zm-11.49,0c-.1-.08-.17-.14-.17-.23s.31-.5,1.27-1.48c.84-.83,1.06-1,1.28-1s.27.09.29.3-.14.45-1.09,1.4A7.19,7.19,0,0,1,41,46.78a.48.48,0,0,1-.3-.13Zm-11.5,0c-.1-.08-.16-.14-.16-.23s.31-.5,1.27-1.48c.83-.83,1.06-1,1.27-1s.28.09.3.3-.14.45-1.09,1.4a7.62,7.62,0,0,1-1.28,1.12.53.53,0,0,1-.31-.13Zm-11.49,0c-.1-.08-.16-.14-.16-.23s.3-.5,1.27-1.48c.83-.83,1.05-1,1.27-1s.27.09.29.3-.14.45-1.08,1.4A7.32,7.32,0,0,1,18,46.78a.51.51,0,0,1-.29-.13Zm72.8,0a.27.27,0,0,1-.11-.22c0-.2.22-.48.75-1l.52-.53.42.79-.43.44c-.46.45-.72.65-.92.65a.32.32,0,0,1-.24-.11Zm-11.5,0a.32.32,0,0,1-.1-.21c0-.24.3-.6,1.12-1.4s1.18-1.12,1.4-1.09.27.09.3.3-.16.45-1.1,1.4-1.17,1.11-1.39,1.11a.3.3,0,0,1-.23-.11ZM8.72,44c.12,0,.17.11.2.28s-.15.45-1.09,1.4L7.49,46Zm78-1.28a.44.44,0,0,1-.2-.31A13.81,13.81,0,0,1,89,39.88l.31.59A15.55,15.55,0,0,1,87,42.82a1.11,1.11,0,0,1-.3-.12Zm-11.49,0a.44.44,0,0,1-.2-.31,12.85,12.85,0,0,1,2.53-2.52c.2,0,.32.2.32.52a13.86,13.86,0,0,1-2.35,2.43,1,1,0,0,1-.3-.12Zm-49.84,0a.42.42,0,0,1-.2-.29,14,14,0,0,1,2.51-2.54.54.54,0,0,1,.44.46,15.59,15.59,0,0,1-2.45,2.49,1.11,1.11,0,0,1-.3-.12Zm-11.5,0a.5.5,0,0,1-.2-.29,14,14,0,0,1,2.51-2.54.53.53,0,0,1,.44.46,16.41,16.41,0,0,1-2.44,2.49,1.34,1.34,0,0,1-.3-.12Zm34.53,0a.45.45,0,0,1-.25-.31,14.77,14.77,0,0,1,2.52-2.54.53.53,0,0,1,.43.46A14.32,14.32,0,0,1,49,42.64a.63.63,0,0,1-.32.15.52.52,0,0,1-.22-.07Zm-11.5,0c-.13-.08-.25-.21-.25-.31a14.77,14.77,0,0,1,2.52-2.54.53.53,0,0,1,.43.45,14.39,14.39,0,0,1-2.16,2.32.63.63,0,0,1-.32.15.57.57,0,0,1-.22-.07Zm23,0c-.14-.09-.26-.22-.26-.3a16.61,16.61,0,0,1,2.52-2.51.51.51,0,0,1,.43.45,13.51,13.51,0,0,1-2.16,2.31c-.14.1-.22.15-.29.15a.51.51,0,0,1-.24-.1Zm-42.15,0a.45.45,0,0,1-.22-.33,11,11,0,0,1,2.5-2.5c.23,0,.35.18.35.5a13.89,13.89,0,0,1-2.21,2.32.37.37,0,0,1-.22.1.4.4,0,0,1-.2-.09Zm61.33,0c-.14-.07-.21-.15-.21-.27s.33-.63,1.15-1.44a8.36,8.36,0,0,1,1.3-1.14.41.41,0,0,1,.27.13c.28.27.11.54-.92,1.56s-1.25,1.22-1.42,1.22a.35.35,0,0,1-.17-.06Zm-11.49,0c-.14-.07-.22-.15-.22-.27s.34-.63,1.15-1.44a9.23,9.23,0,0,1,1.28-1.14.54.54,0,0,1,.42.48,5.51,5.51,0,0,1-1.05,1.21c-1,1-1.24,1.22-1.41,1.22a.49.49,0,0,1-.17-.06Zm3.85,0c-.13-.07-.2-.15-.2-.26s.33-.64,1.14-1.45a9.15,9.15,0,0,1,1.27-1.14.54.54,0,0,1,.44.46A14.32,14.32,0,0,1,72,42.64a.58.58,0,0,1-.31.13.34.34,0,0,1-.17-.05Zm-15.36,0c-.13-.07-.2-.15-.2-.26s.34-.64,1.15-1.45a9.23,9.23,0,0,1,1.28-1.14.53.53,0,0,1,.42.47,13.77,13.77,0,0,1-2.16,2.29.5.5,0,0,1-.31.14.37.37,0,0,1-.18-.05Zm-11.49,0c-.13-.07-.2-.15-.2-.26s.34-.64,1.15-1.45a9.23,9.23,0,0,1,1.28-1.14.53.53,0,0,1,.42.47,13.77,13.77,0,0,1-2.16,2.29.62.62,0,0,1-.31.14.35.35,0,0,1-.18-.05Zm-11.49,0c-.13-.07-.2-.15-.2-.26s.33-.64,1.15-1.45a9.23,9.23,0,0,1,1.28-1.14.56.56,0,0,1,.42.47,14.19,14.19,0,0,1-2.16,2.29.55.55,0,0,1-.32.14.34.34,0,0,1-.17-.05Zm-11.5,0c-.13-.07-.2-.15-.2-.26s.34-.64,1.15-1.45a9.23,9.23,0,0,1,1.28-1.14.54.54,0,0,1,.42.47,14.19,14.19,0,0,1-2.16,2.29.55.55,0,0,1-.32.14.3.3,0,0,1-.16-.05Zm-11.5,0c-.13-.07-.2-.15-.2-.26s.34-.64,1.15-1.45a9.31,9.31,0,0,1,1.29-1.14.53.53,0,0,1,.41.47,13.71,13.71,0,0,1-2.15,2.29.55.55,0,0,1-.32.14.34.34,0,0,1-.17-.05Zm53.6,0a.47.47,0,0,1-.2-.31,13.18,13.18,0,0,1,2.54-2.52c.2,0,.31.2.31.51a13.22,13.22,0,0,1-2.22,2.33.34.34,0,0,1-.2.06.4.4,0,0,1-.21-.07Zm-11.49,0a.46.46,0,0,1-.2-.32,12.54,12.54,0,0,1,2.53-2.51c.2,0,.32.18.32.51a14,14,0,0,1-2.22,2.33.36.36,0,0,1-.2.06.44.44,0,0,1-.22-.07Zm-11.49,0a.43.43,0,0,1-.2-.32,11.28,11.28,0,0,1,2.51-2.51c.21,0,.34.18.34.5a13.37,13.37,0,0,1-2.23,2.34.36.36,0,0,1-.2.06.38.38,0,0,1-.21-.07Zm-11.5,0a.46.46,0,0,1-.2-.33,11.49,11.49,0,0,1,2.52-2.5c.2,0,.33.19.33.5a12.68,12.68,0,0,1-2.23,2.34.48.48,0,0,1-.2.07.54.54,0,0,1-.21-.08Zm53.71,0c-.13-.07-.2-.15-.2-.26s.3-.6,1-1.29c1.5-1.48,1.44-1.44,1.72-1.16s.14.5-.8,1.46-1.3,1.29-1.54,1.29a.37.37,0,0,1-.15,0Zm7.45-.21.07.13a.31.31,0,0,1-.06-.13ZM59.81,38.63a.42.42,0,0,1-.12-.26,16.22,16.22,0,0,1,2.5-2.47.52.52,0,0,1,.44.45,6.42,6.42,0,0,1-1.11,1.28c-.8.81-1.18,1.13-1.44,1.13A.39.39,0,0,1,59.81,38.63Zm-11.49,0a.43.43,0,0,1-.13-.26,16.22,16.22,0,0,1,2.5-2.47.52.52,0,0,1,.45.45A7.19,7.19,0,0,1,50,37.63c-.82.81-1.19,1.12-1.45,1.12A.33.33,0,0,1,48.32,38.63Zm-11.5,0a.42.42,0,0,1-.12-.26,16.22,16.22,0,0,1,2.5-2.47.52.52,0,0,1,.45.45,7.67,7.67,0,0,1-1.13,1.28c-.81.81-1.19,1.12-1.44,1.12a.37.37,0,0,1-.26-.12Zm46,0a.25.25,0,0,1-.09-.19c0-.24.3-.62,1-1.34C85,36,85.07,35.9,85.22,35.9a.53.53,0,0,1,.4.45,6.76,6.76,0,0,1-1.11,1.28c-.8.79-1.18,1.12-1.36,1.12A.51.51,0,0,1,82.85,38.68Zm-3.87,0a.25.25,0,0,1-.08-.18c0-.24.33-.64,1.16-1.46a7.5,7.5,0,0,1,1.31-1.14.42.42,0,0,1,.36.47s0,.05,0,.07a7.9,7.9,0,0,1-1.11,1.27c-.77.75-1.13,1-1.31,1a.6.6,0,0,1-.32-.07Zm-7.63,0a.28.28,0,0,1-.08-.2c0-.24.32-.64,1.14-1.45a8.56,8.56,0,0,1,1.28-1.13.53.53,0,0,1,.44.45A6.81,6.81,0,0,1,73,37.63c-.79.79-1.18,1.12-1.35,1.12A.57.57,0,0,1,71.35,38.68Zm-46,0c-.1,0-.16-.1-.16-.19s.34-.63,1.16-1.44a7.4,7.4,0,0,1,1.34-1.16.53.53,0,0,1,.45.45,13.26,13.26,0,0,1-2.45,2.4,2,2,0,0,1-.34-.06Zm-3.86,0a.27.27,0,0,1-.08-.19c0-.23.26-.58.87-1.18,1.07-1.07,1.45-1.41,1.6-1.41a.56.56,0,0,1,.4.47,7.44,7.44,0,0,1-1.11,1.27c-.8.81-1.17,1.11-1.36,1.11A.6.6,0,0,1,21.51,38.68Zm-7.63,0c-.11,0-.17-.1-.17-.19s.35-.63,1.16-1.44a7.27,7.27,0,0,1,1.32-1.16.52.52,0,0,1,.47.45,12.9,12.9,0,0,1-2.44,2.4,1.86,1.86,0,0,1-.34-.06Zm53.69,0a.21.21,0,0,1-.16-.2c0-.33.64-1,2.19-2.49a.62.62,0,0,1,.26-.12.51.51,0,0,1,.4.46A11.38,11.38,0,0,1,68,38.71a.78.78,0,0,1-.22,0Zm-11.5,0a.2.2,0,0,1-.15-.2c0-.33.63-1,2.19-2.49a.58.58,0,0,1,.25-.12.52.52,0,0,1,.41.46,11.43,11.43,0,0,1-2.31,2.35l-.21,0Zm-11.49,0a.24.24,0,0,1-.17-.21c0-.22.28-.6.87-1.18,1.08-1.08,1.46-1.42,1.6-1.42a.53.53,0,0,1,.4.46A11.43,11.43,0,0,1,45,38.71a.71.71,0,0,1-.21,0l-.18,0Zm-11.49,0a.21.21,0,0,1-.17-.21c0-.22.28-.6.87-1.18,1.08-1.08,1.45-1.42,1.6-1.42a.56.56,0,0,1,.4.46,11.43,11.43,0,0,1-2.31,2.35l-.21,0-.18,0Zm30.62,0c-.1,0-.16-.1-.16-.19s.34-.64,1.14-1.45c1.17-1.17,1.53-1.37,1.66-.95s0,.54-1.11,1.61c-.8.79-1.07,1-1.32,1a.52.52,0,0,1-.21,0Zm-11.49,0c-.11,0-.16-.1-.16-.19s.34-.64,1.14-1.45c1.17-1.17,1.52-1.37,1.66-.94s0,.53-1.11,1.6c-.8.79-1.07,1-1.32,1a.52.52,0,0,1-.21,0Zm-11.49,0c-.11,0-.17-.1-.17-.19s.34-.64,1.14-1.45c1.17-1.17,1.53-1.37,1.66-.95s0,.54-1.11,1.61c-.8.79-1.07,1-1.32,1a.45.45,0,0,1-.2,0Zm-11.5,0c-.1,0-.16-.1-.16-.19s.34-.64,1.14-1.45c1.17-1.17,1.52-1.37,1.66-.95s0,.54-1.11,1.61c-.8.79-1.07,1-1.32,1a.52.52,0,0,1-.21,0Zm-11.49,0c-.11,0-.17-.1-.17-.19s.34-.64,1.14-1.45c1.17-1.17,1.53-1.37,1.66-.95s0,.54-1.11,1.61c-.8.79-1.07,1-1.32,1a.45.45,0,0,1-.2,0Zm57.55,0c-.16,0-.25-.1-.25-.22s.34-.63,1.14-1.44c1.14-1.14,1.51-1.36,1.65-1s0,.55-.93,1.5-1.19,1.17-1.45,1.17l-.16,0Zm11.5,0c-.17,0-.25-.12-.25-.23s.23-.51.73-1l.32-.33L88,38v0c-.54.55-.82.76-1.08.76l-.14,0ZM71.35,34.65a.54.54,0,0,1,0-.21c0-.27.25-.57,1-1.35C73.38,32,73.58,31.87,73.92,32s.24.5-.93,1.67c-.8.8-1.23,1.15-1.46,1.15a.2.2,0,0,1-.18-.15Zm-11.52,0a.46.46,0,0,1-.15-.26,14.26,14.26,0,0,1,2.45-2.46c.78,0,.66.41-.4,1.49s-1.39,1.37-1.63,1.37a.45.45,0,0,1-.26-.14Zm19.15,0a.59.59,0,0,1,0-.19c0-.25.26-.55,1.11-1.4s1.18-1.14,1.4-1.11.27.1.3.32-.13.45-1.08,1.39-1.18,1.12-1.37,1.12-.29-.06-.31-.13Zm-3.79,0a.46.46,0,0,1-.15-.26,8.85,8.85,0,0,1,1.14-1.3c.93-1,1.2-1.15,1.4-1.13s.26.1.28.32-.1.44-1.08,1.4a6.71,6.71,0,0,1-1.28,1.1.54.54,0,0,1-.3-.13Zm-11.49,0a.48.48,0,0,1-.16-.26,8.85,8.85,0,0,1,1.14-1.3c.94-1,1.2-1.15,1.4-1.13s.27.1.29.32-.1.44-1.08,1.4A6.71,6.71,0,0,1,64,34.78a.61.61,0,0,1-.31-.13Zm-11.5,0a.46.46,0,0,1-.15-.26,8.85,8.85,0,0,1,1.14-1.3c.94-1,1.2-1.15,1.4-1.13s.27.1.29.32-.1.44-1.08,1.4a6.71,6.71,0,0,1-1.28,1.1.58.58,0,0,1-.31-.13Zm30.64,0a.87.87,0,0,1-.06-.32h0a13,13,0,0,1,2.13-2.25l.38.72a9.1,9.1,0,0,1-2.17,2c-.12,0-.25-.06-.27-.13Zm-15.36,0a.71.71,0,0,1-.06-.28h0a13.69,13.69,0,0,1,2.38-2.43c.3,0,.46.13.46.36a8.34,8.34,0,0,1-2.47,2.48c-.14,0-.28-.06-.3-.13ZM56,34.65a.8.8,0,0,1-.06-.3h0a13.63,13.63,0,0,1,2.38-2.42c.29,0,.46.13.46.37a8.53,8.53,0,0,1-2.49,2.48c-.12,0-.27-.06-.29-.13Zm-7.65,0a.46.46,0,0,1-.15-.26,13.91,13.91,0,0,1,2.45-2.46c.33,0,.5.13.5.35a11.31,11.31,0,0,1-2.48,2.5.54.54,0,0,1-.31-.13Zm-3.85,0a1.59,1.59,0,0,1-.06-.3h0a13.63,13.63,0,0,1,2.38-2.42c.3,0,.46.13.46.37a8.5,8.5,0,0,1-2.48,2.48c-.13,0-.27-.06-.29-.13Zm-3.78,0a.41.41,0,0,1-.15-.25c0-.16,0-.16,1.3-1.48.79-.79,1-1,1.24-1s.26.1.28.33-.1.44-1.08,1.4A6.71,6.71,0,0,1,41,34.78a.54.54,0,0,1-.3-.13Zm-3.87,0a.46.46,0,0,1-.15-.26,12.35,12.35,0,0,1,2.49-2.46.44.44,0,0,1,.46.41,13,13,0,0,1-2.48,2.44.61.61,0,0,1-.31-.13Zm-3.84,0a.8.8,0,0,1-.06-.3h0a13.63,13.63,0,0,1,2.38-2.42c.28,0,.46.13.46.37a8.87,8.87,0,0,1-2.48,2.48c-.13,0-.27-.06-.29-.13Zm-3.79,0c-.08-.08-.14-.14-.14-.23s.35-.57,1.4-1.64c.69-.69.92-.85,1.12-.83s.28.1.3.33-.1.44-1.08,1.4a6.71,6.71,0,0,1-1.28,1.1.61.61,0,0,1-.31-.13Zm-3.86,0a.41.41,0,0,1-.15-.26,11.85,11.85,0,0,1,2.49-2.46.44.44,0,0,1,.46.4,13.13,13.13,0,0,1-2.48,2.46.62.62,0,0,1-.31-.14Zm-3.85,0a1.59,1.59,0,0,1-.06-.3h0a13.92,13.92,0,0,1,2.37-2.42c.3,0,.47.13.47.37a8.74,8.74,0,0,1-2.48,2.48c-.13,0-.27-.06-.29-.13Zm-3.78,0c-.09-.08-.14-.14-.14-.23s.34-.57,1.4-1.64c.69-.69.91-.85,1.12-.83s.27.1.29.33-.1.44-1.08,1.4A6.71,6.71,0,0,1,18,34.78a.54.54,0,0,1-.3-.13ZM16,32a.5.5,0,0,1,.19-.1.42.42,0,0,1,.45.4,14.69,14.69,0,0,1-2.23,2.3Zm17-1.36a.46.46,0,0,1,0-.21c0-.26.25-.57,1-1.34C35,28,35.24,27.91,35.58,28s.24.49-.92,1.66c-.8.8-1.24,1.15-1.47,1.15a.18.18,0,0,1-.18-.15Zm23,0a.46.46,0,0,1,0-.21c0-.26.24-.56,1-1.34C58,28,58.23,27.91,58.57,28s.25.5-.92,1.67c-.8.79-1.24,1.14-1.47,1.14a.19.19,0,0,1-.19-.15Zm-34.48,0a.46.46,0,0,1-.05-.21c0-.26.24-.56,1-1.34C23.55,28,23.74,27.91,24.09,28s.22.47-.94,1.65c-.8.81-1.23,1.16-1.46,1.16a.19.19,0,0,1-.18-.15Zm49.84,0a.51.51,0,0,1-.06-.21c0-.27.26-.58,1.07-1.39,1-1.06,1.23-1.19,1.6-1s.16.5-1,1.64c-.8.81-1.23,1.15-1.46,1.15a.17.17,0,0,1-.18-.14Zm3.84,0c-.1-.08-.17-.14-.17-.22s.32-.5,1.29-1.48c.81-.83,1.07-1,1.27-1s.27.1.29.33-.11.43-1.08,1.39a7.57,7.57,0,0,1-1.29,1.11.52.52,0,0,1-.31-.14Zm-7.71,0a1,1,0,0,1-.07-.3h0A11.52,11.52,0,0,1,69.79,28c.31,0,.47.13.47.36a8.81,8.81,0,0,1-2.49,2.49c-.13,0-.26-.06-.28-.14Zm-3.78,0c-.1-.08-.17-.14-.17-.22s.31-.5,1.29-1.48c.81-.83,1.06-1,1.27-1s.26.1.28.32-.12.43-1.09,1.4A7.14,7.14,0,0,1,64,30.82a.55.55,0,0,1-.31-.14Zm-3.87,0a.43.43,0,0,1-.15-.26A13.86,13.86,0,0,1,62.14,28c.32,0,.5.12.5.33a10.94,10.94,0,0,1-2.47,2.52.58.58,0,0,1-.33-.14Zm-7.63,0c-.1-.08-.16-.14-.16-.22s.31-.5,1.28-1.48,1.07-1,1.27-1,.27.1.29.31-.13.44-1.09,1.4a7.62,7.62,0,0,1-1.28,1.12.52.52,0,0,1-.31-.14Zm-3.86,0a.39.39,0,0,1-.15-.26A13.53,13.53,0,0,1,50.65,28c.31,0,.5.12.5.33a11.19,11.19,0,0,1-2.48,2.52.55.55,0,0,1-.32-.14Zm-11.5,0a.43.43,0,0,1-.15-.26A13.86,13.86,0,0,1,39.15,28c.32,0,.5.12.5.33a10.94,10.94,0,0,1-2.47,2.52.58.58,0,0,1-.33-.14Zm-11.49,0a.39.39,0,0,1-.15-.26A13.53,13.53,0,0,1,27.66,28c.31,0,.5.12.5.33a11,11,0,0,1-2.48,2.52.55.55,0,0,1-.32-.14Zm19.14,0a.46.46,0,0,1,0-.21c0-.26.24-.56,1-1.34A9.94,9.94,0,0,1,46.69,28c.3-.09.59,0,.59.3a9.12,9.12,0,0,1-2.49,2.5.29.29,0,0,1-.29-.13Zm-3.78,0c-.1-.08-.16-.14-.16-.22s.3-.5,1.27-1.48,1.05-1,1.27-1,.27.09.29.31-.14.44-1.08,1.4A8.64,8.64,0,0,1,41,30.82a.49.49,0,0,1-.3-.14Zm-11.5,0c-.1-.08-.16-.14-.16-.22s.31-.5,1.27-1.48,1.06-1,1.27-1,.28.09.3.31-.14.44-1.08,1.4a8,8,0,0,1-1.29,1.11.48.48,0,0,1-.31-.13Zm-11.49,0c-.1-.08-.16-.14-.16-.22s.3-.5,1.27-1.48,1.06-1,1.27-1,.28.09.3.31-.15.44-1.09,1.39A7.81,7.81,0,0,1,18,30.82a.53.53,0,0,1-.29-.14Zm65.12,0a.54.54,0,0,1,0-.22c0-.23.18-.48.66-1l.06-.06.42.8c-.41.4-.72.6-.9.6a.18.18,0,0,1-.19-.14ZM79,30.7a.31.31,0,0,1-.09-.22c0-.24.3-.6,1.11-1.4S81.23,28,81.45,28s.27.09.3.3-.16.45-1.1,1.4-1.16,1.11-1.39,1.11a.33.33,0,0,1-.23-.1Zm-3.78-4a.44.44,0,0,1-.2-.31,13.13,13.13,0,0,1,2.53-2.52c.2,0,.32.2.32.52a13.86,13.86,0,0,1-2.35,2.43,1,1,0,0,1-.3-.12Zm-49.84,0a.42.42,0,0,1-.2-.29,14.37,14.37,0,0,1,2.51-2.54.54.54,0,0,1,.44.46,16,16,0,0,1-2.44,2.49.84.84,0,0,1-.31-.12Zm23,0c-.13-.08-.25-.21-.25-.3a14.42,14.42,0,0,1,2.52-2.54.5.5,0,0,1,.43.45A13.51,13.51,0,0,1,49,26.67a.65.65,0,0,1-.32.16.53.53,0,0,1-.22-.08Zm-11.5,0c-.13-.08-.24-.21-.24-.3a14.37,14.37,0,0,1,2.51-2.54.51.51,0,0,1,.43.44,14.39,14.39,0,0,1-2.16,2.32.65.65,0,0,1-.32.16.58.58,0,0,1-.22-.08Zm23,0c-.14-.09-.25-.22-.25-.3A16.1,16.1,0,0,1,62.2,23.9a.53.53,0,0,1,.44.45,14,14,0,0,1-2.17,2.31c-.14.1-.21.15-.29.15a.51.51,0,0,1-.24-.1Zm19.18,0c-.13-.07-.21-.15-.21-.27s.34-.63,1.15-1.44l.76-.72.4.76c-.14.15-.31.31-.51.51-1,1-1.24,1.22-1.41,1.22a.35.35,0,0,1-.18-.06Zm-11.49,0c-.14-.07-.21-.15-.21-.27s.33-.63,1.15-1.44a9.23,9.23,0,0,1,1.28-1.14.52.52,0,0,1,.41.48,5.46,5.46,0,0,1-1,1.21c-1,1-1.25,1.22-1.42,1.22a.35.35,0,0,1-.17-.06Zm3.86,0c-.13-.07-.2-.15-.2-.26s.33-.64,1.13-1.45a9.15,9.15,0,0,1,1.27-1.14.54.54,0,0,1,.44.46A13.89,13.89,0,0,1,72,26.67a.63.63,0,0,1-.31.14.49.49,0,0,1-.17-.06Zm-15.36,0c-.14-.07-.21-.15-.21-.26s.34-.64,1.15-1.45a9.23,9.23,0,0,1,1.28-1.14.53.53,0,0,1,.42.47,14.13,14.13,0,0,1-2.15,2.29.37.37,0,0,1-.5.09Zm-11.5,0c-.13-.07-.2-.15-.2-.26s.34-.64,1.15-1.45a9.23,9.23,0,0,1,1.28-1.14.53.53,0,0,1,.42.47,13.77,13.77,0,0,1-2.16,2.29.55.55,0,0,1-.31.14.35.35,0,0,1-.18-.05Zm-11.49,0c-.13-.07-.2-.15-.2-.26s.34-.64,1.15-1.45a9.23,9.23,0,0,1,1.28-1.14.53.53,0,0,1,.42.47,13.77,13.77,0,0,1-2.16,2.29.57.57,0,0,1-.31.15.48.48,0,0,1-.18-.06Zm-11.49,0c-.14-.07-.21-.15-.21-.26s.34-.64,1.15-1.45a9.23,9.23,0,0,1,1.28-1.14.53.53,0,0,1,.42.47,13.77,13.77,0,0,1-2.16,2.29.57.57,0,0,1-.31.15.49.49,0,0,1-.17-.06Zm42.1,0a.47.47,0,0,1-.2-.31,13.18,13.18,0,0,1,2.54-2.52c.2,0,.31.2.31.51a13.54,13.54,0,0,1-2.21,2.33.36.36,0,0,1-.2.06.42.42,0,0,1-.23-.07Zm-11.49,0a.46.46,0,0,1-.2-.32,12.54,12.54,0,0,1,2.53-2.51c.2,0,.32.18.32.51a13.6,13.6,0,0,1-2.22,2.33.36.36,0,0,1-.2.06.48.48,0,0,1-.23-.07Zm-11.49,0a.43.43,0,0,1-.2-.32,11.49,11.49,0,0,1,2.51-2.51c.21,0,.34.18.34.5a13.73,13.73,0,0,1-2.23,2.34.36.36,0,0,1-.2.06.41.41,0,0,1-.22-.07Zm-11.5,0a.46.46,0,0,1-.2-.33,11.32,11.32,0,0,1,2.53-2.5c.2,0,.32.19.32.5a12.68,12.68,0,0,1-2.23,2.34.43.43,0,0,1-.2.07.58.58,0,0,1-.22-.08Zm30.54-4.07a.42.42,0,0,1-.12-.25,15.85,15.85,0,0,1,2.5-2.48.53.53,0,0,1,.44.45,6.42,6.42,0,0,1-1.11,1.28c-.8.82-1.18,1.13-1.44,1.13a.35.35,0,0,1-.27-.13Zm-11.5,0a.49.49,0,0,1-.12-.25,15.78,15.78,0,0,1,2.5-2.47.51.51,0,0,1,.45.44A7.19,7.19,0,0,1,50,21.66c-.82.81-1.19,1.13-1.45,1.13a.38.38,0,0,1-.26-.13Zm-11.49,0a.42.42,0,0,1-.12-.25,15.78,15.78,0,0,1,2.5-2.47.52.52,0,0,1,.45.44,7.67,7.67,0,0,1-1.13,1.28c-.81.81-1.19,1.12-1.44,1.12a.37.37,0,0,1-.26-.12Zm34.53.05a.31.31,0,0,1-.09-.19c0-.25.33-.65,1.15-1.46a8,8,0,0,1,1.28-1.12.52.52,0,0,1,.44.44A6.57,6.57,0,0,1,73,21.67c-.79.79-1.18,1.11-1.35,1.11a.49.49,0,0,1-.31-.07Zm-46,0c-.1,0-.16-.1-.16-.18s.34-.63,1.16-1.44a7.4,7.4,0,0,1,1.34-1.16.51.51,0,0,1,.44.45,12.9,12.9,0,0,1-2.44,2.4,1.37,1.37,0,0,1-.34-.07Zm-3.68.05L23,20.68a3,3,0,0,1,.92-.74.52.52,0,0,1,.4.46,6.76,6.76,0,0,1-1.11,1.28c-.8.81-1.17,1.11-1.35,1.11l-.14,0Zm57.37,0a.2.2,0,0,1-.16-.2c0-.17.18-.45.54-.83l.41.78a1.09,1.09,0,0,1-.61.29.58.58,0,0,1-.18,0Zm-11.49,0a.2.2,0,0,1-.16-.2c0-.32.64-1,2.19-2.49a.62.62,0,0,1,.26-.12.51.51,0,0,1,.4.46A11.38,11.38,0,0,1,68,22.74a.78.78,0,0,1-.22,0l-.17,0Zm-11.5,0a.2.2,0,0,1-.15-.2c0-.32.63-1,2.19-2.49a.58.58,0,0,1,.25-.12.52.52,0,0,1,.41.46,11.43,11.43,0,0,1-2.31,2.35.76.76,0,0,1-.21,0,.47.47,0,0,1-.17,0Zm-11.49,0a.24.24,0,0,1-.17-.21c0-.22.28-.6.87-1.18,1.08-1.08,1.46-1.42,1.6-1.42a.53.53,0,0,1,.4.46A11.43,11.43,0,0,1,45,22.74a.71.71,0,0,1-.21,0,.29.29,0,0,1-.18,0Zm-11.49,0a.21.21,0,0,1-.17-.21c0-.22.28-.6.87-1.18,1.08-1.08,1.45-1.42,1.6-1.42a.56.56,0,0,1,.4.46,11.43,11.43,0,0,1-2.31,2.35.76.76,0,0,1-.21,0,.29.29,0,0,1-.18,0Zm30.62,0c-.1,0-.16-.1-.16-.19s.34-.64,1.14-1.45c1.17-1.17,1.53-1.37,1.66-.94s0,.54-1.11,1.6c-.8.79-1.07,1-1.32,1a.8.8,0,0,1-.21-.05Zm-11.49,0c-.11,0-.16-.1-.16-.19s.34-.64,1.14-1.45c1.17-1.17,1.52-1.37,1.65-.94s0,.54-1.1,1.6c-.8.79-1.08,1-1.32,1a.8.8,0,0,1-.21-.05Zm-11.49,0c-.11,0-.17-.1-.17-.19s.34-.64,1.14-1.45c1.17-1.17,1.53-1.37,1.66-.94s0,.54-1.11,1.6c-.8.79-1.07,1-1.32,1a.65.65,0,0,1-.2-.05Zm-11.5,0c-.1,0-.16-.1-.16-.19s.34-.64,1.14-1.45c1.17-1.17,1.52-1.37,1.66-.94s0,.54-1.11,1.6c-.8.79-1.07,1-1.32,1a.8.8,0,0,1-.21-.05Zm46.06,0c-.16,0-.25-.1-.25-.22s.35-.63,1.14-1.44c1.14-1.14,1.51-1.36,1.65-1s0,.55-.93,1.5-1.19,1.16-1.45,1.16l-.16,0Zm-3.94-4.06a.54.54,0,0,1,0-.22c0-.26.24-.56,1-1.34C73.39,16,73.58,15.9,73.93,16s.24.5-.94,1.67c-.8.8-1.23,1.14-1.46,1.14A.19.19,0,0,1,71.35,18.68Zm-11.51,0a.41.41,0,0,1-.15-.27A13.86,13.86,0,0,1,62.14,16c.77,0,.66.41-.41,1.49s-1.38,1.36-1.63,1.36a.38.38,0,0,1-.26-.13Zm15.36,0a.47.47,0,0,1-.16-.27,9.39,9.39,0,0,1,1.14-1.3l.55-.53.41.78-.35.35a6.71,6.71,0,0,1-1.28,1.1.53.53,0,0,1-.31-.13Zm-11.5,0a.46.46,0,0,1-.15-.27,9.39,9.39,0,0,1,1.14-1.3c.93-.94,1.2-1.15,1.4-1.13s.26.1.28.33-.1.44-1.08,1.4A7.5,7.5,0,0,1,64,18.81a.53.53,0,0,1-.31-.13Zm-11.49,0a.41.41,0,0,1-.15-.27,8.24,8.24,0,0,1,1.14-1.3c.93-.94,1.2-1.15,1.4-1.13s.26.1.28.33-.1.44-1.08,1.4a7.5,7.5,0,0,1-1.28,1.1.53.53,0,0,1-.31-.13Zm-11.5,0a.53.53,0,0,1-.15-.26c0-.15,0-.15,1.3-1.47.8-.8,1-1,1.24-1s.27.1.29.33-.1.43-1.08,1.4A7.5,7.5,0,0,1,41,18.81a.58.58,0,0,1-.31-.13Zm-11.49,0c-.09-.08-.14-.14-.14-.23s.34-.58,1.4-1.64c.69-.7.91-.85,1.12-.83s.27.09.3.33-.1.43-1.08,1.4a7.5,7.5,0,0,1-1.28,1.1.54.54,0,0,1-.32-.13Zm38.27,0a1,1,0,0,1-.07-.28h0A13.69,13.69,0,0,1,69.8,16c.3,0,.46.13.46.36a8.38,8.38,0,0,1-2.47,2.49c-.14,0-.28-.07-.3-.14Zm-11.5,0a1.59,1.59,0,0,1-.06-.3h0A14,14,0,0,1,58.31,16c.3,0,.46.14.46.37a8.38,8.38,0,0,1-2.48,2.48C56.16,18.82,56,18.75,56,18.68Zm-7.64,0a.47.47,0,0,1-.16-.27A14.56,14.56,0,0,1,50.64,16c.33,0,.5.12.5.35a10.9,10.9,0,0,1-2.48,2.5A.61.61,0,0,1,48.35,18.68Zm-3.85,0a.8.8,0,0,1-.06-.3h0A13.57,13.57,0,0,1,46.82,16c.3,0,.46.13.46.36a8.26,8.26,0,0,1-2.48,2.48C44.66,18.82,44.52,18.75,44.5,18.68Zm-7.65,0a.46.46,0,0,1-.15-.27A12.3,12.3,0,0,1,39.19,16a.44.44,0,0,1,.46.41,13.32,13.32,0,0,1-2.48,2.44A.61.61,0,0,1,36.85,18.68Zm-3.84,0a.8.8,0,0,1-.06-.3h0A13.19,13.19,0,0,1,35.32,16c.29,0,.46.13.46.36a8.74,8.74,0,0,1-2.48,2.48C33.17,18.82,33,18.75,33,18.68Zm-7.65,0a.47.47,0,0,1-.16-.27A12.1,12.1,0,0,1,27.7,16a.43.43,0,0,1,.45.4,12.74,12.74,0,0,1-2.47,2.45.54.54,0,0,1-.32-.13Zm7.65-4a.5.5,0,0,1,0-.21c0-.26.24-.57,1-1.34,1.07-1.09,1.26-1.22,1.61-1.11s.23.49-.93,1.65c-.8.8-1.23,1.16-1.46,1.16s-.15,0-.18-.14Zm23,0a.49.49,0,0,1,0-.21c0-.26.24-.57,1-1.34,1.08-1.09,1.26-1.22,1.61-1.11s.24.5-.93,1.67c-.8.79-1.23,1.14-1.46,1.14s-.15,0-.19-.14Zm15.36,0a.54.54,0,0,1,0-.22c0-.26.26-.57,1.07-1.38,1-1.06,1.23-1.2,1.6-1s.15.5-1,1.63c-.8.81-1.22,1.16-1.45,1.16a.18.18,0,0,1-.18-.13Zm-26.85,0a.5.5,0,0,1,0-.21c0-.26.25-.57,1-1.35A9.93,9.93,0,0,1,46.69,12c.3-.1.59.05.59.3a9,9,0,0,1-2.5,2.5c-.13,0-.26-.05-.28-.12Zm23,0a1,1,0,0,1-.07-.3h0A12,12,0,0,1,69.79,12c.31,0,.47.13.47.37a8.78,8.78,0,0,1-2.49,2.48c-.13,0-.26-.06-.28-.13Zm-3.79,0c-.1-.08-.16-.14-.16-.23s.31-.5,1.28-1.48c.82-.82,1.07-1,1.27-1s.27.1.29.31-.12.44-1.09,1.4A7.14,7.14,0,0,1,64,14.84a.59.59,0,0,1-.31-.12Zm-3.86,0a.39.39,0,0,1-.15-.26A13.53,13.53,0,0,1,62.14,12c.31,0,.5.12.5.33a11.1,11.1,0,0,1-2.47,2.51.55.55,0,0,1-.33-.12Zm-7.63,0c-.1-.08-.17-.14-.17-.23s.32-.5,1.29-1.48c.81-.82,1.07-1,1.27-1s.27.1.29.3-.14.45-1.09,1.4a8,8,0,0,1-1.28,1.12.56.56,0,0,1-.31-.12Zm-3.86,0a.4.4,0,0,1-.16-.26A13.86,13.86,0,0,1,50.64,12c.32,0,.5.12.5.33a10.9,10.9,0,0,1-2.47,2.51.53.53,0,0,1-.32-.12Zm-11.5,0a.43.43,0,0,1-.15-.26A13.53,13.53,0,0,1,39.15,12c.32,0,.5.12.5.33a11.1,11.1,0,0,1-2.47,2.51.55.55,0,0,1-.33-.12Zm3.87,0c-.1-.08-.17-.14-.17-.23s.31-.5,1.28-1.48c.83-.83,1.05-1,1.27-1s.27.09.29.3-.14.45-1.09,1.4A7.67,7.67,0,0,1,41,14.85a.54.54,0,0,1-.3-.13Zm-11.5,0c-.1-.08-.16-.14-.16-.23s.31-.5,1.27-1.48c.83-.83,1.06-1,1.27-1s.28.09.3.3-.14.45-1.09,1.4a7.62,7.62,0,0,1-1.28,1.12.59.59,0,0,1-.31-.12Zm46,0c-.1-.08-.16-.15-.16-.24s.09-.24.32-.49l0,.08.34.65a.56.56,0,0,1-.3.12.41.41,0,0,1-.24-.11ZM29.39,10.84a6.6,6.6,0,0,1,.85-1.32c1.12-1.6,1.11-1.6,1.35-1.6s.33.19.33.5a10.17,10.17,0,0,1-2.48,2.46s-.05,0-.05,0Zm19-.06c-.14-.09-.25-.22-.25-.31a14.42,14.42,0,0,1,2.52-2.54.52.52,0,0,1,.43.46A13.86,13.86,0,0,1,49,10.69a.58.58,0,0,1-.32.16.52.52,0,0,1-.22-.07Zm-11.5,0c-.13-.09-.25-.22-.25-.31a14.42,14.42,0,0,1,2.52-2.54.53.53,0,0,1,.43.45,14.32,14.32,0,0,1-2.16,2.31.58.58,0,0,1-.32.16.57.57,0,0,1-.22-.07Zm23,0c-.14-.09-.26-.22-.26-.29A16.61,16.61,0,0,1,62.2,7.93a.51.51,0,0,1,.43.46,13.89,13.89,0,0,1-2.16,2.31c-.14.1-.22.15-.29.15a.66.66,0,0,1-.24-.11Zm7.69,0c-.14-.08-.21-.16-.21-.27s.33-.64,1.14-1.44a8.77,8.77,0,0,1,1.29-1.14.52.52,0,0,1,.41.48,5.45,5.45,0,0,1-1,1.2c-1,1-1.25,1.23-1.42,1.23a.49.49,0,0,1-.17-.06Zm-11.5,0c-.13-.07-.21-.15-.21-.27s.34-.64,1.15-1.44a8.77,8.77,0,0,1,1.29-1.14.53.53,0,0,1,.41.47,13.71,13.71,0,0,1-2.15,2.29.55.55,0,0,1-.32.14.41.41,0,0,1-.18-.05Zm-11.5,0c-.13-.07-.2-.15-.2-.27s.34-.64,1.16-1.44a8.69,8.69,0,0,1,1.28-1.14.53.53,0,0,1,.41.47,13.77,13.77,0,0,1-2.16,2.29.55.55,0,0,1-.31.14.35.35,0,0,1-.18-.05Zm-11.49,0c-.13-.07-.2-.15-.2-.27s.34-.64,1.15-1.44a9.23,9.23,0,0,1,1.28-1.14.53.53,0,0,1,.42.47,13.77,13.77,0,0,1-2.16,2.29.5.5,0,0,1-.31.14.37.37,0,0,1-.18-.05Zm38.35,0c-.13-.07-.2-.15-.2-.26s.28-.58.95-1.26q.27.33.54.69a9.35,9.35,0,0,1-.8.74.55.55,0,0,1-.32.14.34.34,0,0,1-.17-.05Zm-7.73,0a.41.41,0,0,1-.2-.3,12.64,12.64,0,0,1,2.53-2.53c.2,0,.32.2.32.51a13.61,13.61,0,0,1-2.22,2.33.36.36,0,0,1-.2.06.42.42,0,0,1-.23-.07Zm-11.5,0a.46.46,0,0,1-.2-.32,12.28,12.28,0,0,1,2.53-2.51c.2,0,.32.18.32.51a13.6,13.6,0,0,1-2.22,2.33.47.47,0,0,1-.2.06.48.48,0,0,1-.23-.07Zm-11.49,0a.46.46,0,0,1-.2-.32,11.49,11.49,0,0,1,2.51-2.51c.22,0,.34.18.34.5a13.36,13.36,0,0,1-2.23,2.34.36.36,0,0,1-.2.06.41.41,0,0,1-.22-.07Zm19-4.07a.42.42,0,0,1-.12-.25A15.85,15.85,0,0,1,62.19,4a.51.51,0,0,1,.44.45,6.16,6.16,0,0,1-1.11,1.28c-.8.82-1.18,1.13-1.44,1.13a.35.35,0,0,1-.27-.13Zm-11.49,0a.43.43,0,0,1-.13-.26A16.22,16.22,0,0,1,50.69,4a.52.52,0,0,1,.45.45A7.19,7.19,0,0,1,50,5.69c-.82.81-1.19,1.13-1.45,1.13a.38.38,0,0,1-.26-.13Zm-11.5,0a.42.42,0,0,1-.12-.26A16.22,16.22,0,0,1,39.2,4a.53.53,0,0,1,.45.45,7.67,7.67,0,0,1-1.13,1.28c-.81.81-1.19,1.12-1.44,1.12a.37.37,0,0,1-.26-.12Zm30.75.08a.2.2,0,0,1-.16-.2c0-.21.28-.59.9-1.23.23.18.45.37.67.56a5.66,5.66,0,0,1-1,.87.76.76,0,0,1-.21,0,.55.55,0,0,1-.18,0Zm-11.5,0a.2.2,0,0,1-.15-.2c0-.32.63-1,2.19-2.49A.58.58,0,0,1,58.36,4a.52.52,0,0,1,.41.46,11.43,11.43,0,0,1-2.31,2.35.76.76,0,0,1-.21,0,.47.47,0,0,1-.17,0Zm-11.49,0a.22.22,0,0,1-.17-.21c0-.22.28-.6.87-1.18C46.36,4.3,46.74,4,46.88,4a.53.53,0,0,1,.4.46A11.43,11.43,0,0,1,45,6.77a.71.71,0,0,1-.21,0,.37.37,0,0,1-.18,0Zm-11.49,0a.21.21,0,0,1-.17-.21.47.47,0,0,1,0-.17,26.13,26.13,0,0,1,2.74-2.2.36.36,0,0,1,.08.23,11.43,11.43,0,0,1-2.31,2.35.71.71,0,0,1-.21,0,.47.47,0,0,1-.17,0Zm30.62,0c-.1,0-.16-.1-.16-.19s.34-.64,1.14-1.45c1.17-1.17,1.53-1.37,1.66-.94s0,.54-1.11,1.6c-.8.79-1.07,1-1.32,1a.8.8,0,0,1-.21,0Zm-11.49,0c-.11,0-.16-.1-.16-.19s.34-.64,1.14-1.45c1.17-1.17,1.52-1.37,1.65-.94s0,.54-1.1,1.6c-.8.79-1.07,1-1.32,1a.8.8,0,0,1-.21,0Zm-11.49,0c-.11,0-.17-.1-.17-.19s.34-.64,1.14-1.45c1.17-1.17,1.53-1.37,1.66-.94s0,.54-1.11,1.6c-.8.79-1.07,1-1.31,1a.65.65,0,0,1-.21,0Zm19.11-4a.41.41,0,0,1-.15-.26,7.75,7.75,0,0,1,1.2-1.36l.87.35,0,0c-1,1-1.38,1.37-1.62,1.37a.4.4,0,0,1-.26-.14Zm3.86,0a.46.46,0,0,1-.15-.26.34.34,0,0,1,.09-.14l.66.35a.84.84,0,0,1-.28.18.54.54,0,0,1-.32-.13Zm-11.49,0a.46.46,0,0,1-.15-.26,8.3,8.3,0,0,1,1.14-1.3C54.13.2,54.4,0,54.6,0s.26.1.28.32-.1.44-1.08,1.4a6.71,6.71,0,0,1-1.28,1.1.53.53,0,0,1-.31-.13Zm-11.49,0a.42.42,0,0,1-.16-.25c0-.15,0-.15,1.3-1.48h0c.5-.18,1-.35,1.51-.5,0,.21-.27.48-1.08,1.28A7.5,7.5,0,0,1,41,2.85a.52.52,0,0,1-.31-.14ZM56,2.71a.94.94,0,0,1-.06-.29h0A15.28,15.28,0,0,1,58,.19l.74.2a8.8,8.8,0,0,1-2.48,2.46c-.13,0-.28-.06-.3-.14Zm-7.65,0a.46.46,0,0,1-.15-.26A14.2,14.2,0,0,1,50.64,0c.33,0,.5.12.5.34a10.9,10.9,0,0,1-2.48,2.5.53.53,0,0,1-.31-.13Zm-3.84,0a.72.72,0,0,1-.06-.29h0A13.63,13.63,0,0,1,46.82,0c.3,0,.46.13.46.37a8.53,8.53,0,0,1-2.49,2.48c-.13,0-.27-.06-.29-.14Z" transform="translate(0.01 0)"/></svg>