<?xml version="1.0" encoding="utf-8"?>
<!-- Generator: Adobe Illustrator 21.1.0, SVG Export Plug-In . SVG Version: 6.00 Build 0)  -->
<svg version="1.1" id="Layer_1" xmlns="http://www.w3.org/2000/svg" xmlns:xlink="http://www.w3.org/1999/xlink" x="0px" y="0px"
	 viewBox="0 0 244 113" style="enable-background:new 0 0 244 113;" xml:space="preserve">
<style type="text/css">
	.st0{fill:#8C8C8C;}
	.st1{fill-rule:evenodd;clip-rule:evenodd;fill:#8C8C8C;}
</style>
<g>
	<path class="st0" d="M27.6,54.2v-3.9h9.9c0,0.1,0,0.3,0,0.4c0,0.1,0,0.4,0,0.7c0,3.2-0.8,5.7-2.5,7.4c-1.7,1.8-4,2.6-7.1,2.6
		c-1.5,0-2.8-0.2-4-0.7c-1.2-0.4-2.2-1.1-3.1-2.1c-0.9-0.9-1.6-1.9-2-3.1c-0.5-1.2-0.7-2.5-0.7-3.8c0-1.4,0.2-2.6,0.7-3.8
		c0.5-1.2,1.2-2.2,2.1-3.1c0.9-0.9,2-1.6,3.2-2c1.2-0.5,2.5-0.7,3.9-0.7c1.8,0,3.4,0.4,4.8,1.1c1.4,0.7,2.6,1.8,3.5,3.2l-4.4,2.1
		c-0.5-0.7-1.1-1.2-1.8-1.6c-0.7-0.3-1.4-0.5-2.2-0.5c-1.5,0-2.7,0.5-3.6,1.5c-0.9,1-1.3,2.4-1.3,4.1c0,1.8,0.4,3.1,1.3,4.2
		c0.9,1,2.1,1.5,3.6,1.5c1.3,0,2.3-0.3,3.2-0.9c0.9-0.6,1.4-1.5,1.5-2.5H27.6L27.6,54.2z M46.3,61V42.5h11.3v4.1h-6.4v3.2h6v4h-6
		v3.1h6.4V61H46.3L46.3,61z M66.6,61V42.5h4.9l7,9.5c0.1,0.2,0.4,0.6,0.7,1.2c0.3,0.6,0.6,1.3,1,2.1c-0.1-0.8-0.2-1.4-0.2-2
		c0-0.6-0.1-1.1-0.1-1.6v-9.1h4.8V61h-4.8l-7-9.6c-0.1-0.2-0.4-0.6-0.7-1.2c-0.3-0.6-0.6-1.3-1-2.1c0.1,0.8,0.2,1.5,0.2,2.1
		c0,0.6,0.1,1.1,0.1,1.6V61H66.6L66.6,61z M97,61V46.9h-4.1v-4.4h13.3v4.4H102V61H97L97,61z M114.3,61V42.5h5v14.2h6.3V61H114.3
		L114.3,61z M133.7,61V42.5H145v4.1h-6.4v3.2h6v4h-6v3.1h6.4V61H133.7L133.7,61z M175.2,61h-4.7l-1.1-8c-0.1-0.6-0.1-1.2-0.2-1.9
		c-0.1-0.7-0.1-1.4-0.2-2.3c-0.1,0.8-0.3,1.8-0.7,2.9c-0.1,0.2-0.1,0.4-0.2,0.5l-2.5,8.7h-3.4l-2.5-8.7c0-0.1-0.1-0.3-0.2-0.5
		c-0.4-1.2-0.6-2.1-0.7-2.9c-0.1,0.7-0.1,1.4-0.2,2.1c-0.1,0.7-0.1,1.4-0.2,2.1l-1.1,8h-4.7l2.9-18.5h5l2.8,9.5
		c0,0.1,0.1,0.2,0.1,0.3c0.3,0.8,0.4,1.6,0.5,2.2c0-0.3,0.1-0.7,0.2-1.1c0.1-0.4,0.2-0.9,0.4-1.4l2.8-9.5h5L175.2,61L175.2,61z
		 M188.4,54.1h5l-1.9-6.1c-0.1-0.2-0.1-0.5-0.2-0.9c-0.1-0.4-0.2-0.9-0.4-1.6c-0.1,0.5-0.2,0.9-0.3,1.3c-0.1,0.4-0.2,0.8-0.3,1.2
		L188.4,54.1L188.4,54.1z M181.4,61l6.4-18.5h6.3l6.4,18.5h-5l-0.9-3.3h-7.2l-1,3.3H181.4L181.4,61z M207.9,61V42.5h4.9l7,9.5
		c0.1,0.2,0.4,0.6,0.7,1.2c0.3,0.6,0.6,1.3,1,2.1c-0.1-0.8-0.2-1.4-0.2-2c0-0.6-0.1-1.1-0.1-1.6v-9.1h4.8V61h-4.8l-7-9.6
		c-0.1-0.2-0.4-0.6-0.7-1.2c-0.3-0.6-0.6-1.3-1-2.1c0.1,0.8,0.2,1.5,0.2,2.1c0,0.6,0.1,1.1,0.1,1.6V61H207.9z"/>
	<path class="st0" d="M82.9,70.3h78.2h4.6h0.8l-0.3,0.7l-2.1,4.8h71.2c0.1-1.2,0.7-2.3,1.5-3.2v0h0c0.8-0.8,1.9-1.4,3.2-1.5V32.4
		c-1.2-0.1-2.3-0.7-3.2-1.5v0c-0.8-0.8-1.4-1.9-1.5-3.2h-83.5v-1h84h0.5v0.5c0,1.1,0.5,2.2,1.2,3v0c0.8,0.8,1.8,1.2,3,1.2h0.5v0.5
		v39.7v0.5h-0.5c-1.2,0-2.2,0.5-3,1.2h0c-0.8,0.8-1.2,1.8-1.2,3v0.5h-0.5h-71.7l2.1,4.8l0.3,0.7h-0.8h-4.6H82.9h-4.6h-0.8l0.3-0.7
		l2.1-4.8H8.2H7.7v-0.5c0-1.2-0.5-2.2-1.2-3l0,0c-0.8-0.8-1.8-1.2-3-1.2H3v-0.5V31.9v-0.5h0.5c1.1,0,2.2-0.5,3-1.2v0
		c0.8-0.8,1.2-1.8,1.2-3v-0.5h0.5h84v1H8.7C8.6,29,8,30.1,7.2,30.9l0,0c-0.8,0.8-1.9,1.4-3.2,1.5v38.7c1.2,0.1,2.3,0.7,3.2,1.5h0
		l0,0c0.8,0.8,1.4,1.9,1.5,3.2h71.2L77.8,71l-0.3-0.7h0.8H82.9L82.9,70.3z M161.1,71.3H82.9h-3.8l2.1,4.8l0.1,0.2l-0.1,0.2l-2.1,4.8
		h3.8h78.2h3.8l-2.1-4.8l-0.1-0.2l0.1-0.2l2.1-4.8H161.1z"/>
	<path class="st0" d="M92.6,74.7c0,0.2,0,0.4,0.1,0.6c0.1,0.2,0.1,0.3,0.2,0.5c0.1,0.1,0.2,0.3,0.3,0.4c0.1,0.1,0.2,0.2,0.3,0.3
		c0.1,0.1,0.2,0.2,0.3,0.3c0.1,0.1,0.2,0.2,0.2,0.3c0.1,0.1,0.1,0.3,0.1,0.4c0,0.1,0,0.2-0.1,0.3c0,0.1-0.1,0.1-0.1,0.2
		c-0.1,0-0.1,0.1-0.2,0c-0.1,0-0.2,0-0.2,0c-0.1,0-0.1-0.1-0.1-0.2c0-0.1-0.1-0.2-0.1-0.3v-0.4h-0.8v0.3c0,0.3,0,0.5,0.1,0.7
		c0.1,0.2,0.2,0.3,0.4,0.5c0.2,0.1,0.4,0.2,0.7,0.2c0.3,0,0.5-0.1,0.7-0.2c0.2-0.1,0.3-0.3,0.4-0.5c0.1-0.2,0.1-0.4,0.1-0.7
		c0-0.2,0-0.4-0.1-0.6c-0.1-0.2-0.1-0.3-0.2-0.5c-0.1-0.1-0.2-0.3-0.3-0.4c-0.1-0.1-0.2-0.2-0.3-0.3c-0.1-0.1-0.2-0.2-0.3-0.3
		c-0.1-0.1-0.2-0.2-0.2-0.3c-0.1-0.1-0.1-0.3-0.1-0.4c0-0.2,0-0.3,0.1-0.4c0.1-0.1,0.2-0.1,0.3-0.1c0.1,0,0.2,0,0.3,0.1
		c0.1,0.1,0.1,0.2,0.1,0.4v0.2H95v-0.2c0-0.3,0-0.5-0.1-0.7c-0.1-0.2-0.2-0.3-0.4-0.5c-0.2-0.1-0.4-0.2-0.7-0.2
		c-0.3,0-0.5,0.1-0.7,0.2c-0.2,0.1-0.3,0.3-0.4,0.5C92.6,74.2,92.6,74.4,92.6,74.7L92.6,74.7z M99.7,78.7h0.8v-5.3h-0.8V78.7
		L99.7,78.7z M107.1,78.7h0.9v-5.3h-0.7v3.2l-0.9-3.2h-1v5.3h0.7v-3.8L107.1,78.7L107.1,78.7z M114.4,76.8v0.8c0,0.1,0,0.2-0.1,0.3
		c0,0.1-0.1,0.1-0.1,0.2c-0.1,0-0.1,0.1-0.2,0c-0.1,0-0.2,0-0.2,0c-0.1,0-0.1-0.1-0.1-0.2c0-0.1-0.1-0.2-0.1-0.3v-2.9
		c0-0.2,0-0.3,0.1-0.4c0.1-0.1,0.2-0.1,0.3-0.1c0.1,0,0.2,0,0.3,0.1c0.1,0.1,0.1,0.2,0.1,0.4v0.6h0.8v-0.5c0-0.3,0-0.5-0.1-0.7
		c-0.1-0.2-0.2-0.3-0.4-0.5c-0.2-0.1-0.4-0.2-0.7-0.2c-0.3,0-0.5,0.1-0.7,0.2c-0.2,0.1-0.3,0.3-0.4,0.5c-0.1,0.2-0.1,0.4-0.1,0.7
		v2.8c0,0.3,0,0.5,0.1,0.7c0.1,0.2,0.2,0.3,0.4,0.5c0.2,0.1,0.4,0.2,0.7,0.2c0.3,0,0.5-0.1,0.7-0.2s0.3-0.3,0.4-0.5
		c0.1-0.2,0.1-0.4,0.1-0.7v-0.7H114.4L114.4,76.8z M120.7,74.2h1.4v-0.8h-2.3v5.3h2.3V78h-1.4v-1.6h1.1v-0.8h-1.1V74.2L120.7,74.2z
		 M128.5,74.7h0.6v4h0.8v-5.3h-0.6c0,0.1-0.1,0.2-0.1,0.3c0,0.1-0.1,0.2-0.2,0.2c-0.1,0.1-0.1,0.1-0.3,0.1c-0.1,0-0.2,0.1-0.4,0.1
		V74.7L128.5,74.7z M137.6,74.7c0-0.3,0-0.5-0.1-0.7c-0.1-0.2-0.2-0.3-0.4-0.5c-0.2-0.1-0.4-0.2-0.7-0.2c-0.3,0-0.5,0.1-0.7,0.2
		c-0.2,0.1-0.3,0.3-0.4,0.5c-0.1,0.2-0.1,0.4-0.1,0.7v1c0,0.4,0.1,0.7,0.2,0.9c0.2,0.2,0.4,0.3,0.7,0.3c0.2,0,0.3,0,0.5-0.1
		c0.1-0.1,0.2-0.2,0.3-0.3v1c0,0.2,0,0.3-0.1,0.4c0,0.1-0.1,0.2-0.2,0.2c-0.1,0-0.2,0.1-0.3,0.1c-0.1,0-0.2,0-0.3-0.1
		c-0.1-0.1-0.1-0.2-0.1-0.4v-0.2h-0.8v0.1c0,0.3,0,0.5,0.1,0.7c0.1,0.2,0.2,0.3,0.4,0.5c0.2,0.1,0.4,0.2,0.7,0.2
		c0.4,0,0.7-0.1,1-0.4c0.2-0.2,0.3-0.6,0.3-1V74.7L137.6,74.7z M136.3,76.1c-0.1,0-0.2,0-0.3-0.1c-0.1-0.1-0.1-0.2-0.1-0.4v-1
		c0-0.1,0-0.2,0.1-0.3c0-0.1,0.1-0.1,0.1-0.2c0.1,0,0.1,0,0.2,0c0.1,0,0.2,0,0.2,0c0.1,0,0.1,0.1,0.1,0.2c0,0.1,0.1,0.2,0.1,0.3v1
		c0,0.2,0,0.3-0.1,0.4C136.5,76.1,136.4,76.1,136.3,76.1L136.3,76.1z M144.7,74.7c0-0.3-0.1-0.5-0.1-0.7c-0.1-0.2-0.2-0.3-0.4-0.5
		c-0.2-0.1-0.4-0.2-0.7-0.2c-0.3,0-0.5,0.1-0.7,0.2c-0.2,0.1-0.3,0.3-0.4,0.5c-0.1,0.2-0.1,0.4-0.1,0.7v1c0,0.4,0.1,0.7,0.2,0.9
		c0.2,0.2,0.4,0.3,0.7,0.3c0.2,0,0.3,0,0.5-0.1c0.1-0.1,0.2-0.2,0.3-0.3v1c0,0.2,0,0.3-0.1,0.4c0,0.1-0.1,0.2-0.2,0.2
		c-0.1,0-0.2,0.1-0.3,0.1c-0.1,0-0.2,0-0.3-0.1c-0.1-0.1-0.1-0.2-0.1-0.4v-0.2h-0.8v0.1c0,0.3,0,0.5,0.1,0.7
		c0.1,0.2,0.2,0.3,0.4,0.5c0.2,0.1,0.4,0.2,0.7,0.2c0.4,0,0.8-0.1,1-0.4c0.2-0.2,0.3-0.6,0.3-1V74.7L144.7,74.7z M143.5,76.1
		c-0.1,0-0.2,0-0.3-0.1c-0.1-0.1-0.1-0.2-0.1-0.4v-1c0-0.1,0-0.2,0.1-0.3c0-0.1,0.1-0.1,0.1-0.2c0.1,0,0.1,0,0.2,0
		c0.1,0,0.2,0,0.2,0c0.1,0,0.1,0.1,0.1,0.2c0,0.1,0.1,0.2,0.1,0.3v1c0,0.2,0,0.3-0.1,0.4C143.7,76.1,143.6,76.1,143.5,76.1
		L143.5,76.1z M150,74.7h0.6v4h0.8v-5.3h-0.6c0,0.1-0.1,0.2-0.1,0.3c0,0.1-0.1,0.2-0.2,0.2c-0.1,0.1-0.1,0.1-0.3,0.1
		c-0.1,0-0.2,0.1-0.4,0.1V74.7z"/>
	<path class="st0" d="M57.4,85.5l-2.7-1l-0.3,0.7l0.2,0.1c0.1,0,0.2,0.1,0.2,0.1c0,0,0.1,0.1,0.1,0.1c0,0,0,0.1,0,0.2l-0.1,0.2
		l-1.1,2.9L53.7,89c0,0.1-0.1,0.1-0.1,0.1c0,0-0.1,0-0.2,0c-0.1,0-0.1,0-0.2-0.1L53,89l-0.3,0.7l0.3,0.1l0.3,0.1l0.4,0.1l0.4,0.1
		l0.3,0.1l0.3,0.1l0.3,0.1l0.3,0.1l0.3-0.7l-0.2-0.1l-0.2-0.1c-0.1,0-0.1-0.1-0.1-0.1c0,0,0-0.1,0-0.1c0-0.1,0-0.1,0.1-0.2l0.4-1.1
		l0.8,0.3c0.4,0.2,0.8,0.2,1.1,0.3c0.3,0,0.6,0,0.8-0.1c0.2-0.1,0.4-0.2,0.5-0.4c0.1-0.2,0.2-0.4,0.3-0.6c0.1-0.2,0.1-0.5,0.1-0.7
		c0-0.2-0.1-0.4-0.2-0.6c-0.1-0.2-0.3-0.4-0.6-0.6C58.1,85.8,57.8,85.7,57.4,85.5L57.4,85.5z M143.6,97.3L143.6,97.3l-0.2-1.5
		l-0.2,0l-0.2,0l-0.2,0l-0.1,0l0,0.1l0,0.1l0,0.1c-0.2-0.1-0.5-0.2-0.7-0.3c-0.3,0-0.5,0-0.7,0c-0.3,0-0.5,0.1-0.8,0.2
		c-0.2,0.1-0.4,0.2-0.5,0.4c-0.1,0.2-0.3,0.3-0.3,0.5c-0.1,0.2-0.1,0.4-0.1,0.6c0,0.4,0.2,0.6,0.4,0.9c0.2,0.2,0.6,0.4,1.1,0.6
		l0.6,0.2c0.2,0.1,0.4,0.1,0.6,0.2c0.2,0.1,0.3,0.1,0.4,0.2c0.1,0.1,0.2,0.2,0.2,0.4c0,0.1,0,0.2,0,0.3c0,0.1-0.1,0.2-0.2,0.3
		c-0.1,0.1-0.2,0.1-0.3,0.2c-0.1,0-0.2,0.1-0.4,0.1c-0.2,0-0.4,0-0.5,0c-0.1,0-0.3-0.1-0.4-0.1c-0.1-0.1-0.2-0.2-0.3-0.3
		c-0.1-0.1-0.1-0.2-0.2-0.4l-0.1-0.2l-0.8,0.1l0.2,1.7l0.9-0.1l0-0.4c0.1,0.1,0.2,0.1,0.3,0.2c0.1,0.1,0.2,0.1,0.4,0.1
		c0.1,0,0.3,0.1,0.4,0.1c0.1,0,0.3,0,0.4,0c0.3,0,0.6-0.1,0.8-0.2c0.2-0.1,0.4-0.3,0.6-0.4c0.1-0.2,0.3-0.4,0.3-0.6
		c0.1-0.2,0.1-0.4,0.1-0.6c0-0.2-0.1-0.4-0.2-0.5c-0.1-0.2-0.2-0.3-0.3-0.4c-0.1-0.1-0.3-0.2-0.4-0.3c-0.2-0.1-0.3-0.1-0.5-0.2
		l-0.7-0.2c-0.2-0.1-0.4-0.1-0.6-0.2c-0.2-0.1-0.3-0.1-0.4-0.2c-0.1-0.1-0.2-0.2-0.2-0.4c0-0.1,0-0.2,0-0.3c0-0.1,0.1-0.2,0.2-0.2
		c0.1-0.1,0.2-0.1,0.3-0.2c0.1,0,0.2-0.1,0.4-0.1c0.3,0,0.6,0,0.8,0.1c0.2,0.1,0.3,0.3,0.4,0.5l0,0.1l0,0.1L143.6,97.3L143.6,97.3z
		 M150.5,94.8L150.5,94.8l-4.7,0.6l0.1,0.7l0.3,0c0.1,0,0.1,0,0.2,0c0,0,0.1,0.1,0.1,0.1c0,0,0,0.1,0.1,0.2l0,0.2l0.4,3l0,0.2
		c0,0.1,0,0.1,0,0.2c0,0,0,0.1-0.1,0.1c0,0-0.1,0.1-0.2,0.1l-0.3,0l0.1,0.8l4.9-0.7l-0.2-1.6l-0.8,0.1l0,0.1c0,0.1,0,0.3,0,0.4
		c0,0.1,0,0.2-0.1,0.2c0,0.1-0.1,0.1-0.2,0.1c-0.1,0-0.2,0-0.3,0.1l-1.5,0.2l-0.2-1.6l0.8-0.1l0.2,0c0,0,0.1,0,0.1,0
		c0,0,0.1,0.1,0.1,0.1c0,0,0.1,0.1,0.1,0.2l0.4,0l-0.2-1.5l-0.4,0c0,0.1,0,0.2,0,0.2c0,0.1,0,0.1-0.1,0.1c0,0-0.1,0.1-0.1,0.1
		l-0.2,0l-0.8,0.1l-0.2-1.5l1.4-0.2l0.2,0c0.1,0,0.1,0,0.2,0c0.1,0,0.1,0.1,0.1,0.1c0,0.1,0.1,0.2,0.1,0.3l0,0.2l0.8-0.1L150.5,94.8
		L150.5,94.8z M158.1,97.6L158.1,97.6c-0.1-0.2-0.1-0.3-0.2-0.5c-0.1-0.1-0.2-0.2-0.2-0.3c-0.1-0.1-0.2-0.1-0.3-0.2
		c-0.1,0-0.2-0.1-0.3-0.1c0.2-0.1,0.3-0.2,0.4-0.3c0.1-0.1,0.2-0.2,0.3-0.3c0.1-0.1,0.1-0.3,0.2-0.4c0-0.1,0-0.3,0-0.4
		c0-0.2-0.1-0.4-0.2-0.5c-0.1-0.1-0.2-0.3-0.3-0.4c-0.1-0.1-0.3-0.2-0.4-0.2c-0.2,0-0.3-0.1-0.5-0.1c-0.2,0-0.4,0-0.6,0l-0.6,0.1
		l-2.6,0.5l0.1,0.7l0.1,0c0.1,0,0.2,0,0.3,0c0.1,0,0.1,0,0.2,0c0,0,0.1,0.1,0.1,0.1l0,0.2l0.5,3.1l0,0.2c0,0.1,0,0.1,0,0.1
		c0,0-0.1,0.1-0.1,0.1c-0.1,0-0.2,0.1-0.3,0.1l-0.1,0l0.1,0.7l0.3-0.1l0.3,0l0.3-0.1l0.4-0.1l0.4-0.1l0.3-0.1l0.3-0.1l0.3-0.1
		l-0.1-0.7l-0.2,0l-0.2,0c-0.1,0-0.1,0-0.1,0c0,0-0.1,0-0.1-0.1c0,0,0-0.1,0-0.2l-0.2-1.4l0.4-0.1c0.2,0,0.3,0,0.4,0
		c0.1,0,0.2,0,0.3,0.1c0.1,0.1,0.2,0.2,0.3,0.3c0.1,0.1,0.2,0.3,0.2,0.5c0.1,0.2,0.2,0.5,0.3,0.6c0.1,0.2,0.2,0.3,0.4,0.4
		c0.1,0.1,0.3,0.2,0.5,0.2c0.2,0,0.4,0,0.6,0c0.2,0,0.3-0.1,0.5-0.2c0.1-0.1,0.2-0.2,0.3-0.3c0.1-0.1,0.1-0.2,0.2-0.4
		c0-0.1,0-0.3,0-0.5l0,0l0,0l0,0l0,0l-0.5,0.2c0,0.1,0,0.2,0,0.3c0,0.1-0.1,0.1-0.2,0.1c-0.1,0-0.1,0-0.2,0c-0.1,0-0.1-0.1-0.1-0.1
		c0-0.1-0.1-0.1-0.1-0.2L158.1,97.6L158.1,97.6z M155.1,96.6L155.1,96.6l-0.3-1.6l0.5-0.1c0.2,0,0.4-0.1,0.5-0.1
		c0.2,0,0.3,0,0.4,0.1c0.1,0,0.2,0.1,0.3,0.2c0.1,0.1,0.1,0.2,0.2,0.4c0,0.2,0,0.3,0,0.4c0,0.1-0.1,0.2-0.2,0.3
		c-0.1,0.1-0.2,0.1-0.3,0.2c-0.1,0.1-0.3,0.1-0.5,0.1L155.1,96.6L155.1,96.6z M161.9,93.9L161.9,93.9
		C161.8,93.9,161.8,93.8,161.9,93.9l-0.1-0.2c0,0,0-0.1,0-0.1c0,0,0.1-0.1,0.1-0.1c0,0,0.1,0,0.2-0.1l0.2-0.1l-0.2-0.7l-0.7,0.2
		l-0.3,0.1L161,93l-0.2,0l-0.1,0l-0.2,0l-0.3,0l-0.2,0l-0.1,0l0.1,0.7c0.1,0,0.2,0,0.3,0c0.1,0,0.1,0,0.2,0.1c0.1,0,0.1,0.1,0.2,0.2
		l0.2,0.2l2.6,3.8l1.3-0.3l0.6-4l0.1-0.5c0-0.1,0.1-0.3,0.1-0.4c0-0.1,0.1-0.2,0.2-0.2c0.1-0.1,0.2-0.1,0.3-0.1l-0.2-0.7l-0.5,0.1
		l-0.5,0.1l-0.1,0l-0.1,0l-0.2,0l-0.2,0l-0.4,0.1l0.2,0.7l0.1,0l0.1,0c0.1,0,0.2,0,0.3,0c0.1,0,0.1,0,0.1,0.1c0,0,0,0,0,0.1l0,0.1
		l-0.4,3.5l-0.1-0.2l-0.2-0.3l-0.3-0.5l-0.3-0.5l-0.3-0.5l-0.3-0.5l-0.2-0.3L161.9,93.9L161.9,93.9z M167.3,91.5L167.3,91.5l0.2,0.7
		l0.2,0c0.1,0,0.2,0,0.3,0c0.1,0,0.1,0,0.1,0.1c0,0,0.1,0.1,0.1,0.1l0.1,0.2l0.7,3l0,0.2c0,0.1,0,0.1,0,0.2c0,0-0.1,0.1-0.1,0.1
		c-0.1,0-0.1,0.1-0.2,0.1l-0.2,0l0.2,0.7l0.6-0.2l0.7-0.2l0.4-0.1l0.3-0.1l0.3-0.1l0.3-0.1l-0.2-0.7l-0.2,0c-0.1,0-0.2,0-0.2,0
		c-0.1,0-0.1,0-0.1,0c0,0-0.1-0.1-0.1-0.1l-0.1-0.2l-0.8-3.2l0-0.2c0,0,0-0.1,0-0.1c0,0,0.1-0.1,0.1-0.1c0.1,0,0.1-0.1,0.2-0.1
		l0.2,0l-0.2-0.7l-0.3,0.1l-0.3,0.1l-0.4,0.1l-0.4,0.1l-0.2,0.1l-0.3,0.1l-0.3,0.1L167.3,91.5L167.3,91.5z M176.2,94.1L176.2,94.1
		c-0.2,0.1-0.5,0.1-0.7,0c-0.2,0-0.4-0.1-0.6-0.3c-0.2-0.1-0.3-0.3-0.5-0.5c-0.1-0.2-0.3-0.5-0.3-0.8c-0.1-0.3-0.1-0.6-0.1-0.9
		c0-0.3,0-0.5,0.1-0.7c0.1-0.2,0.2-0.4,0.4-0.5c0.2-0.1,0.3-0.2,0.6-0.3c0.4-0.1,0.7-0.1,0.9,0c0.2,0.1,0.4,0.3,0.5,0.6l0.8-0.2
		l-0.5-1.7l-0.9,0.3l0.1,0.4c-0.1,0-0.2-0.1-0.3-0.1c-0.1,0-0.2,0-0.4-0.1c-0.1,0-0.3,0-0.4,0c-0.1,0-0.3,0-0.4,0.1
		c-0.4,0.1-0.8,0.3-1.1,0.5c-0.3,0.2-0.5,0.5-0.7,0.8c-0.2,0.3-0.3,0.6-0.3,1c0,0.4,0,0.8,0.1,1.2c0.1,0.4,0.3,0.7,0.5,1.1
		c0.2,0.3,0.5,0.6,0.8,0.7c0.3,0.2,0.7,0.3,1.1,0.3c0.4,0,0.9,0,1.4-0.2c0.4-0.1,0.8-0.3,1.2-0.5c0.3-0.2,0.6-0.5,0.9-0.8l-0.3-1.3
		l-0.9,0.1c0.1,0.2,0.1,0.4,0.1,0.6c0,0.2-0.1,0.3-0.1,0.5c-0.1,0.1-0.2,0.2-0.3,0.3C176.6,94,176.4,94.1,176.2,94.1L176.2,94.1z
		 M183.6,86.7L183.6,86.7l-4.5,1.5l0.2,0.7l0.3-0.1c0.1,0,0.1,0,0.2,0c0,0,0.1,0,0.1,0.1c0,0,0.1,0.1,0.1,0.1l0.1,0.2l0.9,2.9l0,0.2
		c0,0.1,0,0.1,0,0.2c0,0,0,0.1-0.1,0.1c0,0-0.1,0.1-0.2,0.1l-0.3,0.1l0.2,0.7l4.7-1.5l-0.5-1.6l-0.8,0.3l0,0.1
		c0,0.1,0.1,0.3,0.1,0.4c0,0.1,0,0.2,0,0.2c0,0.1-0.1,0.1-0.1,0.1c-0.1,0-0.1,0.1-0.2,0.1l-1.4,0.5l-0.5-1.6l0.8-0.3l0.2,0
		c0,0,0.1,0,0.1,0c0,0,0.1,0,0.1,0.1c0,0,0.1,0.1,0.1,0.2l0.3-0.1L183,89l-0.3,0.1c0,0.1,0,0.2,0,0.2c0,0.1,0,0.1,0,0.1
		c0,0-0.1,0.1-0.1,0.1l-0.1,0.1l-0.8,0.3l-0.5-1.5l1.3-0.4l0.2-0.1c0.1,0,0.1,0,0.2,0c0.1,0,0.1,0.1,0.2,0.1
		c0.1,0.1,0.1,0.2,0.1,0.3l0.1,0.2l0.8-0.3L183.6,86.7L183.6,86.7z M190.1,86L190.1,86l-0.6-1.5l-0.2,0.1l-0.2,0.1l-0.2,0.1l-0.1,0
		l0,0.1l0,0.1l0,0.1c-0.3-0.1-0.5-0.1-0.8-0.1c-0.3,0-0.5,0.1-0.7,0.2c-0.3,0.1-0.5,0.2-0.7,0.4c-0.2,0.2-0.3,0.3-0.4,0.5
		c-0.1,0.2-0.2,0.4-0.2,0.6c0,0.2,0,0.4,0.1,0.6c0.1,0.3,0.3,0.6,0.6,0.7c0.3,0.2,0.7,0.3,1.2,0.3l0.7,0c0.2,0,0.4,0,0.6,0
		c0.2,0,0.3,0.1,0.5,0.1c0.1,0.1,0.2,0.2,0.3,0.3c0,0.1,0.1,0.2,0,0.3c0,0.1,0,0.2-0.1,0.3c-0.1,0.1-0.1,0.2-0.2,0.2
		c-0.1,0.1-0.2,0.1-0.4,0.2c-0.2,0.1-0.3,0.1-0.5,0.1c-0.1,0-0.3,0-0.4,0c-0.1,0-0.2-0.1-0.3-0.2c-0.1-0.1-0.2-0.2-0.2-0.3l-0.1-0.2
		l-0.8,0.3l0.6,1.6l0.9-0.3l-0.1-0.4c0.1,0,0.2,0.1,0.4,0.1c0.1,0,0.3,0,0.4,0c0.1,0,0.3,0,0.4,0c0.1,0,0.3-0.1,0.4-0.1
		c0.3-0.1,0.5-0.2,0.7-0.4c0.2-0.2,0.3-0.4,0.4-0.6c0.1-0.2,0.2-0.4,0.2-0.6c0-0.2,0-0.4-0.1-0.6c-0.1-0.2-0.2-0.4-0.3-0.5
		c-0.1-0.1-0.2-0.2-0.4-0.3c-0.1-0.1-0.3-0.1-0.5-0.2c-0.2,0-0.3-0.1-0.5-0.1l-0.8,0c-0.2,0-0.5,0-0.6,0c-0.2,0-0.3-0.1-0.5-0.1
		c-0.1-0.1-0.2-0.2-0.3-0.3c0-0.1,0-0.2,0-0.3c0-0.1,0-0.2,0.1-0.3c0-0.1,0.1-0.2,0.2-0.2c0.1-0.1,0.2-0.1,0.3-0.2
		c0.3-0.1,0.6-0.1,0.8-0.1c0.2,0.1,0.4,0.2,0.5,0.4l0.1,0.1l0.1,0.1L190.1,86L190.1,86z M55.8,87.6L55.8,87.6l0.6-1.6l0.6,0.2
		c0.2,0.1,0.3,0.1,0.5,0.2c0.1,0.1,0.2,0.2,0.3,0.3c0.1,0.1,0.1,0.2,0.1,0.3c0,0.1,0,0.2-0.1,0.4c-0.1,0.3-0.3,0.5-0.5,0.5
		c-0.2,0.1-0.5,0-0.8-0.1L55.8,87.6L55.8,87.6z M64.8,92.2L64.8,92.2c0-0.2,0-0.4,0-0.5c0-0.1,0-0.3-0.1-0.4c0-0.1-0.1-0.2-0.1-0.3
		c-0.1-0.1-0.1-0.2-0.2-0.2c0.2,0,0.4,0,0.5,0c0.2,0,0.3-0.1,0.4-0.2c0.1-0.1,0.2-0.2,0.3-0.3c0.1-0.1,0.2-0.2,0.2-0.4
		c0.1-0.2,0.1-0.4,0.1-0.6c0-0.2-0.1-0.3-0.1-0.5c-0.1-0.1-0.2-0.3-0.3-0.4c-0.1-0.1-0.3-0.2-0.4-0.3c-0.2-0.1-0.3-0.2-0.5-0.3
		L64,87.8l-2.5-0.8l-0.2,0.7l0.1,0c0.1,0,0.2,0.1,0.3,0.1c0.1,0,0.1,0.1,0.1,0.1c0,0,0,0.1,0,0.1l-0.1,0.2l-1,3l-0.1,0.2
		c0,0.1-0.1,0.1-0.1,0.1c0,0-0.1,0-0.2,0c-0.1,0-0.2,0-0.3-0.1l-0.1,0l-0.2,0.7l0.3,0.1l0.3,0.1l0.3,0.1l0.4,0.1l0.4,0.1l0.3,0.1
		l0.3,0.1l0.3,0.1l0.2-0.7l-0.2-0.1l-0.2-0.1c0,0-0.1,0-0.1-0.1c0,0,0-0.1,0-0.1c0,0,0-0.1,0-0.2l0.4-1.4l0.4,0.1
		c0.2,0,0.3,0.1,0.4,0.2c0.1,0.1,0.2,0.1,0.2,0.2c0,0.1,0.1,0.3,0.1,0.4c0,0.2,0,0.4,0,0.6c0,0.3,0,0.5,0,0.7c0,0.2,0.1,0.4,0.1,0.5
		c0.1,0.2,0.2,0.3,0.3,0.4c0.1,0.1,0.3,0.2,0.5,0.3c0.2,0.1,0.3,0.1,0.5,0.1c0.1,0,0.3,0,0.4-0.1c0.1-0.1,0.2-0.1,0.3-0.3
		c0.1-0.1,0.2-0.3,0.2-0.5l0,0l0,0l0,0l0,0l-0.5-0.1c0,0.1-0.1,0.2-0.2,0.3c-0.1,0-0.1,0-0.2,0c-0.1,0-0.1-0.1-0.2-0.1
		c0,0-0.1-0.1-0.1-0.2c0-0.1,0-0.2,0-0.3L64.8,92.2L64.8,92.2z M62.6,89.9L62.6,89.9l0.5-1.6l0.5,0.2c0.2,0.1,0.4,0.1,0.5,0.2
		c0.1,0.1,0.2,0.1,0.3,0.2c0.1,0.1,0.1,0.2,0.1,0.3c0,0.1,0,0.3-0.1,0.4c0,0.1-0.1,0.3-0.2,0.4c-0.1,0.1-0.2,0.1-0.3,0.2
		c-0.1,0-0.2,0-0.4,0c-0.1,0-0.3-0.1-0.5-0.1L62.6,89.9L62.6,89.9z M71.6,89.9L71.6,89.9c-0.5-0.1-0.9-0.2-1.3-0.1
		c-0.4,0-0.7,0.2-1,0.3c-0.3,0.2-0.6,0.4-0.8,0.7c-0.2,0.3-0.4,0.6-0.5,1c-0.1,0.4-0.2,0.8-0.1,1.2c0,0.4,0.1,0.7,0.3,1
		c0.2,0.3,0.4,0.6,0.7,0.8c0.3,0.2,0.7,0.4,1.2,0.6c0.5,0.1,0.9,0.2,1.3,0.1c0.4-0.1,0.7-0.2,1.1-0.4c0.3-0.2,0.6-0.4,0.8-0.7
		c0.2-0.3,0.4-0.7,0.5-1.1c0.1-0.4,0.1-0.8,0.1-1.1c0-0.4-0.1-0.7-0.3-1c-0.2-0.3-0.4-0.6-0.7-0.8C72.4,90.2,72,90.1,71.6,89.9
		L71.6,89.9z M71.3,90.7L71.3,90.7c0.4,0.1,0.7,0.4,0.9,0.8c0.1,0.4,0.1,0.9-0.1,1.6c-0.1,0.3-0.2,0.6-0.3,0.8
		c-0.1,0.2-0.3,0.4-0.4,0.6c-0.2,0.1-0.3,0.2-0.5,0.3c-0.2,0-0.4,0-0.6,0c-0.2-0.1-0.4-0.2-0.6-0.3c-0.1-0.1-0.2-0.3-0.3-0.5
		c-0.1-0.2-0.1-0.4-0.1-0.7c0-0.3,0.1-0.6,0.2-0.9c0.1-0.3,0.2-0.6,0.3-0.8c0.1-0.2,0.3-0.4,0.4-0.6c0.2-0.1,0.3-0.2,0.5-0.3
		C70.9,90.7,71.1,90.7,71.3,90.7L71.3,90.7z M81,92.4L81,92.4l-4.7-1.1L76.2,92l0.3,0.1c0.1,0,0.2,0,0.2,0.1c0,0,0.1,0.1,0.1,0.1
		c0,0,0,0.1,0,0.2l-0.1,0.2l-0.7,3c0,0.1-0.1,0.2-0.1,0.3c0,0.1-0.1,0.1-0.1,0.1c0,0-0.1,0-0.1,0c-0.1,0-0.1,0-0.2,0L75.2,96
		L75,96.7l0.3,0.1l0.3,0.1l0.3,0.1l0.4,0.1l0.4,0.1l0.4,0.1l0.3,0.1l0.4,0.1l0.2-0.7l-0.3-0.1l-0.2-0.1c-0.1,0-0.1,0-0.1-0.1
		c0,0,0-0.1,0-0.1c0,0,0-0.1,0-0.2l0.3-1.3l0.7,0.2l0.2,0c0,0,0.1,0,0.1,0.1c0,0,0,0.1,0.1,0.1c0,0,0,0.1,0,0.2l0.3,0.1l0.3-1.4
		L79,94c0,0.1-0.1,0.1-0.1,0.2c0,0-0.1,0.1-0.1,0.1c0,0-0.1,0-0.1,0l-0.2,0l-0.7-0.2l0.4-1.5l1.4,0.3l0.2,0.1c0.1,0,0.1,0.1,0.1,0.1
		c0,0,0.1,0.1,0.1,0.2c0,0.1,0,0.2,0,0.3l0,0.2l0.8,0.2L81,92.4L81,92.4z M87.5,93.7L87.5,93.7l-4.7-0.9l-0.2,0.7l0.3,0.1
		c0.1,0,0.1,0,0.2,0.1c0,0,0.1,0.1,0.1,0.1c0,0.1,0,0.1,0,0.2l0,0.2l-0.6,3l0,0.2c0,0.1,0,0.1-0.1,0.1c0,0-0.1,0.1-0.1,0.1
		c0,0-0.1,0-0.2,0l-0.3-0.1l-0.2,0.7l4.9,1l0.3-1.6L86,97.5l0,0.1c0,0.1-0.1,0.3-0.1,0.3c0,0.1-0.1,0.1-0.1,0.2
		c-0.1,0-0.1,0.1-0.2,0.1c-0.1,0-0.2,0-0.3,0l-1.5-0.3l0.3-1.6l0.8,0.2l0.2,0c0,0,0.1,0,0.1,0.1c0,0,0,0.1,0,0.1c0,0.1,0,0.1,0,0.2
		l0.4,0.1l0.3-1.5l-0.4-0.1c0,0.1-0.1,0.2-0.1,0.2c0,0-0.1,0.1-0.1,0.1c0,0-0.1,0-0.1,0l-0.2,0l-0.8-0.2l0.3-1.5l1.4,0.3l0.2,0.1
		c0.1,0,0.1,0.1,0.2,0.1c0,0,0.1,0.1,0.1,0.2c0,0.1,0,0.2,0,0.3l0,0.2l0.8,0.1L87.5,93.7L87.5,93.7z M93.6,96.3L93.6,96.3l0.2-1.5
		l-0.2,0l-0.2,0l-0.2,0l-0.1,0l0,0.1l0,0.1l0,0.1c-0.2-0.2-0.4-0.4-0.6-0.5c-0.2-0.1-0.5-0.2-0.7-0.2c-0.3,0-0.5-0.1-0.8,0
		c-0.2,0-0.4,0.1-0.6,0.2c-0.2,0.1-0.3,0.3-0.4,0.4c-0.1,0.2-0.2,0.4-0.2,0.6c-0.1,0.3,0,0.7,0.2,0.9c0.2,0.3,0.5,0.5,0.9,0.8
		l0.6,0.3c0.2,0.1,0.4,0.2,0.5,0.3c0.1,0.1,0.3,0.2,0.3,0.3c0.1,0.1,0.1,0.3,0.1,0.4c0,0.1-0.1,0.2-0.1,0.3
		c-0.1,0.1-0.1,0.2-0.2,0.2c-0.1,0-0.2,0.1-0.3,0.1c-0.1,0-0.3,0-0.4,0c-0.2,0-0.4-0.1-0.5-0.1c-0.1-0.1-0.2-0.1-0.3-0.2
		c-0.1-0.1-0.1-0.2-0.2-0.3c0-0.1-0.1-0.3-0.1-0.4l0-0.2l-0.8-0.1l-0.3,1.7l0.9,0.2l0.1-0.4c0.1,0.1,0.2,0.2,0.3,0.3
		c0.1,0.1,0.2,0.2,0.3,0.2c0.1,0.1,0.3,0.1,0.4,0.2c0.1,0,0.3,0.1,0.4,0.1c0.3,0,0.6,0,0.8,0c0.3,0,0.5-0.1,0.7-0.3
		c0.2-0.1,0.3-0.3,0.5-0.5c0.1-0.2,0.2-0.4,0.2-0.6c0-0.2,0-0.4,0-0.6c0-0.2-0.1-0.3-0.2-0.5c-0.1-0.1-0.2-0.3-0.3-0.4
		c-0.1-0.1-0.3-0.2-0.4-0.3l-0.7-0.4c-0.2-0.1-0.4-0.2-0.5-0.3c-0.2-0.1-0.3-0.2-0.3-0.3c-0.1-0.1-0.1-0.3-0.1-0.4
		c0-0.1,0.1-0.2,0.1-0.3c0.1-0.1,0.1-0.1,0.2-0.2c0.1,0,0.2-0.1,0.3-0.1c0.1,0,0.2,0,0.4,0c0.3,0.1,0.6,0.2,0.7,0.3
		c0.1,0.2,0.2,0.4,0.2,0.6l0,0.1l0,0.1L93.6,96.3L93.6,96.3z M100.1,97.2L100.1,97.2l0.2-1.5l-0.2,0l-0.2,0l-0.2,0l-0.1,0l0,0.1
		l0,0.1l0,0.1c-0.2-0.2-0.4-0.3-0.6-0.4c-0.2-0.1-0.5-0.2-0.7-0.2c-0.3,0-0.6,0-0.8,0c-0.2,0-0.4,0.1-0.6,0.2
		c-0.2,0.1-0.3,0.3-0.4,0.5c-0.1,0.2-0.2,0.4-0.2,0.6c0,0.4,0,0.7,0.2,0.9c0.2,0.3,0.5,0.5,0.9,0.8l0.6,0.3c0.2,0.1,0.4,0.2,0.5,0.3
		c0.1,0.1,0.3,0.2,0.4,0.3c0.1,0.1,0.1,0.3,0.1,0.4c0,0.1-0.1,0.2-0.1,0.3c-0.1,0.1-0.1,0.2-0.2,0.2c-0.1,0.1-0.2,0.1-0.3,0.1
		c-0.1,0-0.3,0-0.4,0c-0.2,0-0.4-0.1-0.5-0.1c-0.1-0.1-0.2-0.1-0.3-0.2c-0.1-0.1-0.1-0.2-0.2-0.3c0-0.1-0.1-0.3-0.1-0.4l0-0.2
		l-0.8-0.1l-0.2,1.7l0.9,0.1l0.1-0.4c0.1,0.1,0.2,0.2,0.3,0.3c0.1,0.1,0.2,0.2,0.3,0.2c0.1,0.1,0.3,0.1,0.4,0.2
		c0.1,0,0.3,0.1,0.4,0.1c0.3,0,0.6,0,0.8,0c0.2-0.1,0.5-0.1,0.6-0.3c0.2-0.1,0.3-0.3,0.4-0.5c0.1-0.2,0.2-0.4,0.2-0.6
		c0-0.2,0-0.4,0-0.6c0-0.2-0.1-0.3-0.2-0.5c-0.1-0.1-0.2-0.3-0.3-0.4c-0.1-0.1-0.3-0.2-0.4-0.3l-0.7-0.4c-0.2-0.1-0.4-0.2-0.6-0.3
		c-0.2-0.1-0.3-0.2-0.4-0.3c-0.1-0.1-0.1-0.3-0.1-0.4c0-0.1,0-0.2,0.1-0.3c0.1-0.1,0.1-0.1,0.2-0.2c0.1-0.1,0.2-0.1,0.3-0.1
		c0.1,0,0.2,0,0.4,0c0.3,0,0.6,0.1,0.7,0.3c0.2,0.2,0.2,0.4,0.2,0.6l0,0.1l0,0.1L100.1,97.2L100.1,97.2z M102.6,95.9L102.6,95.9
		l-0.1,0.8l0.2,0c0.1,0,0.2,0,0.2,0.1c0.1,0,0.1,0.1,0.1,0.1c0,0,0,0.1,0,0.2l0,0.2l-0.3,3.1l0,0.2c0,0.1,0,0.1-0.1,0.1
		c0,0-0.1,0.1-0.1,0.1c-0.1,0-0.1,0-0.3,0l-0.2,0l-0.1,0.8l0.6,0.1l0.7,0.1l0.4,0l0.3,0l0.3,0l0.3,0l0.1-0.8l-0.2,0
		c-0.1,0-0.2,0-0.3,0c-0.1,0-0.1,0-0.1-0.1c0,0,0-0.1,0-0.1l0-0.2l0.3-3.2l0-0.2c0-0.1,0-0.1,0.1-0.1c0,0,0.1-0.1,0.1-0.1
		c0.1,0,0.1,0,0.2,0l0.2,0l0.1-0.8l-0.3,0l-0.3,0l-0.4,0l-0.4,0l-0.2,0l-0.3,0l-0.3,0L102.6,95.9L102.6,95.9z M110.3,96.4
		L110.3,96.4c-0.5,0-0.9,0-1.3,0.1c-0.4,0.1-0.7,0.3-0.9,0.5c-0.3,0.2-0.5,0.5-0.6,0.9c-0.2,0.3-0.2,0.7-0.3,1.1
		c0,0.4,0,0.8,0.1,1.2c0.1,0.4,0.3,0.7,0.5,1c0.2,0.3,0.5,0.5,0.9,0.7c0.4,0.2,0.8,0.3,1.3,0.3c0.5,0,0.9,0,1.3-0.1
		c0.4-0.1,0.7-0.3,1-0.6c0.3-0.3,0.5-0.5,0.6-0.9c0.1-0.3,0.2-0.7,0.3-1.1c0-0.4,0-0.8-0.1-1.1c-0.1-0.4-0.3-0.7-0.5-0.9
		c-0.2-0.3-0.5-0.5-0.9-0.7C111.1,96.6,110.7,96.5,110.3,96.4L110.3,96.4z M110.2,97.3L110.2,97.3c0.5,0,0.8,0.2,1,0.6
		c0.2,0.4,0.3,0.9,0.2,1.5c0,0.3-0.1,0.6-0.1,0.9c-0.1,0.3-0.2,0.5-0.3,0.6c-0.1,0.2-0.3,0.3-0.5,0.4c-0.2,0.1-0.4,0.1-0.6,0.1
		c-0.2,0-0.4-0.1-0.6-0.2c-0.2-0.1-0.3-0.2-0.4-0.4c-0.1-0.2-0.2-0.4-0.2-0.7c0-0.3,0-0.6,0-0.9c0-0.3,0.1-0.6,0.1-0.9
		c0.1-0.2,0.2-0.5,0.3-0.6c0.1-0.2,0.3-0.3,0.5-0.4C109.8,97.3,110,97.2,110.2,97.3L110.2,97.3z M116.4,96.8L116.4,96.8l-1.1,0
		l0,0.8l0.2,0c0.1,0,0.2,0,0.2,0c0.1,0,0.1,0,0.1,0.1c0,0,0,0.1,0,0.1V98l-0.1,3.1l0,0.2c0,0.1,0,0.1,0,0.2c0,0-0.1,0.1-0.1,0.1
		c-0.1,0-0.1,0-0.2,0l-0.2,0l0,0.8l0.3,0l0.3,0l0.3,0l0.3,0l0.6,0l0.5,0l0-0.8l-0.2,0l-0.2,0c-0.1,0-0.1,0-0.1-0.1
		c0,0-0.1-0.1-0.1-0.1c0,0,0-0.1,0-0.2l0.1-3.1h0l2.5,4.3l1.4,0l0-2.2l0-0.8l0-0.7l0-0.5v-0.2l0-0.2c0-0.1,0-0.1,0-0.1
		c0,0,0.1-0.1,0.1-0.1c0.1,0,0.1,0,0.2,0l0.2,0l0-0.8h-0.5h-0.2l-0.2,0l-0.1,0h-0.1l-0.5,0l-0.6,0l0,0.8l0.2,0l0.2,0
		c0.1,0,0.1,0,0.1,0c0,0,0,0.1,0.1,0.1c0,0,0,0.1,0,0.2l0,3h0l-2.3-4.1h-0.1l-0.2,0l-0.2,0l-0.2,0l-0.2,0L116.4,96.8L116.4,96.8z
		 M126.7,96.9L126.7,96.9l-1.6,0l-0.2,0.8l-0.1,0.3l-0.2,0.4l-0.2,0.5l-0.2,0.6l-0.2,0.6l-0.2,0.5l-0.2,0.4l-0.1,0.3
		c0,0.1-0.1,0.2-0.1,0.2c0,0-0.1,0.1-0.1,0.1c0,0-0.1,0-0.2,0l-0.3,0l0,0.8l0.3,0l0.3,0l0.3,0l0.3,0l0.6,0h0.5l0-0.7H125h-0.1
		l-0.1,0h-0.1c-0.1,0-0.2,0-0.2,0c0,0-0.1-0.1-0.1-0.1l0-0.1l0-0.1l0.1-0.2l0.1-0.3l0.1-0.3l0.1-0.2l2,0l0.3,0.8l0.1,0.2
		c0,0,0,0.1,0,0.1c0,0.1,0,0.1-0.1,0.1c-0.1,0-0.1,0-0.3,0l0,0l-0.1,0l-0.1,0h-0.1l0,0.7l0.8,0l0.7,0l0.6,0l0.5,0l0-0.8
		c-0.1,0-0.3,0-0.3,0c-0.1,0-0.1-0.1-0.2-0.1c-0.1-0.1-0.1-0.1-0.1-0.3l-0.2-0.5l-0.1-0.3L128,100l-0.3-0.6l-0.3-0.7L126.7,96.9
		L126.7,96.9z M125,99.9L125,99.9l0.8-2.3l0,0l0.8,2.2L125,99.9L125,99.9z M130.7,97.5L130.7,97.5l0.2,0c0.1,0,0.2,0,0.2,0
		c0.1,0,0.1,0.1,0.1,0.1c0,0,0,0.1,0.1,0.1l0,0.2l0,0.2l0.1,3v0.2c0,0.1,0,0.1,0,0.2c0,0-0.1,0.1-0.1,0.1c-0.1,0-0.1,0-0.2,0.1
		l-0.2,0l0,0.8l4.7-0.3l-0.1-1.9l-0.8,0.1l0,0.5c0,0.1,0,0.2,0,0.3c0,0.1-0.1,0.2-0.1,0.2c-0.1,0-0.1,0.1-0.3,0.1l-1.4,0.1l-0.1-1.7
		l-0.1-1.8v-0.2c0-0.1,0-0.1,0-0.2c0,0,0.1-0.1,0.1-0.1c0.1,0,0.1-0.1,0.2-0.1l0.3,0l0-0.8l-0.5,0l-0.4,0l-0.4,0l-0.4,0l-0.3,0
		l-0.3,0l-0.3,0l-0.1,0L130.7,97.5z"/>
	<path class="st1" d="M144.7,21c0.6,2.9-1.3,4.2-3.4,4c-1.3-0.1-2.5-0.8-3.8-1.8c-1.1-0.9-2.2-1.9-3.3-2.8c-2.8-2.4-6.1-3.7-9.6-1.6
		c-0.9,0.5-1.8,1.4-2.5,2.6c-0.6-1.3-1.5-2.1-2.5-2.6c-3.5-2.1-6.8-0.8-9.6,1.6c-1.1,0.9-2.2,1.9-3.3,2.8c-1.3,1-2.5,1.7-3.8,1.8
		c-2.1,0.2-4-1.1-3.4-4c0-0.1,0-0.1-0.1-0.2c-0.1,0-0.1,0-0.2,0c-1.3,0.9-1.6,2.6-1.5,4.2c0.3,3.4,2.4,5.7,5.1,7
		c4.6,2.2,11,2.2,15.5-0.4c1.8-1.1,3.1-2.5,3.7-4.2c0.7,1.7,1.9,3.2,3.7,4.2c4.5,2.6,10.9,2.7,15.5,0.4c2.8-1.3,4.9-3.6,5.1-7
		c0.1-1.6-0.2-3.3-1.5-4.2c-0.1,0-0.1,0-0.2,0C144.7,20.8,144.7,20.9,144.7,21z"/>
	<path class="st1" d="M157.1,75.4c-0.4,0-0.7,0.3-0.7,0.7c0,0.4,0.3,0.7,0.7,0.7s0.7-0.3,0.7-0.7C157.7,75.7,157.4,75.4,157.1,75.4
		L157.1,75.4z M87,75.4c-0.4,0-0.7,0.3-0.7,0.7c0,0.4,0.3,0.7,0.7,0.7c0.4,0,0.7-0.3,0.7-0.7C87.6,75.7,87.3,75.4,87,75.4z"/>
</g>
</svg>
