<?xml version="1.0" encoding="utf-8"?>
<!-- Generator: Adobe Illustrator 21.1.0, SVG Export Plug-In . SVG Version: 6.00 Build 0)  -->
<svg version="1.1" id="Layer_1" xmlns="http://www.w3.org/2000/svg" xmlns:xlink="http://www.w3.org/1999/xlink" x="0px" y="0px"
	 viewBox="0 0 244 113" style="enable-background:new 0 0 244 113;" xml:space="preserve">
<style type="text/css">
	.st0{fill:#8C8C8C;}
	.st1{fill-rule:evenodd;clip-rule:evenodd;fill:#8C8C8C;}
</style>
<g>
	<path class="st0" d="M45.1,65.4c0,1.6,0.4,2.7,1.2,3.5c0.8,0.8,2,1.2,3.5,1.2h3.7c1.6,0,2.7-0.4,3.5-1.2c0.8-0.8,1.2-2,1.2-3.5
		V48.5c0-1.6-0.4-2.7-1.2-3.5c-0.8-0.8-2-1.2-3.5-1.2h-3.7c-1.6,0-2.7,0.4-3.5,1.2c-0.8,0.8-1.2,2-1.2,3.5V65.4L45.1,65.4z
		 M50.8,65.9c-0.4,0-0.8-0.1-1-0.3c-0.2-0.2-0.3-0.6-0.3-1V49.3c0-0.4,0.1-0.8,0.3-1c0.2-0.2,0.6-0.3,1-0.3h1.9c0.4,0,0.8,0.1,1,0.3
		c0.2,0.2,0.3,0.6,0.3,1v15.3c0,0.4-0.1,0.8-0.3,1c-0.2,0.2-0.6,0.3-1,0.3H50.8L50.8,65.9z M78,48.5c0-1.6-0.4-2.7-1.2-3.5
		c-0.8-0.8-2-1.2-3.5-1.2h-3.7c-1.6,0-2.7,0.4-3.6,1.2c-0.8,0.8-1.2,2-1.2,3.5v16.9c0,1.6,0.4,2.7,1.2,3.5c0.8,0.8,2,1.2,3.6,1.2
		h3.7c1.5,0,2.7-0.4,3.5-1.2c0.8-0.8,1.2-2,1.2-3.5v-3.6c0-0.2,0-0.3-0.1-0.4c-0.1-0.1-0.2-0.1-0.4-0.1h-3.3c-0.2,0-0.3,0.1-0.4,0.1
		c-0.1,0.1-0.1,0.2-0.1,0.4v2.6c0,0.4-0.1,0.8-0.3,1c-0.2,0.2-0.6,0.3-1,0.3h-1.7c-0.4,0-0.8-0.1-1-0.3c-0.2-0.2-0.3-0.6-0.3-1V49.4
		c0-0.4,0.1-0.8,0.3-1c0.2-0.2,0.6-0.3,1-0.3h1.7c0.4,0,0.8,0.1,1,0.3c0.2,0.2,0.3,0.6,0.3,1v2.6c0,0.2,0,0.3,0.1,0.4
		c0.1,0.1,0.2,0.1,0.4,0.1h3.3c0.2,0,0.3,0,0.4-0.1c0.1-0.1,0.1-0.2,0.1-0.4V48.5L78,48.5z M97.6,44.3c0-0.2,0-0.3-0.1-0.4
		c-0.1-0.1-0.2-0.1-0.4-0.1H84.9c-0.1,0-0.3,0.1-0.4,0.1c-0.1,0.1-0.1,0.2-0.1,0.4v25.4c0,0.2,0,0.3,0.1,0.4
		c0.1,0.1,0.2,0.1,0.4,0.1H97c0.2,0,0.3,0,0.4-0.1c0.1-0.1,0.1-0.2,0.1-0.4v-3.3c0-0.2,0-0.3-0.1-0.4c-0.1-0.1-0.2-0.1-0.4-0.1h-8.3
		v-6.7h6.3c0.2,0,0.3-0.1,0.4-0.1c0.1-0.1,0.1-0.2,0.1-0.4v-3.3c0-0.2-0.1-0.3-0.1-0.4c-0.1-0.1-0.2-0.1-0.4-0.1h-6.3v-6.6H97
		c0.2,0,0.3-0.1,0.4-0.2c0.1-0.1,0.1-0.2,0.1-0.4V44.3L97.6,44.3z M118.9,70.2c0.2,0,0.3,0,0.4-0.1c0.1-0.1,0.1-0.2,0.1-0.4
		l-5.5-25.4c0-0.2-0.1-0.3-0.2-0.4c-0.1-0.1-0.2-0.1-0.4-0.1h-4.6c-0.1,0-0.3,0-0.4,0.1c-0.1,0.1-0.2,0.2-0.2,0.4l-5.5,25.4
		c-0.1,0.2,0,0.3,0,0.4c0.1,0.1,0.2,0.1,0.4,0.1h3.5c0.1,0,0.3,0,0.4-0.1c0.1-0.1,0.1-0.2,0.2-0.3l0.9-4.8h5.9l0.9,4.8
		c0,0.1,0.1,0.3,0.2,0.3c0.1,0.1,0.2,0.1,0.4,0.1H118.9L118.9,70.2z M113.1,61.1h-4.2l2.1-11.5L113.1,61.1L113.1,61.1z M135.3,43.7
		c-0.2,0-0.3,0.1-0.4,0.1c-0.1,0.1-0.1,0.2-0.1,0.4v13.9h-0.2l-5-14c0-0.1-0.1-0.3-0.2-0.3c-0.1-0.1-0.2-0.1-0.4-0.1h-3.3
		c-0.2,0-0.3,0.1-0.4,0.1c-0.1,0.1-0.1,0.2-0.1,0.4v25.4c0,0.2,0.1,0.3,0.1,0.4c0.1,0.1,0.2,0.1,0.4,0.1h3.4c0.2,0,0.3,0,0.4-0.1
		c0.1-0.1,0.1-0.2,0.1-0.4v-14h0.2l5.1,14.1c0,0.1,0.1,0.3,0.2,0.3c0.1,0.1,0.2,0.1,0.4,0.1h3.3c0.2,0,0.3,0,0.4-0.1
		c0.1-0.1,0.1-0.2,0.1-0.4V44.3c0-0.2,0-0.3-0.1-0.4c-0.1-0.1-0.2-0.1-0.4-0.1H135.3L135.3,43.7z M145.6,69.7c0,0.2,0,0.3,0.1,0.4
		c0.1,0.1,0.2,0.1,0.4,0.1h7.9c1.6,0,2.7-0.4,3.5-1.2c0.8-0.8,1.2-2,1.2-3.5V48.5c0-1.6-0.4-2.8-1.2-3.6c-0.8-0.8-2-1.2-3.5-1.2
		h-7.9c-0.2,0-0.3,0.1-0.4,0.1c-0.1,0.1-0.1,0.2-0.1,0.4V69.7L145.6,69.7z M150.1,65.8V48.1h3c0.4,0,0.8,0.1,1,0.3
		c0.2,0.2,0.3,0.6,0.3,1v15c0,0.4-0.1,0.8-0.3,1c-0.2,0.2-0.6,0.3-1,0.3H150.1L150.1,65.8z M165.3,65.4c0,1.6,0.4,2.7,1.2,3.5
		c0.8,0.8,2,1.2,3.5,1.2h3.7c1.6,0,2.7-0.4,3.5-1.2c0.8-0.8,1.2-2,1.2-3.5V48.5c0-1.6-0.4-2.7-1.2-3.5c-0.8-0.8-2-1.2-3.5-1.2H170
		c-1.6,0-2.7,0.4-3.5,1.2c-0.8,0.8-1.2,2-1.2,3.5V65.4L165.3,65.4z M171,65.9c-0.4,0-0.8-0.1-1-0.3c-0.2-0.2-0.3-0.6-0.3-1V49.3
		c0-0.4,0.1-0.8,0.3-1c0.2-0.2,0.6-0.3,1-0.3h1.9c0.4,0,0.8,0.1,1,0.3c0.2,0.2,0.3,0.6,0.3,1v15.3c0,0.4-0.1,0.8-0.3,1
		c-0.2,0.2-0.6,0.3-1,0.3H171L171,65.9z M198.5,48.5c0-1.6-0.4-2.7-1.2-3.5c-0.8-0.8-2-1.2-3.5-1.2h-8.3c-0.2,0-0.3,0.1-0.4,0.1
		c-0.1,0.1-0.1,0.2-0.1,0.4v25.4c0,0.2,0.1,0.3,0.1,0.4c0.1,0.1,0.2,0.1,0.4,0.1h3.4c0.2,0,0.3,0,0.4-0.1c0.1-0.1,0.1-0.2,0.1-0.4
		v-8.3h2.3l2.2,8.4c0,0.1,0.1,0.3,0.2,0.3c0.1,0.1,0.2,0.1,0.4,0.1h3.4c0.2,0,0.3,0,0.4-0.1c0.1-0.1,0.1-0.2,0.1-0.4l-2.3-8.7
		c0.8-0.3,1.4-0.9,1.8-1.6c0.4-0.7,0.6-1.6,0.6-2.7V48.5L198.5,48.5z M189.4,57v-8.9h3.3c0.4,0,0.8,0.1,1,0.3c0.2,0.2,0.3,0.6,0.3,1
		v6.2c0,0.4-0.1,0.8-0.3,1c-0.2,0.2-0.6,0.3-1,0.3H189.4z"/>
	<rect x="53.4" y="77.4" class="st0" width="136.8" height="0.5"/>
	<path class="st0" d="M58.1,87.7h11.6v0.5H58.1V87.7L58.1,87.7z M173.9,87.7h11.6v0.5h-11.6V87.7L173.9,87.7z M173.9,89h11.6v0.5
		h-11.6V89L173.9,89z M58.1,89h11.6v0.5H58.1V89z"/>
	<path class="st0" d="M81.2,85.3L81,86c0-0.2-0.1-0.4-0.3-0.6c-0.2-0.1-0.5-0.2-0.9-0.2c-0.4,0-0.8,0.1-1.2,0.3
		c-0.4,0.2-0.7,0.4-1,0.7c-0.3,0.3-0.5,0.6-0.8,1c-0.2,0.4-0.4,0.7-0.5,1.1c-0.1,0.4-0.2,0.8-0.3,1.2c-0.1,0.4-0.1,0.8-0.1,1.1
		c0,0.4,0.1,0.8,0.2,1.1c0.1,0.3,0.3,0.6,0.5,0.8c0.2,0.2,0.4,0.3,0.6,0.4c0.2,0.1,0.5,0.1,0.8,0.1c0.3,0,0.5,0,0.7-0.1
		c0.2-0.1,0.4-0.2,0.6-0.3c0.2-0.1,0.3-0.3,0.5-0.4l-1,4.5l2.3-0.5l2.3-10.8H81.2L81.2,85.3z M164.4,83.2l-0.5,2.1h-0.5l-0.1,0.6
		h0.5l-0.9,4.3c-0.3,0.3-0.5,0.6-0.8,0.8c-0.3,0.2-0.5,0.4-0.9,0.5c-0.3,0.1-0.7,0.2-1.1,0.2c-0.2,0-0.4,0-0.6-0.1
		c-0.2-0.1-0.3-0.2-0.4-0.4c-0.1-0.2-0.1-0.4-0.1-0.8c0-0.3,0-0.6,0.1-0.9c0.1-0.3,0.1-0.7,0.2-1c0.1-0.3,0.2-0.7,0.3-1
		c0.1-0.3,0.3-0.6,0.4-0.8c0.1-0.2,0.3-0.4,0.5-0.6c0.2-0.1,0.3-0.2,0.5-0.2c0.1,0,0.3,0.1,0.3,0.2c0.1,0.1,0.1,0.3,0.1,0.5
		c0,0.1,0,0.3,0,0.4c0,0.1-0.1,0.3-0.1,0.5l0,0c0.1,0.1,0.2,0.1,0.3,0.1c0.1,0,0.2,0,0.3,0c0.1,0,0.3,0,0.4-0.1
		c0.1-0.1,0.2-0.2,0.3-0.4c0.1-0.2,0.1-0.4,0.1-0.6c0-0.2,0-0.3-0.1-0.5c-0.1-0.2-0.1-0.3-0.3-0.4c-0.1-0.1-0.3-0.2-0.5-0.3
		c-0.2-0.1-0.5-0.1-0.8-0.1c-0.4,0-0.8,0.1-1.2,0.2c-0.4,0.1-0.7,0.3-1,0.6c-0.3,0.2-0.5,0.5-0.7,0.8c-0.2,0.3-0.4,0.6-0.5,1
		c-0.2,0.3-0.3,0.7-0.4,1c-0.1,0.3-0.2,0.7-0.2,1c0,0.3-0.1,0.6-0.1,0.9l0,0.1c0,0.1-0.1,0.1-0.1,0.2c-0.1,0.2-0.3,0.4-0.4,0.5
		c-0.2,0.1-0.3,0.2-0.5,0.2c-0.2,0-0.4,0-0.5-0.1c-0.1-0.1-0.2-0.2-0.2-0.4c0-0.1,0-0.1,0-0.2c0-0.1,0-0.2,0-0.3l1.1-5.2h-2.2
		l-1,4.9c-0.1,0.3-0.2,0.5-0.3,0.7c-0.1,0.2-0.3,0.4-0.4,0.5c-0.2,0.1-0.3,0.2-0.5,0.2c-0.2,0-0.3-0.1-0.4-0.2
		c-0.1-0.1-0.1-0.3-0.1-0.4c0-0.1,0-0.1,0-0.2c0-0.1,0-0.1,0-0.2l1.1-5.2h-2.2l-1,4.9c-0.1,0.3-0.2,0.5-0.3,0.7
		c-0.1,0.2-0.3,0.4-0.4,0.5c-0.2,0.1-0.3,0.2-0.5,0.2c-0.2,0-0.4,0-0.5-0.1c-0.1-0.1-0.2-0.2-0.2-0.4c0-0.1,0-0.1,0-0.2
		c0-0.1,0-0.2,0-0.3l1.7-8.2l-2.2,0.3l-0.7,3.5V86c0-0.1,0-0.3-0.1-0.4c-0.1-0.1-0.2-0.2-0.4-0.3c-0.2-0.1-0.4-0.1-0.7-0.1
		c-0.4,0-0.8,0.1-1.2,0.3c-0.4,0.2-0.7,0.4-1,0.7c-0.3,0.3-0.5,0.6-0.8,1c0,0.1-0.1,0.1-0.1,0.2c-0.2,0.1-0.3,0.1-0.5,0.2
		c-0.3,0.1-0.5,0.1-0.8,0.1c0,0,0,0-0.1,0c0,0-0.1,0-0.1,0c0-0.8-0.2-1.4-0.5-1.8c-0.3-0.4-0.8-0.6-1.5-0.6c-0.4,0-0.9,0.1-1.2,0.2
		c-0.4,0.1-0.7,0.3-1,0.6c-0.3,0.2-0.5,0.5-0.8,0.8c-0.2,0.3-0.4,0.6-0.6,1c-0.2,0.3-0.3,0.7-0.4,1c-0.1,0.3-0.2,0.7-0.2,1
		c0,0.3-0.1,0.6-0.1,0.8c0,0.6,0.1,1,0.3,1.4c0.2,0.4,0.5,0.6,0.9,0.8c0.4,0.2,0.8,0.2,1.3,0.2c0.5,0,0.9-0.1,1.3-0.3
		c0.4-0.2,0.8-0.5,1.1-0.9c0.3-0.4,0.6-0.9,0.8-1.4c0.2-0.6,0.3-1.2,0.4-1.9c0.4-0.1,0.7-0.2,1.1-0.3l0,0c0,0.1,0,0.1-0.1,0.2
		c-0.1,0.4-0.2,0.8-0.3,1.2c-0.1,0.4-0.1,0.8-0.1,1.1c0,0.4,0.1,0.8,0.2,1.1c0.1,0.3,0.3,0.6,0.5,0.8c0.2,0.2,0.4,0.3,0.6,0.4
		c0.2,0.1,0.5,0.1,0.8,0.1c0.3,0,0.5,0,0.7-0.1c0.2-0.1,0.4-0.2,0.6-0.3c0.2-0.1,0.4-0.3,0.5-0.4c0.1-0.2,0.3-0.3,0.4-0.5
		c0.1,0.4,0.2,0.8,0.5,1c0.3,0.2,0.6,0.3,1,0.3c0.2,0,0.3,0,0.5,0c0.2,0,0.4-0.1,0.6-0.2c0.2-0.1,0.4-0.3,0.7-0.4
		c0.2-0.2,0.3-0.3,0.5-0.6c0,0.2,0.1,0.4,0.2,0.6c0.1,0.3,0.3,0.5,0.6,0.6c0.2,0.1,0.5,0.2,0.8,0.2c0.2,0,0.3,0,0.5-0.1
		c0.2,0,0.4-0.1,0.6-0.2c0.2-0.1,0.4-0.2,0.6-0.4c0.2-0.2,0.4-0.4,0.6-0.8c0,0.5,0.2,0.8,0.5,1.1c0.3,0.2,0.6,0.4,1,0.4
		c0.2,0,0.3,0,0.5-0.1c0.2,0,0.4-0.1,0.6-0.2c0.2-0.1,0.4-0.3,0.7-0.5c0.2-0.2,0.4-0.4,0.5-0.6c0,0.1,0.1,0.2,0.2,0.4
		c0.2,0.4,0.5,0.6,0.8,0.8c0.4,0.2,0.8,0.2,1.2,0.2c0.5,0,1-0.1,1.4-0.2c0.4-0.2,0.8-0.4,1.1-0.6c0.3-0.3,0.6-0.6,0.9-0.9l0.1-0.1
		l0,0.1c0,0.4,0.1,0.8,0.2,1c0.1,0.3,0.3,0.5,0.6,0.6c0.2,0.1,0.5,0.2,0.8,0.2c0.2,0,0.4,0,0.6-0.1c0.2,0,0.4-0.1,0.7-0.2
		c0.2-0.1,0.5-0.3,0.7-0.5c0.2-0.2,0.5-0.5,0.7-0.8c0.2-0.3,0.4-0.7,0.6-1.2H167c-0.1,0.3-0.2,0.5-0.3,0.7c-0.1,0.2-0.3,0.4-0.5,0.5
		c-0.2,0.1-0.4,0.2-0.6,0.2c-0.2,0-0.4,0-0.5-0.1c-0.1-0.1-0.2-0.2-0.2-0.4c0-0.1,0-0.1,0-0.2c0-0.1,0-0.2,0-0.3l1-4.6h0.9l0.1-0.6
		h-0.9l0.5-2.4L164.4,83.2L164.4,83.2z M145.5,90.2c-0.1,0.3-0.2,0.5-0.3,0.7c-0.1,0.2-0.3,0.3-0.5,0.4c-0.2,0.1-0.3,0.1-0.5,0.1
		c-0.1,0-0.1,0-0.2,0c-0.1,0-0.2-0.1-0.2-0.1c-0.1-0.1-0.1-0.2-0.2-0.4c-0.1-0.2-0.1-0.4-0.1-0.7c0-0.2,0-0.5,0.1-0.8
		c0-0.3,0.1-0.6,0.2-0.9c0.1-0.3,0.2-0.6,0.3-0.9c0.1-0.3,0.3-0.6,0.4-0.8c0.2-0.2,0.3-0.4,0.5-0.6c0.2-0.1,0.4-0.2,0.6-0.2
		c0.1,0,0.3,0,0.4,0.1c0.1,0.1,0.2,0.1,0.2,0.2c0,0.1,0.1,0.2,0.1,0.2L145.5,90.2L145.5,90.2L145.5,90.2z M137.6,91.5
		c-0.2,0-0.3,0-0.5-0.1c-0.1-0.1-0.2-0.2-0.2-0.4c-0.1-0.2-0.1-0.4-0.1-0.8c0-0.2,0-0.5,0.1-0.8c0.1-0.3,0.1-0.6,0.2-0.9
		c0.1-0.3,0.2-0.6,0.3-0.9c0.1-0.3,0.3-0.6,0.4-0.8c0.1-0.2,0.3-0.4,0.5-0.6c0.2-0.1,0.3-0.2,0.5-0.2c0.2,0,0.3,0.1,0.4,0.2
		c0.1,0.1,0.1,0.4,0.2,0.7c-0.1,0.1-0.3,0.2-0.3,0.3c-0.1,0.1-0.1,0.3-0.1,0.5c0,0.2,0,0.3,0.1,0.4c0.1,0.1,0.2,0.2,0.3,0.2
		c-0.1,0.5-0.2,0.9-0.3,1.3c-0.1,0.4-0.3,0.7-0.4,1c-0.2,0.3-0.3,0.5-0.5,0.7C138,91.5,137.8,91.5,137.6,91.5L137.6,91.5L137.6,91.5
		z M130.1,85.3h2.2l-0.2,0.9c0.2-0.2,0.4-0.3,0.6-0.4c0.2-0.1,0.4-0.3,0.6-0.4c0.2-0.1,0.4-0.1,0.7-0.1c0.2,0,0.4,0.1,0.6,0.2
		c0.2,0.1,0.3,0.2,0.4,0.4c0.1,0.2,0.1,0.4,0.1,0.6c0,0.2,0,0.4-0.1,0.5c-0.1,0.2-0.2,0.3-0.4,0.4c-0.2,0.1-0.4,0.2-0.6,0.2
		c-0.2,0-0.3,0-0.4-0.1c-0.1-0.1-0.1-0.1-0.2-0.2c0-0.1-0.1-0.2-0.1-0.3c0-0.1,0-0.2-0.1-0.2c0-0.1-0.1-0.1-0.2-0.1
		c-0.2,0-0.3,0-0.4,0.1c-0.1,0-0.2,0.1-0.3,0.2c-0.1,0.1-0.2,0.2-0.4,0.3l-1.2,5.8h-2.2L130.1,85.3L130.1,85.3z M123.2,84.7l-2.5,12
		l2.3-0.5l0.8-3.7c0.1,0.1,0.1,0.2,0.2,0.3c0.1,0.1,0.2,0.1,0.4,0.2c0.2,0.1,0.4,0.1,0.6,0.1c0.5,0,0.9-0.1,1.3-0.3
		c0.4-0.2,0.7-0.4,1-0.7c0.3-0.3,0.5-0.6,0.7-1c0.2-0.4,0.3-0.7,0.4-1.1c0.1-0.4,0.2-0.8,0.2-1.2c0-0.4,0.1-0.8,0.1-1.1
		c0-0.6-0.1-1.1-0.3-1.4c-0.2-0.4-0.4-0.6-0.7-0.8c-0.3-0.2-0.6-0.2-0.9-0.2c-0.4,0-0.7,0.1-1,0.2c-0.3,0.1-0.5,0.3-0.8,0.5l0.2-1.1
		H123.2L123.2,84.7z M124.5,91.6c-0.2,0-0.3,0-0.4-0.1c-0.1-0.1-0.2-0.2-0.2-0.2l0.9-4.3c0.1-0.2,0.2-0.3,0.3-0.4
		c0.1-0.1,0.2-0.2,0.4-0.3c0.1-0.1,0.2-0.1,0.4-0.1c0.1,0,0.2,0,0.2,0c0.1,0,0.2,0.1,0.2,0.2c0.1,0.1,0.1,0.2,0.2,0.4
		c0.1,0.2,0.1,0.4,0.1,0.7c0,0.2,0,0.5,0,0.8c0,0.3-0.1,0.6-0.2,0.9c-0.1,0.3-0.2,0.6-0.3,0.9c-0.1,0.3-0.2,0.5-0.4,0.8
		c-0.2,0.2-0.3,0.4-0.5,0.5C125,91.6,124.8,91.6,124.5,91.6L124.5,91.6z M116.1,85.3h2.2l-1.5,7c0.3-0.1,0.6-0.2,0.8-0.4
		c0.2-0.2,0.4-0.4,0.6-0.7c0.2-0.3,0.3-0.6,0.5-1.1h0.6c-0.1,0.5-0.3,0.9-0.5,1.3c-0.2,0.3-0.4,0.6-0.7,0.8
		c-0.2,0.2-0.5,0.4-0.7,0.5c-0.3,0.1-0.5,0.2-0.7,0.3l-0.2,1.1c-0.1,0.5-0.3,1-0.5,1.3c-0.2,0.3-0.4,0.6-0.7,0.8
		c-0.3,0.2-0.5,0.3-0.8,0.4c-0.3,0.1-0.5,0.1-0.8,0.1c-0.3,0-0.6-0.1-0.9-0.2c-0.3-0.1-0.5-0.3-0.6-0.5c-0.2-0.2-0.2-0.5-0.2-0.8
		c0-0.3,0.1-0.6,0.2-0.8c0.1-0.2,0.3-0.5,0.6-0.6c0.2-0.2,0.5-0.3,0.8-0.5c0.3-0.1,0.6-0.2,0.9-0.3l0.2-0.8
		c-0.2,0.2-0.4,0.4-0.6,0.5c-0.2,0.1-0.4,0.2-0.6,0.3c-0.2,0-0.4,0.1-0.6,0.1c-0.3,0-0.6-0.1-0.8-0.2c-0.2-0.1-0.4-0.3-0.6-0.6
		c-0.1-0.2-0.1-0.4-0.2-0.6c-0.2,0.2-0.4,0.4-0.5,0.6c-0.2,0.2-0.5,0.4-0.7,0.5c-0.2,0.1-0.5,0.2-0.7,0.2c-0.2,0-0.4,0.1-0.6,0.1
		c-0.3,0-0.6-0.1-0.8-0.2c-0.2-0.1-0.4-0.3-0.6-0.6c-0.1-0.2-0.1-0.4-0.2-0.6c-0.2,0.2-0.4,0.4-0.5,0.6c-0.2,0.2-0.5,0.4-0.7,0.5
		c-0.2,0.1-0.5,0.2-0.7,0.2c-0.2,0-0.4,0.1-0.6,0.1c-0.3,0-0.6-0.1-0.8-0.2c-0.2-0.1-0.4-0.3-0.6-0.6c-0.1-0.2-0.1-0.4-0.2-0.6
		c-0.2,0.2-0.4,0.4-0.5,0.6c-0.2,0.2-0.5,0.4-0.7,0.5c-0.2,0.1-0.5,0.2-0.7,0.2c-0.2,0-0.4,0.1-0.6,0.1c-0.3,0-0.6-0.1-0.8-0.2
		c-0.2-0.1-0.4-0.3-0.6-0.6c-0.1-0.2-0.1-0.3-0.2-0.6c-0.2,0.2-0.3,0.4-0.5,0.6c-0.2,0.2-0.4,0.4-0.7,0.5c-0.2,0.1-0.4,0.2-0.6,0.2
		c-0.2,0-0.4,0.1-0.5,0.1c-0.4,0-0.8-0.1-1-0.4c-0.3-0.2-0.4-0.6-0.5-1c-0.1,0.2-0.3,0.3-0.4,0.5c-0.1,0.2-0.3,0.3-0.5,0.4
		c-0.2,0.1-0.4,0.2-0.6,0.3c-0.2,0.1-0.5,0.1-0.7,0.1c-0.3,0-0.5,0-0.8-0.1c-0.2-0.1-0.5-0.2-0.6-0.4c-0.2-0.2-0.3-0.4-0.5-0.8
		l0-0.1c-0.2,0.3-0.3,0.5-0.5,0.6c-0.2,0.2-0.4,0.4-0.7,0.5c-0.2,0.1-0.4,0.2-0.6,0.2c-0.2,0-0.4,0.1-0.5,0.1c-0.4,0-0.8-0.1-1-0.4
		c-0.3-0.2-0.4-0.6-0.5-1.1c-0.2,0.3-0.4,0.6-0.6,0.8c-0.2,0.2-0.4,0.3-0.6,0.4c-0.2,0.1-0.4,0.2-0.6,0.2c-0.2,0-0.4,0.1-0.5,0.1
		c-0.3,0-0.6-0.1-0.8-0.2c-0.2-0.1-0.4-0.3-0.6-0.6c-0.1-0.3-0.2-0.6-0.2-1c0-0.1,0-0.3,0-0.5c0-0.2,0.1-0.3,0.1-0.5l1-4.9h2.2
		l-1.1,5.2c0,0.1,0,0.1,0,0.2c0,0.1,0,0.1,0,0.2c0,0.2,0,0.3,0.1,0.4c0.1,0.1,0.2,0.2,0.4,0.2c0.2,0,0.4-0.1,0.5-0.2
		c0.2-0.1,0.3-0.3,0.4-0.5c0.1-0.2,0.2-0.4,0.3-0.7l1-4.9h2.2l-1.1,5.2c0,0.1,0,0.2,0,0.3c0,0.1,0,0.2,0,0.2c0,0.2,0.1,0.4,0.2,0.4
		c0.1,0.1,0.3,0.1,0.5,0.1c0.2,0,0.4-0.1,0.5-0.2c0.2-0.1,0.3-0.3,0.4-0.5c0-0.1,0.1-0.1,0.1-0.2c0,0,0-0.1,0-0.1
		c0-0.3,0-0.7,0.1-1.1c0.1-0.4,0.2-0.8,0.3-1.2c0.1-0.4,0.3-0.8,0.5-1.1c0.2-0.4,0.5-0.7,0.8-1c0.3-0.3,0.6-0.5,1-0.7
		c0.4-0.2,0.8-0.2,1.2-0.3c0.3,0,0.5,0,0.7,0.1c0.2,0.1,0.3,0.2,0.4,0.3c0.1,0.1,0.1,0.2,0.1,0.4v0.1l0.2-0.8h2.2l-1.1,5.2
		c0,0.1,0,0.2,0,0.3c0,0.1,0,0.2,0,0.2c0,0.2,0.1,0.4,0.2,0.5c0.1,0.1,0.3,0.2,0.5,0.2c0.2,0,0.4-0.1,0.5-0.2
		c0.2-0.1,0.3-0.3,0.4-0.5c0.1-0.2,0.2-0.5,0.3-0.7l1.6-7.6l2.2-0.3l-1.7,8.2c0,0.1,0,0.2,0,0.3c0,0.1,0,0.2,0,0.2
		c0,0.2,0.1,0.4,0.2,0.4c0.1,0.1,0.3,0.1,0.5,0.1c0.2,0,0.4-0.1,0.6-0.2c0.2-0.1,0.3-0.3,0.5-0.5c0.1-0.2,0.2-0.4,0.3-0.7l1-4.9h2.2
		l-1.1,5.2c0,0.1,0,0.2,0,0.3c0,0.1,0,0.2,0,0.2c0,0.2,0.1,0.4,0.2,0.4c0.1,0.1,0.3,0.1,0.5,0.1c0.2,0,0.4-0.1,0.6-0.2
		c0.2-0.1,0.3-0.3,0.5-0.5c0.1-0.2,0.2-0.4,0.3-0.7l0.9-4.3h-0.5l0.1-0.6h0.5l0.5-2.1l2.2-0.3l-0.5,2.4h0.9l-0.1,0.6h-0.9l-1,4.6
		c0,0.1,0,0.2,0,0.3c0,0.1,0,0.2,0,0.2c0,0.2,0.1,0.4,0.2,0.4c0.1,0.1,0.3,0.1,0.5,0.1c0.2,0,0.4-0.1,0.6-0.2
		c0.2-0.1,0.3-0.3,0.5-0.5c0.1-0.2,0.2-0.4,0.3-0.7l1-4.9h2.2l-1.1,5.2c0,0.1,0,0.1,0,0.2c0,0.1,0,0.1,0,0.2c0,0.1,0,0.2,0,0.3
		c0,0.1,0.1,0.2,0.1,0.2c0.1,0.1,0.2,0.1,0.3,0.1c0.2,0,0.4-0.1,0.5-0.2c0.1-0.1,0.3-0.3,0.4-0.4c0.1-0.2,0.2-0.4,0.3-0.6
		L116.1,85.3L116.1,85.3z M112.8,95c0,0.1,0,0.1,0.1,0.2c0,0.1,0.1,0.1,0.2,0.2c0.1,0.1,0.2,0.1,0.3,0.1c0.1,0,0.2-0.1,0.3-0.2
		c0.1-0.1,0.2-0.3,0.3-0.5c0.1-0.2,0.2-0.5,0.2-0.7l0.1-0.4c-0.3,0.1-0.5,0.2-0.7,0.3c-0.2,0.1-0.4,0.3-0.5,0.4
		C112.9,94.6,112.8,94.8,112.8,95L112.8,95z M104.5,83.2c0,0.2,0.1,0.4,0.2,0.6c0.1,0.2,0.3,0.3,0.4,0.4c0.2,0.1,0.4,0.2,0.6,0.2
		c0.2,0,0.4-0.1,0.6-0.2c0.2-0.1,0.3-0.3,0.4-0.4c0.1-0.2,0.2-0.4,0.2-0.6c0-0.2-0.1-0.4-0.2-0.6c-0.1-0.2-0.3-0.3-0.4-0.4
		c-0.2-0.1-0.4-0.2-0.6-0.2c-0.2,0-0.4,0.1-0.6,0.2c-0.2,0.1-0.3,0.3-0.4,0.4C104.6,82.8,104.5,83,104.5,83.2L104.5,83.2z
		 M95.3,86.1c-0.2,0-0.4,0.1-0.6,0.2c-0.2,0.1-0.4,0.3-0.5,0.6c-0.2,0.2-0.3,0.5-0.4,0.8c-0.1,0.3-0.2,0.6-0.3,0.9
		c-0.1,0.3-0.1,0.6-0.2,0.9c0,0.3-0.1,0.6-0.1,0.8c0,0.3,0,0.5,0.1,0.7c0.1,0.2,0.1,0.3,0.2,0.4c0.1,0.1,0.2,0.1,0.3,0.1
		c0.1,0,0.2,0,0.2,0c0.2,0,0.3-0.1,0.5-0.2c0.2-0.1,0.3-0.2,0.5-0.4c0.1-0.2,0.2-0.4,0.3-0.7l0.7-3.4c0-0.1,0-0.1-0.1-0.2
		c0-0.1-0.1-0.2-0.2-0.2C95.6,86.2,95.5,86.1,95.3,86.1L95.3,86.1z M80.3,86.1c0.1,0,0.3,0,0.3,0.1c0.1,0.1,0.2,0.1,0.2,0.2
		c0,0.1,0.1,0.2,0.1,0.2l-0.8,3.7c-0.1,0.2-0.2,0.4-0.3,0.6c-0.1,0.2-0.3,0.3-0.4,0.4c-0.1,0.1-0.3,0.1-0.4,0.1c-0.1,0-0.2,0-0.2,0
		c-0.1,0-0.2-0.1-0.3-0.1c-0.1-0.1-0.1-0.2-0.2-0.4c-0.1-0.2-0.1-0.4-0.1-0.7c0-0.2,0-0.5,0.1-0.8c0-0.3,0.1-0.6,0.2-0.9
		c0.1-0.3,0.2-0.6,0.3-0.9c0.1-0.3,0.3-0.6,0.4-0.8c0.2-0.2,0.3-0.4,0.5-0.6C79.9,86.2,80.1,86.1,80.3,86.1z"/>
	<path class="st1" d="M120.6,6.8c-2.6,0.2-5,1.3-7,2.9c0-0.1,0-0.2-0.1-0.2l0,0c-0.1-0.1-0.4-0.1-0.6,0c0-0.2-0.1-0.3-0.2-0.5
		c-0.2-0.2-0.6-0.3-1-0.1c-0.5-0.7-0.8-1.6-1.4-2.3c-0.6-0.6-1.4-0.7-1.9-0.3c-0.4,0.4-0.3,1.3,0.3,1.9c0.6,0.6,1.6,0.9,2.3,1.4
		c-0.2,0.4-0.1,0.7,0.1,1c0.1,0.1,0.3,0.2,0.5,0.2c-0.1,0.2-0.1,0.4,0,0.6l0,0c0.1,0.1,0.2,0.1,0.2,0.1c-1.6,1.9-2.6,4.3-2.9,7
		c-0.1-0.1-0.2-0.1-0.2-0.1l0,0c-0.2,0-0.4,0.2-0.4,0.4c-0.1-0.1-0.3-0.2-0.5-0.2c-0.3,0-0.6,0.3-0.8,0.6c-0.9-0.2-1.7-0.6-2.6-0.6
		c-0.9,0-1.5,0.5-1.5,1.1c0,0.6,0.7,1.1,1.5,1.1c0.9,0,1.7-0.5,2.6-0.6c0.1,0.4,0.4,0.6,0.8,0.6c0.2,0,0.3-0.1,0.5-0.2
		c0,0.2,0.2,0.4,0.4,0.4l0,0c0.1,0,0.2,0,0.2-0.1c0.2,2.6,1.3,5,2.9,7c-0.1,0-0.2,0-0.2,0.1l0,0c-0.1,0.1-0.2,0.4,0,0.6
		c-0.2,0-0.3,0.1-0.5,0.2c-0.2,0.2-0.3,0.6-0.1,1c-0.7,0.5-1.6,0.8-2.3,1.4c-0.6,0.6-0.7,1.4-0.3,1.9c0.4,0.4,1.3,0.3,1.9-0.3
		c0.6-0.6,0.9-1.6,1.4-2.3c0.4,0.2,0.7,0.1,1-0.1c0.1-0.1,0.2-0.3,0.2-0.5c0.2,0.1,0.4,0.1,0.6,0l0,0c0.1-0.1,0.1-0.2,0.1-0.2
		c1.9,1.6,4.3,2.6,7,2.9c-0.1,0.1-0.1,0.2-0.1,0.2l0,0c0,0.2,0.2,0.4,0.4,0.4c-0.1,0.1-0.2,0.3-0.2,0.5c0,0.3,0.3,0.6,0.6,0.8
		c-0.2,0.9-0.6,1.7-0.6,2.6c0,0.8,0.5,1.5,1.1,1.5c0.6,0,1.1-0.7,1.1-1.5c0-0.9-0.5-1.7-0.6-2.6c0.4-0.1,0.6-0.4,0.6-0.8
		c0-0.2-0.1-0.3-0.2-0.5c0.2,0,0.4-0.2,0.4-0.4l0,0c0-0.1,0-0.2-0.1-0.2c2.6-0.2,5-1.3,7-2.9c0,0.1,0,0.2,0.1,0.2l0,0
		c0.1,0.1,0.4,0.1,0.6,0c0,0.2,0.1,0.3,0.2,0.5c0.2,0.2,0.6,0.3,1,0.1c0.5,0.7,0.8,1.6,1.4,2.3c0.6,0.6,1.4,0.7,1.9,0.3
		c0.4-0.4,0.3-1.3-0.3-1.9c-0.6-0.6-1.6-0.9-2.3-1.4c0.2-0.4,0.1-0.7-0.1-1c-0.1-0.1-0.3-0.2-0.5-0.2c0.1-0.2,0.1-0.4,0-0.6l0,0
		c-0.1-0.1-0.1-0.1-0.2-0.1c1.6-1.9,2.6-4.3,2.9-7c0.1,0.1,0.2,0.1,0.2,0.1l0,0c0.2,0,0.4-0.2,0.4-0.4c0.1,0.1,0.3,0.2,0.5,0.2
		c0.3,0,0.6-0.3,0.8-0.6c0.9,0.2,1.7,0.6,2.6,0.6c0.9,0,1.5-0.5,1.5-1.1c0-0.6-0.7-1.1-1.5-1.1c-0.9,0-1.7,0.5-2.6,0.6
		c-0.1-0.4-0.4-0.6-0.8-0.6c-0.2,0-0.3,0.1-0.5,0.2c0-0.2-0.2-0.4-0.4-0.4l0,0c-0.1,0-0.2,0-0.2,0.1c-0.2-2.6-1.3-5-2.9-7
		c0.1,0,0.2,0,0.2-0.1l0,0c0.1-0.1,0.2-0.4,0-0.6c0.2,0,0.3-0.1,0.5-0.2c0.2-0.2,0.3-0.6,0.1-1c0.7-0.5,1.6-0.8,2.3-1.4
		c0.6-0.6,0.7-1.4,0.3-1.9c-0.4-0.4-1.3-0.3-1.9,0.3c-0.6,0.6-0.9,1.6-1.4,2.3c-0.4-0.2-0.7-0.1-1,0.1c-0.1,0.1-0.2,0.3-0.2,0.5
		c-0.2-0.1-0.4-0.1-0.6,0l0,0c-0.1,0.1-0.1,0.1-0.1,0.2c-1.9-1.6-4.3-2.6-7-2.9c0.1-0.1,0.1-0.2,0.1-0.2l0,0c0-0.2-0.2-0.4-0.4-0.4
		c0.1-0.1,0.2-0.3,0.2-0.5c0-0.3-0.3-0.6-0.6-0.8c0.2-0.9,0.6-1.7,0.6-2.6c0-0.9-0.5-1.5-1.1-1.5c-0.6,0-1.1,0.7-1.1,1.5
		c0,0.9,0.5,1.7,0.6,2.6c-0.4,0.1-0.6,0.4-0.6,0.8c0,0.2,0.1,0.3,0.2,0.5c-0.2,0-0.4,0.2-0.4,0.4l0,0C120.5,6.6,120.6,6.7,120.6,6.8
		L120.6,6.8z M121.8,17.2c1.3,0,2.3,1,2.3,2.3c0,1.3-1,2.3-2.3,2.3c-1.3,0-2.3-1-2.3-2.3C119.5,18.2,120.5,17.2,121.8,17.2
		L121.8,17.2z M126.4,16.8c0.2,0.4,0.1,0.8-0.3,1.1c-0.4,0.2-0.8,0.1-1.1-0.3c-0.2-0.4-0.1-0.8,0.3-1.1
		C125.7,16.3,126.2,16.5,126.4,16.8L126.4,16.8z M124.4,14.9c0.4,0.2,0.5,0.7,0.3,1.1c-0.2,0.4-0.7,0.5-1.1,0.3
		c-0.4-0.2-0.5-0.7-0.3-1.1C123.6,14.8,124.1,14.7,124.4,14.9L124.4,14.9z M121.8,14.2c0.4,0,0.8,0.3,0.8,0.8c0,0.4-0.3,0.8-0.8,0.8
		c-0.4,0-0.8-0.3-0.8-0.8C121,14.5,121.4,14.2,121.8,14.2L121.8,14.2z M119.1,14.9c0.4-0.2,0.8-0.1,1.1,0.3c0.2,0.4,0.1,0.8-0.3,1.1
		c-0.4,0.2-0.8,0.1-1.1-0.3C118.6,15.6,118.8,15.1,119.1,14.9L119.1,14.9z M117.2,16.8c0.2-0.4,0.7-0.5,1.1-0.3
		c0.4,0.2,0.5,0.7,0.3,1.1c-0.2,0.4-0.7,0.5-1.1,0.3C117.1,17.7,117,17.2,117.2,16.8L117.2,16.8z M116.5,19.5c0-0.4,0.3-0.8,0.8-0.8
		c0.4,0,0.8,0.3,0.8,0.8c0,0.4-0.3,0.8-0.8,0.8C116.8,20.3,116.5,19.9,116.5,19.5L116.5,19.5z M117.2,22.1c-0.2-0.4-0.1-0.8,0.3-1.1
		c0.4-0.2,0.8-0.1,1.1,0.3c0.2,0.4,0.1,0.8-0.3,1.1C117.9,22.6,117.4,22.5,117.2,22.1L117.2,22.1z M119.1,24.1
		c-0.4-0.2-0.5-0.7-0.3-1.1c0.2-0.4,0.7-0.5,1.1-0.3c0.4,0.2,0.5,0.7,0.3,1.1C120,24.2,119.5,24.3,119.1,24.1L119.1,24.1z
		 M121.8,24.8c-0.4,0-0.8-0.3-0.8-0.8c0-0.4,0.3-0.8,0.8-0.8c0.4,0,0.8,0.3,0.8,0.8C122.6,24.4,122.2,24.8,121.8,24.8L121.8,24.8z
		 M124.4,24.1c-0.4,0.2-0.8,0.1-1.1-0.3c-0.2-0.4-0.1-0.8,0.3-1.1c0.4-0.2,0.8-0.1,1.1,0.3C124.9,23.4,124.8,23.9,124.4,24.1
		L124.4,24.1z M126.4,22.1c-0.2,0.4-0.7,0.5-1.1,0.3c-0.4-0.2-0.5-0.7-0.3-1.1c0.2-0.4,0.7-0.5,1.1-0.3
		C126.5,21.3,126.6,21.8,126.4,22.1L126.4,22.1z M127.1,19.5c0,0.4-0.3,0.8-0.8,0.8c-0.4,0-0.8-0.3-0.8-0.8c0-0.4,0.3-0.8,0.8-0.8
		C126.7,18.7,127.1,19.1,127.1,19.5L127.1,19.5z M117.8,14.4c-0.8-1.3-1.8-2-2.8-2.5c0.2-0.4,0.3-0.8,0.1-1c0,0,0,0,0,0
		c1.5-1.2,3.4-2,5.5-2.3c0,0,0,0,0,0c0,0.3,0.3,0.5,0.7,0.6c-0.4,1-0.6,2.3-0.2,3.7C119.8,13.2,118.7,13.7,117.8,14.4L117.8,14.4z
		 M113.3,12.8C113.3,12.8,113.3,12.8,113.3,12.8c0.2,0.2,0.6,0.2,1,0c0.4,1,1.2,2,2.5,2.8c-0.7,0.9-1.2,2-1.3,3.2
		c-1.4-0.4-2.7-0.2-3.7,0.2c-0.1-0.4-0.4-0.7-0.6-0.7c0,0,0,0,0,0C111.2,16.2,112,14.3,113.3,12.8L113.3,12.8z M111,20.8
		C111,20.8,111,20.8,111,20.8c0.3,0,0.6-0.3,0.7-0.7c1,0.4,2.3,0.6,3.7,0.2c0.1,1.2,0.6,2.3,1.3,3.3c-1.3,0.8-2,1.8-2.5,2.8
		c-0.4-0.2-0.8-0.3-1-0.1c0,0,0,0,0,0C112,24.7,111.2,22.8,111,20.8L111,20.8z M115.1,28C115.1,28,115.1,28,115.1,28
		c0.2-0.2,0.2-0.6,0-1c1-0.4,2-1.2,2.8-2.5c0.9,0.7,2,1.2,3.3,1.3c-0.4,1.4-0.2,2.7,0.2,3.7c-0.4,0.1-0.7,0.4-0.7,0.6c0,0,0,0,0,0
		C118.5,30,116.6,29.2,115.1,28L115.1,28z M123.1,30.3C123.1,30.3,123.1,30.3,123.1,30.3c0-0.3-0.3-0.6-0.7-0.7
		c0.4-1,0.6-2.3,0.2-3.7c1.2-0.1,2.3-0.6,3.3-1.3c0.8,1.3,1.8,2,2.8,2.5c-0.2,0.4-0.3,0.8-0.1,1c0,0,0,0,0,0
		C127,29.2,125.1,30,123.1,30.3L123.1,30.3z M130.3,26.2C130.3,26.2,130.3,26.2,130.3,26.2c-0.2-0.2-0.6-0.2-1,0
		c-0.4-1-1.2-2-2.5-2.8c0.7-0.9,1.2-2,1.3-3.3c1.4,0.4,2.7,0.2,3.7-0.2c0.1,0.4,0.4,0.7,0.6,0.7c0,0,0,0,0,0
		C132.3,22.8,131.5,24.7,130.3,26.2L130.3,26.2z M132.6,18.2C132.6,18.2,132.5,18.2,132.6,18.2c-0.3,0-0.6,0.3-0.7,0.7
		c-1-0.4-2.3-0.6-3.7-0.2c-0.1-1.2-0.6-2.3-1.3-3.2c1.3-0.8,2-1.8,2.5-2.8c0.4,0.2,0.8,0.3,1,0.1c0,0,0,0,0,0
		C131.5,14.3,132.3,16.2,132.6,18.2L132.6,18.2z M128.5,11C128.5,11,128.5,11,128.5,11c-0.2,0.2-0.2,0.6,0,1c-1,0.4-2,1.2-2.8,2.5
		c-0.9-0.7-2-1.2-3.3-1.3c0.4-1.4,0.2-2.7-0.2-3.7c0.4-0.1,0.7-0.4,0.7-0.6c0,0,0,0,0,0C125.1,8.9,127,9.8,128.5,11z"/>
	<path class="st0" d="M83.2,21.4v-0.9h-0.2l-0.2,0.5c-0.2,0-0.3,0-0.5,0s-0.3,0-0.5,0v0c0,0,0.1,0,0.1-0.1c0,0,0-0.1,0-0.1
		c0-0.2,0-0.4,0-0.6c0-0.2,0-0.4,0-0.6h0.5l0.1,0.3h0.2c0-0.1,0-0.2,0-0.3c0-0.1,0-0.2,0-0.3c0-0.1,0-0.2,0-0.3h-0.2l-0.1,0.3h-0.5
		c0-0.2,0-0.5,0-0.7c0-0.2,0-0.5,0-0.7h0.7l0.2,0.5h0.3v-0.9c-0.2,0-0.4,0-0.7,0c-0.2,0-0.4,0-0.6,0c-0.2,0-0.4,0-0.7,0v0.1l0.2,0.1
		c0,0.5,0,1.1,0,1.6c0,0.5,0,1.1,0,1.6l-0.2,0.2v0.2c0.3,0,0.7,0,1,0C82.5,21.4,82.8,21.4,83.2,21.4L83.2,21.4z M85.6,20.6v-0.3H85
		v0.3c0,0.1,0,0.3,0.1,0.4c0.1,0.1,0.1,0.2,0.2,0.3c0.1,0.1,0.2,0.1,0.3,0.2c0.1,0,0.2,0,0.4,0c0.1,0,0.3,0,0.4,0
		c0.1,0,0.2-0.1,0.3-0.1c0.1-0.1,0.2-0.2,0.2-0.3c0.1-0.1,0.1-0.2,0.1-0.4v-0.5c0-0.1,0-0.3-0.1-0.4c-0.1-0.1-0.1-0.2-0.2-0.2
		c-0.1-0.1-0.2-0.1-0.3-0.2c-0.1,0-0.2-0.1-0.3-0.1c-0.1,0-0.2-0.1-0.3-0.1c-0.1,0-0.1-0.1-0.2-0.2c-0.1-0.1-0.1-0.1-0.1-0.2v-0.5
		c0-0.1,0-0.2,0.1-0.3c0.1-0.1,0.2-0.1,0.3-0.1c0.1,0,0.2,0,0.3,0.1c0.1,0.1,0.1,0.2,0.1,0.3v0.3h0.6c0-0.2,0-0.3,0-0.5
		c0-0.2,0-0.3,0-0.5h-0.4l0,0.2h0c-0.1-0.1-0.1-0.1-0.2-0.2c-0.1,0-0.1-0.1-0.2-0.1c-0.1,0-0.1,0-0.2,0c-0.1,0-0.2,0-0.3,0
		c-0.1,0-0.2,0.1-0.3,0.1c-0.1,0.1-0.1,0.1-0.2,0.2c0,0.1-0.1,0.2-0.1,0.4v0.5c0,0.1,0,0.3,0.1,0.3c0.1,0.1,0.1,0.2,0.2,0.2
		c0.1,0.1,0.2,0.1,0.3,0.2c0.1,0,0.2,0.1,0.3,0.1c0.1,0,0.2,0.1,0.3,0.1c0.1,0,0.1,0.1,0.2,0.2c0.1,0.1,0.1,0.2,0.1,0.3v0.5
		c0,0.1,0,0.2,0,0.2c0,0.1-0.1,0.1-0.1,0.2c-0.1,0-0.1,0.1-0.2,0.1c-0.1,0-0.2,0-0.3-0.1C85.6,20.9,85.6,20.8,85.6,20.6L85.6,20.6
		L85.6,20.6z M90.5,17.9l0.2,0.6H91l0-1h-2.2l0,1H89l0.2-0.6h0.4c0,1.1,0,2.1,0,3.2l-0.2,0.2v0.2c0.1,0,0.2,0,0.3,0
		c0.1,0,0.2,0,0.4,0c0.1,0,0.2,0,0.3,0v-0.2l-0.2-0.2c0-1.1,0-2.1,0-3.2H90.5L90.5,17.9z M92.7,17.5v0.2l0.2,0.2v3.2l-0.2,0.2v0.2
		h1.2c0.2,0,0.3,0,0.4-0.1c0.1,0,0.3-0.1,0.3-0.2c0.1-0.1,0.2-0.2,0.2-0.3c0.1-0.1,0.1-0.3,0.1-0.4v-1.9c0-0.2,0-0.4-0.1-0.6
		c-0.1-0.1-0.2-0.3-0.4-0.3c-0.2-0.1-0.4-0.1-0.6-0.1H92.7L92.7,17.5z M93.9,17.9c0.1,0,0.2,0,0.3,0.1c0.1,0.1,0.1,0.1,0.2,0.2
		c0,0.1,0,0.2,0,0.3v1.9c0,0.1,0,0.2,0,0.3c0,0.1-0.1,0.2-0.2,0.2c-0.1,0.1-0.2,0.1-0.3,0.1h-0.5l0,0c0,0,0.1,0,0.1-0.1
		c0,0,0-0.1,0-0.1v-3H93.9z"/>
	<path class="st0" d="M149.3,21c0-0.2,0-0.3,0.1-0.5c0-0.1,0.1-0.3,0.2-0.4c0.1-0.1,0.2-0.2,0.2-0.4c0.1-0.1,0.2-0.2,0.3-0.3
		c0.1-0.1,0.2-0.2,0.2-0.4c0.1-0.1,0.1-0.2,0.2-0.4c0-0.1,0.1-0.3,0.1-0.4c0-0.2,0-0.4-0.1-0.5c-0.1-0.1-0.2-0.2-0.3-0.3
		c-0.1-0.1-0.3-0.1-0.5-0.1c-0.2,0-0.3,0-0.4,0.1c-0.1,0.1-0.2,0.1-0.3,0.2c-0.1,0.1-0.1,0.2-0.1,0.3c0,0.1,0,0.3,0,0.4h0.6
		c0,0,0-0.1,0-0.2c0-0.1,0-0.1,0-0.2c0-0.1,0-0.1,0-0.2c0-0.1,0.1-0.1,0.1-0.1c0,0,0.1,0,0.2,0c0.1,0,0.1,0,0.2,0.1
		c0.1,0,0.1,0.1,0.1,0.2c0,0.1,0,0.2,0,0.2c0,0.1,0,0.3-0.1,0.4c0,0.1-0.1,0.3-0.2,0.4c-0.1,0.1-0.2,0.2-0.3,0.4
		c-0.1,0.1-0.2,0.2-0.3,0.4c-0.1,0.1-0.2,0.3-0.2,0.4c-0.1,0.1-0.1,0.3-0.2,0.4c0,0.2-0.1,0.3-0.1,0.5v0.2c0.3,0,0.6,0,1,0
		s0.6,0,1,0v-0.9h-0.2l-0.2,0.5H149.3L149.3,21z M152.5,18.5v1.9c0,0.2,0,0.4,0.1,0.5c0.1,0.2,0.2,0.3,0.4,0.4
		c0.2,0.1,0.3,0.1,0.6,0.1c0.2,0,0.4,0,0.6-0.1c0.2-0.1,0.3-0.2,0.4-0.3c0.1-0.2,0.1-0.3,0.1-0.6v-1.9c0-0.2,0-0.4-0.1-0.6
		c-0.1-0.2-0.2-0.3-0.4-0.3c-0.2-0.1-0.3-0.1-0.6-0.1c-0.2,0-0.4,0-0.6,0.1c-0.2,0.1-0.3,0.2-0.4,0.4
		C152.6,18.2,152.5,18.3,152.5,18.5L152.5,18.5z M153.1,18.5c0-0.1,0-0.1,0-0.2c0-0.1,0-0.1,0.1-0.2c0-0.1,0.1-0.1,0.1-0.2
		c0.1,0,0.1-0.1,0.2-0.1c0.1,0,0.2,0,0.2,0.1c0.1,0,0.1,0.1,0.1,0.1c0,0.1,0.1,0.1,0.1,0.2c0,0.1,0,0.2,0,0.2v1.9c0,0.1,0,0.2,0,0.2
		c0,0.1,0,0.2-0.1,0.2c0,0.1-0.1,0.1-0.1,0.1c-0.1,0-0.1,0.1-0.2,0.1c-0.1,0-0.2,0-0.2-0.1c-0.1,0-0.1-0.1-0.1-0.2
		c0-0.1-0.1-0.1-0.1-0.2c0-0.1,0-0.2,0-0.2V18.5L153.1,18.5z M156.6,18.5v1.9c0,0.2,0,0.4,0.1,0.5c0.1,0.2,0.2,0.3,0.4,0.4
		c0.2,0.1,0.3,0.1,0.6,0.1c0.2,0,0.4,0,0.6-0.1c0.2-0.1,0.3-0.2,0.4-0.3c0.1-0.2,0.1-0.3,0.1-0.6v-1.9c0-0.2,0-0.4-0.1-0.6
		c-0.1-0.2-0.2-0.3-0.4-0.3c-0.2-0.1-0.3-0.1-0.6-0.1c-0.2,0-0.4,0-0.6,0.1c-0.2,0.1-0.3,0.2-0.4,0.4
		C156.6,18.2,156.6,18.3,156.6,18.5L156.6,18.5z M157.2,18.5c0-0.1,0-0.1,0-0.2c0-0.1,0-0.1,0.1-0.2c0-0.1,0.1-0.1,0.1-0.2
		c0.1,0,0.1-0.1,0.2-0.1c0.1,0,0.2,0,0.2,0.1c0.1,0,0.1,0.1,0.1,0.1c0,0.1,0.1,0.1,0.1,0.2c0,0.1,0,0.2,0,0.2v1.9c0,0.1,0,0.2,0,0.2
		c0,0.1,0,0.2-0.1,0.2c0,0.1-0.1,0.1-0.1,0.1c-0.1,0-0.1,0.1-0.2,0.1c-0.1,0-0.2,0-0.2-0.1c-0.1,0-0.1-0.1-0.1-0.2
		c0-0.1-0.1-0.1-0.1-0.2c0-0.1,0-0.2,0-0.2V18.5L157.2,18.5z M161.2,21c0-0.2,0-0.3,0.1-0.5c0-0.1,0.1-0.3,0.2-0.4
		c0.1-0.1,0.2-0.2,0.2-0.4c0.1-0.1,0.2-0.2,0.3-0.3c0.1-0.1,0.2-0.2,0.2-0.4c0.1-0.1,0.1-0.2,0.2-0.4c0-0.1,0.1-0.3,0.1-0.4
		c0-0.2,0-0.4-0.1-0.5c-0.1-0.1-0.2-0.2-0.3-0.3c-0.1-0.1-0.3-0.1-0.5-0.1c-0.2,0-0.3,0-0.4,0.1c-0.1,0.1-0.2,0.1-0.3,0.2
		c-0.1,0.1-0.1,0.2-0.1,0.3c0,0.1,0,0.3,0,0.4h0.6c0,0,0-0.1,0-0.2c0-0.1,0-0.1,0-0.2c0-0.1,0-0.1,0-0.2c0-0.1,0.1-0.1,0.1-0.1
		c0,0,0.1,0,0.2,0c0.1,0,0.1,0,0.2,0.1c0.1,0,0.1,0.1,0.1,0.2c0,0.1,0,0.2,0,0.2c0,0.1,0,0.3-0.1,0.4c0,0.1-0.1,0.3-0.2,0.4
		c-0.1,0.1-0.2,0.2-0.3,0.4c-0.1,0.1-0.2,0.2-0.3,0.4c-0.1,0.1-0.2,0.3-0.2,0.4c-0.1,0.1-0.1,0.3-0.2,0.4c0,0.2-0.1,0.3-0.1,0.5v0.2
		c0.3,0,0.6,0,1,0c0.3,0,0.6,0,1,0v-0.9h-0.2L162,21H161.2z"/>
	<path class="st1" d="M91.1,102.8h61.4l-2.2,4.9l2.2,4.9H91.1l2.2-4.9L91.1,102.8L91.1,102.8z M99.8,110c0.6,0,1-0.1,1.3-0.4
		c0.2-0.2,0.3-0.5,0.3-0.8c0-0.3-0.1-0.5-0.2-0.7c-0.2-0.2-0.4-0.3-0.7-0.4c0.1,0,0.1-0.1,0.2-0.1c0,0,0.1-0.1,0.2-0.1
		c0.2-0.2,0.3-0.4,0.3-0.8c0-0.3-0.1-0.5-0.3-0.8c-0.1-0.1-0.3-0.2-0.5-0.3c-0.2-0.1-0.5-0.1-0.8-0.1h-1.7v4.4H99.8L99.8,110z
		 M98.9,107.3h0.5c0.3,0,0.5,0,0.6-0.1c0.1-0.1,0.2-0.2,0.2-0.4c0-0.2-0.1-0.3-0.2-0.4c-0.1-0.1-0.3-0.1-0.6-0.1h-0.5V107.3
		L98.9,107.3z M98.9,109.1h0.7c0.3,0,0.5,0,0.6-0.1c0.1-0.1,0.2-0.2,0.2-0.4c0-0.2-0.1-0.3-0.2-0.4c-0.1-0.1-0.4-0.1-0.7-0.1h-0.6
		V109.1L98.9,109.1z M108.1,107c0-0.5-0.1-0.9-0.4-1.1c-0.3-0.2-0.8-0.3-1.5-0.3h-1.7v4.4h1v-1.4h0.7l1,1.4h1.2l-1.1-1.6
		C107.8,108.2,108.1,107.7,108.1,107L108.1,107z M106.2,107.7c0.3,0,0.6-0.1,0.7-0.2c0.1-0.1,0.2-0.3,0.2-0.5s-0.1-0.4-0.2-0.5
		c-0.1-0.1-0.3-0.1-0.7-0.1h-0.7v1.3H106.2L106.2,107.7z M114.5,110h1l-1.9-4.4h-1l-1.9,4.4h1l0.4-1h1.8L114.5,110L114.5,110z
		 M113.1,106.9l-0.6,1.3h1.1L113.1,106.9L113.1,106.9z M121.4,105.5v2.8l-2.2-2.8h-0.9v4.4h1v-2.8l2.1,2.8h1v-4.4H121.4L121.4,105.5
		z M127.2,105.5h-1.6v4.4h1.5c0.8,0,1.5-0.2,1.9-0.6c0.4-0.4,0.6-0.9,0.6-1.6c0-0.7-0.2-1.2-0.6-1.6
		C128.6,105.7,128,105.5,127.2,105.5L127.2,105.5z M127.3,109.1c0.4,0,0.8-0.1,1-0.3c0.2-0.2,0.4-0.6,0.4-1c0-0.4-0.1-0.8-0.4-1
		c-0.2-0.2-0.6-0.3-1.1-0.3h-0.5v2.7H127.3L127.3,109.1z M136.4,109.1c-0.4,0-0.7-0.1-0.9-0.4c-0.2-0.2-0.4-0.6-0.4-1
		c0-0.4,0.1-0.7,0.4-1c0.3-0.2,0.6-0.4,0.9-0.4c0.5,0,0.8,0.2,1.2,0.6l0.6-0.7c-0.5-0.5-1.1-0.8-1.8-0.8c-0.6,0-1.2,0.2-1.6,0.7
		c-0.4,0.4-0.7,1-0.7,1.6c0,0.7,0.2,1.2,0.7,1.6c0.4,0.4,1,0.6,1.7,0.6c0.7,0,1.3-0.3,1.8-0.8l-0.6-0.6
		C137.3,108.9,136.9,109.1,136.4,109.1L136.4,109.1z M144.7,107.7c0-0.4-0.1-0.7-0.4-1c-0.3-0.3-0.6-0.4-0.9-0.4
		c-0.4,0-0.7,0.1-0.9,0.4c-0.3,0.3-0.4,0.6-0.4,1c0,0.4,0.1,0.7,0.4,1c0.3,0.3,0.6,0.4,0.9,0.4c0.4,0,0.7-0.1,0.9-0.4
		C144.5,108.5,144.7,108.1,144.7,107.7L144.7,107.7z M145,109.3c0.4-0.4,0.7-1,0.7-1.6c0-0.6-0.2-1.2-0.7-1.6
		c-0.4-0.4-1-0.7-1.6-0.7c-0.7,0-1.2,0.2-1.6,0.7c-0.4,0.4-0.7,1-0.7,1.6c0,0.6,0.2,1.2,0.7,1.6c0.4,0.4,1,0.7,1.6,0.7
		C144,110,144.5,109.8,145,109.3z"/>
	<path class="st1" d="M154,107c-0.4,0-0.8,0.3-0.8,0.8c0,0.4,0.3,0.8,0.8,0.8c0.4,0,0.8-0.3,0.8-0.8C154.7,107.3,154.4,107,154,107
		L154,107z M89.6,107c-0.4,0-0.8,0.3-0.8,0.8c0,0.4,0.3,0.8,0.8,0.8c0.4,0,0.8-0.3,0.8-0.8C90.4,107.3,90,107,89.6,107z"/>
</g>
</svg>
