<?xml version="1.0" encoding="utf-8"?>
<!-- Generator: Adobe Illustrator 21.1.0, SVG Export Plug-In . SVG Version: 6.00 Build 0)  -->
<svg version="1.1" id="Layer_1" xmlns="http://www.w3.org/2000/svg" xmlns:xlink="http://www.w3.org/1999/xlink" x="0px" y="0px"
	 viewBox="0 0 244 113" style="enable-background:new 0 0 244 113;" xml:space="preserve">
<style type="text/css">
	.st0{fill:#8C8C8C;}
	.st1{fill-rule:evenodd;clip-rule:evenodd;fill:#8C8C8C;}
</style>
<path class="st0" d="M49,59.2c-0.4,0-0.9,0.1-1.4,0.1H47l-2.1,9.8c-0.4,1.9-2,2.6-3.5,2.6c-0.9,0-1.7-0.2-2.1-0.5l5.7-25
	c0.4-1.8,1.9-2.5,3.3-2.5c0.7,0,1.4,0.2,1.9,0.5l-2.8,13.3c4.1-0.3,7.4-5.5,7.4-9.7c0-2.9-1.6-5.4-5.7-5.4c-6.8,0-9,3.5-9,6.5
	c0,1,0.3,1.8,0.8,2.3c-0.6,0.3-1.2,0.4-1.7,0.4c-2,0-3.3-1.8-3.3-3.8c0-4.7,6.2-7.4,14-7.4c7.1,0,9.8,3.2,9.8,7
	c0,3.7-2.5,7.8-6.2,10.1c0.7,5.3,2,10.4,4.5,10.4c1.2,0,2.8-0.9,3.8-1.7c-0.1-0.5-0.1-1.1-0.1-1.6c0-5.2,3.5-13.6,10.1-13.6
	c3.7,0,4.6,2,4.6,3.9c0,3.4-1.8,6.1-9.6,10.4c0.4,2.2,1.9,3,3.7,3c1.6,0,3.5-0.6,5.2-1.6l0-0.2c0.3-1.6,1.4-3.1,3.4-3.1
	c0.6,0,1.2,0.2,1.6,0.6c-0.5,0.6-0.8,1.6-0.8,2.5c0,1.8,1.2,2.7,2.5,2.7c1.5,0,3.2-1.2,3.2-3.2c0-3.1-6.6-2.7-6.6-8.7
	c0-3.2,2.2-6.2,6.9-6.2c3.4,0,5.1,1.3,5.1,3.9c0,2.3-1.3,3.4-2.8,3.3c-0.5,0-1.1-0.2-1.6-0.6c0.4-0.5,0.7-1.4,0.7-2.2
	c0-1.5-0.8-2.2-1.8-2.2c-1.1,0-2.3,1.1-2.3,3.3c0,4.3,6.6,3.3,6.6,8.4c0,3.9-2.3,6.8-8.2,6.8c-2.8,0-4.6-1.1-5.3-2.6
	c-2.4,1.7-5.1,2.6-7.6,2.6c-2.8,0-5.2-1.2-6.2-3.8c-2.1,2.2-4.5,3.8-6.8,3.8C51.3,71.7,49.6,65.2,49,59.2L49,59.2z M205.2,53.6
	l-2.4,11.3c-0.4,2,0.1,2.9,0.9,2.9c0.7,0,1.6-0.5,2.3-1.9c0.8,0,1.2,0.4,1.2,1.1c0,2.8-3.3,4.7-5.5,4.7c-1.5,0-3.5-0.7-3.9-3.1
	c-1.8,1.7-4.1,3.1-6.5,3.1c-2,0-4.1-1-3.1-5.7l1.7-8c0.4-1.7-0.2-2.4-1.1-2.4c-1.1,0-2.7,1-3.6,2.1l-2.5,11.5
	c-0.4,1.8-1.9,2.5-3.4,2.5c-0.7,0-1.4-0.2-1.9-0.5l0.4-2.1c-1.7,1.5-3.9,2.6-5.5,2.6c-1.9,0-3.8-0.9-3.7-4.1
	c-1.7,2.4-3.8,4.1-6.1,4.1c-4.2,0-5-4.2-5-6.8c0-7,4.5-14,10.1-14c1.8,0,3.1,0.4,4.1,1.3c0.7-0.8,1.7-1.2,2.7-1.2
	c0.7,0,1.4,0.2,1.9,0.5l-2.8,13.3c-0.5,2.3,0.2,3,1.2,3c1.3,0,2.7-0.7,3.7-1.6l2.3-10.6c0.2-0.6,0-1-0.4-1c-0.2,0-0.4,0.2-0.8,0.5
	c-0.5-0.3-0.8-1.6,0-2.2c1.4-1.1,2.8-1.9,4.5-1.9c1.4,0,2.3,0.7,1.9,2.2l-0.4,1.8c1.7-2.4,4.3-4,6.6-4c2.1,0,3.7,1.7,2.7,5.9l-2,9.2
	c-0.2,1.2,0.3,1.6,1.1,1.6c1.3,0,2.7-0.7,3.8-1.6c0-0.2,0.1-0.4,0.1-0.5l2.6-12.1h-2c-0.2-1.3,0.4-2.3,1.7-2.3h0.8l0.7-3.3
	c0.4-1.8,1.9-2.5,3.4-2.5c0.7,0,1.4,0.2,1.9,0.5l-1.1,5.3h2.9c0.2,1.3-0.4,2.3-1.7,2.3H205.2L205.2,53.6z M170.9,54.3L170.9,54.3
	c-0.7-0.2-1.3-0.3-1.9-0.3c-4.9,0-6.6,6.3-6.6,10.7c0,2,0.9,2.9,2.2,2.9c1.3,0,3-1,4.1-2.5L170.9,54.3L170.9,54.3z M150.6,55.5
	l0.4-2.2c0.3-1.5-0.5-2.2-1.9-2.2c-1.7,0-3.1,0.8-4.5,1.9c-0.8,0.6-0.5,1.9,0,2.2c0.4-0.3,0.6-0.5,0.8-0.5c0.4,0,0.5,0.4,0.4,1
	l-2.3,10.6c-1,0.8-2.5,1.6-3.7,1.6c-1,0-1.7-0.7-1.2-3l2.8-13.3c-0.5-0.3-1.2-0.5-1.9-0.5c-1.4,0-3,0.7-3.4,2.5L133.8,65
	c-1.1,1.3-2.3,2.1-3.7,2.1c-1.2,0-1.7-0.7-1.4-2.4l2.5-11.4c0.4-1.5-0.5-2.2-1.9-2.2c-1.7,0-3.1,0.8-4.5,1.9c-0.8,0.6-0.5,1.9,0,2.2
	c0.4-0.3,0.6-0.5,0.8-0.5c0.4,0,0.6,0.4,0.4,1l-1.9,8.2c-0.2,0.7-0.3,1.5-0.3,2.3c-1,0.9-2.5,1.6-3.8,1.6c-1,0-1.7-0.7-1.2-3
	l2.8-13.3c-0.5-0.3-1.2-0.5-1.9-0.5c-1,0-2.1,0.4-2.7,1.2c-1-0.9-2.3-1.3-4.1-1.3c-5.6,0-10.1,7-10.1,14c0,0.4,0,0.8,0.1,1.3
	c-1,0.9-2.5,1.7-3.8,1.7c-1,0-1.7-0.7-1.2-3l2.4-11.3h1.8c1.2,0,1.9-1,1.7-2.3h-2.9l1.1-5.3c-0.5-0.3-1.2-0.5-1.9-0.5
	c-1.4,0-3,0.7-3.4,2.5l-0.7,3.3H95c-1.2,0-1.9,1-1.7,2.3h2l-2.6,12.1c-0.9,4.4,0.7,5.9,3.1,5.9c2.5,0,5.4-1.6,7.3-3.6
	c0.6,1.9,1.9,3.6,4.6,3.6c2.3,0,4.4-1.7,6.1-4.1c0,3.2,1.8,4.1,3.7,4.1c1.9,0,4.5-1.5,6.3-3.3c0.4,1.8,1.5,3.3,4,3.3
	c2.3,0,4.3-1.9,5.9-4.5c-0.2,3.5,1.8,4.5,3.7,4.5c1.7,0,3.8-1.1,5.5-2.6l-0.4,2.1c0.5,0.3,1.2,0.5,1.9,0.5c1.4,0,3-0.7,3.4-2.5
	l0.5-2.4c2-9.3,3.9-11.1,5.3-11.1c0.8,0,1.2,0.4,1.2,1c0,0.5-0.2,1-0.4,1.2c0.4,0.1,0.8,0.2,1.2,0.2c2.1,0,3.2-2,3.2-3.8
	c0-1.6-1-3.2-2.9-3.2C154,51.1,152.2,52.2,150.6,55.5L150.6,55.5z M116.2,54.3L113.9,65c-1.1,1.5-2.8,2.5-4.1,2.5
	c-1.2,0-2.2-0.9-2.2-2.9c0-4.4,1.7-10.7,6.6-10.7C114.9,53.9,115.5,54,116.2,54.3L116.2,54.3L116.2,54.3z M66.7,63.5L66.7,63.5
	c3.9-2.5,6.6-5.3,6.6-7.9c0-0.9-0.5-1.6-1.2-1.6C68.1,54.1,66.8,60.7,66.7,63.5z"/>
<path class="st0" d="M77,82.4c-0.7,0-1.3,0-1.9,0c-0.6,0-1.3,0-1.9,0v0.3l0.4,0.3c0,1,0,2.1,0,3.1c0,1,0,2.1,0,3.1l-0.5,0.3v0.3
	c0.2,0,0.4,0,0.7,0c0.2,0,0.5,0,0.7,0c0.2,0,0.4,0,0.7,0v-0.3l-0.5-0.3c0-0.5,0-0.9,0-1.4c0-0.5,0-0.9,0-1.4h1.1L76,87h0.3
	c0-0.2,0-0.4,0-0.6c0-0.2,0-0.4,0-0.6c0-0.2,0-0.4,0-0.6H76l-0.3,0.6h-1.1c0-0.5,0-0.9,0-1.4c0-0.5,0-0.9,0-1.4h1.6l0.3,1.1H77V82.4
	L77,82.4z M86.1,84.3c0-0.4-0.1-0.7-0.3-1c-0.2-0.3-0.4-0.5-0.7-0.7c-0.3-0.2-0.7-0.2-1.1-0.2c-0.4,0-0.8,0.1-1.1,0.2
	c-0.3,0.2-0.6,0.4-0.7,0.7c-0.2,0.3-0.3,0.6-0.3,1V88c0,0.4,0.1,0.7,0.3,1c0.2,0.3,0.4,0.5,0.7,0.7c0.3,0.2,0.7,0.2,1.1,0.3
	c0.4,0,0.8-0.1,1.1-0.2c0.3-0.2,0.6-0.4,0.7-0.7c0.2-0.3,0.3-0.6,0.3-1V84.3L86.1,84.3z M83,84.3c0-0.4,0.1-0.7,0.2-0.9
	c0.2-0.2,0.4-0.3,0.8-0.3c0.2,0,0.4,0.1,0.6,0.2c0.2,0.1,0.3,0.3,0.3,0.5c0.1,0.2,0.1,0.4,0.1,0.6V88c0,0.2,0,0.3-0.1,0.5
	c0,0.2-0.1,0.3-0.2,0.4c-0.1,0.1-0.2,0.2-0.3,0.3c-0.1,0.1-0.3,0.1-0.5,0.1c-0.3,0-0.6-0.1-0.8-0.3C83,88.7,83,88.4,83,88V84.3
	L83,84.3z M95.6,84.3c0-0.4-0.1-0.7-0.3-1c-0.2-0.3-0.4-0.5-0.7-0.7c-0.3-0.2-0.7-0.2-1.1-0.2c-0.4,0-0.8,0.1-1.1,0.2
	c-0.3,0.2-0.6,0.4-0.7,0.7c-0.2,0.3-0.3,0.6-0.3,1V88c0,0.4,0.1,0.7,0.3,1c0.2,0.3,0.4,0.5,0.7,0.7c0.3,0.2,0.7,0.2,1.1,0.3
	c0.4,0,0.8-0.1,1.1-0.2c0.3-0.2,0.6-0.4,0.7-0.7c0.2-0.3,0.3-0.6,0.3-1V84.3L95.6,84.3z M92.4,84.3c0-0.4,0.1-0.7,0.2-0.9
	c0.2-0.2,0.4-0.3,0.8-0.3c0.2,0,0.4,0.1,0.6,0.2c0.2,0.1,0.3,0.3,0.3,0.5c0.1,0.2,0.1,0.4,0.1,0.6V88c0,0.2,0,0.3-0.1,0.5
	c0,0.2-0.1,0.3-0.2,0.4c-0.1,0.1-0.2,0.2-0.3,0.3c-0.1,0.1-0.3,0.1-0.5,0.1c-0.3,0-0.6-0.1-0.8-0.3c-0.2-0.2-0.2-0.5-0.2-0.9V84.3
	L92.4,84.3z M100.7,82.4v0.3l0.4,0.3v6.2l-0.5,0.3v0.3h2.3c0.3,0,0.6,0,0.9-0.1c0.3-0.1,0.5-0.2,0.7-0.4c0.2-0.2,0.3-0.4,0.4-0.6
	c0.1-0.2,0.2-0.5,0.2-0.9v-3.6c0-0.5-0.1-0.8-0.3-1.1c-0.2-0.3-0.4-0.5-0.7-0.6c-0.3-0.1-0.7-0.2-1.1-0.2H100.7L100.7,82.4z
	 M102.9,83.1c0.3,0,0.5,0.1,0.6,0.2c0.2,0.1,0.3,0.3,0.3,0.5c0.1,0.2,0.1,0.4,0.1,0.6v3.6c0,0.2,0,0.5-0.1,0.6
	c-0.1,0.2-0.2,0.3-0.3,0.5c-0.2,0.1-0.4,0.2-0.6,0.2h-0.9l0-0.1c0.1,0,0.1-0.1,0.2-0.1c0-0.1,0.1-0.1,0-0.2v-5.7H102.9L102.9,83.1z
	 M116,86.3h0.4v-0.7c-0.3,0-0.6,0-1,0c-0.4,0-0.8,0-1.3,0c-0.3,0-0.4-0.1-0.6-0.2c-0.1-0.1-0.2-0.3-0.2-0.6v-1c0-0.2,0-0.3,0.1-0.4
	c0.1-0.1,0.2-0.2,0.3-0.3c0.1-0.1,0.2-0.1,0.4-0.1c0.2,0,0.3,0,0.4,0.1c0.1,0.1,0.2,0.1,0.2,0.3c0,0.1,0.1,0.3,0.1,0.4v0.5h1.1v-0.5
	c0-0.3,0-0.5-0.1-0.7c-0.1-0.2-0.2-0.3-0.4-0.4c-0.2-0.1-0.3-0.2-0.6-0.2s-0.4-0.1-0.7-0.1c-0.2,0-0.4,0-0.7,0.1
	c-0.2,0.1-0.4,0.1-0.6,0.3c-0.2,0.1-0.3,0.3-0.4,0.5c-0.1,0.2-0.1,0.4-0.1,0.7v1c0,0.1,0,0.3,0.1,0.4c0.1,0.1,0.1,0.3,0.2,0.4
	c0.1,0.1,0.2,0.2,0.4,0.3c-0.3,0.1-0.5,0.2-0.6,0.5c-0.1,0.2-0.2,0.5-0.2,0.8v1.2c0,0.3,0,0.5,0.1,0.6c0.1,0.2,0.2,0.3,0.3,0.4
	c0.1,0.1,0.3,0.2,0.5,0.2c0.2,0.1,0.4,0.1,0.6,0.1c0.2,0,0.4,0,0.6,0h2.1v-0.3l-0.5-0.3c0-0.5,0-1,0-1.4C116,87.3,116,86.8,116,86.3
	L116,86.3L116,86.3z M113.3,87.1c0-0.3,0.1-0.5,0.2-0.7c0.1-0.1,0.4-0.2,0.6-0.2h0.8c0,0.4,0,0.9,0,1.3c0,0.4,0,0.9,0,1.3
	c0,0.1,0,0.1,0,0.2c0,0.1,0,0.1,0.1,0.1c0,0,0.1,0.1,0.1,0.1v0.1h-0.9c-0.2,0-0.4,0-0.5-0.1c-0.1-0.1-0.3-0.2-0.3-0.3
	c-0.1-0.1-0.1-0.3-0.1-0.5V87.1L113.3,87.1L113.3,87.1z M123.4,82.4v0.3l0.4,0.3v6.2l-0.5,0.3v0.3h2.3c0.3,0,0.6,0,0.9-0.1
	c0.3-0.1,0.5-0.2,0.7-0.4c0.2-0.2,0.3-0.4,0.4-0.6c0.1-0.2,0.2-0.5,0.2-0.9v-3.6c0-0.5-0.1-0.8-0.3-1.1c-0.2-0.3-0.4-0.5-0.7-0.6
	c-0.3-0.1-0.7-0.2-1.1-0.2H123.4L123.4,82.4z M125.6,83.1c0.3,0,0.5,0.1,0.6,0.2c0.2,0.1,0.3,0.3,0.3,0.5c0.1,0.2,0.1,0.4,0.1,0.6
	v3.6c0,0.2,0,0.5-0.1,0.6c-0.1,0.2-0.2,0.3-0.3,0.5c-0.1,0.1-0.4,0.2-0.6,0.2h-0.9l0-0.1c0.1,0,0.1-0.1,0.2-0.1c0-0.1,0.1-0.1,0-0.2
	v-5.7H125.6L125.6,83.1z M134.9,83.1c0.2,0,0.4,0,0.6,0.1c0.1,0.1,0.2,0.2,0.3,0.4c0.1,0.2,0.1,0.4,0.1,0.6v1c0,0.2,0,0.4-0.1,0.6
	c-0.1,0.2-0.2,0.3-0.3,0.4c-0.1,0.1-0.3,0.1-0.6,0.1h-0.7c0-0.3,0-0.6,0-0.8c0-0.3,0-0.5,0-0.7c0-0.2,0-0.5,0-0.7c0-0.3,0-0.5,0-0.8
	H134.9L134.9,83.1z M135.8,88.9c0.1,0.1,0.1,0.3,0.1,0.4c0,0.1,0.1,0.2,0.2,0.3c0.1,0.1,0.1,0.2,0.2,0.2c0.1,0.1,0.2,0.1,0.4,0.1
	c0.1,0,0.2,0,0.3,0c0.1,0,0.2,0,0.3,0c0.1,0,0.2,0,0.2-0.1v-0.4c-0.1,0-0.2,0-0.2,0c-0.1,0-0.1-0.1-0.2-0.2
	c-0.1-0.1-0.1-0.1-0.1-0.2c0-0.1-0.1-0.2-0.1-0.2l-0.5-1.4c0-0.1-0.1-0.2-0.1-0.3c0-0.1-0.1-0.2-0.2-0.2c-0.1-0.1-0.2-0.1-0.3-0.2
	c0.2,0,0.4-0.1,0.6-0.3c0.2-0.1,0.3-0.3,0.4-0.5c0.1-0.2,0.2-0.5,0.2-0.8v-1c0-0.3-0.1-0.6-0.2-0.8c-0.1-0.2-0.3-0.4-0.4-0.5
	c-0.2-0.1-0.4-0.2-0.7-0.3c-0.2-0.1-0.5-0.1-0.8-0.1h-2.1v0.3l0.4,0.3c0,1,0,2.1,0,3.1c0,1,0,2.1,0,3.1l-0.5,0.3v0.3
	c0.2,0,0.4,0,0.7,0c0.2,0,0.5,0,0.7,0c0.2,0,0.4,0,0.7,0v-0.3l-0.5-0.3c0-0.2,0-0.4,0-0.6c0-0.2,0-0.4,0-0.6c0-0.2,0-0.4,0-0.6
	c0-0.2,0-0.4,0-0.6c0.2,0,0.4,0,0.5,0.1c0.1,0,0.2,0.1,0.3,0.2c0.1,0.1,0.2,0.3,0.2,0.4L135.8,88.9L135.8,88.9z M143.6,83l0.4-0.3
	v-0.3h-1.9v0.3l0.4,0.3c0,1,0,2.1,0,3.1c0,1,0,2.1,0,3.1l-0.5,0.3v0.3c0.2,0,0.4,0,0.7,0c0.2,0,0.5,0,0.7,0s0.4,0,0.7,0v-0.3
	l-0.5-0.3c0-1,0-2.1,0-3.1C143.6,85.1,143.6,84.1,143.6,83L143.6,83z M150.1,89.2c0-0.8,0-1.5,0-2.3c0-0.8,0-1.5,0-2.3l-0.1-1.1l0,0
	l1.7,5.9c0,0.1,0.1,0.2,0.2,0.3c0.1,0.1,0.2,0.1,0.3,0.1h0.9c0-1.1,0-2.3,0-3.4c0-1.1,0-2.3,0-3.4l0.4-0.3v-0.3c-0.5,0-1,0-1.6,0
	v0.3l0.4,0.3v3.4c0,0.2,0,0.4,0,0.6c0,0.2,0,0.4,0,0.6c0,0.2,0,0.4,0,0.6h0l-0.5-2.1l-1-3.3c0-0.1-0.1-0.2-0.1-0.3
	c0-0.1-0.1-0.1-0.2-0.1c-0.1,0-0.2,0-0.4,0c-0.1,0-0.2,0-0.3,0c-0.1,0-0.2,0-0.3,0c-0.1,0-0.2,0-0.3,0c-0.1,0-0.2,0-0.3,0v0.3
	l0.4,0.3c0,1,0,2.1,0,3.1c0,1,0,2.1,0,3.1l-0.4,0.3v0.3c0.2,0,0.4,0,0.5,0c0.2,0,0.4,0,0.6,0c0.2,0,0.4,0,0.5,0v-0.3L150.1,89.2
	L150.1,89.2z M163,82.4c-0.1,0-0.3,0-0.4,0c-0.1,0-0.3,0-0.4,0c-0.1,0-0.3,0.1-0.4,0.1c-0.1,0.1-0.2,0.2-0.3,0.4
	c-0.1,0.2-0.2,0.3-0.2,0.5c-0.1,0.2-0.1,0.4-0.2,0.6c-0.1,0.2-0.1,0.4-0.2,0.6c-0.1,0.2-0.1,0.3-0.2,0.5c-0.1,0.1-0.2,0.3-0.3,0.3
	c-0.1,0.1-0.3,0.1-0.5,0.1V83l0.4-0.3v-0.3h-1.9v0.3l0.4,0.3c0,1,0,2.1,0,3.1c0,1,0,2.1,0,3.1l-0.5,0.3v0.3c0.2,0,0.4,0,0.7,0
	c0.2,0,0.5,0,0.7,0c0.2,0,0.5,0,0.7,0v-0.3l-0.5-0.3c0-0.5,0-1,0-1.5c0-0.5,0-1,0-1.5h0.3c0.2,0,0.4,0.1,0.5,0.2
	c0.1,0.1,0.2,0.2,0.3,0.4c0.1,0.2,0.1,0.4,0.2,0.6l0.3,1.5c0,0.2,0.1,0.4,0.2,0.5c0.1,0.2,0.2,0.3,0.3,0.4c0.1,0.1,0.3,0.1,0.5,0.1
	c0.1,0,0.1,0,0.2,0c0.1,0,0.2,0,0.3,0c0.1,0,0.2,0,0.2-0.1v-0.4c-0.1,0-0.2,0-0.3-0.1c-0.1-0.1-0.2-0.1-0.2-0.2
	c-0.1-0.1-0.1-0.2-0.1-0.3l-0.3-1.5c0-0.2-0.1-0.3-0.1-0.5c-0.1-0.2-0.1-0.3-0.2-0.4c-0.1-0.1-0.2-0.2-0.3-0.3
	c-0.1-0.1-0.2-0.1-0.4-0.1v0c0.1,0,0.2-0.1,0.2-0.2c0.1-0.1,0.1-0.2,0.2-0.4c0.1-0.2,0.1-0.3,0.2-0.5c0.1-0.2,0.1-0.3,0.2-0.5
	c0-0.2,0.1-0.3,0.1-0.5c0-0.1,0.1-0.3,0.1-0.4c0-0.1,0.1-0.2,0.1-0.3c0-0.1,0.1-0.1,0.2-0.2c0.1,0,0.2-0.1,0.3-0.1V82.4L163,82.4z
	 M169,88.3v-0.6h-1.2v0.6c0,0.3,0.1,0.5,0.2,0.7c0.1,0.2,0.2,0.4,0.4,0.5c0.2,0.1,0.4,0.2,0.6,0.3c0.2,0.1,0.5,0.1,0.7,0.1
	c0.3,0,0.5,0,0.7-0.1c0.2-0.1,0.4-0.2,0.6-0.3c0.2-0.1,0.3-0.3,0.4-0.5c0.1-0.2,0.2-0.5,0.2-0.7v-0.9c0-0.3-0.1-0.5-0.1-0.7
	c-0.1-0.2-0.2-0.3-0.4-0.5c-0.2-0.1-0.3-0.2-0.5-0.3c-0.2-0.1-0.4-0.2-0.6-0.2c-0.2-0.1-0.4-0.1-0.5-0.2c-0.2-0.1-0.3-0.2-0.4-0.3
	c-0.1-0.1-0.1-0.3-0.2-0.4v-0.9c0-0.3,0.1-0.5,0.2-0.6c0.1-0.1,0.3-0.2,0.6-0.2c0.3,0,0.4,0.1,0.6,0.2c0.1,0.1,0.2,0.3,0.2,0.6v0.5
	h1.1c0-0.3,0-0.7,0-1c0-0.3,0-0.7,0-1h-0.7l-0.1,0.4h0c-0.1-0.1-0.2-0.2-0.4-0.3c-0.1-0.1-0.3-0.1-0.4-0.1c-0.1,0-0.3,0-0.4,0
	c-0.2,0-0.4,0-0.6,0.1c-0.2,0.1-0.4,0.1-0.5,0.3c-0.2,0.1-0.3,0.3-0.4,0.5c-0.1,0.2-0.1,0.4-0.1,0.7v0.9c0,0.3,0.1,0.5,0.1,0.7
	c0.1,0.2,0.2,0.3,0.4,0.4c0.2,0.1,0.3,0.2,0.5,0.3c0.2,0.1,0.4,0.2,0.6,0.2c0.2,0.1,0.4,0.2,0.5,0.2c0.2,0.1,0.3,0.2,0.4,0.3
	c0.1,0.1,0.1,0.3,0.1,0.5v0.9c0,0.2,0,0.3-0.1,0.5c-0.1,0.1-0.1,0.2-0.3,0.3c-0.1,0.1-0.3,0.1-0.5,0.1c-0.2,0-0.4-0.1-0.6-0.2
	C169,88.9,169,88.7,169,88.3L169,88.3z"/>
<path class="st1" d="M47.4,85.8h20.3v0.8H47.4V85.8L47.4,85.8z M177,85.8h20.3v0.8H177V85.8z"/>
<path class="st1" d="M118.8,9.2C107.2,11,98.3,20.9,98.3,33h48c0-12.1-8.9-22-20.5-23.8V8.9c0-0.2-0.1-0.3-0.3-0.4
	c-1.1-0.1-2-1-2.2-2c0.6-0.4,1-1,1-1.8c0-1.1-0.9-2.1-2.1-2.1c-1.1,0-2.1,0.9-2.1,2.1c0,0.7,0.4,1.4,1,1.8c-0.2,1.1-1.1,1.9-2.2,2
	c-0.2,0-0.3,0.2-0.3,0.4V9.2L118.8,9.2z M97.1,34.3h50.5c0.8,0,1.5,0.7,1.5,1.5c0,0.8-0.7,1.5-1.5,1.5H97.1c-0.8,0-1.5-0.7-1.5-1.5
	C95.6,34.9,96.3,34.3,97.1,34.3z"/>
<path class="st1" d="M116.1,99.2c-0.8,0.8-0.5,2.3,0.6,3.4c2,2,2.3,0,3.8,1.7c0.3,0.4,0.6,0.7,1,1.1c-0.9,0.8-1.7,1.6-2.6,2.4
	c-1.1,1.1-1.2,1.7-0.9,2c0.3,0.3,0.9,0.2,2-0.9c0.8-0.8,1.6-1.6,2.3-2.5c0.8,0.9,1.5,1.7,2.3,2.5c1.1,1.1,1.7,1.2,2,0.9
	c0.3-0.3,0.2-0.9-0.9-2c-0.8-0.8-1.7-1.6-2.6-2.4c0.3-0.4,0.6-0.7,1-1.1c1.5-1.7,1.8,0.3,3.8-1.7c1.1-1.1,1.4-2.6,0.6-3.4
	c-0.8-0.8-2.3-0.5-3.4,0.6c-2,2,0,2.3-1.8,3.8c-0.4,0.3-0.8,0.7-1.1,1c-0.4-0.3-0.8-0.7-1.1-1c-1.8-1.5,0.3-1.8-1.8-3.8
	C118.4,98.8,116.8,98.5,116.1,99.2z"/>
<path class="st1" d="M142.6,104.7c-1,0-1.9-0.5-2.8-1c-0.5-0.3-0.9-0.5-1.5-0.8c-0.5-0.2-1.1-0.4-1.7-0.4c-0.8,0-1.6,0.1-2.1,0.5
	c-0.1,0.1-0.3,0.2-0.4,0.3c-0.6,0.1-1.1,0.2-1.5,0.4c-0.6,0.4-1.5,1.1-1.4,2c0,0.3,0.1,0.5,0.4,0.7c0.4,0.2,0.9,0.1,1.1-0.3
	c0.2-0.3,0.1-0.7-0.1-1c-0.1-0.1-0.1-0.3-0.1-0.4c0.1-0.7,1.8-0.6,2.2-0.6c1,0,1.9,0.5,2.8,1c0.5,0.3,0.9,0.5,1.5,0.8
	c0.5,0.2,1.1,0.4,1.7,0.4c0.8,0,1.6-0.1,2.1-0.4c0.1-0.1,0.3-0.2,0.4-0.3c0.6-0.1,1.1-0.2,1.5-0.4c0.6-0.4,1.5-1.1,1.4-2
	c0-0.3-0.1-0.5-0.4-0.7c-0.4-0.2-0.9-0.1-1.1,0.3c-0.2,0.3-0.1,0.7,0.1,1c0.1,0.1,0.1,0.3,0.1,0.4
	C144.7,104.7,143,104.7,142.6,104.7L142.6,104.7z M135.9,103.4c0.2,0,0.4,0,0.7,0c1,0,1.9,0.5,2.8,1c0.5,0.3,0.9,0.5,1.5,0.8
	c0.2,0.1,0.4,0.1,0.6,0.2c-0.2,0-0.4,0-0.7,0c-1,0-1.9-0.5-2.8-1c-0.5-0.3-0.9-0.5-1.5-0.8C136.3,103.5,136.1,103.4,135.9,103.4z"/>
<path class="st1" d="M100,104.7c1,0,1.9-0.5,2.8-1c0.5-0.3,0.9-0.5,1.5-0.8c0.5-0.2,1.1-0.4,1.7-0.4c0.8,0,1.6,0.1,2.1,0.5
	c0.1,0.1,0.3,0.2,0.4,0.3c0.6,0.1,1.1,0.2,1.5,0.4c0.6,0.4,1.5,1.1,1.4,2c0,0.3-0.1,0.5-0.4,0.7c-0.4,0.2-0.9,0.1-1.1-0.3
	c-0.2-0.3-0.1-0.7,0.1-1c0.1-0.1,0.1-0.3,0.1-0.4c-0.1-0.7-1.8-0.6-2.2-0.6c-1,0-1.9,0.5-2.8,1c-0.5,0.3-0.9,0.5-1.5,0.8
	c-0.5,0.2-1.1,0.4-1.7,0.4c-0.8,0-1.6-0.1-2.1-0.4c-0.1-0.1-0.3-0.2-0.4-0.3c-0.6-0.1-1.1-0.2-1.5-0.4c-0.6-0.4-1.5-1.1-1.4-2
	c0-0.3,0.1-0.5,0.4-0.7c0.4-0.2,0.9-0.1,1.1,0.3c0.2,0.3,0.1,0.7-0.1,1c-0.1,0.1-0.1,0.3-0.1,0.4C97.9,104.7,99.5,104.7,100,104.7
	L100,104.7z M106.7,103.4c-0.2,0-0.4,0-0.7,0c-1,0-1.9,0.5-2.8,1c-0.5,0.3-0.9,0.5-1.5,0.8c-0.2,0.1-0.4,0.1-0.6,0.2
	c0.2,0,0.4,0,0.7,0c1,0,1.9-0.5,2.8-1c0.5-0.3,0.9-0.5,1.5-0.8C106.3,103.5,106.5,103.4,106.7,103.4z"/>
</svg>
