<?xml version="1.0" encoding="utf-8"?>
<!-- Generator: Adobe Illustrator 21.1.0, SVG Export Plug-In . SVG Version: 6.00 Build 0)  -->
<svg version="1.0" id="Layer_1" xmlns="http://www.w3.org/2000/svg" xmlns:xlink="http://www.w3.org/1999/xlink" x="0px" y="0px"
	 viewBox="0 0 244 113" style="enable-background:new 0 0 244 113;" xml:space="preserve">
<style type="text/css">
	.st0{fill-rule:evenodd;clip-rule:evenodd;fill:#8C8C8C;}
	.st1{fill:#8C8C8C;}
</style>
<g>
	<path class="st0" d="M232.2,47.9c-0.3-3-1-6-1.8-9c-1.4-4.8-3.5-9.4-6.1-13.7c-1.5-2.4-2.6-3.7-5.3-4.7c-1.8-0.7-3.6-1-5.5-1.1
		c-3.4-0.3-7-0.3-10.4-0.9c-2.3-0.4-5-1.4-6.8-2.9c-0.4-0.3-2.4-2-1.8-2.7c0.3-0.4,0.9,0,1.3,0.2c0.5,0.3,1,0.6,1.6,0.9
		c1.9,1,4,1.6,6.2,1.9c1.5,0.2,3.1,0.2,4.6,0.2c1.9,0,3.7,0,5.6,0.1c1.5,0.1,3.1,0.3,4.6,0.6c-2-2.4-4.1-4.6-6.4-6.7
		c-2.6-2.4-5.4-4.5-8.3-6.5c-0.8-0.5-1.6-1.1-2.4-1.6c-0.4-0.2-1.2-0.7-1-1.3c0.2-0.6,1.2-0.2,1.6-0.1c0.9,0.3,1.9,0.8,2.8,1.2
		c3.2,1.6,6.4,3.8,9.2,6.1c4.2,3.4,8,7.5,11.2,11.9c2.7,3.7,5,7.8,6.9,12c0.2-1.1,0.4-2.2,0.7-3.4c0.8-3.4,1.7-7.6,1.1-11.1
		c-0.4-2.5-1.3-4.8-2.5-7c-0.3-0.6-0.7-1.3-1-1.9c-0.2-0.4-0.6-1-0.1-1.4c0.4-0.3,1,0.2,1.3,0.4c0.6,0.5,1.1,1.1,1.5,1.7
		c1.8,2.3,3,4.8,3.6,7.6c0.4,1.9,0.5,3.9,0.4,5.9c-0.1,2.1-0.5,4.3-0.9,6.4c-0.5,2.8-1,5.5-1.1,8.3c-0.1,3.4,0.8,6.6,1.1,9.9
		c0.4,4,0.4,8-0.1,11.9c-0.4,3.1-1.1,6.2-2,9.2c0.8-0.6,1.5-1.3,2.3-1.9c1.9-1.7,3.5-3.8,4.6-6.1c0.8-1.6,1.2-3.2,1.7-5
		c0.1-0.5,0.2-1,0.4-1.5c0.1-0.4,0.3-0.9,0.7-0.8c0.8,0.1,0.6,2.1,0.6,2.6c-0.1,1.9-0.6,3.8-1.2,5.6c-1,2.7-2.8,5.1-4.8,7.1
		c-2.5,2.4-5.3,3.7-6.8,7c-0.7,1.5-1.4,2.9-2.2,4.3c-1.8,3.2-4,6.2-6.5,8.8c-2.5,2.6-5.1,4.9-7.7,7.4c-4.7,4.4-9,9.4-11.6,15.4
		c-0.3,0.7-1.1,1.1-1.9,0.8l-0.7-0.3c-0.4-0.1-0.7-0.4-0.8-0.8c-0.2-0.4-0.2-0.8,0-1.1c0.7-1.7,1.6-3.4,2.5-5c1-1.7,1.7-2.7,2.3-4.6
		c1.2-3.5,1.8-7.6,1.3-11.2c-0.2-1.5-0.6-2.9-1-4.3c-0.2-0.5-0.7-1.9-0.1-2.3c0.4-0.2,0.8,0.1,1,0.3c0.3,0.3,0.6,0.7,0.9,1.1
		c0.9,1.4,1.5,3,1.9,4.5c0.6,2.4,0.8,4.9,0.5,7.3c0,0.1,0,0.2,0,0.3c1-1,1.9-1.9,2.9-2.9c3.8-3.6,7.9-7,11-11.3
		c2-2.7,1.4-5.5,0.6-8.5c-0.7-2.7-1.7-5.6-2-8.3c-0.2-2,0-4.2,0.8-6c0.2-0.4,1-2.4,1.8-2c0.5,0.2,0.3,0.8,0.2,1.1
		c-0.1,0.5-0.3,0.9-0.4,1.4c-0.4,1.7-0.4,3.4-0.1,5.2c0.4,2.6,1.5,5.4,2.3,7.9c0.3,0.9,0.5,1.8,0.7,2.7c2.6-5.2,4.5-10.9,5.2-16.7
		c0.4-2.9,0.7-4.7-0.8-7.3c-0.8-1.5-2-2.7-3.3-3.8c-2.4-2-5.2-3.9-7.2-6.3c-1.4-1.7-2.7-3.8-3.3-5.9c-0.1-0.5-0.8-2.8,0.1-3
		c0.5-0.1,0.7,0.4,0.9,0.8c0.2,0.5,0.5,1,0.7,1.5c0.8,1.8,2,3.4,3.4,4.8c1,1,2.1,1.8,3.2,2.7c1.4,1,2.7,2,4.1,3
		C230.7,46.4,231.5,47.1,232.2,47.9z"/>
	<path class="st0" d="M12,47.9c0.3-3,1-6,1.8-9c1.4-4.8,3.5-9.4,6.1-13.7c1.5-2.4,2.6-3.7,5.3-4.7c1.8-0.7,3.6-1,5.5-1.1
		c3.4-0.3,7-0.3,10.4-0.9c2.3-0.4,5-1.4,6.8-2.9c0.4-0.3,2.4-2,1.8-2.7c-0.3-0.4-0.9,0-1.3,0.2c-0.5,0.3-1,0.6-1.6,0.9
		c-1.9,1-4,1.6-6.2,1.9c-1.5,0.2-3.1,0.2-4.6,0.2c-1.9,0-3.7,0-5.6,0.1c-1.5,0.1-3.1,0.3-4.6,0.6c2-2.4,4.1-4.6,6.4-6.7
		c2.6-2.4,5.4-4.5,8.3-6.5c0.8-0.5,1.6-1.1,2.4-1.6c0.4-0.2,1.2-0.7,1-1.3c-0.2-0.6-1.2-0.2-1.6-0.1c-0.9,0.3-1.9,0.8-2.8,1.2
		c-3.2,1.6-6.4,3.8-9.2,6.1c-4.2,3.4-8,7.5-11.2,11.9c-2.7,3.7-5,7.8-6.9,12c-0.2-1.1-0.4-2.2-0.7-3.4c-0.8-3.4-1.7-7.6-1.1-11.1
		c0.4-2.5,1.3-4.8,2.5-7c0.3-0.6,0.7-1.3,1-1.9c0.2-0.4,0.6-1,0.1-1.4c-0.4-0.3-1,0.2-1.3,0.4c-0.6,0.5-1.1,1.1-1.5,1.7
		c-1.8,2.3-3,4.8-3.6,7.6c-0.4,1.9-0.5,3.9-0.4,5.9C7.6,25,8,27.2,8.4,29.3c0.5,2.8,1,5.5,1.1,8.3c0.1,3.4-0.8,6.6-1.1,9.9
		c-0.4,4-0.4,8,0.1,11.9c0.4,3.1,1.1,6.2,2,9.2c-0.8-0.6-1.5-1.3-2.3-1.9c-1.9-1.7-3.5-3.8-4.6-6.1c-0.8-1.6-1.3-3.2-1.7-5
		c-0.1-0.5-0.2-1-0.4-1.5c-0.1-0.4-0.3-0.9-0.7-0.8C0,53.5,0.2,55.5,0.3,56c0.1,1.9,0.6,3.8,1.2,5.6c1,2.7,2.8,5.1,4.8,7.1
		c2.5,2.4,5.3,3.7,6.8,7c0.7,1.5,1.5,2.9,2.2,4.3c1.8,3.2,4,6.2,6.5,8.8c2.5,2.6,5.1,4.9,7.7,7.4c4.7,4.4,9.1,9.4,11.6,15.4
		c0.3,0.7,1.1,1.1,1.9,0.8l0.7-0.3c0.4-0.1,0.7-0.4,0.8-0.8c0.2-0.4,0.2-0.8,0-1.1c-0.7-1.7-1.6-3.4-2.5-5c-1-1.7-1.7-2.7-2.3-4.6
		c-1.2-3.5-1.8-7.6-1.3-11.2c0.2-1.5,0.6-2.9,1-4.3c0.2-0.5,0.7-1.9,0.1-2.3c-0.4-0.2-0.8,0.1-1,0.3c-0.3,0.3-0.6,0.7-0.9,1.1
		c-0.9,1.4-1.5,3-1.9,4.5c-0.6,2.4-0.8,4.9-0.5,7.3c0,0.1,0,0.2,0,0.3c-1-1-1.9-1.9-2.9-2.9c-3.8-3.6-7.9-7-11-11.3
		c-2-2.7-1.4-5.5-0.6-8.5c0.7-2.7,1.7-5.6,2-8.3c0.2-2,0-4.2-0.8-6c-0.2-0.4-1-2.4-1.8-2c-0.5,0.2-0.3,0.8-0.2,1.1
		c0.1,0.5,0.3,0.9,0.4,1.4c0.4,1.7,0.4,3.4,0.1,5.2c-0.4,2.6-1.5,5.4-2.3,7.9c-0.3,0.9-0.5,1.8-0.7,2.7c-2.6-5.2-4.5-10.9-5.2-16.7
		c-0.4-2.9-0.7-4.7,0.8-7.3c0.8-1.5,2-2.7,3.3-3.8c2.4-2,5.2-3.9,7.2-6.3c1.4-1.7,2.7-3.8,3.3-5.9c0.1-0.5,0.8-2.8-0.1-3
		c-0.5-0.1-0.7,0.4-0.9,0.8c-0.2,0.5-0.5,1-0.7,1.5c-0.8,1.8-2,3.4-3.4,4.8c-1,1-2.1,1.8-3.2,2.7c-1.4,1-2.7,2-4.1,3
		C13.5,46.4,12.7,47.1,12,47.9z"/>
</g>
<path class="st1" d="M89.6,106.5c0,0.5-0.1,0.9-0.3,1.3c-0.2,0.4-0.4,0.8-0.7,1.1c-0.3,0.3-0.7,0.6-1.1,0.7
	c-0.4,0.2-0.9,0.3-1.3,0.3c-0.5,0-0.9-0.1-1.3-0.3c-0.4-0.2-0.8-0.4-1.1-0.7c-0.3-0.3-0.6-0.7-0.8-1.1c-0.2-0.4-0.3-0.8-0.3-1.3
	c0-0.5,0.1-0.9,0.3-1.3c0.2-0.4,0.4-0.8,0.8-1.1c0.3-0.3,0.7-0.6,1.1-0.7c0.4-0.2,0.9-0.3,1.3-0.3c0.5,0,0.9,0.1,1.3,0.3
	c0.4,0.2,0.8,0.4,1.1,0.7c0.3,0.3,0.6,0.7,0.7,1.1C89.5,105.6,89.6,106,89.6,106.5L89.6,106.5z M86.2,108.4c0.5,0,0.9-0.2,1.2-0.5
	c0.3-0.4,0.5-0.8,0.5-1.3c0-0.5-0.2-1-0.5-1.3c-0.3-0.4-0.7-0.5-1.2-0.5c-0.5,0-0.9,0.2-1.2,0.5c-0.3,0.4-0.5,0.8-0.5,1.3
	c0,0.5,0.2,1,0.5,1.4C85.3,108.2,85.7,108.4,86.2,108.4L86.2,108.4z M92.6,109.7v-6.4h1.8c0.7,0,1.2,0,1.5,0.1
	c0.3,0.1,0.5,0.2,0.7,0.3c0.2,0.2,0.4,0.4,0.5,0.7c0.1,0.3,0.2,0.6,0.2,0.9c0,0.5-0.1,0.9-0.4,1.2c-0.2,0.3-0.6,0.5-1.1,0.6l1.7,2.6
	h-2l-1.5-2.5v2.5H92.6L92.6,109.7z M94.3,106.3h0.3c0.4,0,0.6-0.1,0.8-0.2c0.2-0.1,0.3-0.3,0.3-0.6c0-0.3-0.1-0.5-0.2-0.7
	c-0.2-0.1-0.4-0.2-0.8-0.2h-0.3V106.3L94.3,106.3z M100.3,109.7v-6.4h1.8v6.4H100.3L100.3,109.7z M108.5,107.3V106h3.4
	c0,0,0,0.1,0,0.1c0,0.1,0,0.1,0,0.2c0,1.1-0.3,2-0.9,2.6c-0.6,0.6-1.4,0.9-2.5,0.9c-0.5,0-1-0.1-1.4-0.2c-0.4-0.2-0.8-0.4-1.1-0.7
	c-0.3-0.3-0.5-0.7-0.7-1.1c-0.2-0.4-0.3-0.9-0.3-1.3c0-0.5,0.1-0.9,0.2-1.3c0.2-0.4,0.4-0.8,0.7-1.1c0.3-0.3,0.7-0.5,1.1-0.7
	c0.4-0.2,0.9-0.2,1.3-0.2c0.6,0,1.2,0.1,1.7,0.4c0.5,0.2,0.9,0.6,1.2,1.1l-1.5,0.7c-0.2-0.3-0.4-0.4-0.6-0.6
	c-0.2-0.1-0.5-0.2-0.8-0.2c-0.5,0-0.9,0.2-1.2,0.5c-0.3,0.4-0.5,0.8-0.5,1.4c0,0.6,0.2,1.1,0.5,1.4c0.3,0.3,0.7,0.5,1.2,0.5
	c0.4,0,0.8-0.1,1.1-0.3c0.3-0.2,0.5-0.5,0.5-0.9H108.5L108.5,107.3z M115,109.7v-6.4h1.8v6.4H115L115,109.7z M120.1,109.7v-6.4h1.7
	l2.4,3.3c0,0.1,0.1,0.2,0.2,0.4c0.1,0.2,0.2,0.4,0.4,0.7c0-0.3-0.1-0.5-0.1-0.7c0-0.2,0-0.4,0-0.6v-3.2h1.7v6.4h-1.7l-2.4-3.3
	c0-0.1-0.1-0.2-0.2-0.4c-0.1-0.2-0.2-0.4-0.3-0.7c0,0.3,0.1,0.5,0.1,0.7c0,0.2,0,0.4,0,0.5v3.2H120.1L120.1,109.7z M131.3,107.3h1.7
	l-0.7-2.1c0-0.1,0-0.2-0.1-0.3c0-0.1-0.1-0.3-0.1-0.6c0,0.2-0.1,0.3-0.1,0.5c0,0.1-0.1,0.3-0.1,0.4L131.3,107.3L131.3,107.3z
	 M128.9,109.7l2.2-6.4h2.2l2.2,6.4h-1.7l-0.3-1.1h-2.5l-0.3,1.1H128.9L128.9,109.7z M138,109.7v-6.4h1.7v4.9h2.2v1.5H138L138,109.7z
	 M152.2,103.5v1.9c-0.2-0.3-0.5-0.5-0.7-0.6s-0.5-0.2-0.8-0.2c-0.5,0-0.9,0.2-1.2,0.5c-0.3,0.3-0.5,0.8-0.5,1.3
	c0,0.5,0.2,0.9,0.5,1.3c0.3,0.3,0.7,0.5,1.2,0.5c0.3,0,0.5-0.1,0.8-0.2c0.2-0.1,0.5-0.3,0.7-0.6v1.9c-0.3,0.1-0.6,0.2-0.8,0.3
	c-0.3,0.1-0.6,0.1-0.8,0.1c-0.4,0-0.7,0-1-0.1c-0.3-0.1-0.6-0.2-0.8-0.4c-0.5-0.3-0.8-0.7-1.1-1.2c-0.3-0.5-0.4-1-0.4-1.6
	c0-0.5,0.1-0.9,0.2-1.3c0.2-0.4,0.4-0.8,0.7-1.1c0.3-0.3,0.6-0.5,1-0.7c0.4-0.2,0.8-0.2,1.3-0.2c0.3,0,0.6,0,0.8,0.1
	C151.6,103.3,151.9,103.4,152.2,103.5L152.2,103.5z M161.6,106.5c0,0.5-0.1,0.9-0.3,1.3c-0.2,0.4-0.4,0.8-0.7,1.1
	c-0.3,0.3-0.7,0.6-1.1,0.7c-0.4,0.2-0.9,0.3-1.3,0.3c-0.5,0-0.9-0.1-1.3-0.3c-0.4-0.2-0.8-0.4-1.1-0.7c-0.3-0.3-0.6-0.7-0.8-1.1
	c-0.2-0.4-0.3-0.8-0.3-1.3c0-0.5,0.1-0.9,0.3-1.3c0.2-0.4,0.4-0.8,0.8-1.1c0.3-0.3,0.7-0.6,1.1-0.7c0.4-0.2,0.9-0.3,1.3-0.3
	c0.5,0,0.9,0.1,1.3,0.3c0.4,0.2,0.8,0.4,1.1,0.7c0.3,0.3,0.6,0.7,0.7,1.1C161.6,105.6,161.6,106,161.6,106.5L161.6,106.5z
	 M158.2,108.4c0.5,0,0.9-0.2,1.2-0.5c0.3-0.4,0.5-0.8,0.5-1.3c0-0.5-0.2-1-0.5-1.3c-0.3-0.4-0.7-0.5-1.2-0.5c-0.5,0-0.9,0.2-1.2,0.5
	c-0.3,0.4-0.5,0.8-0.5,1.3c0,0.5,0.2,1,0.5,1.4C157.3,108.2,157.7,108.4,158.2,108.4z"/>
<path class="st0" d="M45.5,43.6h153.4v1H45.5V43.6L45.5,43.6z M45.5,91.9h153.4v1H45.5V91.9z"/>
<path class="st1" d="M45.2,82.5h7.1c2.2,0,3.9-0.6,5-1.8c1.1-1.2,1.7-2.9,1.7-5.2V61c0-2.3-0.5-4-1.7-5.2c-1.1-1.2-2.8-1.8-5-1.8
	h-7.1V82.5L45.2,82.5z M52.2,58c0.5,0,0.9,0.1,1.2,0.3c0.3,0.2,0.6,0.5,0.8,0.9c0.2,0.4,0.3,0.9,0.3,1.6v14.8c0,0.7-0.1,1.2-0.3,1.6
	c-0.2,0.4-0.4,0.7-0.8,0.9c-0.3,0.2-0.8,0.3-1.2,0.3h-2.5V58H52.2L52.2,58z M70.7,58h7.7V54H66.2v28.5h12.2v-4.1h-7.7v-8.4h6.2V66
	h-6.2V58L70.7,58z M90.1,58h7.7V54H85.6v28.5h12.2v-4.1h-7.7v-8.4h6.2V66h-6.2V58L90.1,58z M119,82.5c-0.2-0.5-0.4-1.1-0.4-1.6
	c-0.1-0.6-0.1-1.2-0.1-1.9v-4.4c0-1-0.1-1.9-0.3-2.7c-0.2-0.8-0.5-1.5-0.9-2.1c-0.4-0.6-1-1-1.8-1.3c1-0.5,1.7-1.2,2.2-2.1
	c0.5-1,0.7-2.2,0.7-3.6v-2.2c0-1.5-0.2-2.7-0.7-3.7c-0.5-1-1.2-1.7-2.2-2.2c-1-0.5-2.2-0.7-3.8-0.7H105v28.5h4.5V70.9h1.5
	c0.7,0,1.2,0.1,1.7,0.4c0.4,0.2,0.8,0.6,1,1.2c0.2,0.5,0.3,1.2,0.3,2.1V79c0,0.6,0,1.1,0,1.4c0,0.4,0,0.7,0.1,0.9
	c0,0.2,0.1,0.4,0.1,0.6c0,0.2,0.1,0.4,0.2,0.5H119L119,82.5z M111.7,58c0.8,0,1.4,0.2,1.7,0.7c0.4,0.5,0.5,1.2,0.5,2.2v2.8
	c0,0.8-0.1,1.4-0.3,1.8c-0.2,0.4-0.5,0.8-0.9,1c-0.4,0.2-0.9,0.3-1.4,0.3h-1.8V58H111.7L111.7,58z M139.8,82.5
	c-0.2-0.5-0.4-1.1-0.4-1.6c-0.1-0.6-0.1-1.2-0.1-1.9v-4.4c0-1-0.1-1.9-0.3-2.7c-0.2-0.8-0.5-1.5-0.9-2.1c-0.4-0.6-1-1-1.8-1.3
	c1-0.5,1.7-1.2,2.2-2.1c0.5-1,0.7-2.2,0.7-3.6v-2.2c0-1.5-0.2-2.7-0.7-3.7c-0.5-1-1.2-1.7-2.2-2.2c-1-0.5-2.2-0.7-3.8-0.7h-6.8v28.5
	h4.5V70.9h1.5c0.7,0,1.2,0.1,1.7,0.4c0.4,0.2,0.8,0.6,1,1.2c0.2,0.5,0.3,1.2,0.3,2.1V79c0,0.6,0,1.1,0,1.4c0,0.4,0,0.7,0.1,0.9
	c0,0.2,0.1,0.4,0.1,0.6c0,0.2,0.1,0.4,0.2,0.5H139.8L139.8,82.5z M132.5,58c0.8,0,1.4,0.2,1.7,0.7c0.4,0.5,0.6,1.2,0.5,2.2v2.8
	c0,0.8-0.1,1.4-0.3,1.8c-0.2,0.4-0.5,0.8-0.9,1c-0.4,0.2-0.9,0.3-1.4,0.3h-1.8V58H132.5L132.5,58z M151.1,58h7.7V54h-12.2v28.5h12.2
	v-4.1h-7.7v-8.4h6.2V66h-6.2V58L151.1,58z M170.5,58h7.7V54H166v28.5h12.2v-4.1h-7.7v-8.4h6.2V66h-6.2V58L170.5,58z M185.4,82.5h7.1
	c2.2,0,3.9-0.6,5-1.8c1.1-1.2,1.7-2.9,1.7-5.2V61c0-2.3-0.6-4-1.7-5.2c-1.1-1.2-2.8-1.8-5-1.8h-7.1V82.5L185.4,82.5z M192.5,58
	c0.5,0,0.9,0.1,1.2,0.3c0.3,0.2,0.6,0.5,0.8,0.9c0.2,0.4,0.3,0.9,0.3,1.6v14.8c0,0.7-0.1,1.2-0.3,1.6c-0.2,0.4-0.4,0.7-0.8,0.9
	c-0.3,0.2-0.8,0.3-1.2,0.3h-2.5V58H192.5z"/>
<path class="st0" d="M165.7,106.3l1.6-0.5l12.8,0.5c0.1,0,0.2,0.1,0.2,0.2c0,0.1-0.1,0.2-0.2,0.2l-12.8,0.5l-1.6-0.5
	c-0.1,0-0.1-0.1-0.1-0.2C165.5,106.4,165.6,106.4,165.7,106.3L165.7,106.3z M78.7,106.3l-1.6-0.5l-12.8,0.5c-0.1,0-0.2,0.1-0.2,0.2
	c0,0.1,0.1,0.2,0.2,0.2l12.8,0.5l1.6-0.5c0.1,0,0.1-0.1,0.1-0.2C78.9,106.4,78.8,106.4,78.7,106.3z"/>
<path class="st1" d="M132.6,23.3c-0.1-0.2-0.2-0.3-0.4-0.3l0,0l-7.3,0l-2.3-7c-0.1-0.2-0.2-0.3-0.4-0.3c-0.2,0-0.4,0.1-0.4,0.3
	l-2.3,7l-7.3,0l0,0c-0.2,0-0.4,0.1-0.4,0.3c-0.1,0.2,0,0.4,0.2,0.5l5.9,4.3l-2.3,7c-0.1,0.2,0,0.4,0.2,0.5c0.2,0.1,0.4,0.1,0.5,0
	l5.9-4.3l5.9,4.3c0.1,0.1,0.2,0.1,0.3,0.1c0.1,0,0.2,0,0.3-0.1c0.2-0.1,0.2-0.3,0.2-0.5l-2.3-7l5.9-4.3
	C132.6,23.7,132.7,23.5,132.6,23.3L132.6,23.3z M158.3,28.6c0-0.1-0.1-0.2-0.2-0.2l0,0l-4.2,0l-1.3-4c0-0.1-0.1-0.2-0.2-0.2
	c-0.1,0-0.2,0.1-0.2,0.2l-1.3,4l-4.2,0h0c-0.1,0-0.2,0.1-0.2,0.2c0,0.1,0,0.2,0.1,0.3l3.4,2.5l-1.3,4c0,0.1,0,0.2,0.1,0.3
	c0.1,0.1,0.2,0.1,0.3,0l3.4-2.5l3.4,2.5c0,0,0.1,0,0.1,0c0.1,0,0.1,0,0.1,0c0.1-0.1,0.1-0.2,0.1-0.3l-1.3-4l3.4-2.5
	C158.3,28.8,158.3,28.7,158.3,28.6L158.3,28.6z M98.1,28.6c0-0.1-0.1-0.2-0.2-0.2l0,0l-4.2,0l-1.3-4c0-0.1-0.1-0.2-0.2-0.2
	c-0.1,0-0.2,0.1-0.2,0.2l-1.3,4l-4.2,0l0,0c-0.1,0-0.2,0.1-0.2,0.2c0,0.1,0,0.2,0.1,0.3l3.4,2.5l-1.3,4c0,0.1,0,0.2,0.1,0.3
	c0.1,0.1,0.2,0.1,0.3,0l3.4-2.5l3.4,2.5c0,0,0.1,0,0.1,0c0.1,0,0.1,0,0.1,0c0.1-0.1,0.1-0.2,0.1-0.3l-1.3-4l3.4-2.5
	C98.1,28.8,98.1,28.7,98.1,28.6z"/>
</svg>
